<?xml version="1.0" encoding="utf-8"?>
<!-- Generator: Adobe Illustrator 24.0.1, SVG Export Plug-In . SVG Version: 6.00 Build 0)  -->
<svg version="1.1" id="Layer_1" xmlns="http://www.w3.org/2000/svg" xmlns:xlink="http://www.w3.org/1999/xlink" x="0px" y="0px"
	 viewBox="0 0 9080 1758" style="enable-background:new 0 0 9080 1758;" xml:space="preserve">
<style type="text/css">
	.st0{opacity:0.2;fill:#E26C65;enable-background:new    ;}
	.st1{fill:#302E2E;}
	.st2{font-family:'PlayfairDisplay-Bold';}
	.st3{font-size:26.0676px;}
	.st4{fill:none;stroke:#302E2E;stroke-width:13.4033;stroke-miterlimit:5.1551;}
	.st5{fill:none;stroke:#A5A5A5;stroke-width:1.5465;stroke-miterlimit:5.1551;}
	.st6{fill:#A5A5A5;}
	.st7{opacity:0.2;fill:#302E2E;enable-background:new    ;}
	.st8{fill:none;}
</style>
<rect x="329.2" y="1120" class="st0" width="54.1" height="10.4"/>
<text transform="matrix(1 0 0 1 328.6602 1122.8066)" class="st1 st2 st3">1990</text>
<g>
	<path class="st4" d="M99-1791.4c128.8,0,128.8,1031,257.6,1031s128.8-1031,257.6-1031s128.8,1031,257.6,1031s128.8-1031,257.6-1031
		s128.8,1031,257.6,1031s128.8-1031,257.6-1031s128.8,1031,257.6,1031s128.8-1031,257.6-1031s128.8,1031,257.6,1031
		s128.8-1031,257.6-1031s128.8,1031,257.6,1031s128.8-1031,257.6-1031s128.8,1031,257.6,1031s128.8-1031,257.6-1031
		s128.8,1031,257.6,1031s128.8-1031,257.6-1031s128.8,1031,257.6,1031c128.8,0,128.8-1031,257.6-1031c128.8,0,128.8,1031,257.6,1031
		c128.8,0,128.8-1031,257.6-1031s128.8,1031,257.6,1031c128.8,0,128.8-1031,257.6-1031c128.8,0,128.8,1031,257.6,1031
		c128.8,0,128.8-1031,257.6-1031c128.8,0,128.8,1031,257.6,1031c128.8,0,128.8-1031,257.6-1031c128.8,0,128.8,1031,257.6,1031
		c128.8,0,128.8-1031,257.6-1031s128.8,1031,257.6,1031c128.8,0,128.8-1031,257.6-1031s128.8,1031,257.6,1031"/>
</g>
<g>
	<path class="st5" d="M98.5,671.8c128.7,0,128.7,412.4,257.4,412.4s128.7-412.4,257.5-412.4s128.7,412.4,257.5,412.4
		c128.7,0,128.7-412.4,257.4-412.4s128.7,412.4,257.4,412.4s128.7-412.4,257.4-412.4s128.7,412.4,257.4,412.4
		s128.7-412.4,257.5-412.4c128.7,0,128.7,412.4,257.4,412.4s128.7-412.4,257.4-412.4s128.7,412.4,257.5,412.4
		c128.7,0,128.7-412.4,257.4-412.4s128.7,412.4,257.4,412.4s128.7-412.4,257.4-412.4s128.7,412.4,257.5,412.4
		c128.7,0,128.7-412.4,257.5-412.4c128.7,0,128.7,412.4,257.5,412.4c128.7,0,128.7-412.4,257.5-412.4
		c128.7,0,128.7,412.4,257.5,412.4s128.7-412.4,257.5-412.4c128.7,0,128.7,412.4,257.5,412.4c128.7,0,128.7-412.4,257.5-412.4
		s128.7,412.4,257.5,412.4c128.7,0,128.7-412.4,257.5-412.4c128.7,0,128.7,412.4,257.5,412.4c128.7,0,128.7-412.4,257.5-412.4
		c128.7,0,128.7,412.4,257.5,412.4s128.7-412.4,257.5-412.4c128.7,0,128.7,412.4,257.5,412.4c128.7,0,128.7-412.4,257.5-412.4
		c128.7,0,128.7,412.4,257.5,412.4"/>
</g>
<circle class="st6" cx="102.2" cy="672.4" r="9.4"/>
<circle class="st6" cx="355.1" cy="1084" r="9.4"/>
<circle class="st6" cx="614.3" cy="670.7" r="9.4"/>
<circle class="st6" cx="870.6" cy="1083.1" r="9.4"/>
<circle class="st6" cx="1129.1" cy="671.5" r="9.4"/>
<circle class="st6" cx="1386.1" cy="1084.4" r="9.4"/>
<circle class="st6" cx="1645.2" cy="672" r="9.4"/>
<circle class="st6" cx="1900.9" cy="1084.2" r="9.4"/>
<circle class="st6" cx="2159.2" cy="671.5" r="9.4"/>
<circle class="st6" cx="2415.3" cy="1083.8" r="9.4"/>
<circle class="st6" cx="2673.7" cy="671.5" r="9.4"/>
<circle class="st6" cx="2930.1" cy="1083.9" r="9.4"/>
<circle class="st6" cx="3189.8" cy="671.9" r="9.4"/>
<circle class="st6" cx="3444.7" cy="1083.2" r="9.4"/>
<circle class="st6" cx="3705.1" cy="672.2" r="9.4"/>
<circle class="st6" cx="3960.4" cy="1083.9" r="9.4"/>
<path class="st6" d="M4220.2,662.3c5.2,0,9.4,4.2,9.4,9.4s-4.2,9.4-9.4,9.4c-5.2,0-9.4-4.2-9.4-9.4S4215,662.3,4220.2,662.3z"/>
<circle class="st6" cx="4475.1" cy="1083.7" r="9.4"/>
<circle class="st6" cx="4734.5" cy="671.3" r="9.4"/>
<circle class="st6" cx="4990.4" cy="1084.7" r="9.4"/>
<circle class="st6" cx="5249.8" cy="671.4" r="9.4"/>
<circle class="st6" cx="5504.3" cy="1083.5" r="9.4"/>
<circle class="st6" cx="5763.8" cy="671.7" r="9.4"/>
<circle class="st6" cx="6020.6" cy="1084.1" r="9.4"/>
<circle class="st6" cx="6277.5" cy="671.6" r="9.4"/>
<circle class="st6" cx="6536.4" cy="1084.8" r="9.4"/>
<circle class="st6" cx="6792.5" cy="671.4" r="9.4"/>
<circle class="st6" cx="7048.8" cy="1083.2" r="9.4"/>
<circle class="st6" cx="7308.7" cy="671.9" r="9.4"/>
<circle class="st6" cx="7565.4" cy="1083.9" r="9.4"/>
<circle class="st6" cx="7822.8" cy="671.9" r="9.4"/>
<circle class="st6" cx="8078.8" cy="1084.2" r="9.4"/>
<rect x="75.7" y="637.1" class="st0" width="54.1" height="10.4"/>
<text transform="matrix(1 0 0 1 75.2646 639.8965)" class="st1 st2 st3">1989</text>
<text transform="matrix(1 0 0 1 328.6602 1122.8066)" class="st7 st2 st3">1990</text>
<rect x="588.9" y="637.1" class="st0" width="54.1" height="10.4"/>
<text transform="matrix(1 0 0 1 591.998 639.415)" class="st1 st2 st3">1991</text>
<rect x="844.5" y="1119.7" class="st0" width="54.1" height="10.4"/>
<text transform="matrix(1 0 0 1 845.5508 1122.5127)" class="st1 st2 st3">1992</text>
<rect x="1102.7" y="636.3" class="st0" width="54.1" height="10.4"/>
<text transform="matrix(1 0 0 1 1103.7686 638.6465)" class="st1 st2 st3">1993</text>
<rect x="1360.4" y="1119.9" class="st0" width="54.1" height="10.4"/>
<text transform="matrix(1 0 0 1 1361.4658 1122.6855)" class="st1 st2 st3">1994</text>
<rect x="1617.8" y="637.4" class="st0" width="54.1" height="10.4"/>
<text transform="matrix(1 0 0 1 1619.9375 640.1543)" class="st1 st2 st3">1995</text>
<rect x="1875.7" y="1120" class="st0" width="54.1" height="10.4"/>
<text transform="matrix(1 0 0 1 1876.3125 1122.8008)" class="st1 st2 st3">1996</text>
<rect x="2131.4" y="635.9" class="st0" width="54.1" height="10.4"/>
<text transform="matrix(1 0 0 1 2133.5059 638.7012)" class="st1 st2 st3">1997</text>
<rect x="2386" y="1120.4" class="st0" width="54.1" height="10.4"/>
<text transform="matrix(1 0 0 1 2386.5488 1123.2266)" class="st1 st2 st3">1998</text>
<rect x="2646.1" y="637.2" class="st0" width="54.1" height="10.4"/>
<text transform="matrix(1 0 0 1 2646.6406 640.0273)" class="st1 st2 st3">1999</text>
<rect x="2901" y="1119.9" class="st0" width="62.1" height="10.4"/>
<text transform="matrix(1 0 0 1 2900.5879 1122.6973)" class="st1 st2 st3">2000</text>
<rect x="3164" y="637.4" class="st0" width="55.4" height="10.4"/>
<text transform="matrix(1 0 0 1 3162.9463 640.2041)" class="st1 st2 st3">2001</text>
<rect x="3415.3" y="1119.5" class="st0" width="59.3" height="10.4"/>
<text transform="matrix(1 0 0 1 3414.8027 1122.3086)" class="st1 st2 st3">2002</text>
<rect x="3674.9" y="637.2" class="st0" width="58.5" height="10.4"/>
<text transform="matrix(1 0 0 1 3674.4277 639.9473)" class="st1 st2 st3">2003</text>
<rect x="3930.2" y="1119.8" class="st0" width="59.3" height="10.4"/>
<text transform="matrix(1 0 0 1 3929.7197 1122.6211)" class="st1 st2 st3">2004</text>
<rect x="4190.4" y="636.6" class="st0" width="58.4" height="10.4"/>
<text transform="matrix(1 0 0 1 4189.9883 639.3564)" class="st1 st2 st3">2005</text>
<rect x="4444" y="1120.1" class="st0" width="60" height="10.4"/>
<text transform="matrix(1 0 0 1 4443.5684 1122.8418)" class="st1 st2 st3">2006</text>
<rect x="4704.4" y="637" class="st0" width="54.1" height="10.4"/>
<text transform="matrix(1 -6.980201e-04 6.980201e-04 1 4703.9458 639.804)" class="st1 st2 st3">2007</text>
<rect x="4960.8" y="1120.3" class="st0" width="59.8" height="10.4"/>
<text transform="matrix(1 0 0 1 4960.3125 1123.0352)" class="st1 st2 st3">2008</text>
<rect x="5219.9" y="637.4" class="st0" width="59.5" height="10.4"/>
<text transform="matrix(1 0 0 1 5219.4102 640.2412)" class="st1 st2 st3">2009</text>
<rect x="5478.7" y="1119.8" class="st0" width="54.1" height="10.4"/>
<text transform="matrix(1 0 0 1 5477.666 1122.6309)" class="st1 st2 st3">2010</text>
<rect x="5737.8" y="636.9" class="st0" width="54.1" height="10.4"/>
<text transform="matrix(1 0 0 1 5739.3691 639.6348)" class="st1 st2 st3">2011</text>
<rect x="5993.9" y="1120.4" class="st0" width="54.1" height="10.4"/>
<text transform="matrix(1 0 0 1 5994.4355 1123.1523)" class="st1 st2 st3">2012</text>
<rect x="6251.9" y="637" class="st0" width="54.1" height="10.4"/>
<text transform="matrix(1 0 0 1 6252.416 639.8135)" class="st1 st2 st3">2013</text>
<rect x="6511.2" y="1120.4" class="st0" width="54.1" height="10.4"/>
<text transform="matrix(1 0 0 1 6510.6992 1123.1699)" class="st1 st2 st3">2014</text>
<rect x="6766.9" y="637.2" class="st0" width="54.1" height="10.4"/>
<text transform="matrix(1 0 0 1 6768.4805 639.9863)" class="st1 st2 st3">2015</text>
<rect x="7018.5" y="1121.3" class="st0" width="54.1" height="10.4"/>
<text transform="matrix(1 0 0 1 7018.0879 1124.0371)" class="st1 st2 st3">2016</text>
<rect x="7283.6" y="637.1" class="st0" width="54.1" height="10.4"/>
<text transform="matrix(1 0 0 1 7285.1484 639.9043)" class="st1 st2 st3">2017</text>
<rect x="7540.5" y="1120" class="st0" width="53.5" height="10.4"/>
<text transform="matrix(1 1.109326e-03 -1.109326e-03 1 7540.0269 1122.6897)" class="st1 st2 st3">2018</text>
<rect x="7795.9" y="637.3" class="st0" width="54.1" height="10.4"/>
<text transform="matrix(1 0 0 1 7795.9746 640.1406)" class="st1 st2 st3">2019</text>
<rect x="8053" y="1119.3" class="st0" width="58" height="10.4"/>
<text transform="matrix(1 0 0 1 8052.043 1122.1299)" class="st1 st2 st3">2020</text>
<rect x="7401" y="664.3" class="st8" width="124" height="58.2"/>
</svg>
