<?xml version="1.0" encoding="utf-8"?>
<!-- Generator: Adobe Illustrator 24.1.0, SVG Export Plug-In . SVG Version: 6.00 Build 0)  -->
<svg version="1.1" id="Layer_1" xmlns="http://www.w3.org/2000/svg" xmlns:xlink="http://www.w3.org/1999/xlink" x="0px" y="0px"
	 viewBox="0 0 890.8 1125" style="enable-background:new 0 0 890.8 1125;" xml:space="preserve">
<style type="text/css">
	.st0{fill:#D4D6CF;stroke:#000000;stroke-width:0.5;stroke-miterlimit:10;}
	.st1{fill:#DEE1DA;stroke:#020202;stroke-width:0.5;stroke-miterlimit:10;}
	.st2{fill:#E6E7E2;stroke:#000000;stroke-width:0.5;stroke-miterlimit:10;}
	.st3{fill:#F0F1EF;stroke:#000000;stroke-width:0.5;stroke-miterlimit:10;}
	.st4{fill:#F8F9F7;stroke:#000000;stroke-width:0.5;stroke-miterlimit:10;}
	.st5{fill:#F7F8F6;stroke:#000000;stroke-width:0.5;stroke-miterlimit:10;}
	.st6{fill:#DDE0DA;stroke:#000000;stroke-width:0.5;stroke-miterlimit:10;}
	.st7{fill:#F4F5F3;stroke:#000000;stroke-width:0.5;stroke-miterlimit:10;}
	.st8{fill:#F3F4F2;stroke:#000000;stroke-width:0.5;stroke-miterlimit:10;}
	.st9{fill:#E8EAE5;stroke:#000000;stroke-width:0.5;stroke-miterlimit:10;}
	.st10{fill:#EEEFEC;stroke:#000000;stroke-width:0.5;stroke-miterlimit:10;}
	.st11{fill:#99A18E;stroke:#000000;stroke-width:0.5;stroke-miterlimit:10;}
	.st12{fill:#F1F1F0;stroke:#000000;stroke-width:0.5;stroke-miterlimit:10;}
	.st13{fill:#E4E6E0;stroke:#000000;stroke-width:0.5;stroke-miterlimit:10;}
	.st14{fill:#F5F6F4;stroke:#000000;stroke-width:0.5;stroke-miterlimit:10;}
	.st15{fill:#586444;stroke:#000000;stroke-width:0.5;stroke-miterlimit:10;}
	.st16{fill:#8D9680;stroke:#000000;stroke-width:0.5;stroke-miterlimit:10;}
	.st17{fill:#DEE1DA;stroke:#000000;stroke-width:0.5;stroke-miterlimit:10;}
	.st18{fill:#C5C9BF;stroke:#000000;stroke-width:0.5;stroke-miterlimit:10;}
	.st19{fill:#D2D4CC;stroke:#000000;stroke-width:0.5;stroke-miterlimit:10;}
	.st20{fill:#5B6749;stroke:#000000;stroke-width:0.5;stroke-miterlimit:10;}
	.st21{fill:#DBDED6;stroke:#000000;stroke-width:0.5;stroke-miterlimit:10;}
	.st22{fill:#556141;stroke:#000000;stroke-width:0.5;stroke-miterlimit:10;}
	.st23{fill:#979F8A;stroke:#000000;stroke-width:0.5;stroke-miterlimit:10;}
	.st24{fill:#757E65;stroke:#000000;stroke-width:0.5;stroke-miterlimit:10;}
	.st25{fill:#525E3D;stroke:#000000;stroke-width:0.5;stroke-miterlimit:10;}
	.st26{fill:#7D856D;stroke:#000000;stroke-width:0.5;stroke-miterlimit:10;}
	.st27{fill:#F2F2F1;stroke:#000000;stroke-width:0.5;stroke-miterlimit:10;}
	.st28{fill:#D5D8D1;stroke:#000000;stroke-width:0.5;stroke-miterlimit:10;}
	.st29{fill:#4480B6;}
	.st30{fill:#1A5295;stroke:#000000;stroke-width:0.5;stroke-miterlimit:10;}
	.st31{fill:#77ABD1;}
	.st32{fill:#C0D5E4;stroke:#000000;stroke-width:0.5;stroke-miterlimit:10;}
	.st33{fill:#77ABD1;stroke:#000000;stroke-width:0.5;stroke-miterlimit:10;}
	.st34{fill:#4480B6;stroke:#000000;stroke-width:0.5;stroke-miterlimit:10;}
	.st35{fill:#EFF3FE;stroke:#000000;stroke-width:0.5;stroke-miterlimit:10;}
	.st36{fill:#437FB5;stroke:#000000;stroke-width:0.5;stroke-miterlimit:10;}
</style>
<path class="st0" d="M500.6,29.6h23.7c0,0,2,4.4,3.1,5.3c1.1,0.9,0.5,6.1,0.5,6.1s3.8,21.1,17.6,33.6c0,0-0.2,0.6-3.9,1.1l0,3.4
	c0,0,1.8,1.9,0.2,3.2c0,0,2.9,11,5.6,15.7l-52.7,1.4l-0.3-21.3l-3.2-8.1c0,0-0.2-0.9,0.9-0.9c1.2-0.1,2.1-0.1,2.1-0.1L494,39.8
	l12.3,0.1l0.8-0.3L500,30C500,30,499.8,29.7,500.6,29.6z"/>
<path class="st1" d="M434.7,41.2l59.3-1.5l0.1,29.3l-2.5,0.1c0,0-0.8,0.2-0.5,1c0.2,0.6,3.2,7.9,3.2,7.9l0.3,21.3l-60.3,1.6
	L434.7,41.2z"/>
<path class="st2" d="M547.2,98.2l-52.7,1.4l1,39.9l59.1-1.6c0,0,0.9,0,1.4-0.9c0.5-0.9,1.3-3.2,1.3-3.2s-0.3-0.8-1.3-0.4
	s-7.9-7.6-7.9-7.6l-0.1-13.2L547.2,98.2z"/>
<polygon class="st3" points="494.6,99.4 495.6,139.5 394.9,141.6 394.7,121.8 399,121.8 398.9,116.9 394.4,119.6 394.1,101.7 "/>
<path class="st4" d="M394.9,141.6l-0.1-19.8l4.3,0l-0.1-4.9l-4.5,2.7l-0.3-17.9l-49.3,0.6l-19.5-12.2l0.1-3.3c0,0,0.2-0.4,0.9-0.8
	l0-14.1l-12.1,0l0,11.2c0,0-7.2-4.2-11.6-21l-7.6-0.1l0-9.5l-4.6-0.1l-0.4,9.5l-19.3-0.1l13.4,20.5l-16.8,11.7l6,8.9l-0.2,39.4
	l72.7-1.2l2.2,2.8c0,0,2.9-2.5,3.7-2.3c0.7,0.1,1.8,0.8,1.8,0.8L394.9,141.6z"/>
<path class="st4" d="M265.8,91.8l1.5,2.3l6,8.9l-0.2,39.4l0,0l-52.6,0.8c0,0-1.6,3-3.9,3.4c-2.3,0.4-20.6,0.5-20.6,0.5l0,1.4
	l-14,0.3v-1.3h-8.5l-40.3,1l0-5.2c0,0-2.1-2.8-2.2-4.4c-0.1-1.6,2.6-8.6,2.6-8.6v-3.5c0,0,14.4,1.1,21.3,2.8
	c6.9,1.7,44.8,8.9,44.8,8.9l3.9-32.6l0.1-41.5l3.2,0v-1.5h-1.2V52.7h-2.3v-7.9l30.6-1.6v50.2h2.4v-2.5h9l0.5,1.6h2.9l0.1,3.3
	c0,0,4.2-0.5,4.4-1v-3.1L265.8,91.8z"/>
<path class="st4" d="M273.1,142.4v0.3v9.9h-0.7V181l-28.9,0.4l-3,1.9h-7.3v-17.8h-1.9v0.6l-18.4,0.5l-0.1,10.3h-3.7l-0.1-7.1
	c0,0-1-0.3-1.1-0.6v-2.3l-15.2,0.5v3h-10.1v-2.4h-3.1c0,0-0.8,0.2-0.8-0.8c0-1,0-3.4,0-3.4h-6.3v1.9h-9.9v2.4h6.9v6.7h3.1v3.3h-6.2
	v0.7h-3.9v-6l-10.2,0.8v14.8l19.6-0.7l0.2,19.7l-12.5,0l-29.6,0.6c0,0,4.6-10.7,5.1-18.2l0.1-5.1c0,0-0.9-1.3-0.7-2.4s2-5.8,2-5.8
	s0.9-4.2-4.6-5c0,0-1.9,2-5,2.9c-3.1,0.9-6.7-5.4-6.7-5.4s-1-3.5,2-7.1c3-3.6,10.8-13.8,10.8-13.8l75.8-1.7l7.9-0.2
	c0,0,2-0.8,3.6-3.3L273.1,142.4z"/>
<path class="st4" d="M273.1,142.4l72.7-1.2l2.2,2.8c0,0,2.4-2.3,3.7-2.3c0,0,1.4,0.3,1.8,0.8l41.4-0.8l2,60.4l-121.9,2.7v-8.4h0.9
	v-11.1l-0.7-2.7h-2.6l-0.1-1.5v-28.3h0.7V142.4z"/>
<polygon class="st5" points="394.9,141.6 495.6,139.5 495.5,146.4 496.2,147.3 497.8,199.9 396.9,202.1 "/>
<path class="st6" d="M495.6,139.5l58.9-1.7c0.3,0,0.5,0.2,0.6,0.5l0.7,8.8c0,0,0,0.1,0,0.1c0.2,0.7,2.6,7.8,8.3,7.8l0.6,0l0.1,12.5
	c0,0,0,0.1,0,0.1c0.3,1.3,6,20.7,28.9,20.9c0.2,0,0.4,0.1,0.5,0.3l2,4.2c0,0.1,0.1,0.1,0.1,0.1c0.3,0.3,1.5,1.7-0.1,2.8
	c-1.7,1.2-8.4,5.6-10.8,8.3c-0.1,0.1-0.2,0.1-0.3,0.2c-0.8,0.1-4,0.6-6,0c-2.3-0.7-2.5-2.3-2.5-2.3s-0.4-2.4,1.7-0.9
	c1.8,1.3,4.2,0.9,4.7,0.8c0.1,0,0.1,0,0.2-0.1l4.3-3.1c0,0,0.5-3.1-2.2-3.5c-2.7-0.3-6.7,0.4-6.7,0.4s-2.9,1-5,2.5l-75.8,1.5
	L495.6,139.5z"/>
<path class="st4" d="M130,208.3c0,0,40.5-1,42-0.7l8.4,0l2.3,9.5v10.6l50.3-2.3v-2.3l27.1-17.8l14.8-0.6l40.9-0.9l2.3,80.5
	l-82.8,1.9l0-4.1l5.4-7.8c0,0,2.2-3.2-0.1-4.6c-2.2-1.4-6.2-1.6-6.2-1.6v-1.5l-87.8,2.5c0,0-4.6-2.7-5.8-9.6l-5.2-19.8
	c0,0-1.2-2.9-0.8-3.9c0.4-1,1.8-4.6,1.8-4.6s0.2-0.9,1.4-0.9s13.7-0.8,13.7-0.8v-10.8l-23.3,0.5c0,0-2.1-3.7-1.5-5
	C127.5,212.6,128.9,208.7,130,208.3z"/>
<polygon class="st4" points="315.9,203.8 396.9,202.1 399.3,282.4 318.2,284.3 "/>
<polygon class="st4" points="396.9,202.1 497.8,199.9 500,280.4 399.3,282.4 "/>
<path class="st7" d="M497.8,199.9l1.1,40.4l65.6-2.1l16-7.3c0,0-5.5-10.1-5.9-28.6c0,0-1-2.2-1-3.8L497.8,199.9z"/>
<path class="st4" d="M498.9,240.2l1.1,40.1l86.1-2.3l3.9-0.9h7.1c0,0,0.9,0,1.3-0.4c0.2-0.3,0.3-0.7-0.2-1.4
	c-1.4-1.9-3.5-6.6-3.5-6.6l-0.2-3.3l-2.1-4l-0.7-7.7c0,0,1.4-2,0.6-3.2c-0.8-1.2-11.7-19.8-11.7-19.8l-16,7.3L498.9,240.2z"/>
<path class="st4" d="M598.5,276.7l-0.5,12.5l2.2,5c0,0,1.1,1.2-0.1,2.8c-1.2,1.6-0.9,4.4-0.9,4.4s4.5,18.7,7.2,22.1s7.7,7.4,7.7,7.4
	s1.9,1.9,0.6,3.3c-1.3,1.4-3.9,2.7-3.9,2.7l-65.8,2.4l-2.6-8.5l-5.3-5.1c0,0-1.8-1.7-3.7,0s-3.4-0.3-3.4-0.3l-2.4-5.9
	c0,0-0.7-0.6-1.8-0.2c-1.1,0.4-3.2,0.6-3.2,0.6l-20.9,0.1l-1.7-39.7l86.1-2.3l3.9-0.9C590,277.2,598.1,277.1,598.5,276.7z"/>
<polygon class="st8" points="399.3,282.4 500,280.4 501.7,320 501.9,339.9 401.1,342.9 "/>
<polyline class="st9" points="400.9,342.7 280.1,345.6 277.9,285.2 318.2,284.3 398.9,282.4 "/>
<polygon class="st10" points="277.9,285.2 235.4,286.1 236.9,346.9 280.1,345.6 "/>
<polygon class="st11" points="299.6,345.2 441.3,341.7 442,381.9 300.4,385.6 "/>
<polygon class="st12" points="441.3,341.7 442,381.9 503.1,380.7 503.2,400.5 523.8,400.1 521.8,319.9 501.7,320 501.9,339.9 "/>
<path class="st10" d="M521.8,319.9l2,80.2l40.3-0.9l-2.1-60.5l-17,0.6l-2.6-8.5l-5.3-5.1c0,0-1.4-1.8-3.7,0
	c-2.3,1.7-3.6-0.6-3.6-0.6l-2.2-5.6c0,0-0.6-0.6-1.8-0.2C524.6,319.8,521.8,319.9,521.8,319.9z"/>
<path class="st13" d="M562,338.7l1.4,40.7l40.4-1.4l-0.7-17.9l12.4-0.1c0,0-6.1-5.3-4.7-23L562,338.7z"/>
<path class="st5" d="M603.1,360.1l0.7,17.9l0.1,25.5l5.7-3.3c0,0,2.1-1.9,6.7-0.4s13.9,1.1,13.9,1.1h17v-3.5h-4.8v-4.1h18.7v-0.7
	h4.7v-3l-24,0.3v-2.7h15.5v-8.6h-11.6l-4.1,0.7l-4,7.9h-3.9L622,364.8c0,0-6.1-1.4-6.5-4.8L603.1,360.1z"/>
<polygon class="st14" points="603.8,378 603.9,403.4 588.6,403.5 585.7,399.3 564.1,399.2 563.4,379.4 "/>
<polygon class="st15" points="300.4,385.6 370.5,383.8 371.7,404.2 373,404.3 373.7,424.3 372.7,424.3 373.8,464.3 302.7,465.9 "/>
<polygon class="st15" points="370.5,383.8 371.7,404.2 373,404.3 373.7,424.3 372.7,424.3 373.8,464.3 444.8,462.7 442,381.9 "/>
<polygon class="st16" points="442,381.9 503.1,380.7 503.2,400.5 523.8,400.1 525.7,460.9 444.8,462.7 "/>
<polygon class="st2" points="523.8,400.1 525.7,460.9 566.6,459.9 566.6,479.5 593.6,478.6 593,432.7 564.8,433.4 564.1,399.2 "/>
<polygon class="st14" points="564.1,399.2 580.2,399.2 580.9,433 564.8,433.4 "/>
<polygon class="st4" points="580.2,399.2 585.7,399.3 588.6,403.5 593,403.5 593,432.7 580.9,433 "/>
<path class="st12" d="M593,403.5l10.9-0.1l5.7-3.3c0,0,2-1.9,6.7-0.4c4.7,1.5,13.9,1.1,13.9,1.1l11.8,0l0,11.1l-5.6,0
	c0,0,0.5,3.7-3.2,5.1l-4.7,1.1l-35.7,0L593,403.5z"/>
<polygon class="st4" points="628.7,418.2 628.5,433 593,432.7 593,418.2 "/>
<path class="st17" d="M628.5,433l0.5,1l0.3,19.6c0,0,0.7,2.1,3.9,2.1c3.2,0.1,3.4,0.3,3.4,0.3s0.5,0,0.4,0.9c-0.1,0.9,0,3.1,0,3.1
	h8.6c0,0,2.1-1.3,3.1-1.2c0.9,0.2,1.8,0.6,1.8,0.6s1.5,1.7,0.5,3c-1,1.3-3.8,3.4-3.8,3.4l-0.1,3.5l3.1,3.8v4.5l-1.9,1.9l1.2,18h-5.8
	c0,0-0.8-0.8-0.8-1.6c0-0.8,0-6.1,0-6.1s1-2-0.1-3.7l-0.4-4.4c0,0-1.2-1.7-1-5l1.6-4.9l-0.1-4.9l-1.9-4.4l-4.2-0.1l-1.6,5.7
	c0,0-0.6,1.9-0.1,3.3c0.6,1.4,2.5,5.4,2.5,5.4l-2.5,0.9l-41.7,0.6l-0.6-45.9L628.5,433z"/>
<path class="st18" d="M373.8,464.3l91-2l2.9,100.3l-55.3,2l-0.1,9.5l-3.6,1.4c0,0-0.7,0.2-1,0l-1.1-2v-16.8l-1-2.3l-28.5,0.8
	L373.8,464.3z"/>
<polygon class="st1" points="464.9,462.3 467.8,562.6 568,559.9 566.6,479.5 566.6,459.9 "/>
<path class="st19" d="M566.6,479.5l1.4,80.4L658,558l0.1-2.9l-4.2-3.2c0,0-0.7-0.7-0.2-2.6s-2.6-6.4-2.6-6.4l-0.1-6l-4-6.5l0-3.1
	c0,0,0-0.4-0.2-0.8c-0.2-0.4-2.3-4.1-2.3-4.1s-0.3-1.2,0.4-2.1s1.4-1.6,1.4-1.6s0.8-2.1-0.2-3.5s-2.2-2.4-2.2-2.4s-0.5-0.5-0.5-1.1
	s0-9.6,0-9.6l-3.2-5.2l0-4.4c0,0-6.3-2.8-2.4-9.4l0-5.9l-2.5,0.9l-41.7,0.6L566.6,479.5z"/>
<path class="st4" d="M377.1,555.2l0.5,35l-10,5l1.8,66.1l2.1,4.1l118.9-2.8L488,562l-75.5,2.5l-0.1,9.5l-3.6,1.4c0,0-0.6,0.2-1,0
	c0,0-1.1-2-1.1-2v-16.8l-1-2.3L377.1,555.2z"/>
<polygon class="st19" points="365.4,585.5 377.5,585.4 377.6,590.3 367.6,595.3 369.4,661.4 371.5,665.4 371.6,680.1 369.9,684 
	370.8,716.1 249.2,720 247.7,652.8 257.3,648.7 348.4,645.8 347.7,610.3 364.2,603 364.5,585.5 "/>
<polygon class="st19" points="488,562 490.4,662.6 611.5,660.1 609,559 568,559.9 "/>
<path class="st20" d="M609,559l1.5,60.2l71.4-1.9l8.9-4.9c0,0-5.8-3.7-6.4-6.6c-0.6-2.9-0.7-3.1-0.7-3.1l-3.3-4.3V594
	c0,0-10.7-8-11-14.5c-0.4-6.5-0.4-7.4-0.4-7.4L658,558L609,559z"/>
<path class="st21" d="M371.5,665.4l0,14.6l-1.6,3.9l0.9,32.1l2.1,50.1l38.8-1l7.9-1.3l63-0.1c0,0,1,0.9,3.1,0.6
	c2.2-0.2,7.7-1.2,7.7-1.2l-3.1-100.6L371.5,665.4z"/>
<polygon class="st20" points="490.4,662.6 493.5,763.2 553.9,761.9 551.6,661.4 "/>
<polygon class="st22" points="551.6,661.4 553.9,761.9 578.9,760.9 614.2,760.2 611.5,660.1 "/>
<path class="st23" d="M610.5,619.2l1,40.9l22.2-0.8c0,0,8.9,8.6,15.8-0.8l30.8-1.1c0,0,4.5,1.7,7.1-0.1l26.6-0.4
	c0.4,0,0.7-0.2,0.9-0.4c0.7-0.9,1.9-2.9-0.7-4.1h-4.4l-3.9-4.6l-1.5-4.7l0-10c0,0-14-11.9-13.8-20.7l-8.9,4.9L610.5,619.2z"/>
<path class="st24" d="M611.5,660.1l2.1,79.6l80-2.5l-0.9-40.1l5,0.2c0,0,6.8,1.7,8.2,2.4c1.4,0.7,7.2-2.6,7.2-2.6l10.2-0.1
	c0,0,3.1-1.3-0.2-2.7c-3.4-1.4-9.1-6.3-9.1-6.3s-3.6-7.8-2.8-11.7c0,0,1.5-1.1,0.6-2.1c-0.9-1-5-8.8-5-8.8s0.9-7.1,3.4-8.4
	l-22.8,0.3c0,0-2.4,1.5-7.1,0.1l-30.8,1.1c0,0-5.6,8.6-15.8,0.8L611.5,660.1z"/>
<path class="st24" d="M373,766.2l1.7,60.3l120.1-3l-1.2-60.2l-7.7,1.2c0,0-2,0.1-3.1-0.6l-63,0.1l-7.9,1.3L373,766.2z"/>
<path class="st25" d="M493.5,763.2l1.2,60.2l20.5-0.3c0,0,15.9,20,20.6,39.3l81.4-1.6l-3-100.7c0,0-59.3,1.1-60.3,1.7L493.5,763.2z"
	/>
<polygon class="st25" points="613.6,739.8 614.2,760.2 617.2,860.9 696.9,858.4 693.6,737.2 "/>
<path class="st15" d="M692.7,697.2l1.9,80.6l87.9-2.1c0,0-2.1-4-2.1-5.3s3-4.5,3-4.5l5-4.2l-7.3-8.6l-4.8,3.8c0,0-2.8,1.8-6.9-0.1
	S751.7,744,751.7,744l-5.4-5.8c0,0-0.5-0.8,2.5-2.3l-0.1-5c0,0-4.4,0-7.2-5.1l-0.9-4.3L723.6,702c0,0-0.3-0.3-0.4-1.1
	c-0.1-0.8,0-3.7,0-3.7l-10.2,0.1c0,0-6,3.1-7.2,2.6c-1.2-0.5-8.2-2.4-8.2-2.4L692.7,697.2z"/>
<path class="st26" d="M494.7,823.4l6,160.8l25.3-0.3l0,3.6c0,0,3.2,0.6,3.4-3.8l10.2-0.1v20.1l41.3-1.8l-4-140.4l-41,0.8
	c0,0-3.3-21.8-20.6-39.3L494.7,823.4z"/>
<polygon class="st27" points="500.7,984.2 496.9,883.4 476.7,884 476.7,901.8 456.7,902.1 456.7,904.4 436.5,905.1 436.5,890.4 
	433.3,890.4 433.3,885 415.8,885.1 417.8,945.5 377.7,947.5 378.7,967.5 436,966 436.3,976.4 449.5,976.2 449.5,965.5 459,965.3 
	459.1,960.2 461.3,960.2 461.4,955.4 468.3,955.5 469.1,965.1 489.3,964.6 489.8,981 489,984.5 "/>
<path class="st25" d="M576.9,861.6l4,140.4l0.6,35.1c0,0,11.2,2.9,17.7,0.8c6.5-2.1,12.5-9.2,12.5-9.2s8.1-9.2,15.6,0v5.2l41.6-1
	l21.3-3.8l-23.7-36.4c0,0-1.1-1.2,1.5-1.2s33.1,1.5,33.1,1.5l-4-134.4L576.9,861.6z"/>
<path class="st11" d="M694.6,777.7l6.4,215.1l65.8-1.4l56.3,0.3l-0.3-97.8l-6.5-3.7c0,0-1.5-0.9-0.4-2c1.2-1.1,2.3-2.6,2.3-2.6
	s0.5-0.5-0.3-1.7c-0.8-1.2-3.9-6.4-3.9-6.4s-0.7-1.5,0.4-2.3c1.1-0.9,5.7-4.4,5.7-4.4l2.7-0.1l-0.1-1.4l-2.7-2.7v-4.4l2.7-3.7
	l-0.7-26.3l-9.4-2.1l-3.7-44.1l-20.2-10.3l-6.1-0.1L694.6,777.7z"/>
<path class="st20" d="M627.2,1033.8l4.3-0.1l-4.9,20.7c0,0-0.5,1.4-0.3,1.8s5.4,1.4,5.4,1.4v16.3l67.7-1.1l-0.1-30.6l-9.3-13.1
	l-21.3,3.8l-37.4,0.9"/>
<path class="st28" d="M699.4,1042.2l0.1,30.6l123.6-1l0-80L701,992.9l-33.1-1.5c0,0-2.4-0.2-1.5,1.2s23.7,36.4,23.7,36.4
	L699.4,1042.2z"/>
<polygon class="st4" points="628.6,418.2 628.5,426.3 593,426.1 593,418.2 "/>
</svg>
