<?xml version="1.0" encoding="utf-8"?>
<!-- Generator: Adobe Illustrator 24.1.0, SVG Export Plug-In . SVG Version: 6.00 Build 0)  -->
<svg version="1.1" id="Layer_1" xmlns="http://www.w3.org/2000/svg" xmlns:xlink="http://www.w3.org/1999/xlink" x="0px" y="0px"
	 viewBox="0 0 890.8 1125" style="enable-background:new 0 0 890.8 1125;" xml:space="preserve">
<style type="text/css">
	.st0{fill:#D4D6CF;stroke:#000000;stroke-width:0.5;stroke-miterlimit:10;}
	.st1{fill:#DEE1DA;stroke:#020202;stroke-width:0.5;stroke-miterlimit:10;}
	.st2{fill:#E6E7E2;stroke:#000000;stroke-width:0.5;stroke-miterlimit:10;}
	.st3{fill:#F0F1EF;stroke:#000000;stroke-width:0.5;stroke-miterlimit:10;}
	.st4{fill:#F8F9F7;stroke:#000000;stroke-width:0.5;stroke-miterlimit:10;}
	.st5{fill:#F7F8F6;stroke:#000000;stroke-width:0.5;stroke-miterlimit:10;}
	.st6{fill:#DDE0DA;stroke:#000000;stroke-width:0.5;stroke-miterlimit:10;}
	.st7{fill:#F4F5F3;stroke:#000000;stroke-width:0.5;stroke-miterlimit:10;}
	.st8{fill:#F3F4F2;stroke:#000000;stroke-width:0.5;stroke-miterlimit:10;}
	.st9{fill:#E8EAE5;stroke:#000000;stroke-width:0.5;stroke-miterlimit:10;}
	.st10{fill:#EEEFEC;stroke:#000000;stroke-width:0.5;stroke-miterlimit:10;}
	.st11{fill:#99A18E;stroke:#000000;stroke-width:0.5;stroke-miterlimit:10;}
	.st12{fill:#F1F1F0;stroke:#000000;stroke-width:0.5;stroke-miterlimit:10;}
	.st13{fill:#E4E6E0;stroke:#000000;stroke-width:0.5;stroke-miterlimit:10;}
	.st14{fill:#F5F6F4;stroke:#000000;stroke-width:0.5;stroke-miterlimit:10;}
	.st15{fill:#586444;stroke:#000000;stroke-width:0.5;stroke-miterlimit:10;}
	.st16{fill:#8D9680;stroke:#000000;stroke-width:0.5;stroke-miterlimit:10;}
	.st17{fill:#DEE1DA;stroke:#000000;stroke-width:0.5;stroke-miterlimit:10;}
	.st18{fill:#C5C9BF;stroke:#000000;stroke-width:0.5;stroke-miterlimit:10;}
	.st19{fill:#D2D4CC;stroke:#000000;stroke-width:0.5;stroke-miterlimit:10;}
	.st20{fill:#5B6749;stroke:#000000;stroke-width:0.5;stroke-miterlimit:10;}
	.st21{fill:#DBDED6;stroke:#000000;stroke-width:0.5;stroke-miterlimit:10;}
	.st22{fill:#556141;stroke:#000000;stroke-width:0.5;stroke-miterlimit:10;}
	.st23{fill:#979F8A;stroke:#000000;stroke-width:0.5;stroke-miterlimit:10;}
	.st24{fill:#757E65;stroke:#000000;stroke-width:0.5;stroke-miterlimit:10;}
	.st25{fill:#525E3D;stroke:#000000;stroke-width:0.5;stroke-miterlimit:10;}
	.st26{fill:#7D856D;stroke:#000000;stroke-width:0.5;stroke-miterlimit:10;}
	.st27{fill:#F2F2F1;stroke:#000000;stroke-width:0.5;stroke-miterlimit:10;}
	.st28{fill:#D5D8D1;stroke:#000000;stroke-width:0.5;stroke-miterlimit:10;}
	.st29{fill:#4480B6;}
	.st30{fill:#1A5295;stroke:#000000;stroke-width:0.5;stroke-miterlimit:10;}
	.st31{fill:#77ABD1;}
	.st32{fill:#C0D5E4;stroke:#000000;stroke-width:0.5;stroke-miterlimit:10;}
	.st33{fill:#77ABD1;stroke:#000000;stroke-width:0.5;stroke-miterlimit:10;}
	.st34{fill:#4480B6;stroke:#000000;stroke-width:0.5;stroke-miterlimit:10;}
	.st35{fill:#EFF3FE;stroke:#000000;stroke-width:0.5;stroke-miterlimit:10;}
	.st36{fill:#437FB5;stroke:#000000;stroke-width:0.5;stroke-miterlimit:10;}
</style>
<path class="st29" d="M490.5,63.9h23.6c0,0,2,4.4,3,5.3c1.1,0.9,0.5,6.1,0.5,6.1s3.8,21,17.5,33.5c0,0-0.2,0.6-3.9,1l0,3.4
	c0,0,1.8,1.9,0.2,3.2c0,0,2.9,11,5.6,15.6l-52.4,1.4l-0.3-21.2l-3.2-8c0,0-0.2-0.9,0.9-0.9c1.2-0.1,2.1-0.1,2.1-0.1L484,74l12.2,0.1
	l0.8-0.3l-7.1-9.5C490,64.3,489.8,64,490.5,63.9z"/>
<path class="st30" d="M425,75.5L484,74l0.1,29.1l-2.4,0.1c0,0-0.8,0.2-0.5,1c0.2,0.6,3.1,7.9,3.1,7.9l0.3,21.2l-60,1.6L425,75.5z"/>
<path class="st31" d="M536.9,132.2l-52.4,1.4l1,39.7l58.8-1.6c0,0,0.9,0,1.4-0.8c0.5-0.8,1.3-3.2,1.3-3.2s-0.3-0.8-1.3-0.4
	c-1,0.3-7.9-7.5-7.9-7.5l-0.1-13.2L536.9,132.2z"/>
<polygon class="st31" points="484.6,133.4 485.5,173.3 385.4,175.4 385.2,155.6 389.5,155.6 389.4,150.8 384.9,153.5 384.5,135.7 
	"/>
<path class="st32" d="M385.4,175.4l-0.1-19.7l4.2,0l-0.1-4.9l-4.5,2.7l-0.3-17.8l-49,0.6l-19.4-12.1l0.1-3.3c0,0,0.2-0.4,0.9-0.8
	l0-14l-12,0l0,11.1c0,0-7.1-4.2-11.6-20.9l-7.6-0.1l0-9.4l-4.6-0.1l-0.4,9.5L261.8,96l13.3,20.4L258.4,128l6,8.9l-0.2,39.2l72.3-1.2
	l2.2,2.8c0,0,2.9-2.4,3.6-2.3c0.7,0.1,1.8,0.8,1.8,0.8L385.4,175.4z"/>
<path class="st32" d="M256.9,125.7l1.5,2.3l6,8.9l-0.2,39.2h0l-52.4,0.8c0,0-1.6,3-3.9,3.4c-2.3,0.4-20.5,0.5-20.5,0.5l0,1.4
	l-14,0.3v-1.3h-8.5l-40.1,0.9l0-5.2c0,0-2.1-2.8-2.2-4.4c-0.1-1.6,2.5-8.6,2.5-8.6v-3.5c0,0,14.3,1.1,21.2,2.8
	c6.9,1.7,44.6,8.8,44.6,8.8l3.8-32.5l0.1-41.3l3.1,0v-1.5h-1.2v-10h-2.3V79l30.5-1.6v50h2.4v-2.5h9l0.5,1.6h2.9l0.1,3.3
	c0,0,4.2-0.5,4.4-1v-3.1L256.9,125.7z"/>
<path class="st32" d="M264.2,176.2v0.3v9.9h-0.7v28.2l-28.8,0.4l-3,1.8h-7.2v-17.7h-1.9v0.6l-18.3,0.5l-0.1,10.2h-3.7l-0.1-7.1
	c0,0-1-0.3-1.1-0.6v-2.3l-15.1,0.5v3h-10v-2.4h-3.1c0,0-0.8,0.2-0.8-0.8s0-3.4,0-3.4H164v1.9h-9.9v2.4h6.9v6.7h3.1v3.3H158v0.7h-3.9
	v-6l-10.2,0.8v14.8l19.5-0.7l0.2,19.6l-12.4,0l-29.4,0.6c0,0,4.6-10.6,5.1-18.1l0.1-5.1c0,0-0.9-1.3-0.7-2.4c0.2-1,2-5.8,2-5.8
	s0.9-4.2-4.6-5c0,0-1.9,2-5,2.9c-3.1,0.9-6.6-5.4-6.6-5.4s-1-3.5,2-7.1c3-3.6,10.8-13.7,10.8-13.7l75.5-1.7l7.9-0.2
	c0,0,2-0.8,3.6-3.3L264.2,176.2z"/>
<path class="st33" d="M264.2,176.2l72.3-1.2l2.2,2.8c0,0,2.4-2.3,3.6-2.3c0,0,1.4,0.3,1.8,0.8l41.2-0.8l2,60.1L266,238.1v-8.3h0.9
	v-11l-0.7-2.7h-2.6l-0.1-1.5v-28.2h0.7V176.2z"/>
<polygon class="st34" points="385.4,175.4 485.5,173.3 485.5,180.1 486.1,181 487.8,233.3 387.3,235.5 "/>
<path class="st34" d="M485.5,173.3l58.6-1.7c0.3,0,0.5,0.2,0.6,0.5l0.7,8.8c0,0,0,0.1,0,0.1c0.2,0.7,2.5,7.7,8.2,7.8l0.6,0l0.1,12.5
	c0,0,0,0.1,0,0.1c0.3,1.3,6,20.6,28.7,20.8c0.2,0,0.4,0.1,0.5,0.3l2,4.2c0,0.1,0.1,0.1,0.1,0.1c0.3,0.3,1.5,1.7-0.1,2.8
	c-1.7,1.2-8.4,5.6-10.8,8.2c-0.1,0.1-0.2,0.1-0.3,0.2c-0.8,0.1-4,0.6-6,0c-2.3-0.7-2.5-2.3-2.5-2.3s-0.4-2.4,1.7-0.9
	c1.8,1.3,4.2,0.9,4.7,0.8c0.1,0,0.1,0,0.2-0.1l4.3-3c0,0,0.5-3.1-2.2-3.4s-6.6,0.4-6.6,0.4s-2.9,1-4.9,2.4l-75.4,1.5L485.5,173.3z"
	/>
<path class="st34" d="M121.7,241.8c0,0,40.3-1,41.8-0.7l8.3,0l2.3,9.4V261l50.1-2.3v-2.3l27-17.7l14.7-0.6l40.7-0.9l2.3,80.1
	l-82.4,1.9l0-4.1l5.4-7.8c0,0,2.2-3.2-0.1-4.6c-2.2-1.4-6.1-1.6-6.1-1.6v-1.5l-87.4,2.5c0,0-4.6-2.7-5.8-9.6l-5.2-19.7
	c0,0-1.2-2.9-0.8-3.9s1.8-4.6,1.8-4.6s0.2-0.9,1.3-0.9c1.2,0,13.6-0.8,13.6-0.8v-10.8l-23.2,0.5c0,0-2.1-3.7-1.5-5
	S120.6,242.1,121.7,241.8z"/>
<polygon class="st34" points="306.7,237.3 387.3,235.5 389.7,315.4 309,317.3 "/>
<polygon class="st34" points="387.3,235.5 487.8,233.3 489.9,313.4 389.7,315.4 "/>
<path class="st33" d="M487.8,233.3l1.1,40.2l65.3-2.1l15.9-7.3c0,0-5.5-10.1-5.9-28.4c0,0-1-2.2-1-3.8L487.8,233.3z"/>
<path class="st33" d="M488.9,273.5l1.1,39.9l85.7-2.3l3.9-0.9h7.1c0,0,0.9,0,1.3-0.4c0.2-0.3,0.3-0.7-0.2-1.4
	c-1.3-1.8-3.5-6.6-3.5-6.6l-0.2-3.3l-2.1-3.9l-0.7-7.6c0,0,1.4-2,0.6-3.2c-0.8-1.2-11.7-19.7-11.7-19.7l-15.9,7.3L488.9,273.5z"/>
<path class="st33" d="M587.9,309.7l-0.5,12.4l2.2,5c0,0,1.1,1.2-0.1,2.8s-0.9,4.4-0.9,4.4s4.5,18.7,7.2,22c2.8,3.4,7.7,7.3,7.7,7.3
	s1.9,1.9,0.6,3.3s-3.9,2.7-3.9,2.7l-65.4,2.4l-2.6-8.4l-5.2-5.1c0,0-1.8-1.7-3.7,0c-1.9,1.7-3.4-0.3-3.4-0.3l-2.4-5.9
	c0,0-0.7-0.6-1.8-0.2c-1.1,0.4-3.2,0.6-3.2,0.6l-20.8,0.1l-1.7-39.5l85.7-2.3l3.9-0.9C579.5,310.2,587.6,310.2,587.9,309.7z"/>
<polygon class="st33" points="389.7,315.4 489.9,313.4 491.6,352.9 491.9,372.7 391.5,375.7 "/>
<polyline class="st30" points="391.5,375.7 271.1,378.4 269,318.2 309,317.3 389.7,315.4 "/>
<polygon class="st35" points="269,318.2 226.6,319.2 228.1,379.6 271.1,378.4 "/>
<polygon class="st36" points="290.6,377.9 431.5,374.5 432.2,414.5 291.3,418.1 "/>
<polygon class="st33" points="431.5,374.5 432.2,414.5 493,413.3 493.1,433 513.6,432.6 511.7,352.8 491.6,352.9 491.9,372.7 "/>
<path class="st35" d="M511.7,352.8l2,79.8l40.1-0.9l-2.1-60.2l-16.9,0.6l-2.6-8.4l-5.2-5.1c0,0-1.4-1.8-3.7,0
	c-2.3,1.7-3.6-0.6-3.6-0.6l-2.2-5.6c0,0-0.6-0.6-1.8-0.2S511.7,352.8,511.7,352.8z"/>
<path class="st32" d="M551.6,371.5L553,412l40.2-1.4l-0.7-17.8l12.3-0.1c0,0-6.1-5.2-4.7-22.9L551.6,371.5z"/>
<path class="st32" d="M592.6,392.8l0.7,17.8l0.1,25.4l5.7-3.3c0,0,2.1-1.9,6.7-0.4c4.6,1.5,13.8,1.1,13.8,1.1h17v-3.5h-4.7v-4.1
	h18.6V425h4.7v-2.9l-23.9,0.3v-2.6h15.5v-8.6h-11.6l-4.1,0.7l-4,7.9h-3.9l-11.6-22.1c0,0-6.1-1.4-6.5-4.8L592.6,392.8z"/>
<polygon class="st32" points="593.3,410.5 593.3,435.9 578.1,436 575.3,431.7 553.7,431.7 553,412 "/>
<polygon class="st36" points="291.3,418.1 361.1,416.3 362.3,436.7 363.6,436.8 364.3,456.7 363.2,456.7 364.4,496.5 293.7,498 "/>
<polygon class="st36" points="361.1,416.3 362.3,436.7 363.6,436.8 364.3,456.7 363.2,456.7 364.4,496.5 435,494.9 432.2,414.5 "/>
<polygon class="st36" points="432.2,414.5 493,413.3 493.1,433 513.6,432.6 515.5,493.1 435,494.9 "/>
<polygon class="st32" points="513.6,432.6 515.5,493.1 556.2,492.1 556.3,511.6 583.1,510.7 582.5,465 554.4,465.7 553.7,431.7 "/>
<polygon class="st35" points="553.7,431.7 569.8,431.7 570.4,465.3 554.4,465.7 "/>
<polygon class="st35" points="569.8,431.7 575.3,431.7 578.1,436 582.5,436 582.5,465 570.4,465.3 "/>
<path class="st35" d="M582.5,436l10.8-0.1l5.7-3.3c0,0,1.9-1.9,6.7-0.4c4.7,1.5,13.8,1.1,13.8,1.1l11.8,0l0,11l-5.5,0
	c0,0,0.5,3.7-3.1,5.1l-4.6,1.1l-35.5,0L582.5,436z"/>
<polygon class="st35" points="618,450.6 617.9,465.3 582.5,465 582.5,450.6 "/>
<path class="st32" d="M617.9,465.3l0.5,1l0.3,19.5c0,0,0.7,2,3.9,2.1c3.1,0.1,3.4,0.3,3.4,0.3s0.5,0,0.4,0.9c-0.1,0.9,0,3.1,0,3.1
	h8.5c0,0,2.1-1.3,3.1-1.1c0.9,0.2,1.8,0.6,1.8,0.6s1.5,1.7,0.5,3c-1,1.3-3.8,3.4-3.8,3.4l-0.1,3.5l3.1,3.8v4.5l-1.9,1.9l1.2,17.9
	H633c0,0-0.8-0.8-0.8-1.5c0-0.8,0-6.1,0-6.1s1-2-0.1-3.7l-0.4-4.4c0,0-1.2-1.7-1-5l1.6-4.8l-0.1-4.8l-1.9-4.4l-4.1-0.1l-1.6,5.7
	c0,0-0.6,1.9-0.1,3.3c0.6,1.4,2.5,5.4,2.5,5.4l-2.5,0.9l-41.5,0.6l-0.6-45.7L617.9,465.3z"/>
<path class="st30" d="M364.4,496.5l90.6-2l2.9,99.8l-55,2l-0.1,9.4l-3.6,1.4c0,0-0.7,0.2-1,0l-1.1-2v-16.7l-1-2.3l-28.4,0.8
	L364.4,496.5z"/>
<polygon class="st30" points="455,494.5 457.9,594.3 557.7,591.6 556.3,511.6 556.2,492.1 "/>
<path class="st33" d="M556.3,511.6l1.4,80l89.5-1.8l0.1-2.9l-4.2-3.2c0,0-0.7-0.7-0.2-2.6s-2.6-6.4-2.6-6.4l-0.1-6l-4-6.5l0-3.1
	c0,0,0-0.4-0.2-0.8s-2.2-4.1-2.2-4.1s-0.3-1.1,0.4-2.1c0.7-0.9,1.4-1.6,1.4-1.6s0.8-2.1-0.2-3.5c-1-1.4-2.2-2.4-2.2-2.4
	s-0.5-0.5-0.5-1.1s0-9.5,0-9.5l-3.1-5.2l0-4.4c0,0-6.3-2.8-2.4-9.4l0-5.9l-2.5,0.9l-41.5,0.6L556.3,511.6z"/>
<path class="st30" d="M367.6,586.9l0.5,34.9l-9.9,5l1.8,65.7l2.1,4.1l118.3-2.8L478,593.7l-75.2,2.5l-0.1,9.4l-3.6,1.4
	c0,0-0.6,0.2-1,0c0,0-1.1-2-1.1-2v-16.7l-1-2.3L367.6,586.9z"/>
<polygon class="st33" points="356,617.1 368.1,617 368.2,621.8 358.2,626.8 360,692.6 362.1,696.6 362.1,711.2 360.5,715.1 
	361.4,747 240.4,751 238.9,684.1 248.4,680 339.1,677.1 338.4,641.7 354.8,634.4 355.1,617 "/>
<polygon class="st34" points="478,593.7 480.4,693.8 600.9,691.3 598.4,590.7 557.7,591.6 "/>
<path class="st33" d="M598.4,590.7l1.5,59.9l71-1.9l8.8-4.9c0,0-5.8-3.7-6.4-6.5c-0.6-2.9-0.7-3.1-0.7-3.1l-3.3-4.3v-4.4
	c0,0-10.6-7.9-11-14.4c-0.4-6.5-0.4-7.4-0.4-7.4l-10.8-14L598.4,590.7z"/>
<path class="st30" d="M362.1,696.6l0,14.5l-1.6,3.9l0.9,31.9l2.1,49.9l38.6-1l7.9-1.3l62.7-0.1c0,0,1,0.9,3.1,0.6s7.7-1.2,7.7-1.2
	l-3.1-100.1L362.1,696.6z"/>
<polygon class="st33" points="480.4,693.8 483.5,793.9 543.6,792.6 541.3,692.6 "/>
<polygon class="st33" points="541.3,692.6 543.6,792.6 568.5,791.7 603.6,790.9 600.9,691.3 "/>
<path class="st33" d="M599.9,650.6l1,40.7l22.1-0.8c0,0,8.9,8.6,15.7-0.8l30.6-1c0,0,4.5,1.7,7.1-0.1l26.5-0.4
	c0.4,0,0.7-0.2,0.9-0.4c0.7-0.9,1.8-2.9-0.6-4.1h-4.3L695,679l-1.5-4.6l0-9.9c0,0-14-11.8-13.7-20.6l-8.8,4.9L599.9,650.6z"/>
<path class="st33" d="M600.9,691.3l2.1,79.2l79.6-2.5l-0.9-39.9l5,0.2c0,0,6.8,1.7,8.2,2.4c1.4,0.7,7.2-2.6,7.2-2.6l10.1-0.1
	c0,0,3.1-1.3-0.2-2.7s-9-6.3-9-6.3s-3.6-7.8-2.8-11.7c0,0,1.5-1.1,0.6-2.1s-5-8.7-5-8.7s0.9-7.1,3.3-8.4l-22.7,0.3
	c0,0-2.4,1.5-7.1,0.1l-30.6,1c0,0-5.5,8.6-15.7,0.8L600.9,691.3z"/>
<path class="st33" d="M363.5,796.9l1.7,60l119.5-3l-1.2-59.9l-7.7,1.2c0,0-2,0.1-3.1-0.6l-62.7,0.1l-7.9,1.3L363.5,796.9z"/>
<path class="st30" d="M483.5,793.9l1.2,59.9l20.4-0.3c0,0,15.8,19.9,20.5,39.1l81-1.6l-3-100.2c0,0-59,1.1-60,1.7L483.5,793.9z"/>
<polygon class="st30" points="603,770.6 603.6,790.9 606.6,891.1 685.9,888.7 682.6,768.1 "/>
<path class="st34" d="M681.7,728.2l1.9,80.2l87.5-2.1c0,0-2.1-4-2.1-5.3s3-4.5,3-4.5l4.9-4.2l-7.3-8.6l-4.7,3.8c0,0-2.8,1.8-6.8-0.1
	s-17.6-12.6-17.6-12.6L735,769c0,0-0.5-0.8,2.4-2.3l-0.1-5c0,0-4.4,0-7.2-5.1l-0.9-4.3L712.5,733c0,0-0.3-0.3-0.4-1.1s0-3.7,0-3.7
	l-10.1,0.1c0,0-6,3.1-7.2,2.6c-1.2-0.5-8.2-2.4-8.2-2.4L681.7,728.2z"/>
<path class="st29" d="M484.7,853.8l6,160l25.1-0.3l0,3.6c0,0,3.1,0.6,3.4-3.8l10.2-0.1v20l41.1-1.7l-4-139.7l-40.8,0.8
	c0,0-3.3-21.7-20.5-39.1L484.7,853.8z"/>
<polygon class="st32" points="490.6,1013.9 486.9,913.6 466.8,914.1 466.8,931.8 446.9,932.1 446.9,934.4 426.8,935.1 426.8,920.5 
	423.6,920.5 423.6,915.1 406.2,915.2 408.2,975.3 368.3,977.3 369.2,997.2 426.2,995.8 426.6,1006.1 439.7,1005.9 439.7,995.2 
	449.2,995 449.2,990 451.5,989.9 451.6,985.2 458.4,985.3 459.2,994.8 479.3,994.4 479.8,1010.7 479,1014.1 "/>
<path class="st30" d="M566.5,891.8l4,139.7l0.6,34.9c0,0,11.1,2.9,17.6,0.8c6.5-2.1,12.4-9.2,12.4-9.2s8.1-9.2,15.5,0v5.2l41.4-1
	l21.2-3.8l-23.6-36.3c0,0-1.1-1.2,1.5-1.2s32.9,1.5,32.9,1.5l-4-133.8L566.5,891.8z"/>
<path class="st34" d="M683.6,808.4l6.4,214.1l65.5-1.4l56.1,0.3l-0.3-97.4l-6.5-3.7c0,0-1.5-0.9-0.3-2s2.3-2.6,2.3-2.6
	s0.5-0.5-0.3-1.7c-0.8-1.2-3.8-6.3-3.8-6.3s-0.7-1.5,0.3-2.3c1-0.9,5.6-4.4,5.6-4.4l2.7-0.1l-0.1-1.4l-2.7-2.7v-4.4l2.7-3.6
	l-0.7-26.2l-9.4-2.1l-3.7-43.9l-20.1-10.3l-6-0.1L683.6,808.4z"/>
<path class="st35" d="M616.5,1063.2l4.3-0.1l-4.9,20.6c0,0-0.5,1.4-0.3,1.8c0.2,0.3,5.4,1.4,5.4,1.4v16.2l67.4-1.1l-0.1-30.4
	l-9.2-13.1l-21.2,3.8l-37.2,0.9"/>
<path class="st35" d="M688.3,1071.5l0.1,30.4l123-1l0-79.6l-121.5,1.1l-32.9-1.5c0,0-2.4-0.2-1.5,1.2c1,1.4,23.6,36.3,23.6,36.3
	L688.3,1071.5z"/>
<polygon class="st35" points="618,450.6 617.9,458.6 582.5,458.5 582.5,450.6 "/>
</svg>
