<?xml version="1.0" encoding="utf-8"?>
<!-- Generator: Adobe Illustrator 24.1.0, SVG Export Plug-In . SVG Version: 6.00 Build 0)  -->
<svg version="1.1" id="Layer_1" xmlns="http://www.w3.org/2000/svg" xmlns:xlink="http://www.w3.org/1999/xlink" x="0px" y="0px"
	 viewBox="0 0 583.2 666.4" style="enable-background:new 0 0 583.2 666.4;" xml:space="preserve">
<style type="text/css">
	.st0{fill:#EB2124;}
</style>
<g>
	<path class="st0" d="M577.6,174.7c-11.5,11.3-23,22.5-34.4,33.9c-40.9,40.8-81.7,81.6-122.7,122.3c-3.4,3.3-3,5,0.2,8.2
		c49.6,49.4,99.1,98.8,148.6,148.3c2.3,2.3,4.2,4.9,7.3,8.5c-2.6-0.3-3.9-0.2-5.2-0.5c-21-5.6-41.9-11.1-62.9-16.8
		c-20.6-5.6-41.2-11.4-61.9-16.9c-18.7-5-37.5-9.9-56.2-14.9c-8.7-2.3-17.3-4.7-25.9-7.2c-7-2-7.3-1.8-9.1,5.1
		c-5,18.6-10.2,37.1-15.2,55.7c-5,18.6-9.8,37.2-14.8,55.8c-5,18.7-10.1,37.4-15.2,56.2c-3.6,13.4-7.2,26.9-10.8,40.4
		c-0.3,1.1-0.7,2.1-1.6,4.5c-1.1-2.5-1.9-3.8-2.3-5.2c-5.1-18.7-10.1-37.4-15.1-56.2c-3.6-13.6-7.2-27.2-10.9-40.8
		c-4.4-16.3-8.9-32.6-13.2-49c-4.3-16-8.5-32-12.8-48.1c-1.4-5.4-2.9-10.9-4.2-16.4c-0.7-3.2-2.7-3.4-5.3-2.7
		c-8.8,2.3-17.7,4.6-26.5,7c-13.8,3.7-27.5,7.4-41.3,11.1c-13.3,3.6-26.6,7.2-39.9,10.7c-16.8,4.5-33.6,8.9-50.4,13.4
		c-13.4,3.6-26.9,7.3-40.3,11c-4.5,1.2-8.9,2.5-13.4,3.6c-0.8,0.2-1.7-0.3-2.6-0.5c0.4-0.8,0.6-1.7,1.2-2.3
		C71.5,442,122.2,391.3,172.9,340.6c5.7-5.7,5.7-5.6,0.4-10.9C124.6,280.9,75.8,232.1,27,183.3c-2.5-2.5-5-4.8-7.5-7.2
		c0.2-0.6,0.4-1.2,0.7-1.8c5.1,1.1,10.2,2,15.2,3.3c19.1,5,38.1,10.2,57.1,15.3c18.6,5,37.1,10.2,55.7,15.2
		c18.6,5,37.2,9.8,55.8,14.8c8.7,2.3,17.3,4.6,25.9,7.1c7.8,2.3,7.8,2.3,9.9-5.5c6.3-23.4,12.9-46.7,19.2-70.1
		c5.7-21.1,11.1-42.3,16.7-63.4c5-18.6,10.2-37.1,15.2-55.7c1.7-6.1,3.1-12.2,4.7-18.3c0.3-1.2,0.9-2.2,2.7-3.3
		c1.7,5.9,3.4,11.9,5,17.8c5.1,19.1,10.3,38.1,15.4,57.2c4.9,18.4,9.8,36.8,14.7,55.2c5,18.8,10.1,37.5,15.1,56.3
		c2.4,8.8,4.8,17.6,6.9,26.5c0.9,3.6,2.1,5.2,6.1,4.1c13.7-3.8,27.6-7.4,41.3-11.1c16.3-4.4,32.7-8.8,49-13.1
		c15.7-4.2,31.4-8.3,47.1-12.5c13.8-3.7,27.5-7.5,41.2-11.2c11.2-3,22.4-6,33.6-9c0.9-0.2,1.9-0.4,2.9-0.5
		C577,173.9,577.3,174.3,577.6,174.7z"/>
</g>
</svg>
