<?xml version="1.0" encoding="utf-8"?>
<!-- Generator: Adobe Illustrator 23.0.1, SVG Export Plug-In . SVG Version: 6.00 Build 0)  -->
<svg version="1.1" id="Layer_1" xmlns="http://www.w3.org/2000/svg" xmlns:xlink="http://www.w3.org/1999/xlink" x="0px" y="0px"
	 viewBox="0 0 100 76.2" style="enable-background:new 0 0 100 76.2;" xml:space="preserve">
<style type="text/css">
	.st0{display:none;fill:#333333;}
	.st1{display:none;fill:#222323;}
	.st2{display:none;fill:#EFEDA8;}
	.st3{display:none;fill:#767777;}
	.st4{display:none;fill:#E6E7E8;}
	.st5{display:none;fill:none;stroke:#000000;stroke-width:0.4;stroke-miterlimit:10;}
	.st6{display:none;fill:#B2B1B1;}
	.st7{fill:#CDCFD1;}
	.st8{fill:none;}
	.st9{fill:none;stroke:#000000;stroke-width:0.4;stroke-miterlimit:10;}
	.st10{fill:#B2B1B1;}
</style>
<polygon class="st0" points="39.1,17.9 88.8,17.6 90.4,20.2 91.5,23.8 91.2,30.6 90.6,60.6 89.2,63.4 87,64.5 82,64.7 37.6,64.5 
	35.9,65.7 28.2,66.4 22.5,66.4 15.9,65.7 12.1,65.7 10.7,64.5 9.7,56.9 9.5,45.6 9.5,38.4 9.5,19.5 10.8,16.9 16.6,16 17.4,16 
	18.3,12.3 22.7,11.7 27.1,12 29.8,12.5 30.4,14.3 31.2,16.4 34.6,16.7 37.3,17.3 38.5,17.8 "/>
<ellipse class="st1" cx="63.2" cy="41.8" rx="20.4" ry="20.9"/>
<polygon class="st2" points="20.5,11 20.9,9.6 26.5,9.9 26.7,10.6 27.4,11.7 27.1,12 20.3,12 "/>
<circle class="st3" cx="63.1" cy="41.4" r="16.3"/>
<polygon class="st0" points="38.1,12.5 44.6,13.3 46,17.6 38.5,17.8 37.3,17.3 33.8,16.4 32.3,16.5 33.2,13.2 "/>
<circle class="st4" cx="63.2" cy="41.2" r="9"/>
<line class="st5" x1="57" y1="11.3" x2="63.8" y2="11.2"/>
<polygon class="st0" points="48.3,16.8 52.8,11.4 74.1,11.2 79.4,17 48.1,17.6 "/>
<path class="st6" d="M46.7,6.7"/>
<polygon class="st7" points="38.9,18 88.7,17.7 90.2,20.3 91.3,23.9 91,30.7 90.4,60.7 89,63.5 86.8,64.6 81.8,64.8 37.4,64.6 
	35.8,65.8 28,66.5 22.3,66.5 15.7,65.8 11.9,65.8 10.5,64.6 9.5,57 9.3,45.7 9.3,38.5 9.3,19.6 10.6,17 16.4,16.1 17.2,16.1 
	18.1,12.4 22.5,11.8 26.9,12.1 29.6,12.6 30.2,14.4 31,16.5 34.4,16.8 37.1,17.4 38.3,17.9 "/>
<ellipse class="st7" cx="63" cy="41.9" rx="20.4" ry="20.9"/>
<polygon class="st7" points="20.3,11.1 20.7,9.7 26.3,10 26.5,10.7 27.2,11.8 26.9,12.1 20.1,12.1 "/>
<circle class="st7" cx="62.9" cy="41.5" r="16.3"/>
<polygon class="st7" points="37.9,12.6 44.4,13.4 45.8,17.7 38.3,17.9 37.1,17.4 33.6,16.5 32.1,16.6 33,13.3 "/>
<circle class="st7" cx="63" cy="41.3" r="9"/>
<ellipse class="st7" cx="83.7" cy="56.8" rx="3" ry="3.2"/>
<polygon class="st7" points="48.1,16.9 52.6,11.5 73.9,11.3 79.2,17.1 47.9,17.7 "/>
<g>
	<path class="st8" d="M38,17.5c1.9,0,4.4-0.1,7.3-0.1c-0.3-1.2-0.7-2.8-0.9-3.4c-0.3-0.3-3-0.8-6.7-0.8c-3,0-4.4,0.4-4.5,0.6
		c-0.1,0.6-0.3,1.6-0.5,2.4C35.4,16.5,37.8,16.9,38,17.5z M36.5,14.2C36,14.6,34.8,15,34,14.6c-0.2-0.1-0.2-0.5,0-0.6
		c0.3-0.2,0.7-0.2,1.1-0.3c0.3-0.1,0.7-0.1,1.1-0.2C36.6,13.4,36.9,13.9,36.5,14.2z"/>
	<path class="st8" d="M30.3,16c-0.3-1.1-0.6-2.4-0.8-3c-0.3-0.3-3-0.8-6.7-0.8c-3,0-4.4,0.4-4.5,0.6c-0.2,0.8-0.4,2.1-0.6,3
		c1.6-0.1,3.1-0.1,4.4-0.1C22.3,15.8,26.4,15.8,30.3,16z M19.9,13.9c-0.3,0-0.5-0.4-0.2-0.6h0.1c0.2,0,0.4-0.1,0.6-0.1
		c0.3,0,0.5-0.1,0.8-0.1c0.6-0.1,1.2,0,1.8,0c0.3,0,0.4,0.5,0.1,0.6C22,14,20.9,14.1,19.9,13.9z"/>
	<path class="st8" d="M26.8,11.7c-0.1-0.4-0.1-0.8-0.2-1C26.5,10.5,25,10,23.1,10c-1.7,0-2.3,0.4-2.3,0.5c0,0.3-0.1,0.7-0.1,1
		c0.6,0,1.3-0.1,2.1-0.1C22.8,11.5,24.8,11.5,26.8,11.7z"/>
	<path class="st8" d="M37.3,17.9c-0.5-0.6-6.9-1.3-15.3-1.3c-8.1,0-11.4,0.7-11.7,1.1c-0.5,0.7-0.9,10-0.8,23.5
		C9.6,56.4,10.4,64,11,64.6c1,0.9,7.9,1.6,15.1,1.6c5.5,0,9.6-0.4,10.3-1.1C37,64.5,37.9,58,38,41.5C38,29.7,37.8,18.6,37.3,17.9z
		 M11.7,31c0,0.6-0.1,1.2-0.2,1.8c-0.1,0.5-0.8,0.3-0.9-0.1c-0.1-0.7,0-1.3,0-2c0.1-0.5,0-1.1,0.4-1.4c0.1-0.1,0.3-0.1,0.4,0
		C11.8,29.8,11.7,30.4,11.7,31z M11.7,26.8c0,0.5-0.8,0.6-0.9,0.1c-0.4-2.6-0.2-5.7,0.6-8.1c0.1-0.3,0.6-0.3,0.6,0.1
		C12,21.5,11.9,24.2,11.7,26.8z M27.7,49.4c-3.6,1.2-7.6,1.1-11.3,0.8c-0.5,0-0.5-0.8,0-0.8c3.8,0.2,7.5-0.3,11.2-0.7
		C28,48.7,28.1,49.3,27.7,49.4z M32.8,47.9c-0.3,0.3-0.7,0.5-1.1,0.6c-0.4,0.2-0.8,0.3-1.3,0.5c-0.7,0.3-0.9-0.8-0.3-1.1
		c0.8-0.3,1.5-0.7,2.3-0.7C32.8,47.2,32.9,47.7,32.8,47.9z"/>
	<path class="st8" d="M62.9,25.2c-0.1,0-0.2,0-0.3,0c-4.5,0.1-8.9,2.4-11.7,6.1C47.5,35.9,46.3,42,48,46.9
		c2.1,6.3,8.7,10.9,15.6,10.9c1,0,1.9-0.1,2.8-0.3c7.5-1.5,13.3-9.3,12.8-16.9C78.8,32.4,71.2,25.2,62.9,25.2z M51,35.3
		c-0.2,0.4-0.4,0.8-0.6,1.2c-0.1,0.3-0.3,0.6-0.6,0.9c-0.2,0.1-0.5,0.1-0.5-0.1c-0.2-0.9,0.5-1.7,1.1-2.3C50.8,34.6,51.2,35,51,35.3
		z M52.2,33.5c-0.3,0.3-0.9-0.1-0.6-0.5c1.4-2.5,4-5.8,7.2-5.9c0.8,0,0.8,1.2,0,1.2C56,28.5,54.1,31.8,52.2,33.5z M65.2,50.9
		c-0.5,0.1-1.1,0.2-1.7,0.2c-4,0-7.8-2.7-9.1-6.4c-1-2.9-0.3-6.4,1.7-9.1c1.6-2.2,4.2-3.5,6.9-3.6h0.2c4.8,0,9.2,4.2,9.5,9
		C72.9,45.5,69.5,50,65.2,50.9z"/>
	<path class="st8" d="M63.1,32.7h-0.2c-2.4,0-4.8,1.3-6.3,3.3c-1.9,2.5-2.5,5.8-1.6,8.4c1.1,3.4,4.8,5.9,8.4,5.9
		c0.5,0,1-0.1,1.5-0.2c4-0.8,7.2-5,6.9-9.1C71.7,36.6,67.5,32.7,63.1,32.7z M56.4,39.8c-0.2,0.3-0.3,0.6-0.4,0.9
		c-0.1,0.3-0.2,0.5-0.4,0.7c-0.1,0.1-0.4,0.1-0.4-0.1c-0.1-0.7,0.4-1.3,0.8-1.8C56.2,39.3,56.5,39.6,56.4,39.8z M62.2,34.6
		c-2.1,0.1-3.5,2.6-5,3.9c-0.3,0.2-0.7-0.1-0.5-0.4c1.1-1.9,3.1-4.4,5.4-4.5C62.8,33.6,62.8,34.5,62.2,34.6z"/>
	<path class="st8" d="M6.9,19.5c-0.1,0-0.3,0.1-0.5,0.8c-0.6,1.8-0.4,4.7,0,5C6.9,25.5,8,25.8,8.9,26c0.1-2.6,0.2-4.9,0.4-6.6
		c-0.6,0-1.3,0-1.9,0C7.2,19.5,7,19.5,6.9,19.5z"/>
	<path class="st8" d="M91.8,26.2c0.8-0.2,1.7-0.5,2.1-0.6c0.4-0.3,0.5-3.3,0-5c-0.2-0.6-0.4-0.8-0.5-0.8c-0.7,0-1.9,0-2.7,0
		C91.3,21.7,91.8,24.2,91.8,26.2z"/>
	<path class="st8" d="M73.9,11.8c-0.3-0.1-3.3-0.3-8.1-0.3c-7.9,0-12.7,0.3-13.2,0.7c-0.5,0.6-2.9,3.4-4.4,5.2
		c9.6-0.1,22.2-0.3,30.5-0.4C76.8,14.6,74.3,12.1,73.9,11.8z M56.9,13.7c-0.7,0.3-2.8,1.1-2.9-0.3c0-0.2,0.1-0.4,0.3-0.4l0,0
		c0.2-0.1,0.5,0,0.6,0.1H55c0.1,0,0.1,0,0.2,0c0.2,0,0.3,0,0.5-0.1c0.3,0,0.7-0.1,1-0.2C57.2,12.6,57.4,13.5,56.9,13.7z M60.8,13.7
		c-0.2,0-0.3,0.1-0.5,0.1c-0.3,0.1-0.7-0.1-0.7-0.5s0.3-0.6,0.7-0.5c0.2,0,0.3,0.1,0.5,0.1C61.1,12.9,61.1,13.6,60.8,13.7z"/>
	<path class="st8" d="M84.8,54.5c-0.5-0.3-1-0.4-1.5-0.4c-0.7,0-1.3,0.3-1.8,0.8c-0.5,0.6-0.8,1.3-0.8,2.1c0,0.9,0.6,1.8,1.4,2.3
		c0.4,0.3,0.9,0.4,1.3,0.4l0,0c1,0,1.9-0.6,2.3-1.4C86.4,57,85.9,55.2,84.8,54.5z"/>
	<path class="st8" d="M87.4,17.7c-2.2,0-37.6,0.5-49.2,0.6c0.4,3,0.5,13.9,0.5,23.2c-0.1,9-0.3,19.6-1.3,23.1h47.1
		c5.2,0,5.7-2.9,5.7-5.9c0-3.2,0.6-29,0.8-32.5c0.1-2.6-0.7-6.3-2.2-7.8C88.3,17.9,87.9,17.7,87.4,17.7z M81.3,28.9
		c0.5-0.7,1.1-1.4,1.6-2.1c0.6-0.8,1.1-1.5,1.8-2.2c0.3-0.3,0.7,0.1,0.5,0.4c-0.4,0.8-0.9,1.5-1.5,2.2s-1.2,1.5-1.9,2.1
		C81.7,29.5,81.2,29.2,81.3,28.9z M50,20c0.4-0.1,0.9-0.1,1.3-0.1c0.4,0,0.8-0.1,1.2,0.2c0.3,0.1,0.3,0.5,0,0.7
		c-0.3,0.1-0.7,0.1-1.2,0c-0.4,0-0.9,0-1.3-0.1C49.8,20.6,49.8,20.1,50,20z M40.2,20c1.3-0.1,2.6-0.1,4-0.2c1.2-0.1,2.4-0.2,3.5,0
		c0.5,0.1,0.5,0.9,0,1c-1.3,0.3-2.8,0.1-4.1,0.1c-1.2,0-2.3-0.1-3.5-0.3C39.8,20.6,39.9,20,40.2,20z M41.5,53.6
		c-0.4,0.3-0.7,0.5-1.2,0.6c-0.6,0.1-0.9-0.6-0.4-0.9c0.4-0.2,0.8-0.4,1.2-0.5C41.8,52.7,41.9,53.3,41.5,53.6z M67.4,62.4
		c-1.2,0.2-2.5,0.4-3.7,0.4c-9,0-17.5-6-20.3-14.3c-2.2-6.4-0.7-14.3,3.8-20.3c3.6-4.8,9.4-7.8,15.3-7.9c10.8-0.2,21,9.2,21.7,20
		C84.8,50.3,77.2,60.4,67.4,62.4z M86.4,58.6c-0.6,1.1-1.8,1.8-3,1.8l0,0c-0.6,0-1.2-0.2-1.7-0.5c-1-0.7-1.7-1.8-1.7-2.9
		c0-1,0.3-2,1-2.7c1.1-1.1,2.7-1.3,4.1-0.4C86.7,54.8,87.2,57,86.4,58.6z M86.8,22.5c-0.3,0.3-0.9,0-0.8-0.4c0.2-0.5,0.5-1.1,1-1.5
		c0.3-0.2,0.7,0,0.6,0.3C87.5,21.5,87.2,22.1,86.8,22.5z"/>
	<path class="st8" d="M62.8,21c-0.1,0-0.2,0-0.4,0c-5.7,0.1-11.2,3-14.7,7.6C43.4,34.4,41.9,42,44,48.2c2.7,8,11,13.8,19.6,13.8
		c1.2,0,2.4-0.1,3.6-0.4c9.4-1.9,16.8-11.7,16.2-21.3C82.8,30.1,73.2,21,62.8,21z M56.2,23.7c0.2-0.1,0.4-0.2,0.6-0.2
		c0.2-0.1,0.4-0.1,0.6-0.1c0.3-0.1,0.4,0.3,0.2,0.4s-0.4,0.3-0.6,0.4c-0.2,0.1-0.4,0.2-0.6,0.2c-0.2,0.1-0.4-0.1-0.4-0.2
		C55.9,23.9,56,23.8,56.2,23.7z M54.4,24.4c0.3-0.1,0.6,0.2,0.4,0.5c-1.6,1.3-3.7,2.2-4.9,3.8c-0.2,0.2-0.6,0-0.5-0.3
		C50.1,26.4,52.6,25.3,54.4,24.4z M66.7,58.3c-1,0.2-2,0.3-3,0.3c-7.2,0-14-4.8-16.3-11.4c-1.7-5.1-0.5-11.5,3-16.3
		c2.9-3.9,7.5-6.3,12.3-6.4c8.7-0.2,16.8,7.4,17.4,16C80.5,48.6,74.4,56.7,66.7,58.3z"/>
	<path d="M94.7,21.2C94.3,19.7,94,19,93.2,19h-3.1c-0.2-0.5-0.5-0.8-0.8-1.2c-0.6-0.6-1.2-0.9-1.9-0.9c-0.6,0-3.5,0-7.7,0.1
		c-1.9-2.2-4.8-5.5-5.5-5.8h-0.1c-0.4,0-0.9-0.1-1.3-0.1c-0.1,0-0.2,0-0.4,0h-0.1c-0.5,0-0.9,0-1.4,0c-0.3,0.1-0.7,0-1,0h-4
		c-1.7,0-4.5,0-7,0.1c-0.3,0.1-0.7,0.2-1.1,0.1c-0.2,0-0.3,0-0.5-0.1c-0.1,0-0.2,0-0.3,0c0,0,0,0,0-0.1c-0.1,0-0.2,0-0.2,0
		c-1.3,0.1-2.6,0.2-4,0.2c-0.3,0.1-0.5,0.2-0.6,0.3c-0.6,0.7-3.5,4.1-4.9,5.7h-1.2c-0.3-1.2-0.7-3-1-3.7c-0.5-1.2-7.3-1.3-7.4-1.3
		c-5,0-5.2,0.9-5.2,1.2c-0.1,0.7-0.3,1.7-0.5,2.5c-0.3,0-0.6,0-0.9-0.1c-0.3-1.2-0.6-2.7-0.9-3.3c-0.2-0.5-1.3-0.8-2.6-1
		c-0.1-0.5-0.2-1-0.2-1.3c-0.3-1.2-4.2-1.2-4.2-1.2c-1.3,0-2.9,0.2-3,1.1c0,0.3-0.1,0.8-0.1,1.2c-2.1,0.3-2.3,0.8-2.3,1
		c-0.2,0.9-0.4,2.2-0.6,3.2c-3.4,0.2-6.7,0.5-7.2,1.3c-0.1,0.2-0.2,0.8-0.4,1.6H7.1c-0.7,0-1.1,0.8-1.4,2.2c-0.2,1.2-0.5,4.6,0.6,5
		c0.5,0.2,1.8,0.5,2.8,0.8c-0.4,5-0.4,10.4-0.4,14.8c0.1,6.8,0.4,22.6,1.8,23.9c1.5,1.3,10.3,1.7,15.6,1.7c2.8,0,9.5-0.1,10.8-1.3
		c0.1-0.1,0.2-0.2,0.2-0.4h47.3c5.6,0,6.4-3.2,6.4-6.6c0-3,0.6-26.3,0.8-31.7c0.9-0.2,1.9-0.5,2.4-0.7
		C95.2,25.8,94.8,22.4,94.7,21.2z M52.6,12.2c0.5-0.3,5.3-0.7,13.2-0.7c4.8,0,7.7,0.1,8.1,0.3c0.5,0.2,2.8,2.8,4.9,5.2
		c-8.3,0.1-20.9,0.3-30.5,0.4C49.8,15.7,52.1,12.9,52.6,12.2z M33.1,13.8c0.1-0.2,1.5-0.6,4.5-0.6c3.7,0,6.4,0.5,6.7,0.8
		c0.3,0.6,0.7,2.3,0.9,3.4c-2.9,0-5.4,0.1-7.3,0.1c-0.3-0.7-2.6-1.1-5.3-1.3C32.8,15.4,33,14.4,33.1,13.8z M20.7,10.5
		c0-0.1,0.6-0.5,2.3-0.5c2,0,3.4,0.4,3.5,0.7c0.1,0.2,0.1,0.6,0.2,1c-1.9-0.2-4-0.2-4-0.2c-0.9,0-1.6,0-2.1,0.1
		C20.6,11.2,20.7,10.8,20.7,10.5z M18.2,12.9c0.1-0.2,1.5-0.6,4.5-0.6c3.7,0,6.4,0.5,6.7,0.8c0.2,0.6,0.6,1.9,0.8,3
		c-3.9-0.2-7.9-0.3-8.3-0.3c-1.3,0-2.8,0-4.4,0.1C17.8,14.9,18.1,13.6,18.2,12.9z M8.9,26.1c-1-0.3-2.1-0.6-2.5-0.7
		c-0.4-0.3-0.5-3.3,0-5c0.2-0.6,0.4-0.8,0.5-0.8h2.4C9.1,21.1,9,23.4,8.9,26.1z M36.4,65.1c-0.8,0.7-4.8,1.1-10.3,1.1
		c-7.2,0-14.1-0.7-15.1-1.6c-0.6-0.6-1.4-8.2-1.5-23.4c-0.1-13.5,0.3-22.8,0.8-23.6c0.3-0.4,3.6-1.1,11.7-1.1
		c8.4,0,14.8,0.7,15.3,1.3c0.3,0.8,0.6,11.9,0.6,23.6C37.8,58,37,64.5,36.4,65.1z M90.2,58.7c0,3-0.4,5.9-5.7,5.9h-47
		c0.9-3.5,1.2-14.1,1.3-23.1c0.1-9.3-0.1-20.2-0.5-23.2c11.6-0.1,47-0.6,49.2-0.6c0.5,0,1,0.2,1.4,0.7c1.4,1.5,2.2,5.3,2.1,7.8
		C90.8,29.7,90.2,55.5,90.2,58.7z M93.8,25.5c-0.4,0.2-1.2,0.4-2.1,0.6c0.1-2-0.3-4.5-1.2-6.4h2.8c0.1,0,0.3,0.1,0.5,0.8
		C94.3,22.3,94.2,25.2,93.8,25.5z"/>
	<path d="M84.2,40.3c-0.7-10.8-10.9-20.2-21.7-20c-5.9,0.1-11.7,3.1-15.3,7.9c-4.5,5.9-6,13.9-3.8,20.3c2.8,8.3,11.3,14.3,20.3,14.3
		c1.3,0,2.5-0.1,3.7-0.4C77.2,60.4,84.8,50.3,84.2,40.3z M67.2,61.7c-1.2,0.2-2.4,0.4-3.6,0.4c-8.7,0-16.9-5.8-19.6-13.8
		c-2.1-6.2-0.6-13.8,3.7-19.6c3.5-4.7,9-7.5,14.7-7.6c0.1,0,0.2,0,0.4,0c10.3,0,19.9,9,20.6,19.3C84,50,76.7,59.8,67.2,61.7z"/>
	<path d="M62.6,24.5c-4.8,0.1-9.4,2.5-12.3,6.4c-3.6,4.8-4.8,11.1-3,16.3c2.2,6.6,9.1,11.4,16.3,11.4c1,0,2-0.1,3-0.3
		c7.8-1.6,13.9-9.7,13.4-17.7C79.4,31.9,71.3,24.3,62.6,24.5z M66.4,57.5c-0.9,0.2-1.9,0.3-2.8,0.3c-6.9,0-13.4-4.6-15.6-10.9
		c-1.7-4.9-0.5-11,2.9-15.6c2.8-3.7,7.2-6,11.7-6.1c0.1,0,0.2,0,0.3,0c8.2,0,15.8,7.2,16.3,15.4C79.8,48.3,73.9,56,66.4,57.5z"/>
	<path d="M63.1,32h-0.2c-2.7,0.1-5.2,1.4-6.9,3.6c-2,2.7-2.7,6.2-1.7,9.1c1.3,3.7,5.1,6.4,9.1,6.4c0.6,0,1.1-0.1,1.7-0.2
		c4.4-0.9,7.8-5.3,7.5-9.9C72.3,36.2,67.8,32,63.1,32z M65,50.2c-0.5,0.1-1,0.2-1.5,0.2c-3.7,0-7.3-2.5-8.4-5.9
		c-0.9-2.6-0.3-5.9,1.6-8.4c1.5-2,3.9-3.2,6.3-3.3h0.2c4.4,0,8.5,3.9,8.8,8.3C72.2,45.2,69,49.3,65,50.2z"/>
	<path d="M85.2,53.8c-1.4-0.9-3.1-0.7-4.1,0.4c-0.7,0.7-1,1.6-1,2.7s0.7,2.3,1.7,2.9c0.5,0.3,1.1,0.5,1.7,0.5l0,0
		c1.2,0,2.4-0.7,3-1.8C87.2,57,86.7,54.8,85.2,53.8z M85.8,58.2c-0.5,0.9-1.4,1.4-2.3,1.4l0,0c-0.5,0-0.9-0.1-1.3-0.4
		c-0.8-0.5-1.3-1.4-1.4-2.3c0-0.8,0.2-1.6,0.8-2.1c0.5-0.5,1.1-0.8,1.8-0.8c0.5,0,1,0.2,1.5,0.4C85.9,55.2,86.4,57,85.8,58.2z"/>
	<path d="M40.1,20.6c1.2,0.2,2.3,0.2,3.5,0.3c1.3,0.1,2.8,0.2,4.1-0.1c0.5-0.1,0.5-0.9,0-1c-1.2-0.2-2.4,0-3.5,0
		c-1.3,0.1-2.6,0-4,0.2C39.9,20,39.8,20.6,40.1,20.6z"/>
	<path d="M50,20.7c0.4,0.1,0.9,0.1,1.3,0.1c0.4,0,0.8,0.1,1.2-0.2c0.3-0.1,0.3-0.5,0-0.7c-0.4-0.2-0.8-0.2-1.2-0.2s-0.9,0-1.3,0.1
		C49.8,20.1,49.8,20.6,50,20.7z"/>
	<path d="M11.4,18.8c-0.8,2.5-1,5.6-0.6,8.1c0.1,0.5,0.8,0.3,0.9-0.1c0.2-2.6,0.3-5.3,0.3-7.9C12,18.6,11.5,18.5,11.4,18.8z"/>
	<path d="M11.1,29.3c-0.4,0.4-0.3,0.9-0.4,1.4c-0.1,0.7-0.1,1.3,0,2c0.1,0.5,0.8,0.6,0.9,0.1c0.1-0.6,0.2-1.2,0.2-1.8
		s0.1-1.2-0.3-1.7C11.3,29.2,11.2,29.2,11.1,29.3z"/>
	<path d="M56.6,12.8c-0.3,0.1-0.6,0.2-1,0.2c-0.2,0-0.3,0-0.5,0.1c-0.1,0-0.1,0-0.2,0c-0.1,0-0.1,0-0.1,0c-0.1-0.1-0.4-0.2-0.6-0.1
		l0,0C54,13.1,54,13.3,54,13.4c0.1,1.3,2.2,0.5,2.9,0.3C57.4,13.5,57.2,12.6,56.6,12.8z"/>
	<path d="M60.8,12.8c-0.2,0-0.3-0.1-0.5-0.1c-0.3-0.1-0.7,0.1-0.7,0.5s0.3,0.6,0.7,0.5c0.2,0,0.3-0.1,0.5-0.1
		C61.1,13.6,61.1,12.9,60.8,12.8z"/>
	<path d="M23,13.2c-0.6,0-1.2-0.1-1.8,0c-0.3,0-0.5,0.1-0.8,0.1c-0.2,0-0.4,0.1-0.6,0.1h-0.1c-0.3,0.2-0.1,0.5,0.2,0.6
		c1.1,0.1,2.1,0,3.2-0.2C23.4,13.7,23.3,13.2,23,13.2z"/>
	<path d="M36.2,13.5c-0.3,0.1-0.7,0.1-1.1,0.2c-0.4,0.1-0.8,0.1-1.1,0.3c-0.2,0.1-0.2,0.5,0,0.6c0.7,0.4,1.8,0,2.5-0.4
		C36.9,13.9,36.6,13.4,36.2,13.5z"/>
	<path d="M81.9,29.3c0.7-0.6,1.3-1.4,1.9-2.1s1.1-1.4,1.5-2.2c0.1-0.3-0.2-0.7-0.5-0.4c-0.7,0.6-1.2,1.4-1.8,2.2
		c-0.5,0.7-1.1,1.3-1.6,2.1C81.2,29.2,81.7,29.5,81.9,29.3z"/>
	<path d="M87,20.6c-0.4,0.4-0.8,0.9-1,1.5c-0.1,0.4,0.4,0.8,0.8,0.4s0.7-1,0.8-1.5C87.8,20.6,87.3,20.4,87,20.6z"/>
	<path d="M41.2,52.8c-0.4,0.1-0.9,0.2-1.2,0.4c-0.5,0.3-0.2,1.1,0.4,0.9c0.4-0.1,0.8-0.3,1.2-0.6C41.9,53.3,41.8,52.7,41.2,52.8z"/>
	<path d="M27.6,48.7c-3.8,0.4-7.4,0.9-11.2,0.7c-0.5,0-0.5,0.7,0,0.8c3.8,0.4,7.7,0.4,11.3-0.8C28.1,49.3,28,48.7,27.6,48.7z"/>
	<path d="M32.4,47.2c-0.8,0.1-1.6,0.4-2.3,0.7c-0.6,0.3-0.4,1.3,0.3,1.1c0.4-0.2,0.8-0.3,1.3-0.5c0.4-0.2,0.7-0.4,1.1-0.6
		C32.9,47.7,32.8,47.2,32.4,47.2z"/>
	<path d="M58.8,28.4c0.8,0,0.8-1.3,0-1.2c-3.1,0.1-5.8,3.4-7.2,5.9c-0.2,0.4,0.3,0.8,0.6,0.5C54.1,31.8,56,28.5,58.8,28.4z"/>
	<path d="M50.5,34.9c-0.6,0.6-1.2,1.5-1.1,2.3c0,0.2,0.4,0.3,0.5,0.1c0.3-0.3,0.4-0.5,0.6-0.9c0.2-0.4,0.4-0.8,0.6-1.2
		C51.2,35,50.8,34.6,50.5,34.9z"/>
	<path d="M62.2,33.6c-2.4,0.1-4.4,2.6-5.4,4.5c-0.2,0.3,0.2,0.6,0.5,0.4c1.4-1.3,2.9-3.8,5-3.9C62.8,34.5,62.8,33.6,62.2,33.6z"/>
	<path d="M55.9,39.5c-0.4,0.5-0.9,1.1-0.8,1.8c0,0.2,0.3,0.2,0.4,0.1c0.2-0.2,0.3-0.4,0.4-0.7c0.1-0.3,0.3-0.6,0.4-0.9
		C56.5,39.6,56.2,39.3,55.9,39.5z"/>
	<path d="M49.8,28.7c1.3-1.6,3.3-2.5,4.9-3.8c0.3-0.2-0.1-0.6-0.4-0.5c-1.8,0.8-4.3,2-5,4C49.2,28.6,49.6,28.9,49.8,28.7z"/>
	<path d="M56.3,24.4c0.2-0.1,0.4-0.2,0.6-0.2c0.2-0.1,0.4-0.2,0.6-0.4c0.2-0.1,0.1-0.5-0.2-0.4c-0.2,0-0.4,0.1-0.6,0.1
		c-0.2,0.1-0.4,0.2-0.6,0.2c-0.2,0.1-0.3,0.2-0.2,0.4C56,24.3,56.2,24.5,56.3,24.4z"/>
</g>
<line class="st9" x1="56.8" y1="11.4" x2="63.6" y2="11.3"/>
<path class="st10" d="M46.5,6.8"/>
</svg>
