<?xml version="1.0" encoding="utf-8"?>
<!-- Generator: Adobe Illustrator 23.0.1, SVG Export Plug-In . SVG Version: 6.00 Build 0)  -->
<svg version="1.1" id="Layer_1" xmlns="http://www.w3.org/2000/svg" xmlns:xlink="http://www.w3.org/1999/xlink" x="0px" y="0px"
	 viewBox="0 0 295.4 187.7" style="enable-background:new 0 0 295.4 187.7;" xml:space="preserve">
<style type="text/css">
	.st0{fill:#151314;}
	.st1{fill:#1F1D1A;stroke:#1F1D1A;stroke-width:2;stroke-miterlimit:10;}
	.st2{fill:none;stroke:#1F1D1A;stroke-width:2;stroke-miterlimit:10;}
	.st3{fill:#FFFFFF;}
	.st4{font-family:'AinslieSans-ConBol';}
	.st5{font-size:26.8053px;}
	.st6{font-family:'AinslieSans-ConDem';}
	.st7{font-size:17px;}
</style>
<rect class="st0" width="295.4" height="189"/>
<rect x="18.7" y="16.5" class="st1" width="54.3" height="41.2"/>
<rect x="73" y="16.5" class="st2" width="72.4" height="41.2"/>
<rect x="145.4" y="16.5" class="st2" width="75.6" height="41.2"/>
<rect x="221" y="16.5" class="st2" width="55.7" height="41.2"/>
<rect x="18.7" y="57.7" class="st2" width="158.6" height="36.3"/>
<rect x="177.3" y="57.7" class="st2" width="99.3" height="36.3"/>
<rect x="18.7" y="94.1" class="st2" width="59.8" height="36.3"/>
<rect x="78.6" y="94.1" class="st2" width="49.7" height="36.3"/>
<rect x="128.3" y="94.1" class="st2" width="84.1" height="36.3"/>
<rect x="212.3" y="94.1" class="st2" width="64.4" height="36.3"/>
<rect x="18.7" y="130.4" class="st2" width="84.7" height="36.3"/>
<rect x="103.1" y="130.4" class="st2" width="42.3" height="36.3"/>
<rect x="145.4" y="130.4" class="st2" width="42.3" height="36.3"/>
<rect x="187.8" y="130.4" class="st2" width="88.9" height="36.3"/>
<text id="XMLID_1_" transform="matrix(0.9586 0 0 1 35.1979 46.2065)" class="st3 st4 st5">M</text>
<text id="XMLID_2_" transform="matrix(0.9586 0 0 1 84.9441 43.0601)" class="st3 st6 st7">shutter</text>
<text id="XMLID_3_" transform="matrix(0.9586 0 0 1 150.7124 43.0599)" class="st3 st6 st7">aperature</text>
<text id="XMLID_4_" transform="matrix(0.9586 0 0 1 236.54 43.0599)" class="st3 st6 st7">ISO</text>
</svg>
