<?xml version="1.0" encoding="utf-8"?>
<!-- Generator: Adobe Illustrator 23.0.1, SVG Export Plug-In . SVG Version: 6.00 Build 0)  -->
<svg version="1.1" id="Layer_1" xmlns="http://www.w3.org/2000/svg" xmlns:xlink="http://www.w3.org/1999/xlink" x="0px" y="0px"
	 viewBox="0 0 760 809.4" style="enable-background:new 0 0 760 809.4;" xml:space="preserve">
<g>
	<path d="M364.8,111.2l180.9,243.2l76-114C563.9,155.3,466.6,105.1,364.8,111.2z"/>
	<path d="M355.7,111.2c-104.9,9.1-194.6,73-237.1,164.2L421,235.8L355.7,111.2z"/>
	<path d="M638.4,530.7C684,442.6,681,334.6,627.8,248L504.6,520.1L638.4,530.7z"/>
	<path d="M114,284.5c-39.5,91.2-30.4,200.6,31.9,285.8l111-281.2L114,284.5z"/>
	<path d="M152,577.8c63.8,82.1,165.7,121.6,261.4,109.4l-190-229.5L152,577.8z"/>
	<path d="M424.1,685.8c89.7-13.7,165.7-68.4,208.2-144.4l-281.2,22.8L424.1,685.8z"/>
	<path d="M380,35.2C179.4,35.2,15.2,199.4,15.2,400S179.4,764.8,380,764.8S744.8,600.6,744.8,400S580.6,35.2,380,35.2z M380,728.3
		C199.1,728.3,51.7,580.9,51.7,400S199.1,71.7,380,71.7S708.3,219.1,708.3,400S560.9,728.3,380,728.3z"/>
</g>
</svg>
