<svg xmlns="http://www.w3.org/2000/svg" viewBox="0 0 890.78 1125"><defs><style>.cls-1{fill:none;}.cls-1,.cls-10,.cls-11,.cls-12,.cls-13,.cls-14,.cls-15,.cls-16,.cls-17,.cls-18,.cls-19,.cls-2,.cls-20,.cls-21,.cls-22,.cls-23,.cls-24,.cls-25,.cls-26,.cls-27,.cls-28,.cls-29,.cls-3,.cls-30,.cls-31,.cls-32,.cls-33,.cls-34,.cls-35,.cls-36,.cls-37,.cls-38,.cls-39,.cls-4,.cls-40,.cls-41,.cls-42,.cls-43,.cls-44,.cls-45,.cls-46,.cls-47,.cls-48,.cls-49,.cls-5,.cls-50,.cls-51,.cls-52,.cls-53,.cls-54,.cls-55,.cls-56,.cls-6,.cls-7,.cls-8,.cls-9{stroke:#000;stroke-miterlimit:10;}.cls-2{fill:#fff;}.cls-10,.cls-11,.cls-12,.cls-13,.cls-14,.cls-15,.cls-16,.cls-17,.cls-18,.cls-19,.cls-20,.cls-21,.cls-22,.cls-23,.cls-24,.cls-25,.cls-26,.cls-27,.cls-28,.cls-29,.cls-3,.cls-30,.cls-31,.cls-32,.cls-33,.cls-34,.cls-35,.cls-36,.cls-37,.cls-38,.cls-39,.cls-4,.cls-40,.cls-41,.cls-42,.cls-43,.cls-44,.cls-45,.cls-46,.cls-47,.cls-48,.cls-49,.cls-5,.cls-50,.cls-51,.cls-52,.cls-53,.cls-54,.cls-55,.cls-6,.cls-7,.cls-8,.cls-9{fill:#ffcd1a;}.cls-3{opacity:0.39;}.cls-4{opacity:0;}.cls-5{opacity:0.17;}.cls-6{opacity:0.29;}.cls-7{opacity:0.37;}.cls-8{opacity:0.03;}.cls-9{opacity:0.17;}.cls-10{opacity:0.37;}.cls-11{opacity:0.35;}.cls-12{opacity:0.32;}.cls-13{opacity:0.17;}.cls-14{opacity:0.38;}.cls-15{opacity:0.17;}.cls-16{opacity:0.54;}.cls-17{opacity:0.42;}.cls-18{opacity:0.32;}.cls-19{opacity:0.41;}.cls-20{opacity:0.34;}.cls-21{opacity:0.11;}.cls-22{opacity:0.26;}.cls-23{opacity:0.19;}.cls-24{opacity:0.24;}.cls-25{opacity:0.42;}.cls-26{opacity:0.07;}.cls-27{opacity:0;}.cls-28{opacity:0.01;}.cls-29{opacity:0.01;}.cls-30{opacity:0.07;}.cls-31{opacity:0.33;}.cls-32{opacity:0.54;}.cls-33{opacity:0.41;}.cls-34{opacity:0.04;}.cls-35{opacity:0.01;}.cls-36{opacity:0.1;}.cls-37{opacity:0.11;}.cls-38{opacity:0.09;}.cls-39{opacity:0.36;}.cls-40{opacity:0.26;}.cls-41{opacity:0.28;}.cls-42{opacity:0.13;}.cls-43{opacity:0.04;}.cls-44{opacity:0.03;}.cls-45{opacity:0.05;}.cls-46{opacity:0.13;}.cls-47{opacity:0.18;}.cls-48{opacity:0.13;}.cls-49{opacity:0.1;}.cls-50{opacity:0.09;}.cls-51{opacity:0.02;}.cls-52{opacity:0.21;}.cls-53{opacity:0.14;}.cls-54{opacity:0.19;}.cls-55{opacity:0.2;}.cls-56{fill:#aaa;}</style></defs><g id="White_Pop" data-name="White Pop"><g id="Outlines-2" data-name="Outlines"><polygon class="cls-1" points="628.63 418.25 628.52 426.27 593 426.13 592.97 418.24 628.63 418.25"/><path class="cls-1" d="M699.36,1042.17l.12,30.57,123.59-1,0-80L701,992.88l-33.09-1.53s-2.44-.17-1.46,1.24S690.1,1029,690.1,1029Z"/><path class="cls-1" d="M627.17,1033.84l4.28-.1-4.89,20.72s-.5,1.42-.26,1.77,5.44,1.38,5.44,1.38v16.26l67.74-1.13-.12-30.57L690.1,1029l-21.29,3.77-37.36.94"/><path class="cls-1" d="M694.58,777.74,701,992.88l65.8-1.39,56.34.3L822.79,894l-6.54-3.68s-1.52-.93-.35-2a21.15,21.15,0,0,0,2.34-2.62s.52-.47-.3-1.7-3.85-6.37-3.85-6.37a2,2,0,0,1,.35-2.33c1-.88,5.67-4.44,5.67-4.44l2.74-.06-.14-1.45L820,866.63v-4.37l2.67-3.67-.73-26.3-9.43-2.12L808.8,786.1l-20.21-10.35-6.08-.13Z"/><path class="cls-1" d="M576.87,861.61l4,140.4.56,35.08s11.19,2.91,17.68.81,12.48-9.25,12.48-9.25,8.11-9.24,15.57,0v5.19l41.64-1L690.1,1029l-23.67-36.44s-1.09-1.24,1.46-1.24S701,992.88,701,992.88l-4.05-134.44Z"/><polygon class="cls-1" points="500.69 984.22 496.94 883.45 476.68 883.97 476.73 901.78 456.68 902.09 456.68 904.42 436.53 905.08 436.53 890.41 433.28 890.41 433.28 885 415.82 885.11 417.83 945.46 377.7 947.53 378.67 967.52 435.97 966.04 436.34 976.41 449.52 976.19 449.52 965.45 459.01 965.28 459.08 960.22 461.34 960.18 461.41 955.45 468.33 955.48 469.11 965.12 489.29 964.64 489.77 981.02 489.04 984.47 500.69 984.22"/><path class="cls-1" d="M494.7,823.41l6,160.81,25.25-.31v3.64s3.16.57,3.39-3.79l10.22-.06v20.06l41.33-1.75-4-140.4-41,.84a78.85,78.85,0,0,0-20.59-39.31Z"/><path class="cls-1" d="M692.66,697.17l1.92,80.57,87.93-2.12s-2.09-4-2.09-5.33,3-4.55,3-4.55l5-4.17-7.3-8.65-4.77,3.84a7.29,7.29,0,0,1-6.86-.07c-4-1.9-17.71-12.64-17.71-12.64l-5.45-5.84s-.53-.76,2.45-2.34l-.11-5s-4.37,0-7.24-5.09l-.87-4.33L723.64,702a2,2,0,0,1-.42-1.12c-.11-.79,0-3.73,0-3.73l-10.17.06s-6,3.15-7.23,2.62-8.22-2.42-8.22-2.42Z"/><polygon class="cls-1" points="613.63 739.76 614.19 760.18 617.23 860.89 696.93 858.44 693.61 737.23 613.63 739.76"/><path class="cls-1" d="M493.5,763.19l1.2,60.22,20.53-.27s15.92,20,20.6,39.31l81.4-1.56-3-100.7s-59.27,1.07-60.32,1.71Z"/><path class="cls-1" d="M373,766.17l1.66,60.27,120.08-3-1.19-60.22-7.7,1.17a6.46,6.46,0,0,1-3.12-.64l-63,.14-7.91,1.3Z"/><path class="cls-1" d="M611.5,660.13l2.13,79.63,80-2.53-1-40.06,5,.22s6.78,1.74,8.22,2.42,7.23-2.62,7.23-2.62l10.17-.06s3.13-1.34-.22-2.73-9-6.32-9-6.32-3.63-7.82-2.8-11.73c0,0,1.5-1.1.59-2.13s-5-8.77-5-8.77.92-7.13,3.36-8.45l-22.76.33s-2.4,1.54-7.15.1l-30.77,1.05s-5.56,8.62-15.75.84Z"/><path class="cls-1" d="M610.48,619.23l1,40.9,22.23-.81s8.93,8.61,15.76-.84l30.76-1.05s4.52,1.68,7.15-.1L714,657a1.17,1.17,0,0,0,.9-.45c.69-.89,1.85-2.94-.65-4.12h-4.35L706,647.74l-1.55-4.67,0-10s-14-11.88-13.77-20.68l-8.87,4.9Z"/><polygon class="cls-1" points="551.63 661.37 553.87 761.9 578.9 760.93 614.19 760.18 611.5 660.13 551.63 661.37"/><polygon class="cls-1" points="490.44 662.63 493.5 763.19 553.87 761.9 551.63 661.37 490.44 662.63"/><path class="cls-1" d="M371.52,665.44l0,14.61L369.93,684l.91,32.07L373,766.17l38.83-1,7.91-1.3,63-.14a4,4,0,0,0,3.12.64c2.15-.25,7.69-1.17,7.69-1.17l-3.06-100.56Z"/><path class="cls-1" d="M609,559l1.51,60.23,71.37-1.91,8.87-4.9s-5.81-3.69-6.41-6.58a22.11,22.11,0,0,0-.72-3.1l-3.31-4.28V594s-10.66-8-11-14.52-.42-7.43-.42-7.43L658,558Z"/><polygon class="cls-1" points="487.98 562.02 490.44 662.63 611.5 660.13 608.97 559 568.03 559.87 487.98 562.02"/><polygon class="cls-1" points="365.38 585.49 377.54 585.41 377.61 590.26 367.64 595.3 369.41 661.36 371.52 665.44 371.55 680.05 369.93 683.98 370.84 716.05 249.25 720.03 247.71 652.81 257.25 648.75 348.39 645.81 347.7 610.27 364.19 602.96 364.51 585.46 365.38 585.49"/><path class="cls-1" d="M377.06,555.21l.55,35-10,5,1.77,66.06,2.11,4.08,118.92-2.81L488,562l-75.53,2.55-.13,9.49-3.64,1.42a2.13,2.13,0,0,1-1,0l-1.12-2V556.75l-1-2.3Z"/><path class="cls-1" d="M566.64,479.49,568,559.87,658,558l.12-2.91-4.22-3.19s-.69-.66-.24-2.62-2.62-6.39-2.62-6.39l-.08-6-4-6.53,0-3.1a1.86,1.86,0,0,0-.21-.77l-2.26-4.08a2.57,2.57,0,0,1,.39-2.06,12.55,12.55,0,0,1,1.41-1.56s.82-2.09-.19-3.53a13.65,13.65,0,0,0-2.23-2.44,1.8,1.8,0,0,1-.53-1.13c0-.67,0-9.59,0-9.59l-3.15-5.2.05-4.44s-6.3-2.84-2.44-9.4l0-5.94-2.49.89-41.67.57Z"/><path class="cls-1" d="M373.84,464.3l91.05-2,2.88,100.28-55.32,2-.13,9.49-3.64,1.42s-.71.19-1,0l-1.12-2V556.75l-1-2.3-28.53.76Z"/><path class="cls-1" d="M628.55,433l.54,1,.32,19.59s.71,2.06,3.87,2.13,3.43.26,3.43.26.48,0,.43.93,0,3.11,0,3.11h8.59s2.13-1.3,3.07-1.15a5.62,5.62,0,0,1,1.76.64s1.52,1.73.55,3a27.05,27.05,0,0,1-3.84,3.4l-.09,3.52,3.11,3.85v4.51l-1.94,1.94,1.24,17.95h-5.81a2.72,2.72,0,0,1-.8-1.55c0-.78,0-6.09,0-6.09a3.88,3.88,0,0,0-.14-3.69l-.44-4.37a8.47,8.47,0,0,1-1-5l1.63-4.85,0-4.86-1.92-4.43-4.15,0-1.58,5.73a5.61,5.61,0,0,0-.05,3.29c.57,1.43,2.51,5.4,2.51,5.4l-2.49.89-41.67.57L593,432.71Z"/><polygon class="cls-1" points="628.66 418.23 628.55 432.95 593.03 432.71 593 418.21 628.66 418.23"/><path class="cls-1" d="M593,403.51l10.86-.07,5.73-3.32s1.95-1.93,6.7-.39,13.88,1.12,13.88,1.12H642l0,11.1-5.55,0a4.88,4.88,0,0,1-3.15,5.14l-4.67,1.12-35.66,0Z"/><polygon class="cls-1" points="580.23 399.25 585.72 399.26 588.61 403.52 592.99 403.51 593.03 432.71 580.85 433 580.23 399.25"/><polygon class="cls-1" points="564.08 399.21 580.23 399.25 580.85 433 564.76 433.38 564.08 399.21"/><polygon class="cls-1" points="523.77 400.12 525.69 460.91 566.56 459.89 566.64 479.49 593.65 478.6 593.03 432.71 564.76 433.38 564.08 399.21 523.77 400.12"/><polygon class="cls-1" points="441.98 381.94 503.1 380.72 503.18 400.52 523.77 400.12 525.69 460.91 444.81 462.73 441.98 381.94"/><polygon class="cls-1" points="370.46 383.76 371.7 404.25 372.99 404.3 373.74 424.33 372.65 424.33 373.84 464.3 444.81 462.73 441.98 381.94 370.46 383.76"/><polygon class="cls-1" points="300.4 385.59 370.46 383.76 371.7 404.25 372.99 404.3 373.74 424.33 372.65 424.33 373.84 464.3 302.74 465.87 300.4 385.59"/><polygon class="cls-1" points="603.8 377.96 603.85 403.44 588.61 403.52 585.72 399.26 564.08 399.21 563.39 379.4 603.8 377.96"/><path class="cls-1" d="M603.13,360.08,603.8,378l.05,25.48,5.73-3.32s2.12-1.9,6.7-.39,13.88,1.12,13.88,1.12h17v-3.51h-4.76v-4.11h18.68v-.73h4.69v-3l-24,.26v-2.66h15.54V378.5H645.7l-4.12.66-4,7.91h-3.94L622,364.85s-6.12-1.38-6.5-4.84Z"/><path class="cls-1" d="M562,338.73l1.42,40.67L603.8,378l-.67-17.88,12.36-.07s-6.13-5.27-4.71-23Z"/><path class="cls-1" d="M521.8,319.93l2,80.19,40.31-.91L562,338.73l-17,.63-2.6-8.47-5.27-5.1s-1.43-1.76-3.73,0a2.27,2.27,0,0,1-3.59-.58l-2.24-5.6a1.76,1.76,0,0,0-1.84-.23A20.49,20.49,0,0,1,521.8,319.93Z"/><polygon class="cls-1" points="441.26 341.71 441.98 381.94 503.1 380.72 503.18 400.52 523.77 400.12 521.8 319.93 501.67 320.04 501.92 339.93 441.26 341.71"/><polygon class="cls-1" points="299.64 345.19 441.26 341.71 441.98 381.94 300.41 385.59 299.64 345.19"/><polygon class="cls-1" points="277.91 285.18 235.36 286.14 236.88 346.87 280.08 345.62 277.91 285.18"/><polyline class="cls-1" points="400.86 342.71 280.08 345.62 277.91 285.18 318.2 284.28 398.93 282.42"/><polygon class="cls-1" points="399.28 282.39 499.98 280.38 501.67 320.04 501.92 339.92 401.07 342.89 399.28 282.39"/><path class="cls-1" d="M598.46,276.66,598,289.15l2.2,5a2.2,2.2,0,0,1-.12,2.82c-1.2,1.63-1,4.4-1,4.4s4.49,18.74,7.25,22.14a62.24,62.24,0,0,0,7.74,7.38s1.92,1.94.57,3.33a19.38,19.38,0,0,1-3.9,2.73L545,339.36l-2.6-8.47-5.27-5.1a2.76,2.76,0,0,0-3.73,0,2.31,2.31,0,0,1-3.45-.26l-2.38-5.91a1.86,1.86,0,0,0-1.84-.23,17.22,17.22,0,0,1-3.21.58l-20.87.09L500,280.38l86.15-2.29,3.88-.93S598.12,277.08,598.46,276.66Z"/><path class="cls-1" d="M498.91,240.25,500,280.38l86.15-2.29,3.88-.93h7.09a2,2,0,0,0,1.26-.37c.24-.25.28-.68-.25-1.4a57.27,57.27,0,0,1-3.54-6.59l-.17-3.29-2.11-4-.68-7.68s1.41-2,.63-3.18-11.71-19.84-11.71-19.84l-16,7.3Z"/><path class="cls-1" d="M497.82,199.88l1.09,40.37,65.61-2.11,16-7.3s-5.54-10.12-5.89-28.59a11.32,11.32,0,0,1-1-3.84Z"/><polygon class="cls-1" points="396.87 202.07 497.82 199.88 499.98 280.38 399.28 282.39 396.87 202.07"/><polygon class="cls-1" points="315.85 203.82 396.87 202.07 399.28 282.39 318.2 284.27 315.85 203.82"/><path class="cls-1" d="M130,208.35s40.52-1,42-.66l8.36,0,2.29,9.46v10.6L233,225.43v-2.29l27.12-17.82,14.8-.6,40.93-.9,2.35,80.46-82.84,1.86,0-4.11,5.45-7.83s2.16-3.25-.06-4.62-6.16-1.56-6.16-1.56v-1.54L146.74,269s-4.57-2.74-5.82-9.64l-5.25-19.82s-1.17-2.94-.76-3.94,1.76-4.58,1.76-4.58a1.26,1.26,0,0,1,1.35-.94c1.17,0,13.68-.76,13.68-.76V218.44l-23.31.47s-2.13-3.68-1.51-5S128.88,208.71,130,208.35Z"/><path class="cls-1" d="M495.56,139.52l58.94-1.7a.54.54,0,0,1,.56.5l.75,8.84s0,.07,0,.11c.22.69,2.55,7.75,8.26,7.8l.64,0,.1,12.54a.51.51,0,0,0,0,.13c.35,1.28,6,20.66,28.88,20.94a.55.55,0,0,1,.49.3l2,4.2a.6.6,0,0,0,.09.13,1.77,1.77,0,0,1-.07,2.84c-1.74,1.24-8.44,5.64-10.82,8.29a.47.47,0,0,1-.29.16c-.78.13-4,.61-6,0-2.3-.73-2.49-2.28-2.49-2.28s-.38-2.39,1.66-.92a6.35,6.35,0,0,0,4.72.81.88.88,0,0,0,.2-.09l4.3-3.07s.51-3.14-2.23-3.46a29.29,29.29,0,0,0-6.67.37,23.92,23.92,0,0,0-5,2.46l-75.81,1.47Z"/><polygon class="cls-1" points="394.88 141.65 495.56 139.52 495.48 146.36 496.17 147.31 497.82 199.88 396.87 202.07 394.88 141.65"/><path class="cls-1" d="M273.1,142.42l72.69-1.19L348,144s2.41-2.31,3.65-2.34a4.91,4.91,0,0,1,1.85.77l41.36-.82,2,60.42-121.95,2.65v-8.38h.93v-11.1l-.69-2.67h-2.64l-.09-1.53V152.69h.67Z"/><path class="cls-1" d="M273.1,142.42v10.27h-.67V181l-28.94.43-3,1.85h-7.28V165.54h-1.91v.64l-18.42.47-.05,10.3h-3.72l-.1-7.11s-1-.27-1.06-.64v-2.28l-15.18.54v3H182.68v-2.37h-3.13s-.76.16-.76-.8,0-3.41,0-3.41h-6.34v1.89h-9.91v2.4h6.9V175h3.13v3.29h-6.22V179h-3.94v-6l-10.23.84v14.85l19.62-.68.17,19.72-12.49,0-29.55.62s4.64-10.69,5.1-18.16l.13-5.1a3.9,3.9,0,0,1-.71-2.38c.21-1,2-5.85,2-5.85s.92-4.21-4.59-5a12.46,12.46,0,0,1-5,2.93c-3.09.91-6.68-5.39-6.68-5.39a8.35,8.35,0,0,1,2-7.14c3-3.59,10.85-13.77,10.85-13.77l75.83-1.75,7.94-.2a8.67,8.67,0,0,0,3.62-3.33Z"/><path class="cls-1" d="M265.75,91.76l1.52,2.3,6,8.94-.16,39.42-52.65.78s-1.64,3-3.95,3.37-20.61.49-20.61.49l0,1.44-14,.29v-1.26h-8.53l-40.3.95,0-5.2s-2.12-2.79-2.2-4.43,2.56-8.63,2.56-8.63V126.7s14.36,1.09,21.26,2.81,44.83,8.87,44.83,8.87l3.86-32.64.12-41.48,3.16,0V62.78h-1.16V52.7h-2.33V44.81l30.61-1.63v50.2h2.39V90.9h9l.53,1.62h2.94l.06,3.34s4.21-.46,4.38-1V91.75Z"/><path class="cls-1" d="M394.88,141.65l-.14-19.85H399l-.09-4.88-4.51,2.7-.27-17.9-49.27.58-19.46-12.2.06-3.28a2,2,0,0,1,.9-.77l0-14.11-12.06,0v11.2s-7.17-4.22-11.63-21L295.06,62l0-9.48-4.62-.12L290,61.93l-19.28-.06,13.37,20.5L267.27,94.06l6,8.94-.16,39.42,72.69-1.19L348,144s2.91-2.46,3.65-2.34a7.35,7.35,0,0,1,1.85.77Z"/><polygon class="cls-1" points="494.63 99.44 495.56 139.52 394.88 141.65 394.74 121.81 399.01 121.81 398.9 116.93 394.4 119.64 394.07 101.74 494.63 99.44"/><path class="cls-1" d="M547.21,98.21l-52.66,1.44,1,39.87,59.09-1.65a1.79,1.79,0,0,0,1.43-.85,21.1,21.1,0,0,0,1.27-3.17s-.28-.76-1.29-.43-7.93-7.59-7.93-7.59l-.08-13.23Z"/><path class="cls-1" d="M434.68,41.23,494,39.75,494.11,69l-2.46.13a.74.74,0,0,0-.51,1c.24.64,3.16,7.95,3.16,7.95l.33,21.34L434.31,101Z"/><path class="cls-1" d="M500.58,29.59h23.69s2,4.43,3.05,5.35.46,6.11.46,6.11,3.82,21.09,17.58,33.62c0,0-.23.63-4,1.06l0,3.4s1.83,1.88.22,3.22c0,0,3,11,5.63,15.66l-52.66,1.43L494.3,78.1,491.09,70s-.23-.86.93-.93,2.09-.06,2.09-.06L494,39.75l12.3.09.84-.31L500,30S499.84,29.73,500.58,29.59Z"/></g><g id="Zipcodes"><polygon class="cls-2" points="628.55 418.18 628.43 426.2 592.91 426.07 592.88 418.18 628.55 418.18"/><path class="cls-2" d="M699.27,1042.11l.12,30.56,123.6-1,0-80-122.14,1.1-33.09-1.53s-2.44-.17-1.46,1.24S690,1029,690,1029Z"/><path class="cls-2" d="M627.09,1033.78l4.28-.1-4.89,20.71s-.5,1.42-.26,1.77,5.43,1.38,5.43,1.38v16.27l67.74-1.14-.12-30.56L690,1029l-21.29,3.77-37.36,1"/><path class="cls-2" d="M694.5,777.67l6.4,215.15,65.8-1.39,56.34.29-.33-97.83-6.54-3.68s-1.52-.94-.35-2a21.33,21.33,0,0,0,2.33-2.63s.53-.47-.29-1.69-3.86-6.37-3.86-6.37a2,2,0,0,1,.35-2.34c1.06-.87,5.67-4.44,5.67-4.44l2.75,0-.15-1.45L820,866.57V862.2l2.66-3.67-.73-26.31-9.43-2.11L808.72,786,788.5,775.68l-6.07-.13Z"/><path class="cls-2" d="M576.79,861.54l4,140.4.56,35.08s11.19,2.92,17.68.81,12.49-9.24,12.49-9.24,8.11-9.25,15.57,0v5.19l41.64-1L690,1029l-23.67-36.43s-1.1-1.24,1.46-1.24,33.09,1.53,33.09,1.53l-4-134.45Z"/><polygon class="cls-2" points="500.6 984.16 496.86 883.38 476.59 883.9 476.65 901.72 456.6 902.03 456.6 904.35 436.45 905.02 436.45 890.35 433.2 890.35 433.2 884.94 415.73 885.04 417.75 945.4 377.62 947.47 378.58 967.46 435.88 965.98 436.25 976.35 449.43 976.12 449.43 965.39 458.92 965.22 459 960.15 461.25 960.12 461.33 955.38 468.25 955.42 469.03 965.05 489.2 964.57 489.69 980.95 488.95 984.41 500.6 984.16"/><path class="cls-2" d="M494.62,823.35l6,160.81,25.25-.31v3.63s3.16.58,3.39-3.79l10.23-.06v20.06l41.32-1.75-4-140.4-41,.85a78.9,78.9,0,0,0-20.59-39.32Z"/><path class="cls-2" d="M692.58,697.1l1.92,80.57,87.93-2.12s-2.09-4-2.09-5.32,3-4.55,3-4.55l5-4.18L781,752.86l-4.77,3.84a7.3,7.3,0,0,1-6.85-.08c-4-1.9-17.71-12.64-17.71-12.64l-5.45-5.84s-.53-.75,2.45-2.34l-.11-5s-4.38,0-7.24-5.09l-.87-4.33-16.86-19.46a2,2,0,0,1-.42-1.11c-.11-.79,0-3.73,0-3.73l-10.17.06s-6,3.14-7.24,2.61-8.21-2.41-8.21-2.41Z"/><polygon class="cls-2" points="613.55 739.69 614.11 760.12 617.15 860.83 696.85 858.37 693.53 737.16 613.55 739.69"/><path class="cls-2" d="M493.42,763.12l1.2,60.23,20.53-.28s15.91,20,20.59,39.32l81.41-1.57-3-100.7s-59.27,1.07-60.33,1.72Z"/><path class="cls-2" d="M372.87,766.1l1.67,60.28,120.08-3-1.2-60.23-7.7,1.17a6.53,6.53,0,0,1-3.12-.63l-63,.14-7.91,1.29Z"/><path class="cls-2" d="M611.42,660.07l2.13,79.62,80-2.53-.95-40.06,5,.23s6.78,1.73,8.21,2.41,7.24-2.61,7.24-2.61l10.17-.06s3.13-1.34-.22-2.74S713.9,688,713.9,688s-3.63-7.83-2.79-11.74c0,0,1.5-1.1.58-2.13s-5-8.77-5-8.77.92-7.13,3.37-8.44l-22.77.32s-2.39,1.54-7.14.11l-30.77,1s-5.56,8.62-15.75.84Z"/><path class="cls-2" d="M610.4,619.17l1,40.9,22.23-.81s8.92,8.61,15.75-.84l30.77-1s4.51,1.68,7.14-.11l26.64-.38a1.14,1.14,0,0,0,.9-.44c.68-.9,1.85-3-.65-4.13h-4.36l-3.93-4.63L704.37,643l0-10s-14-11.88-13.76-20.68l-8.87,4.89Z"/><polygon class="cls-2" points="551.54 661.3 553.78 761.84 578.82 760.86 614.11 760.12 611.42 660.07 551.54 661.3"/><polygon class="cls-2" points="490.35 662.57 493.42 763.12 553.78 761.84 551.54 661.3 490.35 662.57"/><path class="cls-2" d="M371.44,665.37l0,14.62-1.62,3.92.91,32.08,2.11,50.11,38.83-1,7.91-1.29,63-.14a4.05,4.05,0,0,0,3.12.63c2.16-.24,7.7-1.17,7.7-1.17l-3.07-100.55Z"/><path class="cls-2" d="M608.89,558.93l1.51,60.24,71.37-1.92,8.87-4.89s-5.82-3.7-6.41-6.58a22.34,22.34,0,0,0-.73-3.1l-3.31-4.29v-4.46s-10.65-8-11-14.51-.43-7.43-.43-7.43l-10.86-14Z"/><polygon class="cls-2" points="487.89 561.96 490.35 662.57 611.42 660.07 608.89 558.93 567.94 559.8 487.89 561.96"/><polygon class="cls-2" points="365.3 585.42 377.45 585.35 377.53 590.19 367.56 595.23 369.33 661.29 371.44 665.37 371.47 679.99 369.85 683.91 370.76 715.99 249.16 719.97 247.62 652.74 257.17 648.68 348.31 645.74 347.61 610.21 364.1 602.89 364.43 585.39 365.3 585.42"/><path class="cls-2" d="M377,555.14l.55,35.05-10,5,1.77,66.06,2.11,4.08,118.91-2.8L487.89,562l-75.52,2.55-.14,9.49-3.64,1.42a2.08,2.08,0,0,1-1,0l-1.12-2V556.69l-1-2.3Z"/><path class="cls-2" d="M566.56,479.43l1.38,80.37L657.87,558l.13-2.91-4.22-3.2s-.7-.65-.25-2.62-2.62-6.39-2.62-6.39l-.07-6-4-6.52,0-3.1a1.8,1.8,0,0,0-.22-.77c-.21-.41-2.25-4.08-2.25-4.08a2.59,2.59,0,0,1,.38-2.06,12.18,12.18,0,0,1,1.42-1.56s.81-2.09-.19-3.53a13.77,13.77,0,0,0-2.24-2.45,1.73,1.73,0,0,1-.52-1.13c0-.67,0-9.58,0-9.58l-3.15-5.21,0-4.44s-6.3-2.84-2.43-9.4l.05-5.93-2.49.89-41.68.56Z"/><path class="cls-2" d="M373.76,464.23l91-2,2.88,100.29-55.31,2-.14,9.5-3.63,1.42s-.71.18-1,0l-1.11-2V556.69l-1-2.3-28.53.75Z"/><path class="cls-2" d="M628.46,432.89l.55,1,.31,19.59s.72,2,3.87,2.13a14.12,14.12,0,0,1,3.44.25s.48,0,.43.94,0,3.11,0,3.11h8.58s2.13-1.31,3.07-1.15a5.74,5.74,0,0,1,1.77.63s1.52,1.74.55,3a27,27,0,0,1-3.84,3.4l-.1,3.53,3.12,3.84v4.52l-1.94,1.93,1.24,18h-5.81a2.76,2.76,0,0,1-.81-1.56c0-.78,0-6.08,0-6.08a3.88,3.88,0,0,0-.14-3.69l-.44-4.37a8.47,8.47,0,0,1-1-5L643,472l-.05-4.85L641,462.7l-4.15-.05-1.59,5.74a5.6,5.6,0,0,0,0,3.29c.57,1.43,2.52,5.4,2.52,5.4l-2.49.89-41.68.56L593,432.64Z"/><polygon class="cls-2" points="628.58 418.16 628.46 432.89 592.95 432.64 592.92 418.14 628.58 418.16"/><path class="cls-2" d="M592.9,403.44l10.87-.06,5.73-3.32s2-1.93,6.69-.39,13.89,1.11,13.89,1.11h11.84l0,11.1-5.56,0a4.85,4.85,0,0,1-3.15,5.13l-4.66,1.12-35.66,0Z"/><polygon class="cls-2" points="580.14 399.18 585.64 399.19 588.53 403.45 592.9 403.44 592.95 432.64 580.77 432.93 580.14 399.18"/><polygon class="cls-2" points="563.99 399.14 580.14 399.18 580.77 432.93 564.68 433.32 563.99 399.14"/><polygon class="cls-2" points="523.69 400.05 525.61 460.84 566.48 459.83 566.56 479.43 593.56 478.53 592.95 432.64 564.68 433.32 564 399.14 523.69 400.05"/><polygon class="cls-2" points="441.89 381.88 503.02 380.66 503.1 400.45 523.69 400.05 525.61 460.84 444.73 462.67 441.89 381.88"/><polygon class="cls-2" points="370.38 383.69 371.62 404.18 372.9 404.24 373.65 424.27 372.57 424.27 373.76 464.23 444.73 462.67 441.89 381.88 370.38 383.69"/><polygon class="cls-2" points="300.32 385.53 370.38 383.69 371.62 404.18 372.9 404.24 373.65 424.27 372.57 424.27 373.76 464.23 302.66 465.81 300.32 385.53"/><polygon class="cls-2" points="603.71 377.89 603.77 403.38 588.53 403.45 585.64 399.19 563.99 399.14 563.3 379.34 603.71 377.89"/><path class="cls-2" d="M603,360l.67,17.87.06,25.49,5.73-3.32s2.12-1.9,6.69-.39,13.89,1.11,13.89,1.11h17v-3.51h-4.76v-4.1H661v-.74h4.69v-3l-24.05.26v-2.65h15.54v-8.65H645.61l-4.12.67-4,7.91h-3.94l-11.64-22.23s-6.12-1.38-6.51-4.83Z"/><path class="cls-2" d="M561.89,338.66l1.41,40.68,40.41-1.45L603,360,615.4,360s-6.13-5.27-4.71-23Z"/><path class="cls-2" d="M521.72,319.86l2,80.19,40.3-.91-2.1-60.48-16.95.63-2.61-8.47-5.26-5.09s-1.43-1.77-3.74,0a2.26,2.26,0,0,1-3.58-.58l-2.25-5.59a1.74,1.74,0,0,0-1.83-.23A20.22,20.22,0,0,1,521.72,319.86Z"/><polygon class="cls-2" points="441.18 341.65 441.89 381.88 503.02 380.66 503.1 400.45 523.69 400.05 521.72 319.87 501.58 319.97 501.84 339.86 441.18 341.65"/><polygon class="cls-2" points="299.56 345.12 441.18 341.65 441.89 381.88 300.32 385.53 299.56 345.12"/><polygon class="cls-2" points="277.83 285.11 235.28 286.07 236.8 346.81 279.99 345.56 277.83 285.11"/><polyline class="cls-2" points="400.78 342.64 279.99 345.56 277.83 285.11 318.11 284.21 398.85 282.35"/><polygon class="cls-2" points="399.2 282.32 499.89 280.31 501.58 319.97 501.84 339.86 400.99 342.83 399.2 282.32"/><path class="cls-2" d="M598.37,276.6l-.46,12.49,2.2,5a2.21,2.21,0,0,1-.13,2.83c-1.19,1.63-.94,4.39-.94,4.39s4.48,18.75,7.25,22.15a61.72,61.72,0,0,0,7.73,7.38s1.93,1.94.58,3.32a19.11,19.11,0,0,1-3.91,2.74l-65.75,2.37-2.61-8.47-5.26-5.09a2.76,2.76,0,0,0-3.74,0,2.29,2.29,0,0,1-3.44-.26l-2.39-5.91a1.84,1.84,0,0,0-1.83-.23,17,17,0,0,1-3.21.57l-20.88.1-1.69-39.66L586,278l3.89-.93S598,277,598.37,276.6Z"/><path class="cls-2" d="M498.82,240.18l1.07,40.13L586,278l3.89-.93H597a2,2,0,0,0,1.27-.36c.24-.26.27-.69-.25-1.41a57.11,57.11,0,0,1-3.55-6.58l-.17-3.29-2.11-4-.67-7.68s1.4-2,.63-3.18-11.72-19.85-11.72-19.85l-16,7.3Z"/><path class="cls-2" d="M497.73,199.82l1.09,40.36,65.62-2.11,16-7.3s-5.54-10.11-5.89-28.58a11.66,11.66,0,0,1-1-3.85Z"/><polygon class="cls-2" points="396.79 202 497.73 199.82 499.89 280.31 399.2 282.32 396.79 202"/><polygon class="cls-2" points="315.77 203.76 396.79 202 399.2 282.32 318.11 284.21 315.77 203.76"/><path class="cls-2" d="M129.88,208.29s40.52-1,42.05-.66l8.35,0,2.3,9.47v10.6l50.34-2.28v-2.29L260,205.25l14.81-.59,40.93-.9,2.34,80.45-82.83,1.86,0-4.1,5.44-7.84s2.17-3.24-.06-4.61-6.15-1.57-6.15-1.57v-1.54l-87.83,2.5s-4.57-2.75-5.82-9.65l-5.24-19.82s-1.18-2.93-.77-3.93,1.76-4.58,1.76-4.58a1.27,1.27,0,0,1,1.35-.94c1.18,0,13.68-.76,13.68-.76V218.38l-23.3.47s-2.13-3.69-1.52-5S128.8,208.65,129.88,208.29Z"/><path class="cls-2" d="M495.48,139.46l58.94-1.7a.55.55,0,0,1,.56.5l.75,8.83a.36.36,0,0,0,0,.11c.21.7,2.55,7.76,8.25,7.81h.64l.11,12.54a.66.66,0,0,0,0,.14c.35,1.28,6,20.66,28.89,20.93a.54.54,0,0,1,.49.31l2,4.19a.42.42,0,0,0,.09.14c.27.28,1.5,1.71-.08,2.84s-8.43,5.64-10.81,8.28a.5.5,0,0,1-.29.16c-.79.13-4,.61-6,0-2.3-.73-2.49-2.27-2.49-2.27s-.39-2.4,1.66-.92a6.36,6.36,0,0,0,4.71.8.37.37,0,0,0,.2-.09l4.3-3.06s.52-3.15-2.23-3.46a28.57,28.57,0,0,0-6.66.37,24.16,24.16,0,0,0-5,2.45l-75.81,1.48Z"/><polygon class="cls-2" points="394.79 141.58 495.48 139.46 495.39 146.3 496.08 147.25 497.73 199.82 396.79 202 394.79 141.58"/><path class="cls-2" d="M273,142.36l72.7-1.2,2.22,2.82s2.42-2.31,3.65-2.34a4.91,4.91,0,0,1,1.85.77l41.36-.83,2,60.42-122,2.65v-8.37h.93v-11.1l-.7-2.68h-2.64l-.09-1.52V152.63H273Z"/><path class="cls-2" d="M273,142.36v10.27h-.67V181l-28.93.42-3,1.86h-7.27V165.47H231.2v.64l-18.42.48-.05,10.3H209l-.11-7.11s-1-.27-1.06-.64v-2.28l-15.17.54v3H182.6v-2.37h-3.13s-.77.16-.77-.8,0-3.41,0-3.41H172.4v1.88h-9.91v2.41h6.9v6.74h3.13v3.29H166.3v.72h-3.93v-6l-10.23.85v14.84l19.62-.68.17,19.73-12.5,0-29.55.61s4.65-10.68,5.11-18.16l.13-5.09a3.9,3.9,0,0,1-.71-2.38c.2-1.05,2-5.85,2-5.85s.92-4.22-4.6-5a12.51,12.51,0,0,1-5,2.92c-3.09.92-6.68-5.39-6.68-5.39a8.37,8.37,0,0,1,2-7.14c3-3.59,10.84-13.77,10.84-13.77l75.84-1.74,7.94-.21a8.61,8.61,0,0,0,3.61-3.32Z"/><path class="cls-2" d="M265.67,91.69,267.18,94l6,8.93L273,142.36l-52.65.78s-1.63,3-4,3.37-20.6.48-20.6.48v1.45l-14,.28v-1.26h-8.53l-40.3.95,0-5.19s-2.11-2.8-2.19-4.44,2.55-8.63,2.55-8.63v-3.51s14.37,1.08,21.26,2.81,44.84,8.86,44.84,8.86l3.86-32.64.12-41.47,3.15,0V62.71h-1.16V52.64H203v-7.9l30.61-1.62v50.2H236V90.83h9l.52,1.62h2.94l.06,3.35s4.21-.46,4.39-1V91.69Z"/><path class="cls-2" d="M394.79,141.58l-.13-19.84h4.27l-.1-4.88-4.51,2.7-.27-17.91-49.27.58L325.33,90.05l.05-3.29a2,2,0,0,1,.91-.77l0-14.1-12.06,0V83s-7.16-4.22-11.63-21L295,61.92l0-9.47-4.63-.13-.44,9.55-19.28-.06L284,82.31,267.18,94l6,8.93L273,142.36l72.7-1.2,2.22,2.82s2.92-2.46,3.65-2.34a7.17,7.17,0,0,1,1.85.77Z"/><polygon class="cls-2" points="494.54 99.38 495.48 139.46 394.79 141.58 394.66 121.75 398.93 121.75 398.82 116.87 394.32 119.58 393.99 101.68 494.54 99.38"/><path class="cls-2" d="M547.13,98.15l-52.66,1.43,1,39.88,59.08-1.65A1.81,1.81,0,0,0,556,137a22.77,22.77,0,0,0,1.27-3.17s-.28-.76-1.3-.44-7.93-7.58-7.93-7.58L548,112.54Z"/><path class="cls-2" d="M434.59,41.16l59.35-1.47L494,69l-2.46.13a.75.75,0,0,0-.51,1c.24.64,3.16,8,3.16,8l.33,21.35L434.22,101Z"/><path class="cls-2" d="M500.49,29.52h23.69s2,4.44,3.06,5.35.46,6.12.46,6.12,3.82,21.09,17.57,33.62c0,0-.22.62-3.94,1.06l0,3.39s1.82,1.88.21,3.22c0,0,2.95,11,5.63,15.66l-52.66,1.44L494.21,78,491,70s-.22-.87.94-.93S494,69,494,69l-.08-29.27,12.29.09.84-.31-7.14-9.54S499.75,29.67,500.49,29.52Z"/><path class="cls-2" d="M627.09,1033.78l4.28-.1-4.89,20.71s-.5,1.42-.26,1.77,5.43,1.38,5.43,1.38v16.27l67.74-1.14-.12-30.56L690,1029l-21.29,3.77-37.36,1"/><polygon class="cls-2" points="628.55 418.18 628.43 426.2 592.91 426.07 592.88 418.18 628.55 418.18"/><path class="cls-2" d="M699.27,1042.11l.12,30.56,123.6-1,0-80-122.14,1.1-33.09-1.53s-2.44-.17-1.46,1.24S690,1029,690,1029Z"/><path class="cls-2" d="M694.5,777.67l6.4,215.15,65.8-1.39,56.34.29-.33-97.83-6.54-3.68s-1.52-.94-.35-2a21.33,21.33,0,0,0,2.33-2.63s.53-.47-.29-1.69-3.86-6.37-3.86-6.37a2,2,0,0,1,.35-2.34c1.06-.87,5.67-4.44,5.67-4.44l2.75,0-.15-1.45L820,866.57V862.2l2.66-3.67-.73-26.31-9.43-2.11L808.72,786,788.5,775.68l-6.07-.13Z"/><path class="cls-2" d="M576.79,861.54l4,140.4.56,35.08s11.19,2.92,17.68.81,12.49-9.24,12.49-9.24,8.11-9.25,15.57,0v5.19l41.64-1L690,1029l-23.67-36.43s-1.1-1.24,1.46-1.24,33.09,1.53,33.09,1.53l-4-134.45Z"/><polygon class="cls-2" points="500.6 984.16 496.86 883.38 476.59 883.9 476.65 901.72 456.6 902.03 456.6 904.35 436.45 905.02 436.45 890.35 433.2 890.35 433.2 884.94 415.73 885.04 417.75 945.4 377.62 947.47 378.58 967.46 435.88 965.98 436.25 976.35 449.43 976.12 449.43 965.39 458.92 965.22 459 960.15 461.25 960.12 461.33 955.38 468.25 955.42 469.03 965.05 489.2 964.57 489.69 980.95 488.95 984.41 500.6 984.16"/><path class="cls-2" d="M494.62,823.35l6,160.81,25.25-.31v3.63s3.16.58,3.39-3.79l10.23-.06v20.06l41.32-1.75-4-140.4-41,.85a78.9,78.9,0,0,0-20.59-39.32Z"/><path class="cls-2" d="M692.58,697.1l1.92,80.57,87.93-2.12s-2.09-4-2.09-5.32,3-4.55,3-4.55l5-4.18L781,752.86l-4.77,3.84a7.3,7.3,0,0,1-6.85-.08c-4-1.9-17.71-12.64-17.71-12.64l-5.45-5.84s-.53-.75,2.45-2.34l-.11-5s-4.38,0-7.24-5.09l-.87-4.33-16.86-19.46a2,2,0,0,1-.42-1.11c-.11-.79,0-3.73,0-3.73l-10.17.06s-6,3.14-7.24,2.61-8.21-2.41-8.21-2.41Z"/><polygon class="cls-2" points="613.55 739.69 614.11 760.12 617.15 860.83 696.85 858.37 693.53 737.16 613.55 739.69"/><path class="cls-2" d="M493.42,763.12l1.2,60.23,20.53-.28s15.91,20,20.59,39.32l81.41-1.57-3-100.7s-59.27,1.07-60.33,1.72Z"/><path class="cls-2" d="M372.87,766.1l1.67,60.28,120.08-3-1.2-60.23-7.7,1.17a6.53,6.53,0,0,1-3.12-.63l-63,.14-7.91,1.29Z"/><path class="cls-2" d="M611.42,660.07l2.13,79.62,80-2.53-.95-40.06,5,.23s6.78,1.73,8.21,2.41,7.24-2.61,7.24-2.61l10.17-.06s3.13-1.34-.22-2.74S713.9,688,713.9,688s-3.63-7.83-2.79-11.74c0,0,1.5-1.1.58-2.13s-5-8.77-5-8.77.92-7.13,3.37-8.44l-22.77.32s-2.39,1.54-7.14.11l-30.77,1s-5.56,8.62-15.75.84Z"/><path class="cls-2" d="M610.4,619.17l1,40.9,22.23-.81s8.92,8.61,15.75-.84l30.77-1s4.51,1.68,7.14-.11l26.64-.38a1.14,1.14,0,0,0,.9-.44c.68-.9,1.85-3-.65-4.13h-4.36l-3.93-4.63L704.37,643l0-10s-14-11.88-13.76-20.68l-8.87,4.89Z"/><polygon class="cls-2" points="551.54 661.3 553.78 761.84 578.82 760.86 614.11 760.12 611.42 660.07 551.54 661.3"/><polygon class="cls-2" points="490.35 662.57 493.42 763.12 553.78 761.84 551.54 661.3 490.35 662.57"/><path class="cls-2" d="M371.44,665.37l0,14.62-1.62,3.92.91,32.08,2.11,50.11,38.83-1,7.91-1.29,63-.14a4.05,4.05,0,0,0,3.12.63c2.16-.24,7.7-1.17,7.7-1.17l-3.07-100.55Z"/><path class="cls-2" d="M608.89,558.93l1.51,60.24,71.37-1.92,8.87-4.89s-5.82-3.7-6.41-6.58a22.34,22.34,0,0,0-.73-3.1l-3.31-4.29v-4.46s-10.65-8-11-14.51-.43-7.43-.43-7.43l-10.86-14Z"/><polygon class="cls-2" points="487.89 561.96 490.35 662.57 611.42 660.07 608.89 558.93 567.94 559.8 487.89 561.96"/><polygon class="cls-2" points="365.3 585.42 377.45 585.35 377.53 590.19 367.56 595.23 369.33 661.29 371.44 665.37 371.47 679.99 369.85 683.91 370.76 715.99 249.16 719.97 247.62 652.74 257.17 648.68 348.31 645.74 347.61 610.21 364.1 602.89 364.43 585.39 365.3 585.42"/><path class="cls-2" d="M377,555.14l.55,35.05-10,5,1.77,66.06,2.11,4.08,118.91-2.8L487.89,562l-75.52,2.55-.14,9.49-3.64,1.42a2.08,2.08,0,0,1-1,0l-1.12-2V556.69l-1-2.3Z"/><path class="cls-2" d="M566.56,479.43l1.38,80.37L657.87,558l.13-2.91-4.22-3.2s-.7-.65-.25-2.62-2.62-6.39-2.62-6.39l-.07-6-4-6.52,0-3.1a1.8,1.8,0,0,0-.22-.77c-.21-.41-2.25-4.08-2.25-4.08a2.59,2.59,0,0,1,.38-2.06,12.18,12.18,0,0,1,1.42-1.56s.81-2.09-.19-3.53a13.77,13.77,0,0,0-2.24-2.45,1.73,1.73,0,0,1-.52-1.13c0-.67,0-9.58,0-9.58l-3.15-5.21,0-4.44s-6.3-2.84-2.43-9.4l.05-5.93-2.49.89-41.68.56Z"/><polygon class="cls-2" points="464.8 462.25 467.68 562.54 567.94 559.8 566.56 479.43 566.48 459.83 464.8 462.25"/><path class="cls-2" d="M373.76,464.23l91-2,2.88,100.29-55.31,2-.14,9.5-3.63,1.42s-.71.18-1,0l-1.11-2V556.69l-1-2.3-28.53.75Z"/><path class="cls-2" d="M628.46,432.89l.55,1,.31,19.59s.72,2,3.87,2.13a14.12,14.12,0,0,1,3.44.25s.48,0,.43.94,0,3.11,0,3.11h8.58s2.13-1.31,3.07-1.15a5.74,5.74,0,0,1,1.77.63s1.52,1.74.55,3a27,27,0,0,1-3.84,3.4l-.1,3.53,3.12,3.84v4.52l-1.94,1.93,1.24,18h-5.81a2.76,2.76,0,0,1-.81-1.56c0-.78,0-6.08,0-6.08a3.88,3.88,0,0,0-.14-3.69l-.44-4.37a8.47,8.47,0,0,1-1-5L643,472l-.05-4.85L641,462.7l-4.15-.05-1.59,5.74a5.6,5.6,0,0,0,0,3.29c.57,1.43,2.52,5.4,2.52,5.4l-2.49.89-41.68.56L593,432.64Z"/><polygon class="cls-2" points="628.58 418.16 628.46 432.89 592.95 432.64 592.92 418.14 628.58 418.16"/><path class="cls-2" d="M592.9,403.44l10.87-.06,5.73-3.32s2-1.93,6.69-.39,13.89,1.11,13.89,1.11h11.84l0,11.1-5.56,0a4.85,4.85,0,0,1-3.15,5.13l-4.66,1.12-35.66,0Z"/><polygon class="cls-2" points="580.14 399.18 585.64 399.19 588.53 403.45 592.9 403.44 592.95 432.64 580.77 432.93 580.14 399.18"/><polygon class="cls-2" points="563.99 399.14 580.14 399.18 580.77 432.93 564.68 433.32 563.99 399.14"/><polygon class="cls-2" points="523.69 400.05 525.61 460.84 566.48 459.83 566.56 479.43 593.56 478.53 592.95 432.64 564.68 433.32 564 399.14 523.69 400.05"/><polygon class="cls-2" points="441.89 381.88 503.02 380.66 503.1 400.45 523.69 400.05 525.61 460.84 444.73 462.67 441.89 381.88"/><polygon class="cls-2" points="370.38 383.69 371.62 404.18 372.9 404.24 373.65 424.27 372.57 424.27 373.76 464.23 444.73 462.67 441.89 381.88 370.38 383.69"/><polygon class="cls-2" points="300.32 385.53 370.38 383.69 371.62 404.18 372.9 404.24 373.65 424.27 372.57 424.27 373.76 464.23 302.66 465.81 300.32 385.53"/><polygon class="cls-2" points="603.71 377.89 603.77 403.38 588.53 403.45 585.64 399.19 563.99 399.14 563.3 379.34 603.71 377.89"/><path class="cls-2" d="M603,360l.67,17.87.06,25.49,5.73-3.32s2.12-1.9,6.69-.39,13.89,1.11,13.89,1.11h17v-3.51h-4.76v-4.1H661v-.74h4.69v-3l-24.05.26v-2.65h15.54v-8.65H645.61l-4.12.67-4,7.91h-3.94l-11.64-22.23s-6.12-1.38-6.51-4.83Z"/><path class="cls-2" d="M561.89,338.66l1.41,40.68,40.41-1.45L603,360,615.4,360s-6.13-5.27-4.71-23Z"/><polygon class="cls-2" points="441.18 341.65 441.89 381.88 503.02 380.66 503.1 400.45 523.69 400.05 521.72 319.87 501.58 319.97 501.84 339.86 441.18 341.65"/><path class="cls-2" d="M521.72,319.86l2,80.19,40.3-.91-2.1-60.48-16.95.63-2.61-8.47-5.26-5.09s-1.43-1.77-3.74,0a2.26,2.26,0,0,1-3.58-.58l-2.25-5.59a1.74,1.74,0,0,0-1.83-.23,20.22,20.22,0,0,1-3.95.56"/><polygon class="cls-2" points="299.56 345.12 441.18 341.65 441.89 381.88 300.32 385.53 299.56 345.12"/><polygon class="cls-2" points="277.83 285.11 235.28 286.07 236.8 346.81 279.99 345.56 277.83 285.11"/><polyline class="cls-2" points="400.78 342.64 279.99 345.56 277.83 285.11 318.11 284.21 398.85 282.35"/><polygon class="cls-2" points="399.2 282.32 499.89 280.31 501.58 319.97 501.84 339.86 400.99 342.83 399.2 282.32"/><path class="cls-2" d="M598.37,276.6l-.46,12.49,2.2,5a2.21,2.21,0,0,1-.13,2.83c-1.19,1.63-.94,4.39-.94,4.39s4.48,18.75,7.25,22.15a61.72,61.72,0,0,0,7.73,7.38s1.93,1.94.58,3.32a19.11,19.11,0,0,1-3.91,2.74l-65.75,2.37-2.61-8.47-5.26-5.09a2.76,2.76,0,0,0-3.74,0,2.29,2.29,0,0,1-3.44-.26l-2.39-5.91a1.84,1.84,0,0,0-1.83-.23,17,17,0,0,1-3.21.57l-20.88.1-1.69-39.66L586,278l3.89-.93s8.11-.07,8.44-.49"/><path class="cls-2" d="M498.82,240.18l1.07,40.13L586,278l3.89-.93H597a2,2,0,0,0,1.27-.36c.24-.26.27-.69-.25-1.41a57.11,57.11,0,0,1-3.55-6.58l-.17-3.29-2.11-4-.67-7.68s1.4-2,.63-3.18-11.72-19.85-11.72-19.85l-16,7.3Z"/><path class="cls-2" d="M497.73,199.82l1.09,40.36,65.62-2.11,16-7.3s-5.54-10.11-5.89-28.58a11.66,11.66,0,0,1-1-3.85Z"/><polygon class="cls-2" points="396.79 202 497.73 199.82 499.89 280.31 399.2 282.32 396.79 202"/><polygon class="cls-2" points="315.77 203.76 396.79 202 399.2 282.32 318.11 284.21 315.77 203.76"/><path class="cls-2" d="M129.88,208.29s40.52-1,42.05-.66l8.35,0,2.3,9.47v10.6l50.34-2.28v-2.29L260,205.25l14.81-.59,40.93-.9,2.34,80.45-82.83,1.86,0-4.1,5.44-7.84s2.17-3.24-.06-4.61-6.15-1.57-6.15-1.57v-1.54l-87.83,2.5s-4.57-2.75-5.82-9.65l-5.24-19.82s-1.18-2.93-.77-3.93,1.76-4.58,1.76-4.58a1.27,1.27,0,0,1,1.35-.94c1.18,0,13.68-.76,13.68-.76V218.38l-23.3.47s-2.13-3.69-1.52-5,2-5.19,3.09-5.55"/><path class="cls-2" d="M495.48,139.46l58.94-1.7a.55.55,0,0,1,.56.5l.75,8.83a.36.36,0,0,0,0,.11c.21.7,2.55,7.76,8.25,7.81h.64l.11,12.54a.66.66,0,0,0,0,.14c.35,1.28,6,20.66,28.89,20.93a.54.54,0,0,1,.49.31l2,4.19a.42.42,0,0,0,.09.14c.27.28,1.5,1.71-.08,2.84s-8.43,5.64-10.81,8.28a.5.5,0,0,1-.29.16c-.79.13-4,.61-6,0-2.3-.73-2.49-2.27-2.49-2.27s-.39-2.4,1.66-.92a6.36,6.36,0,0,0,4.71.8.37.37,0,0,0,.2-.09l4.3-3.06s.52-3.15-2.23-3.46a28.57,28.57,0,0,0-6.66.37,24.16,24.16,0,0,0-5,2.45l-75.81,1.48Z"/><polygon class="cls-2" points="394.79 141.58 495.48 139.46 495.39 146.3 496.08 147.25 497.73 199.82 396.79 202 394.79 141.58"/><path class="cls-2" d="M273,142.36l72.7-1.2,2.22,2.82s2.42-2.31,3.65-2.34a4.91,4.91,0,0,1,1.85.77l41.36-.83,2,60.42-122,2.65v-8.37h.93v-11.1l-.7-2.68h-2.64l-.09-1.52V152.63H273Z"/><path class="cls-2" d="M273,142.36v10.27h-.67V181l-28.93.42-3,1.86h-7.27V165.47H231.2v.64l-18.42.48-.05,10.3H209l-.11-7.11s-1-.27-1.06-.64v-2.28l-15.17.54v3H182.6v-2.37h-3.13s-.77.16-.77-.8,0-3.41,0-3.41H172.4v1.88h-9.91v2.41h6.9v6.74h3.13v3.29H166.3v.72h-3.93v-6l-10.23.85v14.84l19.62-.68.17,19.73-12.5,0-29.55.61s4.65-10.68,5.11-18.16l.13-5.09a3.9,3.9,0,0,1-.71-2.38c.2-1.05,2-5.85,2-5.85s.92-4.22-4.6-5a12.51,12.51,0,0,1-5,2.92c-3.09.92-6.68-5.39-6.68-5.39a8.37,8.37,0,0,1,2-7.14c3-3.59,10.84-13.77,10.84-13.77l75.84-1.74,7.94-.21a8.61,8.61,0,0,0,3.61-3.32Z"/><path class="cls-2" d="M265.67,91.69,267.18,94l6,8.93L273,142.36l-52.65.78s-1.63,3-4,3.37-20.6.48-20.6.48v1.45l-14,.28v-1.26h-8.53l-40.3.95,0-5.19s-2.11-2.8-2.19-4.44,2.55-8.63,2.55-8.63v-3.51s14.37,1.08,21.26,2.81,44.84,8.86,44.84,8.86l3.86-32.64.12-41.47,3.15,0V62.71h-1.16V52.64H203v-7.9l30.61-1.62v50.2H236V90.83h9l.52,1.62h2.94l.06,3.35s4.21-.46,4.39-1V91.69Z"/><path class="cls-2" d="M394.79,141.58l-.13-19.84h4.27l-.1-4.88-4.51,2.7-.27-17.91-49.27.58L325.33,90.05l.05-3.29a2,2,0,0,1,.91-.77l0-14.1-12.06,0V83s-7.16-4.22-11.63-21L295,61.92l0-9.47-4.63-.13-.44,9.55-19.28-.06L284,82.31,267.18,94l6,8.93L273,142.36l72.7-1.2,2.22,2.82s2.92-2.46,3.65-2.34a7.17,7.17,0,0,1,1.85.77Z"/><polygon class="cls-2" points="494.54 99.38 495.48 139.46 394.79 141.58 394.66 121.75 398.93 121.75 398.82 116.87 394.32 119.58 393.99 101.68 494.54 99.38"/><path class="cls-2" d="M547.13,98.15l-52.66,1.43,1,39.88,59.08-1.65A1.81,1.81,0,0,0,556,137a22.77,22.77,0,0,0,1.27-3.17s-.28-.76-1.3-.44-7.93-7.58-7.93-7.58L548,112.54Z"/><path class="cls-2" d="M434.59,41.16l59.35-1.47L494,69l-2.46.13a.75.75,0,0,0-.51,1c.24.64,3.16,8,3.16,8l.33,21.35L434.22,101Z"/><path class="cls-2" d="M500.49,29.52h23.69s2,4.44,3.06,5.35.46,6.12.46,6.12,3.82,21.09,17.57,33.62c0,0-.22.62-3.94,1.06l0,3.39s1.82,1.88.21,3.22c0,0,2.95,11,5.63,15.66l-52.66,1.44L494.21,78,491,70s-.22-.87.94-.93S494,69,494,69l-.08-29.27,12.29.09.84-.31-7.14-9.54s-.18-.26.56-.41"/><polygon class="cls-2" points="628.45 418.17 628.49 426.18 592.9 426.03 592.88 418.18 628.45 418.17"/><path class="cls-3" d="M627.17,1033.84l4.28-.1-4.89,20.72s-.5,1.42-.26,1.77,5.44,1.38,5.44,1.38v16.26l67.74-1.13-.12-30.57L690.1,1029l-21.29,3.77-37.36.94"/><polygon class="cls-4" points="628.63 418.25 628.52 426.27 593 426.13 592.97 418.24 628.63 418.25"/><path class="cls-5" d="M699.36,1042.17l.12,30.57,123.59-1,0-80L701,992.88l-33.09-1.53s-2.44-.17-1.46,1.24S690.1,1029,690.1,1029Z"/><path class="cls-6" d="M694.58,777.74,701,992.88l65.8-1.39,56.34.3L822.79,894l-6.54-3.68s-1.52-.93-.35-2a21.15,21.15,0,0,0,2.34-2.62s.52-.47-.3-1.7-3.85-6.37-3.85-6.37a2,2,0,0,1,.35-2.33c1-.88,5.67-4.44,5.67-4.44l2.74-.06-.14-1.45L820,866.63v-4.37l2.67-3.67-.73-26.3-9.43-2.12L808.8,786.1l-20.21-10.35-6.08-.13Z"/><path class="cls-7" d="M576.87,861.61l4,140.4.56,35.08s11.19,2.91,17.68.81,12.48-9.25,12.48-9.25,8.11-9.24,15.57,0v5.19l41.64-1L690.1,1029l-23.67-36.44s-1.09-1.24,1.46-1.24S701,992.88,701,992.88l-4.05-134.44Z"/><polygon class="cls-8" points="500.69 984.22 496.94 883.45 476.68 883.97 476.73 901.78 456.68 902.09 456.68 904.42 436.53 905.08 436.53 890.41 433.28 890.41 433.28 885 415.82 885.11 417.83 945.46 377.7 947.53 378.67 967.52 435.97 966.04 436.34 976.41 449.52 976.19 449.52 965.45 459.01 965.28 459.08 960.22 461.34 960.18 461.41 955.45 468.33 955.48 469.11 965.12 489.29 964.64 489.77 981.02 489.04 984.47 500.69 984.22"/><path class="cls-9" d="M494.7,823.41l6,160.81,25.25-.31v3.64s3.16.57,3.39-3.79l10.22-.06v20.06l41.33-1.75-4-140.4-41,.84a78.85,78.85,0,0,0-20.59-39.31Z"/><path class="cls-10" d="M692.66,697.17l1.92,80.57,87.93-2.12s-2.09-4-2.09-5.33,3-4.55,3-4.55l5-4.17-7.3-8.65-4.77,3.84a7.29,7.29,0,0,1-6.86-.07c-4-1.9-17.71-12.64-17.71-12.64l-5.45-5.84s-.53-.76,2.45-2.34l-.11-5s-4.37,0-7.24-5.09l-.87-4.33L723.64,702a2,2,0,0,1-.42-1.12c-.11-.79,0-3.73,0-3.73l-10.17.06s-6,3.15-7.23,2.62-8.22-2.42-8.22-2.42Z"/><polygon class="cls-11" points="613.63 739.76 614.19 760.18 617.23 860.89 696.93 858.44 693.61 737.23 613.63 739.76"/><path class="cls-12" d="M493.5,763.19l1.2,60.22,20.53-.27s15.92,20,20.6,39.31l81.4-1.56-3-100.7s-59.27,1.07-60.32,1.71Z"/><path class="cls-13" d="M373,766.17l1.66,60.27,120.08-3-1.19-60.22-7.7,1.17a6.46,6.46,0,0,1-3.12-.64l-63,.14-7.91,1.3Z"/><path class="cls-14" d="M611.5,660.13l2.13,79.63,80-2.53-1-40.06,5,.22s6.78,1.74,8.22,2.42,7.23-2.62,7.23-2.62l10.17-.06s3.13-1.34-.22-2.73-9-6.32-9-6.32-3.63-7.82-2.8-11.73c0,0,1.5-1.1.59-2.13s-5-8.77-5-8.77.92-7.13,3.36-8.45l-22.76.33s-2.4,1.54-7.15.1l-30.77,1.05s-5.56,8.62-15.75.84Z"/><path class="cls-15" d="M610.48,619.23l1,40.9,22.23-.81s8.93,8.61,15.76-.84l30.76-1.05s4.52,1.68,7.15-.1L714,657a1.17,1.17,0,0,0,.9-.45c.69-.89,1.85-2.94-.65-4.12h-4.35L706,647.74l-1.55-4.67,0-10s-14-11.88-13.77-20.68l-8.87,4.9Z"/><polygon class="cls-16" points="551.63 661.37 553.87 761.9 578.9 760.93 614.19 760.18 611.5 660.13 551.63 661.37"/><polygon class="cls-17" points="490.44 662.63 493.5 763.19 553.87 761.9 551.63 661.37 490.44 662.63"/><path class="cls-18" d="M371.52,665.44l0,14.61L369.93,684l.91,32.07L373,766.17l38.83-1,7.91-1.3,63-.14a4,4,0,0,0,3.12.64c2.15-.25,7.69-1.17,7.69-1.17l-3.06-100.56Z"/><path class="cls-19" d="M609,559l1.51,60.23,71.37-1.91,8.87-4.9s-5.81-3.69-6.41-6.58a22.11,22.11,0,0,0-.72-3.1l-3.31-4.28V594s-10.66-8-11-14.52-.42-7.43-.42-7.43L658,558Z"/><polygon class="cls-20" points="487.98 562.02 490.44 662.63 611.5 660.13 608.97 559 568.03 559.87 487.98 562.02"/><polygon class="cls-21" points="365.38 585.49 377.54 585.41 377.61 590.26 367.64 595.3 369.41 661.36 371.52 665.44 371.55 680.05 369.93 683.98 370.84 716.05 249.25 720.03 247.71 652.81 257.25 648.75 348.39 645.81 347.7 610.27 364.19 602.96 364.51 585.46 365.38 585.49"/><path class="cls-22" d="M377.06,555.21l.55,35-10,5,1.77,66.06,2.11,4.08,118.92-2.81L488,562l-75.53,2.55-.13,9.49-3.64,1.42a2.13,2.13,0,0,1-1,0l-1.12-2V556.75l-1-2.3Z"/><path class="cls-23" d="M566.64,479.49,568,559.87,658,558l.12-2.91-4.22-3.19s-.69-.66-.24-2.62-2.62-6.39-2.62-6.39l-.08-6-4-6.53,0-3.1a1.86,1.86,0,0,0-.21-.77l-2.26-4.08a2.57,2.57,0,0,1,.39-2.06,12.55,12.55,0,0,1,1.41-1.56s.82-2.09-.19-3.53a13.65,13.65,0,0,0-2.23-2.44,1.8,1.8,0,0,1-.53-1.13c0-.67,0-9.59,0-9.59l-3.15-5.2.05-4.44s-6.3-2.84-2.44-9.4l0-5.94-2.49.89-41.67.57Z"/><polygon class="cls-24" points="464.89 462.32 467.77 562.61 568.03 559.87 566.64 479.49 566.56 459.89 464.89 462.32"/><path class="cls-25" d="M373.84,464.3l91.05-2,2.88,100.28-55.32,2-.13,9.49-3.64,1.42s-.71.19-1,0l-1.12-2V556.75l-1-2.3-28.53.76Z"/><path class="cls-26" d="M628.55,433l.54,1,.32,19.59s.71,2.06,3.87,2.13,3.43.26,3.43.26.48,0,.43.93,0,3.11,0,3.11h8.59s2.13-1.3,3.07-1.15a5.62,5.62,0,0,1,1.76.64s1.52,1.73.55,3a27.05,27.05,0,0,1-3.84,3.4l-.09,3.52,3.11,3.85v4.51l-1.94,1.94,1.24,17.95h-5.81a2.72,2.72,0,0,1-.8-1.55c0-.78,0-6.09,0-6.09a3.88,3.88,0,0,0-.14-3.69l-.44-4.37a8.47,8.47,0,0,1-1-5l1.63-4.85,0-4.86-1.92-4.43-4.15,0-1.58,5.73a5.61,5.61,0,0,0-.05,3.29c.57,1.43,2.51,5.4,2.51,5.4l-2.49.89-41.67.57L593,432.71Z"/><polygon class="cls-27" points="628.66 418.23 628.55 432.95 593.03 432.71 593 418.21 628.66 418.23"/><path class="cls-27" d="M593,403.51l10.86-.07,5.73-3.32s1.95-1.93,6.7-.39,13.88,1.12,13.88,1.12H642l0,11.1-5.55,0a4.88,4.88,0,0,1-3.15,5.14l-4.67,1.12-35.66,0Z"/><polygon class="cls-28" points="580.23 399.25 585.72 399.26 588.61 403.52 592.99 403.51 593.03 432.71 580.85 433 580.23 399.25"/><polygon class="cls-29" points="564.08 399.21 580.23 399.25 580.85 433 564.76 433.38 564.08 399.21"/><polygon class="cls-30" points="523.77 400.12 525.69 460.91 566.56 459.89 566.64 479.49 593.65 478.6 593.03 432.71 564.76 433.38 564.08 399.21 523.77 400.12"/><polygon class="cls-31" points="441.98 381.94 503.1 380.72 503.18 400.52 523.77 400.12 525.69 460.91 444.81 462.73 441.98 381.94"/><polygon class="cls-32" points="370.46 383.76 371.7 404.25 372.99 404.3 373.74 424.33 372.65 424.33 373.84 464.3 444.81 462.73 441.98 381.94 370.46 383.76"/><polygon class="cls-33" points="300.4 385.59 370.46 383.76 371.7 404.25 372.99 404.3 373.74 424.33 372.65 424.33 373.84 464.3 302.74 465.87 300.4 385.59"/><polygon class="cls-34" points="603.8 377.96 603.85 403.44 588.61 403.52 585.72 399.26 564.08 399.21 563.39 379.4 603.8 377.96"/><path class="cls-35" d="M603.13,360.08,603.8,378l.05,25.48,5.73-3.32s2.12-1.9,6.7-.39,13.88,1.12,13.88,1.12h17v-3.51h-4.76v-4.11h18.68v-.73h4.69v-3l-24,.26v-2.66h15.54V378.5H645.7l-4.12.66-4,7.91h-3.94L622,364.85s-6.12-1.38-6.5-4.84Z"/><path class="cls-36" d="M562,338.73l1.42,40.67L603.8,378l-.67-17.88,12.36-.07s-6.13-5.27-4.71-23Z"/><polygon class="cls-37" points="441.26 341.71 441.98 381.94 503.1 380.72 503.18 400.52 523.77 400.12 521.8 319.93 501.67 320.04 501.92 339.93 441.26 341.71"/><path class="cls-38" d="M521.8,319.93l2,80.19,40.31-.91L562,338.73l-17,.63-2.6-8.47-5.27-5.1s-1.43-1.76-3.73,0a2.27,2.27,0,0,1-3.59-.58l-2.24-5.6a1.76,1.76,0,0,0-1.84-.23,20.49,20.49,0,0,1-4,.57"/><polygon class="cls-39" points="299.64 345.19 441.26 341.71 441.98 381.94 300.41 385.59 299.64 345.19"/><polygon class="cls-40" points="277.91 285.18 235.36 286.14 236.88 346.87 280.08 345.62 277.91 285.18"/><polyline class="cls-41" points="400.86 342.71 280.08 345.62 277.91 285.18 318.2 284.28 398.93 282.42"/><polygon class="cls-42" points="399.28 282.39 499.98 280.38 501.67 320.04 501.92 339.92 401.07 342.89 399.28 282.39"/><path class="cls-43" d="M598.46,276.66,598,289.15l2.2,5a2.2,2.2,0,0,1-.12,2.82c-1.2,1.63-1,4.4-1,4.4s4.49,18.74,7.25,22.14a62.24,62.24,0,0,0,7.74,7.38s1.92,1.94.57,3.33a19.38,19.38,0,0,1-3.9,2.73L545,339.36l-2.6-8.47-5.27-5.1a2.76,2.76,0,0,0-3.73,0,2.31,2.31,0,0,1-3.45-.26l-2.38-5.91a1.86,1.86,0,0,0-1.84-.23,17.22,17.22,0,0,1-3.21.58l-20.87.09L500,280.38l86.15-2.29,3.88-.93s8.11-.08,8.45-.5"/><path class="cls-44" d="M498.91,240.25,500,280.38l86.15-2.29,3.88-.93h7.09a2,2,0,0,0,1.26-.37c.24-.25.28-.68-.25-1.4a57.27,57.27,0,0,1-3.54-6.59l-.17-3.29-2.11-4-.68-7.68s1.41-2,.63-3.18-11.71-19.84-11.71-19.84l-16,7.3Z"/><path class="cls-45" d="M497.82,199.88l1.09,40.37,65.61-2.11,16-7.3s-5.54-10.12-5.89-28.59a11.32,11.32,0,0,1-1-3.84Z"/><polygon class="cls-36" points="396.87 202.07 497.82 199.88 499.98 280.38 399.28 282.39 396.87 202.07"/><polygon class="cls-34" points="315.85 203.82 396.87 202.07 399.28 282.39 318.2 284.27 315.85 203.82"/><path class="cls-46" d="M130,208.35s40.52-1,42-.66l8.36,0,2.29,9.46v10.6L233,225.43v-2.29l27.12-17.82,14.8-.6,40.93-.9,2.35,80.46-82.84,1.86,0-4.11,5.45-7.83s2.16-3.25-.06-4.62-6.16-1.56-6.16-1.56v-1.54L146.74,269s-4.57-2.74-5.82-9.64l-5.25-19.82s-1.17-2.94-.76-3.94,1.76-4.58,1.76-4.58a1.26,1.26,0,0,1,1.35-.94c1.17,0,13.68-.76,13.68-.76V218.44l-23.31.47s-2.13-3.68-1.51-5,2-5.19,3.09-5.55"/><path class="cls-47" d="M495.56,139.52l58.94-1.7a.54.54,0,0,1,.56.5l.75,8.84s0,.07,0,.11c.22.69,2.55,7.75,8.26,7.8l.64,0,.1,12.54a.51.51,0,0,0,0,.13c.35,1.28,6,20.66,28.88,20.94a.55.55,0,0,1,.49.3l2,4.2a.6.6,0,0,0,.09.13,1.77,1.77,0,0,1-.07,2.84c-1.74,1.24-8.44,5.64-10.82,8.29a.47.47,0,0,1-.29.16c-.78.13-4,.61-6,0-2.3-.73-2.49-2.28-2.49-2.28s-.38-2.39,1.66-.92a6.35,6.35,0,0,0,4.72.81.88.88,0,0,0,.2-.09l4.3-3.07s.51-3.14-2.23-3.46a29.29,29.29,0,0,0-6.67.37,23.92,23.92,0,0,0-5,2.46l-75.81,1.47Z"/><polygon class="cls-48" points="394.88 141.65 495.56 139.52 495.48 146.36 496.17 147.31 497.82 199.88 396.87 202.07 394.88 141.65"/><path class="cls-49" d="M273.1,142.42l72.69-1.19L348,144s2.41-2.31,3.65-2.34a4.91,4.91,0,0,1,1.85.77l41.36-.82,2,60.42-121.95,2.65v-8.38h.93v-11.1l-.69-2.67h-2.64l-.09-1.53V152.69h.67Z"/><path class="cls-50" d="M273.1,142.42v10.27h-.67V181l-28.94.43-3,1.85h-7.28V165.54h-1.91v.64l-18.42.47-.05,10.3h-3.72l-.1-7.11s-1-.27-1.06-.64v-2.28l-15.18.54v3H182.68v-2.37h-3.13s-.76.16-.76-.8,0-3.41,0-3.41h-6.34v1.89h-9.91v2.4h6.9V175h3.13v3.29h-6.22V179h-3.94v-6l-10.23.84v14.85l19.62-.68.17,19.72-12.49,0-29.55.62s4.64-10.69,5.1-18.16l.13-5.1a3.9,3.9,0,0,1-.71-2.38c.21-1,2-5.85,2-5.85s.92-4.21-4.59-5a12.46,12.46,0,0,1-5,2.93c-3.09.91-6.68-5.39-6.68-5.39a8.35,8.35,0,0,1,2-7.14c3-3.59,10.85-13.77,10.85-13.77l75.83-1.75,7.94-.2a8.67,8.67,0,0,0,3.62-3.33Z"/><path class="cls-51" d="M265.75,91.76l1.52,2.3,6,8.94-.16,39.42-52.65.78s-1.64,3-3.95,3.37-20.61.49-20.61.49l0,1.44-14,.29v-1.26h-8.53l-40.3.95,0-5.2s-2.12-2.79-2.2-4.43,2.56-8.63,2.56-8.63V126.7s14.36,1.09,21.26,2.81,44.83,8.87,44.83,8.87l3.86-32.64.12-41.48,3.16,0V62.78h-1.16V52.7h-2.33V44.81l30.61-1.63v50.2h2.39V90.9h9l.53,1.62h2.94l.06,3.34s4.21-.46,4.38-1V91.75Z"/><path class="cls-30" d="M394.88,141.65l-.14-19.85H399l-.09-4.88-4.51,2.7-.27-17.9-49.27.58-19.46-12.2.06-3.28a2,2,0,0,1,.9-.77l0-14.11-12.06,0v11.2s-7.17-4.22-11.63-21L295.06,62l0-9.48-4.62-.12L290,61.93l-19.28-.06,13.37,20.5L267.27,94.06l6,8.94-.16,39.42,72.69-1.19L348,144s2.91-2.46,3.65-2.34a7.35,7.35,0,0,1,1.85.77Z"/><polygon class="cls-52" points="494.63 99.44 495.56 139.52 394.88 141.65 394.74 121.81 399.01 121.81 398.9 116.93 394.4 119.64 394.07 101.74 494.63 99.44"/><path class="cls-53" d="M547.21,98.21l-52.66,1.44,1,39.87,59.09-1.65a1.79,1.79,0,0,0,1.43-.85,21.1,21.1,0,0,0,1.27-3.17s-.28-.76-1.29-.43-7.93-7.59-7.93-7.59l-.08-13.23Z"/><path class="cls-54" d="M434.68,41.23,494,39.75,494.11,69l-2.46.13a.74.74,0,0,0-.51,1c.24.64,3.16,7.95,3.16,7.95l.33,21.34L434.31,101Z"/><path class="cls-55" d="M500.58,29.59h23.69s2,4.43,3.05,5.35.46,6.11.46,6.11,3.82,21.09,17.58,33.62c0,0-.23.63-4,1.06l0,3.4s1.83,1.88.22,3.22c0,0,3,11,5.63,15.66l-52.66,1.43L494.3,78.1,491.09,70s-.23-.86.93-.93,2.09-.06,2.09-.06L494,39.75l12.3.09.84-.31L500,30s-.18-.26.56-.4"/><polygon class="cls-56" points="628.54 418.24 628.57 426.24 592.98 426.1 592.97 418.24 628.54 418.24"/></g></g></svg>