<?xml version="1.0" encoding="utf-8"?>
<!-- Generator: Adobe Illustrator 24.1.0, SVG Export Plug-In . SVG Version: 6.00 Build 0)  -->
<svg version="1.1" xmlns="http://www.w3.org/2000/svg" xmlns:xlink="http://www.w3.org/1999/xlink" x="0px" y="0px"
	 viewBox="0 0 890.8 1125" style="enable-background:new 0 0 890.8 1125;" xml:space="preserve">
<style type="text/css">
	.st0{clip-path:url(#SVGID_2_);}
	.st1{clip-path:url(#SVGID_4_);fill:#4480B6;}
	.st2{clip-path:url(#SVGID_4_);fill:none;stroke:#000000;stroke-width:0.5;stroke-miterlimit:10;}
	.st3{clip-path:url(#SVGID_4_);fill:#1A5295;}
	.st4{clip-path:url(#SVGID_4_);fill:#77ABD1;}
	.st5{clip-path:url(#SVGID_4_);fill:#C0D5E4;}
	.st6{clip-path:url(#SVGID_4_);fill:#EFF3FE;}
	.st7{clip-path:url(#SVGID_4_);fill:#437FB5;}
	.st8{clip-path:url(#SVGID_6_);}
	.st9{opacity:0.25;clip-path:url(#SVGID_8_);fill:#525E3D;}
	.st10{clip-path:url(#SVGID_8_);fill:none;stroke:#000000;stroke-width:0.5;stroke-miterlimit:10;}
	.st11{opacity:0.15;clip-path:url(#SVGID_8_);fill:#525E3D;}
	.st12{clip-path:url(#SVGID_8_);fill:none;stroke:#020202;stroke-width:0.5;stroke-miterlimit:10;}
	.st13{opacity:5.000000e-02;clip-path:url(#SVGID_8_);fill:#525E3D;}
	.st14{opacity:0.55;clip-path:url(#SVGID_8_);fill:#525E3D;}
	.st15{opacity:0.95;clip-path:url(#SVGID_8_);fill:#525E3D;}
	.st16{opacity:0.65;clip-path:url(#SVGID_8_);fill:#525E3D;}
	.st17{clip-path:url(#SVGID_8_);fill:#F5F6F4;}
	.st18{opacity:0.35;clip-path:url(#SVGID_8_);fill:#525E3D;}
	.st19{opacity:0.75;clip-path:url(#SVGID_8_);fill:#525E3D;}
	.st20{opacity:0.45;clip-path:url(#SVGID_8_);fill:#525E3D;}
	.st21{opacity:5.000000e-02;fill:#941A64;}
	.st22{opacity:0.15;fill:#941A64;}
	.st23{opacity:0.25;fill:#941A64;}
	.st24{opacity:0.35;fill:#941A64;}
	.st25{opacity:0.45;fill:#941A64;}
	.st26{opacity:0.55;fill:#941A64;}
	.st27{opacity:0.65;fill:#941A64;}
	.st28{opacity:0.75;fill:#941A64;}
	.st29{opacity:0.85;fill:#941A64;}
	.st30{opacity:0.95;fill:#941A64;}
	.st31{fill:none;stroke:#020202;stroke-width:0.5;stroke-miterlimit:10;}
	.st32{opacity:5.000000e-02;fill:#1A5295;}
	.st33{opacity:0.15;fill:#1A5295;}
	.st34{opacity:0.25;fill:#1A5295;}
	.st35{opacity:0.35;fill:#1A5295;}
	.st36{opacity:0.45;fill:#1A5295;}
	.st37{opacity:0.55;fill:#1A5295;}
	.st38{opacity:0.65;fill:#1A5295;}
	.st39{opacity:0.75;fill:#1A5295;}
	.st40{opacity:0.85;fill:#1A5295;}
	.st41{opacity:0.95;fill:#1A5295;}
	.st42{fill:none;stroke:#000000;stroke-width:0.5;stroke-miterlimit:10;}
	.st43{opacity:0.95;fill:#91321C;stroke:#000000;stroke-miterlimit:10;}
	.st44{fill:none;stroke:#000000;stroke-miterlimit:10;}
	.st45{opacity:5.000000e-02;fill:#561A94;}
	.st46{opacity:0.15;fill:#561A94;}
	.st47{opacity:0.25;fill:#561A94;}
	.st48{opacity:0.35;fill:#561A94;}
	.st49{opacity:0.45;fill:#561A94;}
	.st50{opacity:0.55;fill:#561A94;}
	.st51{opacity:0.65;fill:#561A94;}
	.st52{opacity:0.75;fill:#561A94;}
	.st53{opacity:0.85;fill:#561A94;}
	.st54{opacity:0.95;fill:#561A94;}
	.st55{fill:#FFFFFF;stroke:#000000;stroke-miterlimit:10;}
	.st56{opacity:0.85;fill:#91321C;stroke:#000000;stroke-miterlimit:10;}
	.st57{fill:#FFFFFF;}
	.st58{opacity:2.700000e-02;fill:#FFFFFF;stroke:#000000;stroke-miterlimit:10;}
	.st59{opacity:0;fill:#FFFFFF;stroke:#000000;stroke-miterlimit:10;}
	.st60{opacity:0.349;fill:#FFFFFF;stroke:#000000;stroke-miterlimit:10;}
	.st61{opacity:7.300000e-02;fill:#FFFFFF;stroke:#000000;stroke-miterlimit:10;}
	.st62{opacity:1.800000e-02;fill:#FFFFFF;stroke:#000000;stroke-miterlimit:10;}
	.st63{opacity:0.819;fill:#FFFFFF;stroke:#000000;stroke-miterlimit:10;}
	.st64{opacity:0.211;fill:#FFFFFF;stroke:#000000;stroke-miterlimit:10;}
	.st65{opacity:3.100000e-02;fill:#FFFFFF;stroke:#000000;stroke-miterlimit:10;}
	.st66{opacity:1.200000e-02;fill:#FFFFFF;stroke:#000000;stroke-miterlimit:10;}
	.st67{opacity:9.000000e-03;fill:#FFFFFF;stroke:#000000;stroke-miterlimit:10;}
	.st68{opacity:0.119;fill:#FFFFFF;stroke:#000000;stroke-miterlimit:10;}
	.st69{opacity:0.141;fill:#FFFFFF;stroke:#000000;stroke-miterlimit:10;}
	.st70{opacity:0.255;fill:#FFFFFF;stroke:#000000;stroke-miterlimit:10;}
	.st71{opacity:8.400000e-02;fill:#FFFFFF;stroke:#000000;stroke-miterlimit:10;}
	.st72{opacity:4.200000e-02;fill:#FFFFFF;stroke:#000000;stroke-miterlimit:10;}
	.st73{opacity:0.15;fill:#FFFFFF;stroke:#000000;stroke-miterlimit:10;}
	.st74{opacity:0.477;fill:#FFFFFF;stroke:#000000;stroke-miterlimit:10;}
	.st75{opacity:9.000000e-02;fill:#FFFFFF;stroke:#000000;stroke-miterlimit:10;}
	.st76{opacity:0.229;fill:#FFFFFF;stroke:#000000;stroke-miterlimit:10;}
	.st77{opacity:2.100000e-02;fill:#FFFFFF;stroke:#000000;stroke-miterlimit:10;}
	.st78{opacity:0.563;fill:#FFFFFF;stroke:#000000;stroke-miterlimit:10;}
	.st79{opacity:0.555;fill:#FFFFFF;stroke:#000000;stroke-miterlimit:10;}
	.st80{opacity:0.664;fill:#FFFFFF;stroke:#000000;stroke-miterlimit:10;}
	.st81{opacity:0.737;fill:#FFFFFF;stroke:#000000;stroke-miterlimit:10;}
	.st82{opacity:0.581;fill:#FFFFFF;stroke:#000000;stroke-miterlimit:10;}
	.st83{opacity:0.529;fill:#FFFFFF;stroke:#000000;stroke-miterlimit:10;}
	.st84{opacity:0.194;fill:#FFFFFF;stroke:#000000;stroke-miterlimit:10;}
	.st85{opacity:2.200000e-02;fill:#FFFFFF;stroke:#000000;stroke-miterlimit:10;}
	.st86{opacity:0.733;fill:#FFFFFF;stroke:#000000;stroke-miterlimit:10;}
	.st87{opacity:0.728;fill:#FFFFFF;stroke:#000000;stroke-miterlimit:10;}
	.st88{opacity:0.708;fill:#FFFFFF;stroke:#000000;stroke-miterlimit:10;}
	.st89{opacity:0.604;fill:#FFFFFF;stroke:#000000;stroke-miterlimit:10;}
	.st90{opacity:0.589;fill:#FFFFFF;stroke:#000000;stroke-miterlimit:10;}
	.st91{opacity:3.700000e-02;fill:#FFFFFF;stroke:#000000;stroke-miterlimit:10;}
	.st92{opacity:0.499;fill:#FFFFFF;stroke:#000000;stroke-miterlimit:10;}
	.st93{opacity:7.100000e-02;fill:#FFFFFF;stroke:#000000;stroke-miterlimit:10;}
	.st94{opacity:0.4;fill:#FFFFFF;stroke:#000000;stroke-miterlimit:10;}
	.st95{opacity:0.795;fill:#FFFFFF;stroke:#000000;stroke-miterlimit:10;}
	.st96{opacity:0.815;fill:#FFFFFF;stroke:#000000;stroke-miterlimit:10;}
	.st97{opacity:0.731;fill:#FFFFFF;stroke:#000000;stroke-miterlimit:10;}
	.st98{opacity:0.463;fill:#FFFFFF;stroke:#000000;stroke-miterlimit:10;}
	.st99{opacity:0.365;fill:#FFFFFF;stroke:#000000;stroke-miterlimit:10;}
	.st100{opacity:0.56;fill:#FFFFFF;stroke:#000000;stroke-miterlimit:10;}
	.st101{opacity:0.548;fill:#FFFFFF;stroke:#000000;stroke-miterlimit:10;}
	.st102{opacity:0.434;fill:#FFFFFF;stroke:#000000;stroke-miterlimit:10;}
	.st103{opacity:0.559;fill:#FFFFFF;stroke:#000000;stroke-miterlimit:10;}
	.st104{opacity:0.774;fill:#FFFFFF;stroke:#000000;stroke-miterlimit:10;}
	.st105{opacity:0.851;fill:#FFFFFF;stroke:#000000;stroke-miterlimit:10;}
	.st106{opacity:0.749;fill:#FFFFFF;stroke:#000000;stroke-miterlimit:10;}
	.st107{opacity:0.425;fill:#FFFFFF;stroke:#000000;stroke-miterlimit:10;}
	.st108{opacity:0.423;fill:#FFFFFF;stroke:#000000;stroke-miterlimit:10;}
	.st109{opacity:0.438;fill:#FFFFFF;stroke:#000000;stroke-miterlimit:10;}
	.st110{opacity:0.444;fill:#FFFFFF;stroke:#000000;stroke-miterlimit:10;}
	.st111{opacity:2.700000e-02;fill:#561A94;}
	.st112{opacity:0;fill:#561A94;}
	.st113{opacity:0.349;fill:#561A94;}
	.st114{opacity:7.300000e-02;fill:#561A94;}
	.st115{opacity:1.800000e-02;fill:#561A94;}
	.st116{opacity:0.819;fill:#561A94;}
	.st117{opacity:0.211;fill:#561A94;}
	.st118{opacity:3.100000e-02;fill:#561A94;}
	.st119{opacity:1.200000e-02;fill:#561A94;}
	.st120{opacity:9.000000e-03;fill:#561A94;}
	.st121{opacity:0.119;fill:#561A94;}
	.st122{opacity:0.141;fill:#561A94;}
	.st123{opacity:0.255;fill:#561A94;}
	.st124{opacity:8.400000e-02;fill:#561A94;}
	.st125{opacity:4.200000e-02;fill:#561A94;}
	.st126{opacity:0.477;fill:#561A94;}
	.st127{opacity:9.000000e-02;fill:#561A94;}
	.st128{opacity:0.229;fill:#561A94;}
	.st129{opacity:0.17;fill:#561A94;stroke:#020202;stroke-width:0.5;stroke-miterlimit:10;}
	.st130{opacity:2.100000e-02;fill:#561A94;}
	.st131{opacity:0.563;fill:#561A94;}
	.st132{opacity:0.555;fill:#561A94;}
	.st133{opacity:0.664;fill:#561A94;}
	.st134{opacity:0.737;fill:#561A94;}
	.st135{opacity:0.581;fill:#561A94;}
	.st136{opacity:0.529;fill:#561A94;}
	.st137{opacity:0.194;fill:#561A94;}
	.st138{opacity:2.200000e-02;fill:#561A94;}
	.st139{opacity:0.733;fill:#561A94;}
	.st140{opacity:0.728;fill:#561A94;}
	.st141{opacity:0.708;fill:#561A94;}
	.st142{opacity:0.604;fill:#561A94;}
	.st143{opacity:0.589;fill:#561A94;}
	.st144{opacity:3.700000e-02;fill:#561A94;}
	.st145{opacity:0.499;fill:#561A94;}
	.st146{opacity:7.100000e-02;fill:#561A94;}
	.st147{opacity:0.4;fill:#561A94;}
	.st148{opacity:0.795;fill:#561A94;}
	.st149{opacity:0.815;fill:#561A94;}
	.st150{opacity:0.731;fill:#561A94;}
	.st151{opacity:0.463;fill:#561A94;}
	.st152{opacity:0.365;fill:#561A94;}
	.st153{opacity:0.56;fill:#561A94;}
	.st154{opacity:0.548;fill:#561A94;}
	.st155{opacity:0.434;fill:#561A94;}
	.st156{opacity:0.559;fill:#561A94;}
	.st157{opacity:0.774;fill:#561A94;}
	.st158{opacity:0.851;fill:#561A94;}
	.st159{opacity:0.749;fill:#561A94;}
	.st160{opacity:0.425;fill:#561A94;}
	.st161{opacity:0.423;fill:#561A94;}
	.st162{opacity:0.438;fill:#561A94;}
	.st163{opacity:0.444;fill:#561A94;}
	.st164{opacity:5.000000e-02;fill:#91321C;stroke:#000000;stroke-miterlimit:10;}
	.st165{opacity:0.25;fill:#91321C;stroke:#000000;stroke-miterlimit:10;}
	.st166{opacity:0.15;fill:#91321C;stroke:#000000;stroke-miterlimit:10;}
	.st167{opacity:0.75;fill:#91321C;stroke:#000000;stroke-miterlimit:10;}
	.st168{opacity:0.35;fill:#91321C;stroke:#000000;stroke-miterlimit:10;}
	.st169{opacity:0.45;fill:#91321C;stroke:#000000;stroke-miterlimit:10;}
	.st170{opacity:0.65;fill:#91321C;stroke:#000000;stroke-miterlimit:10;}
	.st171{opacity:0.733;fill:#91321C;stroke:#000000;stroke-miterlimit:10;}
	.st172{opacity:0.55;fill:#91321C;stroke:#000000;stroke-miterlimit:10;}
	.st173{opacity:5.000000e-02;fill:#1B938D;stroke:#000000;stroke-miterlimit:10;}
	.st174{opacity:0;fill:#561A94;stroke:#000000;stroke-miterlimit:10;}
	.st175{opacity:0.45;fill:#1B938D;stroke:#000000;stroke-miterlimit:10;}
	.st176{opacity:0.35;fill:#1B938D;stroke:#000000;stroke-miterlimit:10;}
	.st177{opacity:0.65;fill:#1B938D;stroke:#000000;stroke-miterlimit:10;}
	.st178{opacity:0.55;fill:#1B938D;stroke:#000000;stroke-miterlimit:10;}
	.st179{opacity:0.85;fill:#1B938D;stroke:#000000;stroke-miterlimit:10;}
	.st180{opacity:0.15;fill:#1B938D;stroke:#000000;stroke-miterlimit:10;}
	.st181{opacity:0.25;fill:#1B938D;stroke:#000000;stroke-miterlimit:10;}
	.st182{opacity:0.75;fill:#1B938D;stroke:#000000;stroke-miterlimit:10;}
	.st183{opacity:1.000000e-03;fill:#941A64;stroke:#000000;stroke-miterlimit:10;}
	.st184{opacity:2.000000e-03;fill:#941A64;stroke:#000000;stroke-miterlimit:10;}
	.st185{opacity:3.000000e-03;fill:#941A64;stroke:#000000;stroke-miterlimit:10;}
	.st186{opacity:1.500000e-02;fill:#941A64;stroke:#000000;stroke-miterlimit:10;}
	.st187{opacity:6.000000e-03;fill:#561A94;stroke:#000000;stroke-miterlimit:10;}
	.st188{opacity:7.000000e-03;fill:#941A64;stroke:#000000;stroke-miterlimit:10;}
	.st189{opacity:4.000000e-02;fill:#941A64;stroke:#000000;stroke-miterlimit:10;}
	.st190{opacity:8.200000e-02;fill:#941A64;stroke:#000000;stroke-miterlimit:10;}
	.st191{opacity:5.000000e-03;fill:#941A64;stroke:#000000;stroke-miterlimit:10;}
	.st192{opacity:4.200000e-02;fill:#941A64;stroke:#000000;stroke-miterlimit:10;}
	.st193{opacity:5.500000e-02;fill:#941A64;stroke:#000000;stroke-miterlimit:10;}
	.st194{opacity:9.000000e-03;fill:#941A64;stroke:#000000;stroke-miterlimit:10;}
	.st195{opacity:4.700000e-02;fill:#941A64;stroke:#000000;stroke-miterlimit:10;}
	.st196{opacity:1.800000e-02;fill:#941A64;stroke:#000000;stroke-miterlimit:10;}
	.st197{opacity:0.107;fill:#941A64;stroke:#000000;stroke-miterlimit:10;}
	.st198{opacity:0.188;fill:#941A64;stroke:#000000;stroke-miterlimit:10;}
	.st199{opacity:0.322;fill:#941A64;stroke:#000000;stroke-miterlimit:10;}
	.st200{opacity:0.163;fill:#941A64;stroke:#000000;stroke-miterlimit:10;}
	.st201{opacity:0.301;fill:#941A64;stroke:#000000;stroke-miterlimit:10;}
	.st202{opacity:0.211;fill:#941A64;stroke:#000000;stroke-miterlimit:10;}
	.st203{opacity:0;fill:#941A64;stroke:#000000;stroke-miterlimit:10;}
	.st204{opacity:0.119;fill:#941A64;stroke:#000000;stroke-miterlimit:10;}
	.st205{opacity:0.171;fill:#941A64;stroke:#000000;stroke-miterlimit:10;}
	.st206{opacity:6.600000e-02;fill:#941A64;stroke:#000000;stroke-miterlimit:10;}
	.st207{opacity:4.100000e-02;fill:#941A64;stroke:#000000;stroke-miterlimit:10;}
	.st208{opacity:5.100000e-02;fill:#941A64;stroke:#000000;stroke-miterlimit:10;}
	.st209{opacity:3.400000e-02;fill:#941A64;stroke:#000000;stroke-miterlimit:10;}
	.st210{opacity:1.000000e-02;fill:#941A64;stroke:#000000;stroke-miterlimit:10;}
	.st211{opacity:2.800000e-02;fill:#941A64;stroke:#000000;stroke-miterlimit:10;}
	.st212{opacity:6.400000e-02;fill:#941A64;stroke:#000000;stroke-miterlimit:10;}
	.st213{opacity:6.900000e-02;fill:#941A64;stroke:#000000;stroke-miterlimit:10;}
	.st214{opacity:5.900000e-02;fill:#941A64;stroke:#000000;stroke-miterlimit:10;}
	.st215{opacity:4.400000e-02;fill:#941A64;stroke:#000000;stroke-miterlimit:10;}
	.st216{opacity:4.600000e-02;fill:#941A64;stroke:#000000;stroke-miterlimit:10;}
	.st217{opacity:0.113;fill:#941A64;stroke:#000000;stroke-miterlimit:10;}
	.st218{opacity:0.143;fill:#941A64;stroke:#000000;stroke-miterlimit:10;}
	.st219{opacity:0.117;fill:#941A64;stroke:#000000;stroke-miterlimit:10;}
	.st220{opacity:7.300000e-02;fill:#941A64;stroke:#000000;stroke-miterlimit:10;}
	.st221{opacity:2.600000e-02;fill:#941A64;stroke:#000000;stroke-miterlimit:10;}
	.st222{opacity:0.102;fill:#941A64;stroke:#000000;stroke-miterlimit:10;}
	.st223{opacity:0.277;fill:#941A64;stroke:#000000;stroke-miterlimit:10;}
	.st224{opacity:0.123;fill:#941A64;stroke:#000000;stroke-miterlimit:10;}
	.st225{opacity:0.167;fill:#941A64;stroke:#000000;stroke-miterlimit:10;}
	.st226{opacity:2.700000e-02;fill:#561A94;stroke:#000000;stroke-miterlimit:10;}
	.st227{opacity:0.349;fill:#561A94;stroke:#000000;stroke-miterlimit:10;}
	.st228{opacity:7.300000e-02;fill:#561A94;stroke:#000000;stroke-miterlimit:10;}
	.st229{opacity:1.800000e-02;fill:#561A94;stroke:#000000;stroke-miterlimit:10;}
	.st230{opacity:0.819;fill:#561A94;stroke:#000000;stroke-miterlimit:10;}
	.st231{opacity:0.211;fill:#561A94;stroke:#000000;stroke-miterlimit:10;}
	.st232{opacity:3.100000e-02;fill:#561A94;stroke:#000000;stroke-miterlimit:10;}
	.st233{opacity:1.200000e-02;fill:#561A94;stroke:#000000;stroke-miterlimit:10;}
	.st234{opacity:9.000000e-03;fill:#561A94;stroke:#000000;stroke-miterlimit:10;}
	.st235{opacity:0.119;fill:#561A94;stroke:#000000;stroke-miterlimit:10;}
	.st236{opacity:0.141;fill:#561A94;stroke:#000000;stroke-miterlimit:10;}
	.st237{opacity:0.255;fill:#561A94;stroke:#000000;stroke-miterlimit:10;}
	.st238{opacity:8.400000e-02;fill:#561A94;stroke:#000000;stroke-miterlimit:10;}
	.st239{opacity:4.200000e-02;fill:#561A94;stroke:#000000;stroke-miterlimit:10;}
	.st240{opacity:0.15;fill:#561A94;stroke:#000000;stroke-miterlimit:10;}
	.st241{opacity:0.477;fill:#561A94;stroke:#000000;stroke-miterlimit:10;}
	.st242{opacity:9.000000e-02;fill:#561A94;stroke:#000000;stroke-miterlimit:10;}
	.st243{opacity:0.229;fill:#561A94;stroke:#000000;stroke-miterlimit:10;}
	.st244{opacity:0.17;fill:#561A94;stroke:#000000;stroke-miterlimit:10;}
	.st245{opacity:2.100000e-02;fill:#561A94;stroke:#000000;stroke-miterlimit:10;}
	.st246{opacity:0.563;fill:#561A94;stroke:#000000;stroke-miterlimit:10;}
	.st247{opacity:0.555;fill:#561A94;stroke:#000000;stroke-miterlimit:10;}
	.st248{opacity:0.664;fill:#561A94;stroke:#000000;stroke-miterlimit:10;}
	.st249{opacity:0.737;fill:#561A94;stroke:#000000;stroke-miterlimit:10;}
	.st250{opacity:0.581;fill:#561A94;stroke:#000000;stroke-miterlimit:10;}
	.st251{opacity:0.529;fill:#561A94;stroke:#000000;stroke-miterlimit:10;}
	.st252{opacity:0.194;fill:#561A94;stroke:#000000;stroke-miterlimit:10;}
	.st253{opacity:2.200000e-02;fill:#561A94;stroke:#000000;stroke-miterlimit:10;}
	.st254{opacity:0.733;fill:#561A94;stroke:#000000;stroke-miterlimit:10;}
	.st255{opacity:0.728;fill:#561A94;stroke:#000000;stroke-miterlimit:10;}
	.st256{opacity:0.708;fill:#561A94;stroke:#000000;stroke-miterlimit:10;}
	.st257{opacity:0.604;fill:#561A94;stroke:#000000;stroke-miterlimit:10;}
	.st258{opacity:0.589;fill:#561A94;stroke:#000000;stroke-miterlimit:10;}
	.st259{opacity:3.700000e-02;fill:#561A94;stroke:#000000;stroke-miterlimit:10;}
	.st260{opacity:0.499;fill:#561A94;stroke:#000000;stroke-miterlimit:10;}
	.st261{opacity:7.100000e-02;fill:#561A94;stroke:#000000;stroke-miterlimit:10;}
	.st262{opacity:0.4;fill:#561A94;stroke:#000000;stroke-miterlimit:10;}
	.st263{opacity:0.795;fill:#561A94;stroke:#000000;stroke-miterlimit:10;}
	.st264{opacity:0.815;fill:#561A94;stroke:#000000;stroke-miterlimit:10;}
	.st265{opacity:0.731;fill:#561A94;stroke:#000000;stroke-miterlimit:10;}
	.st266{opacity:0.463;fill:#561A94;stroke:#000000;stroke-miterlimit:10;}
	.st267{opacity:0.365;fill:#561A94;stroke:#000000;stroke-miterlimit:10;}
	.st268{opacity:0.56;fill:#561A94;stroke:#000000;stroke-miterlimit:10;}
	.st269{fill:#AAAAAA;stroke:#000000;stroke-miterlimit:10;}
	.st270{opacity:0.548;fill:#561A94;stroke:#000000;stroke-miterlimit:10;}
	.st271{opacity:0.434;fill:#561A94;stroke:#000000;stroke-miterlimit:10;}
	.st272{opacity:0.559;fill:#561A94;stroke:#000000;stroke-miterlimit:10;}
	.st273{opacity:0.774;fill:#561A94;stroke:#000000;stroke-miterlimit:10;}
	.st274{opacity:0.851;fill:#561A94;stroke:#000000;stroke-miterlimit:10;}
	.st275{opacity:0.749;fill:#561A94;stroke:#000000;stroke-miterlimit:10;}
	.st276{opacity:0.425;fill:#561A94;stroke:#000000;stroke-miterlimit:10;}
	.st277{opacity:0.423;fill:#561A94;stroke:#000000;stroke-miterlimit:10;}
	.st278{opacity:0.438;fill:#561A94;stroke:#000000;stroke-miterlimit:10;}
	.st279{opacity:0.444;fill:#561A94;stroke:#000000;stroke-miterlimit:10;}
	.st280{opacity:5.000000e-02;fill:#525E3D;}
	.st281{opacity:0.15;fill:#525E3D;}
	.st282{opacity:0.25;fill:#525E3D;}
	.st283{opacity:0.35;fill:#525E3D;}
	.st284{opacity:0.45;fill:#525E3D;}
	.st285{opacity:0.55;fill:#525E3D;}
	.st286{opacity:0.65;fill:#525E3D;}
	.st287{opacity:0.75;fill:#525E3D;}
	.st288{opacity:0.85;fill:#525E3D;}
	.st289{opacity:0.95;fill:#525E3D;}
	.st290{opacity:5.000000e-02;fill:#1B938D;}
	.st291{opacity:0.25;fill:#1B938D;}
	.st292{opacity:0.35;fill:#1B938D;}
	.st293{opacity:0.45;fill:#1B938D;}
	.st294{opacity:0.55;fill:#1B938D;}
	.st295{opacity:0.65;fill:#1B938D;}
	.st296{opacity:0.75;fill:#1B938D;}
	.st297{opacity:0.85;fill:#1B938D;}
	.st298{opacity:0.95;fill:#1B938D;}
	.st299{opacity:5.000000e-02;fill:#91321C;}
	.st300{opacity:0.25;fill:#91321C;}
	.st301{opacity:0.45;fill:#91321C;}
	.st302{opacity:0.55;fill:#91321C;}
	.st303{opacity:0.65;fill:#91321C;}
	.st304{opacity:0.75;fill:#91321C;}
	.st305{opacity:0.85;fill:#91321C;}
	.st306{opacity:0.95;fill:#91321C;}
	.st307{opacity:0.35;fill:#91321C;}
	.st308{opacity:0.15;fill:#91321C;}
</style>
<g id="Layer_1">
</g>
<g id="White_Pop">
	<g id="Outlines">
		<polygon class="st43" points="628.6,418.2 628.5,426.3 593,426.1 593,418.2 		"/>
		<path class="st44" d="M699.4,1042.2l0.1,30.6l123.6-1l0-80L701,992.9l-33.1-1.5c0,0-2.4-0.2-1.5,1.2c1,1.4,23.7,36.4,23.7,36.4
			L699.4,1042.2z"/>
		<path class="st44" d="M627.2,1033.8l4.3-0.1l-4.9,20.7c0,0-0.5,1.4-0.3,1.8c0.2,0.4,5.4,1.4,5.4,1.4v16.3l67.7-1.1l-0.1-30.6
			l-9.3-13.1l-21.3,3.8l-37.4,0.9"/>
		<path class="st44" d="M694.6,777.7l6.4,215.1l65.8-1.4l56.3,0.3l-0.3-97.8l-6.5-3.7c0,0-1.5-0.9-0.4-2c1.2-1.1,2.3-2.6,2.3-2.6
			s0.5-0.5-0.3-1.7c-0.8-1.2-3.9-6.4-3.9-6.4s-0.7-1.5,0.3-2.3c1.1-0.9,5.7-4.4,5.7-4.4l2.7-0.1l-0.1-1.4l-2.7-2.7v-4.4l2.7-3.7
			l-0.7-26.3l-9.4-2.1l-3.7-44.1l-20.2-10.3l-6.1-0.1L694.6,777.7z"/>
		<path class="st44" d="M576.9,861.6l4,140.4l0.6,35.1c0,0,11.2,2.9,17.7,0.8s12.5-9.2,12.5-9.2s8.1-9.2,15.6,0v5.2l41.6-1l21.3-3.8
			l-23.7-36.4c0,0-1.1-1.2,1.5-1.2c2.6,0,33.1,1.5,33.1,1.5l-4-134.4L576.9,861.6z"/>
		<polygon class="st44" points="500.7,984.2 496.9,883.4 476.7,884 476.7,901.8 456.7,902.1 456.7,904.4 436.5,905.1 436.5,890.4 
			433.3,890.4 433.3,885 415.8,885.1 417.8,945.5 377.7,947.5 378.7,967.5 436,966 436.3,976.4 449.5,976.2 449.5,965.5 459,965.3 
			459.1,960.2 461.3,960.2 461.4,955.4 468.3,955.5 469.1,965.1 489.3,964.6 489.8,981 489,984.5 		"/>
		<path class="st44" d="M494.7,823.4l6,160.8l25.3-0.3l0,3.6c0,0,3.2,0.6,3.4-3.8l10.2-0.1v20.1l41.3-1.8l-4-140.4l-41,0.8
			c0,0-3.3-21.8-20.6-39.3L494.7,823.4z"/>
		<path class="st44" d="M692.7,697.2l1.9,80.6l87.9-2.1c0,0-2.1-4-2.1-5.3c0-1.3,3-4.5,3-4.5l5-4.2l-7.3-8.6l-4.8,3.8
			c0,0-2.8,1.8-6.9-0.1c-4-1.9-17.7-12.6-17.7-12.6l-5.5-5.8c0,0-0.5-0.8,2.5-2.3l-0.1-5c0,0-4.4,0-7.2-5.1l-0.9-4.3L723.6,702
			c0,0-0.3-0.3-0.4-1.1c-0.1-0.8,0-3.7,0-3.7l-10.2,0.1c0,0-6,3.1-7.2,2.6c-1.2-0.5-8.2-2.4-8.2-2.4L692.7,697.2z"/>
		<polygon class="st44" points="613.6,739.8 614.2,760.2 617.2,860.9 696.9,858.4 693.6,737.2 		"/>
		<path class="st44" d="M493.5,763.2l1.2,60.2l20.5-0.3c0,0,15.9,20,20.6,39.3l81.4-1.6l-3-100.7c0,0-59.3,1.1-60.3,1.7L493.5,763.2
			z"/>
		<path class="st44" d="M373,766.2l1.7,60.3l120.1-3l-1.2-60.2l-7.7,1.2c0,0-2,0.1-3.1-0.6l-63,0.1l-7.9,1.3L373,766.2z"/>
		<path class="st44" d="M611.5,660.1l2.1,79.6l80-2.5l-0.9-40.1l5,0.2c0,0,6.8,1.7,8.2,2.4c1.4,0.7,7.2-2.6,7.2-2.6l10.2-0.1
			c0,0,3.1-1.3-0.2-2.7c-3.4-1.4-9.1-6.3-9.1-6.3s-3.6-7.8-2.8-11.7c0,0,1.5-1.1,0.6-2.1c-0.9-1-5-8.8-5-8.8s0.9-7.1,3.4-8.4
			l-22.8,0.3c0,0-2.4,1.5-7.1,0.1l-30.8,1c0,0-5.6,8.6-15.8,0.8L611.5,660.1z"/>
		<path class="st44" d="M610.5,619.2l1,40.9l22.2-0.8c0,0,8.9,8.6,15.8-0.8l30.8-1.1c0,0,4.5,1.7,7.1-0.1l26.6-0.4
			c0.4,0,0.7-0.2,0.9-0.4c0.7-0.9,1.9-2.9-0.7-4.1h-4.4l-3.9-4.6l-1.5-4.7l0-10c0,0-14-11.9-13.8-20.7l-8.9,4.9L610.5,619.2z"/>
		<polygon class="st44" points="551.6,661.4 553.9,761.9 578.9,760.9 614.2,760.2 611.5,660.1 		"/>
		<polygon class="st44" points="490.4,662.6 493.5,763.2 553.9,761.9 551.6,661.4 		"/>
		<path class="st44" d="M371.5,665.4l0,14.6l-1.6,3.9l0.9,32.1l2.1,50.1l38.8-1l7.9-1.3l63-0.1c0,0,1,0.9,3.1,0.6
			c2.2-0.2,7.7-1.2,7.7-1.2l-3.1-100.6L371.5,665.4z"/>
		<path class="st44" d="M609,559l1.5,60.2l71.4-1.9l8.9-4.9c0,0-5.8-3.7-6.4-6.6c-0.6-2.9-0.7-3.1-0.7-3.1l-3.3-4.3V594
			c0,0-10.7-8-11-14.5c-0.4-6.5-0.4-7.4-0.4-7.4L658,558L609,559z"/>
		<polygon class="st44" points="488,562 490.4,662.6 611.5,660.1 609,559 568,559.9 		"/>
		<polygon class="st44" points="365.4,585.5 377.5,585.4 377.6,590.3 367.6,595.3 369.4,661.4 371.5,665.4 371.6,680.1 369.9,684 
			370.8,716.1 249.2,720 247.7,652.8 257.3,648.7 348.4,645.8 347.7,610.3 364.2,603 364.5,585.5 		"/>
		<path class="st44" d="M377.1,555.2l0.5,35l-10,5l1.8,66.1l2.1,4.1l118.9-2.8L488,562l-75.5,2.5l-0.1,9.5l-3.6,1.4c0,0-0.6,0.2-1,0
			c0,0-1.1-2-1.1-2v-16.8l-1-2.3L377.1,555.2z"/>
		<path class="st44" d="M566.6,479.5l1.4,80.4L658,558l0.1-2.9l-4.2-3.2c0,0-0.7-0.7-0.2-2.6c0.5-2-2.6-6.4-2.6-6.4l-0.1-6l-4-6.5
			l0-3.1c0,0,0-0.4-0.2-0.8c-0.2-0.4-2.3-4.1-2.3-4.1s-0.3-1.2,0.4-2.1c0.7-0.9,1.4-1.6,1.4-1.6s0.8-2.1-0.2-3.5
			c-1-1.4-2.2-2.4-2.2-2.4s-0.5-0.5-0.5-1.1s0-9.6,0-9.6l-3.1-5.2l0-4.4c0,0-6.3-2.8-2.4-9.4l0-5.9l-2.5,0.9l-41.7,0.6L566.6,479.5z
			"/>
		<path class="st44" d="M373.8,464.3l91-2l2.9,100.3l-55.3,2l-0.1,9.5l-3.6,1.4c0,0-0.7,0.2-1,0l-1.1-2v-16.8l-1-2.3l-28.5,0.8
			L373.8,464.3z"/>
		<path class="st44" d="M628.5,433l0.5,1l0.3,19.6c0,0,0.7,2.1,3.9,2.1c3.2,0.1,3.4,0.3,3.4,0.3s0.5,0,0.4,0.9c-0.1,0.9,0,3.1,0,3.1
			h8.6c0,0,2.1-1.3,3.1-1.2c0.9,0.2,1.8,0.6,1.8,0.6s1.5,1.7,0.5,3c-1,1.3-3.8,3.4-3.8,3.4l-0.1,3.5l3.1,3.8v4.5l-1.9,1.9l1.2,18
			h-5.8c0,0-0.8-0.8-0.8-1.6c0-0.8,0-6.1,0-6.1s1-2-0.1-3.7l-0.4-4.4c0,0-1.2-1.7-1-5l1.6-4.9l-0.1-4.9l-1.9-4.4l-4.2-0.1l-1.6,5.7
			c0,0-0.6,1.9-0.1,3.3c0.6,1.4,2.5,5.4,2.5,5.4l-2.5,0.9l-41.7,0.6l-0.6-45.9L628.5,433z"/>
		<polygon class="st44" points="628.7,418.2 628.5,433 593,432.7 593,418.2 		"/>
		<path class="st44" d="M593,403.5l10.9-0.1l5.7-3.3c0,0,2-1.9,6.7-0.4c4.7,1.5,13.9,1.1,13.9,1.1l11.8,0l0,11.1l-5.6,0
			c0,0,0.5,3.7-3.2,5.1l-4.7,1.1l-35.7,0L593,403.5z"/>
		<polygon class="st44" points="580.2,399.2 585.7,399.3 588.6,403.5 593,403.5 593,432.7 580.9,433 		"/>
		<polygon class="st44" points="564.1,399.2 580.2,399.2 580.9,433 564.8,433.4 		"/>
		<polygon class="st44" points="523.8,400.1 525.7,460.9 566.6,459.9 566.6,479.5 593.6,478.6 593,432.7 564.8,433.4 564.1,399.2 		
			"/>
		<polygon class="st44" points="442,381.9 503.1,380.7 503.2,400.5 523.8,400.1 525.7,460.9 444.8,462.7 		"/>
		<polygon class="st44" points="370.5,383.8 371.7,404.2 373,404.3 373.7,424.3 372.7,424.3 373.8,464.3 444.8,462.7 442,381.9 		
			"/>
		<polygon class="st44" points="300.4,385.6 370.5,383.8 371.7,404.2 373,404.3 373.7,424.3 372.7,424.3 373.8,464.3 302.7,465.9 		
			"/>
		<polygon class="st44" points="603.8,378 603.9,403.4 588.6,403.5 585.7,399.3 564.1,399.2 563.4,379.4 		"/>
		<path class="st44" d="M603.1,360.1l0.7,17.9l0.1,25.5l5.7-3.3c0,0,2.1-1.9,6.7-0.4c4.6,1.5,13.9,1.1,13.9,1.1h17v-3.5h-4.8v-4.1
			h18.7v-0.7h4.7v-3l-24,0.3v-2.7h15.5v-8.6h-11.6l-4.1,0.7l-4,7.9h-3.9L622,364.8c0,0-6.1-1.4-6.5-4.8L603.1,360.1z"/>
		<path class="st44" d="M562,338.7l1.4,40.7l40.4-1.4l-0.7-17.9l12.4-0.1c0,0-6.1-5.3-4.7-23L562,338.7z"/>
		<path class="st44" d="M521.8,319.9l2,80.2l40.3-0.9l-2.1-60.5l-17,0.6l-2.6-8.5l-5.3-5.1c0,0-1.4-1.8-3.7,0
			c-2.3,1.7-3.6-0.6-3.6-0.6l-2.2-5.6c0,0-0.6-0.6-1.8-0.2C524.6,319.8,521.8,319.9,521.8,319.9z"/>
		<polygon class="st44" points="441.3,341.7 442,381.9 503.1,380.7 503.2,400.5 523.8,400.1 521.8,319.9 501.7,320 501.9,339.9 		
			"/>
		<polygon class="st44" points="299.6,345.2 441.3,341.7 442,381.9 300.4,385.6 		"/>
		<polygon class="st44" points="277.9,285.2 235.4,286.1 236.9,346.9 280.1,345.6 		"/>
		<polyline class="st44" points="400.9,342.7 280.1,345.6 277.9,285.2 318.2,284.3 398.9,282.4 		"/>
		<polygon class="st44" points="399.3,282.4 500,280.4 501.7,320 501.9,339.9 401.1,342.9 		"/>
		<path class="st44" d="M598.5,276.7l-0.5,12.5l2.2,5c0,0,1.1,1.2-0.1,2.8c-1.2,1.6-0.9,4.4-0.9,4.4s4.5,18.7,7.2,22.1
			c2.8,3.4,7.7,7.4,7.7,7.4s1.9,1.9,0.6,3.3c-1.4,1.4-3.9,2.7-3.9,2.7l-65.8,2.4l-2.6-8.5l-5.3-5.1c0,0-1.8-1.7-3.7,0
			c-1.9,1.7-3.4-0.3-3.4-0.3l-2.4-5.9c0,0-0.7-0.6-1.8-0.2c-1.1,0.4-3.2,0.6-3.2,0.6l-20.9,0.1l-1.7-39.7l86.1-2.3l3.9-0.9
			C590,277.2,598.1,277.1,598.5,276.7z"/>
		<path class="st44" d="M498.9,240.2l1.1,40.1l86.2-2.3l3.9-0.9h7.1c0,0,0.9,0,1.3-0.4c0.2-0.3,0.3-0.7-0.2-1.4
			c-1.3-1.9-3.5-6.6-3.5-6.6l-0.2-3.3l-2.1-4l-0.7-7.7c0,0,1.4-2,0.6-3.2c-0.8-1.2-11.7-19.8-11.7-19.8l-16,7.3L498.9,240.2z"/>
		<path class="st44" d="M497.8,199.9l1.1,40.4l65.6-2.1l16-7.3c0,0-5.5-10.1-5.9-28.6c0,0-1-2.2-1-3.8L497.8,199.9z"/>
		<polygon class="st44" points="396.9,202.1 497.8,199.9 500,280.4 399.3,282.4 		"/>
		<polygon class="st44" points="315.9,203.8 396.9,202.1 399.3,282.4 318.2,284.3 		"/>
		<path class="st44" d="M130,208.3c0,0,40.5-1,42-0.7l8.4,0l2.3,9.5v10.6l50.3-2.3v-2.3l27.1-17.8l14.8-0.6l40.9-0.9l2.3,80.5
			l-82.8,1.9l0-4.1l5.4-7.8c0,0,2.2-3.2-0.1-4.6s-6.2-1.6-6.2-1.6v-1.5l-87.8,2.5c0,0-4.6-2.7-5.8-9.6l-5.2-19.8
			c0,0-1.2-2.9-0.8-3.9c0.4-1,1.8-4.6,1.8-4.6s0.2-0.9,1.3-0.9c1.2,0,13.7-0.8,13.7-0.8v-10.8l-23.3,0.5c0,0-2.1-3.7-1.5-5
			C127.5,212.6,128.9,208.7,130,208.3z"/>
		<path class="st44" d="M495.6,139.5l58.9-1.7c0.3,0,0.5,0.2,0.6,0.5l0.7,8.8c0,0,0,0.1,0,0.1c0.2,0.7,2.5,7.8,8.3,7.8l0.6,0
			l0.1,12.5c0,0,0,0.1,0,0.1c0.3,1.3,6,20.7,28.9,20.9c0.2,0,0.4,0.1,0.5,0.3l2,4.2c0,0.1,0.1,0.1,0.1,0.1c0.3,0.3,1.5,1.7-0.1,2.8
			c-1.7,1.2-8.4,5.6-10.8,8.3c-0.1,0.1-0.2,0.1-0.3,0.2c-0.8,0.1-4,0.6-6,0c-2.3-0.7-2.5-2.3-2.5-2.3s-0.4-2.4,1.7-0.9
			c1.8,1.3,4.2,0.9,4.7,0.8c0.1,0,0.1,0,0.2-0.1l4.3-3.1c0,0,0.5-3.1-2.2-3.5c-2.7-0.3-6.7,0.4-6.7,0.4s-2.9,1-5,2.5l-75.8,1.5
			L495.6,139.5z"/>
		<polygon class="st44" points="394.9,141.6 495.6,139.5 495.5,146.4 496.2,147.3 497.8,199.9 396.9,202.1 		"/>
		<path class="st44" d="M273.1,142.4l72.7-1.2l2.2,2.8c0,0,2.4-2.3,3.7-2.3c0,0,1.4,0.3,1.9,0.8l41.4-0.8l2,60.4l-121.9,2.7v-8.4
			h0.9v-11.1l-0.7-2.7h-2.6l-0.1-1.5v-28.3h0.7V142.4z"/>
		<path class="st44" d="M273.1,142.4v0.3v9.9h-0.7V181l-28.9,0.4l-3,1.9h-7.3v-17.8h-1.9v0.6l-18.4,0.5l-0.1,10.3h-3.7l-0.1-7.1
			c0,0-1-0.3-1.1-0.6v-2.3l-15.2,0.5v3h-10.1v-2.4h-3.1c0,0-0.8,0.2-0.8-0.8s0-3.4,0-3.4h-6.3v1.9h-9.9v2.4h6.9v6.7h3.1v3.3h-6.2
			v0.7h-3.9v-6l-10.2,0.8v14.8l19.6-0.7l0.2,19.7l-12.5,0l-29.6,0.6c0,0,4.6-10.7,5.1-18.2l0.1-5.1c0,0-0.9-1.3-0.7-2.4s2-5.8,2-5.8
			s0.9-4.2-4.6-5c0,0-1.9,2-5,2.9c-3.1,0.9-6.7-5.4-6.7-5.4s-1-3.5,2-7.1c3-3.6,10.8-13.8,10.8-13.8l75.8-1.7l7.9-0.2
			c0,0,2-0.8,3.6-3.3L273.1,142.4z"/>
		<path class="st44" d="M265.8,91.8l1.5,2.3l6,8.9l-0.2,39.4l-52.7,0.8c0,0-1.6,3-3.9,3.4c-2.3,0.4-20.6,0.5-20.6,0.5l0,1.4l-14,0.3
			v-1.3h-8.5l-40.3,1l0-5.2c0,0-2.1-2.8-2.2-4.4c-0.1-1.6,2.6-8.6,2.6-8.6v-3.5c0,0,14.4,1.1,21.3,2.8c6.9,1.7,44.8,8.9,44.8,8.9
			l3.9-32.6l0.1-41.5l3.2,0v-1.5h-1.2V52.7h-2.3v-7.9l30.6-1.6v50.2h2.4v-2.5h9l0.5,1.6h2.9l0.1,3.3c0,0,4.2-0.5,4.4-1v-3.1
			L265.8,91.8z"/>
		<path class="st44" d="M394.9,141.6l-0.1-19.8l4.3,0l-0.1-4.9l-4.5,2.7l-0.3-17.9l-49.3,0.6l-19.5-12.2l0.1-3.3
			c0,0,0.2-0.4,0.9-0.8l0-14.1l-12.1,0l0,11.2c0,0-7.2-4.2-11.6-21l-7.6-0.1l0-9.5l-4.6-0.1l-0.4,9.5l-19.3-0.1l13.4,20.5
			l-16.8,11.7l6,8.9l-0.2,39.4l72.7-1.2l2.2,2.8c0,0,2.9-2.5,3.7-2.3c0.7,0.1,1.9,0.8,1.9,0.8L394.9,141.6z"/>
		<polygon class="st44" points="494.6,99.4 495.6,139.5 394.9,141.6 394.7,121.8 399,121.8 398.9,116.9 394.4,119.6 394.1,101.7 		
			"/>
		<path class="st44" d="M547.2,98.2l-52.7,1.4l1,39.9l59.1-1.6c0,0,0.9,0,1.4-0.9c0.5-0.9,1.3-3.2,1.3-3.2s-0.3-0.8-1.3-0.4
			c-1,0.3-7.9-7.6-7.9-7.6l-0.1-13.2L547.2,98.2z"/>
		<path class="st44" d="M434.7,41.2l59.3-1.5l0.1,29.3l-2.5,0.1c0,0-0.8,0.2-0.5,1c0.2,0.6,3.2,8,3.2,8l0.3,21.3l-60.3,1.6
			L434.7,41.2z"/>
		<path class="st44" d="M500.6,29.6h23.7c0,0,2,4.4,3.1,5.3c1.1,0.9,0.5,6.1,0.5,6.1s3.8,21.1,17.6,33.6c0,0-0.2,0.6-3.9,1.1l0,3.4
			c0,0,1.8,1.9,0.2,3.2c0,0,2.9,11,5.6,15.7l-52.7,1.4l-0.3-21.3l-3.2-8.1c0,0-0.2-0.9,0.9-0.9c1.2-0.1,2.1-0.1,2.1-0.1L494,39.8
			l12.3,0.1l0.8-0.3L500,30C500,30,499.8,29.7,500.6,29.6z"/>
		<polygon class="st43" points="628.7,426.3 628.5,432.7 593,432.6 593,426.3 		"/>
	</g>
	<g id="Zipcodes">
		<polygon class="st55" points="628.5,418 628.4,426.1 592.9,425.9 592.9,418 		"/>
		<path class="st55" d="M699.3,1042l0.1,30.6l123.6-1l0-80l-122.1,1.1l-33.1-1.5c0,0-2.4-0.2-1.5,1.2c1,1.4,23.7,36.4,23.7,36.4
			L699.3,1042z"/>
		<path class="st55" d="M627.1,1033.6l4.3-0.1l-4.9,20.7c0,0-0.5,1.4-0.3,1.8c0.2,0.4,5.4,1.4,5.4,1.4v16.3l67.7-1.1l-0.1-30.6
			l-9.3-13.1l-21.3,3.8l-37.4,0.9"/>
		<path class="st55" d="M694.5,777.5l6.4,215.1l65.8-1.4l56.3,0.3l-0.3-97.8l-6.5-3.7c0,0-1.5-0.9-0.4-2c1.2-1.1,2.3-2.6,2.3-2.6
			s0.5-0.5-0.3-1.7c-0.8-1.2-3.9-6.4-3.9-6.4s-0.7-1.5,0.3-2.3c1.1-0.9,5.7-4.4,5.7-4.4l2.7-0.1l-0.1-1.4l-2.7-2.7V862l2.7-3.7
			l-0.7-26.3l-9.4-2.1l-3.7-44.1l-20.2-10.3l-6.1-0.1L694.5,777.5z"/>
		<path class="st55" d="M576.8,861.4l4,140.4l0.6,35.1c0,0,11.2,2.9,17.7,0.8s12.5-9.2,12.5-9.2s8.1-9.2,15.6,0v5.2l41.6-1l21.3-3.8
			l-23.7-36.4c0,0-1.1-1.2,1.5-1.2c2.6,0,33.1,1.5,33.1,1.5l-4-134.4L576.8,861.4z"/>
		<polygon class="st55" points="500.6,984 496.8,883.2 476.6,883.8 476.6,901.6 456.6,901.9 456.6,904.2 436.4,904.9 436.4,890.2 
			433.2,890.2 433.2,884.8 415.7,884.9 417.7,945.2 377.6,947.3 378.6,967.3 435.9,965.8 436.2,976.2 449.4,976 449.4,965.2 
			458.9,965.1 459,960 461.2,960 461.3,955.2 468.2,955.3 469,964.9 489.2,964.4 489.7,980.8 488.9,984.3 		"/>
		<path class="st55" d="M494.6,823.2l6,160.8l25.3-0.3l0,3.6c0,0,3.2,0.6,3.4-3.8l10.2-0.1v20.1l41.3-1.8l-4-140.4l-41,0.8
			c0,0-3.3-21.8-20.6-39.3L494.6,823.2z"/>
		<path class="st55" d="M692.6,697l1.9,80.6l87.9-2.1c0,0-2.1-4-2.1-5.3c0-1.3,3-4.5,3-4.5l5-4.2l-7.3-8.6l-4.8,3.8
			c0,0-2.8,1.8-6.9-0.1c-4-1.9-17.7-12.6-17.7-12.6l-5.5-5.8c0,0-0.5-0.8,2.5-2.3l-0.1-5c0,0-4.4,0-7.2-5.1l-0.9-4.3l-16.9-19.5
			c0,0-0.3-0.3-0.4-1.1c-0.1-0.8,0-3.7,0-3.7L713,697c0,0-6,3.1-7.2,2.6c-1.2-0.5-8.2-2.4-8.2-2.4L692.6,697z"/>
		<polygon class="st55" points="613.5,739.5 614.1,760 617.1,860.7 696.8,858.2 693.5,737 		"/>
		<path class="st55" d="M493.4,763l1.2,60.2l20.5-0.3c0,0,15.9,20,20.6,39.3l81.4-1.6l-3-100.7c0,0-59.3,1.1-60.3,1.7L493.4,763z"/>
		<path class="st55" d="M372.9,766l1.7,60.3l120.1-3l-1.2-60.2l-7.7,1.2c0,0-2,0.1-3.1-0.6l-63,0.1l-7.9,1.3L372.9,766z"/>
		<path class="st55" d="M611.4,659.9l2.1,79.6l80-2.5l-0.9-40.1l5,0.2c0,0,6.8,1.7,8.2,2.4c1.4,0.7,7.2-2.6,7.2-2.6l10.2-0.1
			c0,0,3.1-1.3-0.2-2.7c-3.4-1.4-9.1-6.3-9.1-6.3s-3.6-7.8-2.8-11.7c0,0,1.5-1.1,0.6-2.1c-0.9-1-5-8.8-5-8.8s0.9-7.1,3.4-8.4
			l-22.8,0.3c0,0-2.4,1.5-7.1,0.1l-30.8,1.1c0,0-5.6,8.6-15.8,0.8L611.4,659.9z"/>
		<path class="st55" d="M610.4,619l1,40.9l22.2-0.8c0,0,8.9,8.6,15.8-0.8l30.8-1c0,0,4.5,1.7,7.1-0.1l26.6-0.4
			c0.4,0,0.7-0.2,0.9-0.4c0.7-0.9,1.9-2.9-0.7-4.1h-4.4l-3.9-4.6l-1.5-4.7l0-10c0,0-14-11.9-13.8-20.7l-8.9,4.9L610.4,619z"/>
		<polygon class="st55" points="551.5,661.2 553.8,761.7 578.8,760.7 614.1,760 611.4,659.9 		"/>
		<polygon class="st55" points="490.3,662.4 493.4,763 553.8,761.7 551.5,661.2 		"/>
		<path class="st55" d="M371.4,665.2l0,14.6l-1.6,3.9l0.9,32.1l2.1,50.1l38.8-1l7.9-1.3l63-0.1c0,0,1,0.9,3.1,0.6
			c2.2-0.2,7.7-1.2,7.7-1.2l-3.1-100.6L371.4,665.2z"/>
		<path class="st55" d="M608.9,558.8l1.5,60.2l71.4-1.9l8.9-4.9c0,0-5.8-3.7-6.4-6.6c-0.6-2.9-0.7-3.1-0.7-3.1l-3.3-4.3v-4.5
			c0,0-10.7-8-11-14.5c-0.4-6.5-0.4-7.4-0.4-7.4l-10.9-14L608.9,558.8z"/>
		<polygon class="st55" points="487.9,561.8 490.3,662.4 611.4,659.9 608.9,558.8 567.9,559.7 		"/>
		<polygon class="st55" points="365.3,585.3 377.4,585.2 377.5,590 367.5,595.1 369.3,661.1 371.4,665.2 371.4,679.8 369.8,683.8 
			370.7,715.8 249.1,719.8 247.6,652.6 257.1,648.5 348.3,645.6 347.6,610.1 364.1,602.7 364.4,585.2 		"/>
		<path class="st55" d="M377,555l0.5,35l-10,5l1.8,66.1l2.1,4.1l118.9-2.8l-2.5-100.6l-75.5,2.5l-0.1,9.5l-3.6,1.4c0,0-0.6,0.2-1,0
			c0,0-1.1-2-1.1-2v-16.8l-1-2.3L377,555z"/>
		<path class="st55" d="M566.5,479.3l1.4,80.4l89.9-1.8l0.1-2.9l-4.2-3.2c0,0-0.7-0.7-0.2-2.6c0.5-2-2.6-6.4-2.6-6.4l-0.1-6l-4-6.5
			l0-3.1c0,0,0-0.4-0.2-0.8c-0.2-0.4-2.3-4.1-2.3-4.1s-0.3-1.2,0.4-2.1c0.7-0.9,1.4-1.6,1.4-1.6s0.8-2.1-0.2-3.5
			c-1-1.4-2.2-2.4-2.2-2.4s-0.5-0.5-0.5-1.1c0-0.7,0-9.6,0-9.6l-3.1-5.2l0-4.4c0,0-6.3-2.8-2.4-9.4l0-5.9l-2.5,0.9l-41.7,0.6
			L566.5,479.3z"/>
		<path class="st55" d="M373.7,464.1l91-2l2.9,100.3l-55.3,2l-0.1,9.5l-3.6,1.4c0,0-0.7,0.2-1,0l-1.1-2v-16.8l-1-2.3L377,555
			L373.7,464.1z"/>
		<path class="st55" d="M628.4,432.7l0.5,1l0.3,19.6c0,0,0.7,2.1,3.9,2.1c3.2,0.1,3.4,0.3,3.4,0.3s0.5,0,0.4,0.9
			c-0.1,0.9,0,3.1,0,3.1h8.6c0,0,2.1-1.3,3.1-1.2c0.9,0.2,1.8,0.6,1.8,0.6s1.5,1.7,0.5,3c-1,1.3-3.8,3.4-3.8,3.4l-0.1,3.5l3.1,3.8
			v4.5l-1.9,1.9l1.2,18h-5.8c0,0-0.8-0.8-0.8-1.6c0-0.8,0-6.1,0-6.1s1-2-0.1-3.7l-0.4-4.4c0,0-1.2-1.7-1-5l1.6-4.9l-0.1-4.9
			l-1.9-4.4l-4.2-0.1l-1.6,5.7c0,0-0.6,1.9-0.1,3.3c0.6,1.4,2.5,5.4,2.5,5.4l-2.5,0.9l-41.7,0.6l-0.6-45.9L628.4,432.7z"/>
		<polygon class="st55" points="628.6,418 628.4,432.7 592.9,432.5 592.9,418 		"/>
		<path class="st55" d="M592.9,403.3l10.9-0.1l5.7-3.3c0,0,2-1.9,6.7-0.4c4.7,1.5,13.9,1.1,13.9,1.1l11.8,0l0,11.1l-5.6,0
			c0,0,0.5,3.7-3.2,5.1l-4.7,1.1l-35.7,0L592.9,403.3z"/>
		<polygon class="st55" points="580.1,399 585.6,399 588.5,403.3 592.9,403.3 592.9,432.5 580.7,432.8 		"/>
		<polygon class="st55" points="564,399 580.1,399 580.7,432.8 564.7,433.2 		"/>
		<polygon class="st55" points="523.7,399.9 525.6,460.7 566.5,459.7 566.5,479.3 593.5,478.4 592.9,432.5 564.7,433.2 564,399 		
			"/>
		<polygon class="st55" points="441.9,381.7 503,380.5 503.1,400.3 523.7,399.9 525.6,460.7 444.7,462.5 		"/>
		<polygon class="st55" points="370.4,383.5 371.6,404 372.9,404.1 373.6,424.1 372.5,424.1 373.7,464.1 444.7,462.5 441.9,381.7 		
			"/>
		<polygon class="st55" points="300.3,385.4 370.4,383.5 371.6,404 372.9,404.1 373.6,424.1 372.5,424.1 373.7,464.1 302.6,465.7 		
			"/>
		<polygon class="st55" points="603.7,377.7 603.7,403.2 588.5,403.3 585.6,399 564,399 563.3,379.2 		"/>
		<path class="st55" d="M603,359.9l0.7,17.9l0.1,25.5l5.7-3.3c0,0,2.1-1.9,6.7-0.4c4.6,1.5,13.9,1.1,13.9,1.1h17v-3.5h-4.8V393H661
			v-0.7h4.7v-3l-24,0.3v-2.7h15.5v-8.6h-11.6l-4.1,0.7l-4,7.9h-3.9l-11.6-22.2c0,0-6.1-1.4-6.5-4.8L603,359.9z"/>
		<path class="st55" d="M561.9,338.5l1.4,40.7l40.4-1.4l-0.7-17.9l12.4-0.1c0,0-6.1-5.3-4.7-23L561.9,338.5z"/>
		<path class="st55" d="M521.7,319.7l2,80.2L564,399l-2.1-60.5l-17,0.6l-2.6-8.5l-5.3-5.1c0,0-1.4-1.8-3.7,0
			c-2.3,1.7-3.6-0.6-3.6-0.6l-2.2-5.6c0,0-0.6-0.6-1.8-0.2C524.5,319.6,521.7,319.7,521.7,319.7z"/>
		<polygon class="st55" points="441.2,341.5 441.9,381.7 503,380.5 503.1,400.3 523.7,399.9 521.7,319.7 501.6,319.8 501.8,339.7 		
			"/>
		<polygon class="st55" points="299.5,345 441.2,341.5 441.9,381.7 300.3,385.4 		"/>
		<polygon class="st55" points="277.8,285 235.3,285.9 236.8,346.7 280,345.4 		"/>
		<polyline class="st55" points="400.8,342.5 280,345.4 277.8,285 318.1,284.1 398.8,282.2 		"/>
		<polygon class="st55" points="399.2,282.2 499.9,280.2 501.6,319.8 501.8,339.7 401,342.7 		"/>
		<path class="st55" d="M598.4,276.4l-0.5,12.5l2.2,5c0,0,1.1,1.2-0.1,2.8c-1.2,1.6-0.9,4.4-0.9,4.4s4.5,18.7,7.2,22.1
			c2.8,3.4,7.7,7.4,7.7,7.4s1.9,1.9,0.6,3.3c-1.4,1.4-3.9,2.7-3.9,2.7l-65.8,2.4l-2.6-8.5l-5.3-5.1c0,0-1.8-1.7-3.7,0
			c-1.9,1.7-3.4-0.3-3.4-0.3l-2.4-5.9c0,0-0.7-0.6-1.8-0.2c-1.1,0.4-3.2,0.6-3.2,0.6l-20.9,0.1l-1.7-39.7l86.1-2.3l3.9-0.9
			C589.9,276.9,598,276.9,598.4,276.4z"/>
		<path class="st55" d="M498.8,240l1.1,40.1l86.2-2.3l3.9-0.9h7.1c0,0,0.9,0,1.3-0.4c0.2-0.3,0.3-0.7-0.2-1.4
			c-1.3-1.9-3.5-6.6-3.5-6.6l-0.2-3.3l-2.1-4l-0.7-7.7c0,0,1.4-2,0.6-3.2c-0.8-1.2-11.7-19.8-11.7-19.8l-16,7.3L498.8,240z"/>
		<path class="st55" d="M497.7,199.7l1.1,40.4l65.6-2.1l16-7.3c0,0-5.5-10.1-5.9-28.6c0,0-1-2.2-1-3.8L497.7,199.7z"/>
		<polygon class="st55" points="396.8,201.9 497.7,199.7 499.9,280.2 399.2,282.2 		"/>
		<polygon class="st55" points="315.7,203.6 396.8,201.9 399.2,282.2 318.1,284.1 		"/>
		<path class="st55" d="M129.9,208.1c0,0,40.5-1,42-0.7l8.4,0l2.3,9.5v10.6l50.3-2.3v-2.3l27.1-17.8l14.8-0.6l40.9-0.9l2.3,80.5
			l-82.8,1.9l0-4.1l5.4-7.8c0,0,2.2-3.2-0.1-4.6s-6.2-1.6-6.2-1.6v-1.5l-87.8,2.5c0,0-4.6-2.7-5.8-9.6l-5.2-19.8
			c0,0-1.2-2.9-0.8-3.9c0.4-1,1.8-4.6,1.8-4.6s0.2-0.9,1.3-0.9c1.2,0,13.7-0.8,13.7-0.8v-10.8l-23.3,0.5c0,0-2.1-3.7-1.5-5
			C127.4,212.4,128.8,208.5,129.9,208.1z"/>
		<path class="st55" d="M495.5,139.3l58.9-1.7c0.3,0,0.5,0.2,0.6,0.5l0.7,8.8c0,0,0,0.1,0,0.1c0.2,0.7,2.5,7.8,8.3,7.8l0.6,0
			l0.1,12.5c0,0,0,0.1,0,0.1c0.3,1.3,6,20.7,28.9,20.9c0.2,0,0.4,0.1,0.5,0.3l2,4.2c0,0.1,0.1,0.1,0.1,0.1c0.3,0.3,1.5,1.7-0.1,2.8
			c-1.7,1.2-8.4,5.6-10.8,8.3c-0.1,0.1-0.2,0.1-0.3,0.2c-0.8,0.1-4,0.6-6,0c-2.3-0.7-2.5-2.3-2.5-2.3s-0.4-2.4,1.7-0.9
			c1.8,1.3,4.2,0.9,4.7,0.8c0.1,0,0.1,0,0.2-0.1l4.3-3.1c0,0,0.5-3.1-2.2-3.5c-2.7-0.3-6.7,0.4-6.7,0.4s-2.9,1-5,2.5l-75.8,1.5
			L495.5,139.3z"/>
		<polygon class="st55" points="394.8,141.4 495.5,139.3 495.4,146.1 496.1,147.1 497.7,199.7 396.8,201.9 		"/>
		<path class="st55" d="M273,142.2l72.7-1.2l2.2,2.8c0,0,2.4-2.3,3.7-2.3c0,0,1.4,0.3,1.9,0.8l41.4-0.8l2,60.4l-121.9,2.7v-8.4h0.9
			V185l-0.7-2.7h-2.6l-0.1-1.5v-28.3h0.7V142.2z"/>
		<path class="st55" d="M273,142.2v0.3v9.9h-0.7v28.3l-28.9,0.4l-3,1.9h-7.3v-17.8h-1.9v0.6l-18.4,0.5l-0.1,10.3H209l-0.1-7.1
			c0,0-1-0.3-1.1-0.6v-2.3l-15.2,0.5v3h-10.1v-2.4h-3.1c0,0-0.8,0.2-0.8-0.8s0-3.4,0-3.4h-6.3v1.9h-9.9v2.4h6.9v6.7h3.1v3.3h-6.2
			v0.7h-3.9v-6l-10.2,0.8v14.8l19.6-0.7l0.2,19.7l-12.5,0l-29.6,0.6c0,0,4.6-10.7,5.1-18.2l0.1-5.1c0,0-0.9-1.3-0.7-2.4s2-5.8,2-5.8
			s0.9-4.2-4.6-5c0,0-1.9,2-5,2.9c-3.1,0.9-6.7-5.4-6.7-5.4s-1-3.5,2-7.1c3-3.6,10.8-13.8,10.8-13.8l75.8-1.7l7.9-0.2
			c0,0,2-0.8,3.6-3.3L273,142.2z"/>
		<path class="st55" d="M265.6,91.5l1.5,2.3l6,8.9l-0.2,39.4l-52.7,0.8c0,0-1.6,3-3.9,3.4c-2.3,0.4-20.6,0.5-20.6,0.5l0,1.4l-14,0.3
			v-1.3h-8.5l-40.3,1l0-5.2c0,0-2.1-2.8-2.2-4.4c-0.1-1.6,2.6-8.6,2.6-8.6v-3.5c0,0,14.4,1.1,21.3,2.8c6.9,1.7,44.8,8.9,44.8,8.9
			l3.9-32.6l0.1-41.5l3.2,0v-1.5h-1.2V52.5H203v-7.9l30.6-1.6v50.2h2.4v-2.5h9l0.5,1.6h2.9l0.1,3.3c0,0,4.2-0.5,4.4-1v-3.1
			L265.6,91.5z"/>
		<path class="st55" d="M394.8,141.4l-0.1-19.8l4.3,0l-0.1-4.9l-4.5,2.7l-0.3-17.9l-49.3,0.6l-19.5-12.2l0.1-3.3
			c0,0,0.2-0.4,0.9-0.8l0-14.1l-12.1,0l0,11.2c0,0-7.2-4.2-11.6-21l-7.6-0.1l0-9.5l-4.6-0.1l-0.4,9.5l-19.3-0.1L284,82.2l-16.8,11.7
			l6,8.9l-0.2,39.4l72.7-1.2l2.2,2.8c0,0,2.9-2.5,3.7-2.3c0.7,0.1,1.9,0.8,1.9,0.8L394.8,141.4z"/>
		<polygon class="st55" points="494.5,99.2 495.5,139.3 394.8,141.4 394.6,121.6 398.9,121.6 398.8,116.7 394.3,119.4 394,101.5 		
			"/>
		<path class="st55" d="M547.1,98l-52.7,1.4l1,39.9l59.1-1.6c0,0,0.9,0,1.4-0.9c0.5-0.9,1.3-3.2,1.3-3.2s-0.3-0.8-1.3-0.4
			c-1,0.3-7.9-7.6-7.9-7.6l-0.1-13.2L547.1,98z"/>
		<path class="st55" d="M434.6,41l59.3-1.5l0.1,29.3l-2.5,0.1c0,0-0.8,0.2-0.5,1c0.2,0.6,3.2,8,3.2,8l0.3,21.3l-60.3,1.6L434.6,41z"
			/>
		<path class="st55" d="M500.5,29.4h23.7c0,0,2,4.4,3.1,5.3c1.1,0.9,0.5,6.1,0.5,6.1s3.8,21.1,17.6,33.6c0,0-0.2,0.6-3.9,1.1l0,3.4
			c0,0,1.8,1.9,0.2,3.2c0,0,2.9,11,5.6,15.7l-52.7,1.4l-0.3-21.3l-3.2-8.1c0,0-0.2-0.9,0.9-0.9c1.2-0.1,2.1-0.1,2.1-0.1l-0.1-29.3
			l12.3,0.1l0.8-0.3l-7.1-9.5C499.9,29.8,499.7,29.5,500.5,29.4z"/>
		<polygon class="st56" points="628.6,426.1 628.4,432.5 592.9,432.4 592.9,426.1 		"/>
		<path class="st55" d="M627.1,1033.6l4.3-0.1l-4.9,20.7c0,0-0.5,1.4-0.3,1.8c0.2,0.4,5.4,1.4,5.4,1.4v16.3l67.7-1.1l-0.1-30.6
			l-9.3-13.1l-21.3,3.8l-37.4,0.9"/>
		<path class="st55" d="M699.3,1042l0.1,30.6l123.6-1l0-80l-122.1,1.1l-33.1-1.5c0,0-2.4-0.2-1.5,1.2c1,1.4,23.7,36.4,23.7,36.4
			L699.3,1042z"/>
		<path class="st55" d="M694.5,777.5l6.4,215.1l65.8-1.4l56.3,0.3l-0.3-97.8l-6.5-3.7c0,0-1.5-0.9-0.4-2c1.2-1.1,2.3-2.6,2.3-2.6
			s0.5-0.5-0.3-1.7c-0.8-1.2-3.9-6.4-3.9-6.4s-0.7-1.5,0.3-2.3c1.1-0.9,5.7-4.4,5.7-4.4l2.7-0.1l-0.1-1.4l-2.7-2.7V862l2.7-3.7
			l-0.7-26.3l-9.4-2.1l-3.7-44.1l-20.2-10.3l-6.1-0.1L694.5,777.5z"/>
		<path class="st55" d="M576.8,861.4l4,140.4l0.6,35.1c0,0,11.2,2.9,17.7,0.8s12.5-9.2,12.5-9.2s8.1-9.2,15.6,0v5.2l41.6-1l21.3-3.8
			l-23.7-36.4c0,0-1.1-1.2,1.5-1.2c2.6,0,33.1,1.5,33.1,1.5l-4-134.4L576.8,861.4z"/>
		<polygon class="st55" points="500.6,984 496.8,883.2 476.6,883.8 476.6,901.6 456.6,901.9 456.6,904.2 436.4,904.9 436.4,890.2 
			433.2,890.2 433.2,884.8 415.7,884.9 417.7,945.2 377.6,947.3 378.6,967.3 435.9,965.8 436.2,976.2 449.4,976 449.4,965.2 
			458.9,965.1 459,960 461.2,960 461.3,955.2 468.2,955.3 469,964.9 489.2,964.4 489.7,980.8 488.9,984.3 		"/>
		<path class="st55" d="M494.6,823.2l6,160.8l25.3-0.3l0,3.6c0,0,3.2,0.6,3.4-3.8l10.2-0.1v20.1l41.3-1.8l-4-140.4l-41,0.8
			c0,0-3.3-21.8-20.6-39.3L494.6,823.2z"/>
		<path class="st55" d="M692.6,697l1.9,80.6l87.9-2.1c0,0-2.1-4-2.1-5.3c0-1.3,3-4.5,3-4.5l5-4.2l-7.3-8.6l-4.8,3.8
			c0,0-2.8,1.8-6.9-0.1c-4-1.9-17.7-12.6-17.7-12.6l-5.5-5.8c0,0-0.5-0.8,2.5-2.3l-0.1-5c0,0-4.4,0-7.2-5.1l-0.9-4.3l-16.9-19.5
			c0,0-0.3-0.3-0.4-1.1c-0.1-0.8,0-3.7,0-3.7L713,697c0,0-6,3.1-7.2,2.6c-1.2-0.5-8.2-2.4-8.2-2.4L692.6,697z"/>
		<polygon class="st55" points="613.5,739.5 614.1,760 617.1,860.7 696.8,858.2 693.5,737 		"/>
		<path class="st55" d="M493.4,763l1.2,60.2l20.5-0.3c0,0,15.9,20,20.6,39.3l81.4-1.6l-3-100.7c0,0-59.3,1.1-60.3,1.7L493.4,763z"/>
		<path class="st55" d="M372.9,766l1.7,60.3l120.1-3l-1.2-60.2l-7.7,1.2c0,0-2,0.1-3.1-0.6l-63,0.1l-7.9,1.3L372.9,766z"/>
		<path class="st55" d="M611.4,659.9l2.1,79.6l80-2.5l-0.9-40.1l5,0.2c0,0,6.8,1.7,8.2,2.4c1.4,0.7,7.2-2.6,7.2-2.6l10.2-0.1
			c0,0,3.1-1.3-0.2-2.7c-3.4-1.4-9.1-6.3-9.1-6.3s-3.6-7.8-2.8-11.7c0,0,1.5-1.1,0.6-2.1c-0.9-1-5-8.8-5-8.8s0.9-7.1,3.4-8.4
			l-22.8,0.3c0,0-2.4,1.5-7.1,0.1l-30.8,1.1c0,0-5.6,8.6-15.8,0.8L611.4,659.9z"/>
		<path class="st55" d="M610.4,619l1,40.9l22.2-0.8c0,0,8.9,8.6,15.8-0.8l30.8-1c0,0,4.5,1.7,7.1-0.1l26.6-0.4
			c0.4,0,0.7-0.2,0.9-0.4c0.7-0.9,1.9-2.9-0.7-4.1h-4.4l-3.9-4.6l-1.5-4.7l0-10c0,0-14-11.9-13.8-20.7l-8.9,4.9L610.4,619z"/>
		<polygon class="st55" points="551.5,661.2 553.8,761.7 578.8,760.7 614.1,760 611.4,659.9 		"/>
		<polygon class="st55" points="490.3,662.4 493.4,763 553.8,761.7 551.5,661.2 		"/>
		<path class="st55" d="M371.4,665.2l0,14.6l-1.6,3.9l0.9,32.1l2.1,50.1l38.8-1l7.9-1.3l63-0.1c0,0,1,0.9,3.1,0.6
			c2.2-0.2,7.7-1.2,7.7-1.2l-3.1-100.6L371.4,665.2z"/>
		<path class="st55" d="M608.9,558.8l1.5,60.2l71.4-1.9l8.9-4.9c0,0-5.8-3.7-6.4-6.6c-0.6-2.9-0.7-3.1-0.7-3.1l-3.3-4.3v-4.5
			c0,0-10.7-8-11-14.5c-0.4-6.5-0.4-7.4-0.4-7.4l-10.9-14L608.9,558.8z"/>
		<polygon class="st55" points="487.9,561.8 490.3,662.4 611.4,659.9 608.9,558.8 567.9,559.7 		"/>
		<polygon class="st55" points="365.3,585.3 377.4,585.2 377.5,590 367.5,595.1 369.3,661.1 371.4,665.2 371.4,679.8 369.8,683.8 
			370.7,715.8 249.1,719.8 247.6,652.6 257.1,648.5 348.3,645.6 347.6,610.1 364.1,602.7 364.4,585.2 		"/>
		<path class="st55" d="M377,555l0.5,35l-10,5l1.8,66.1l2.1,4.1l118.9-2.8l-2.5-100.6l-75.5,2.5l-0.1,9.5l-3.6,1.4c0,0-0.6,0.2-1,0
			c0,0-1.1-2-1.1-2v-16.8l-1-2.3L377,555z"/>
		<path class="st55" d="M566.5,479.3l1.4,80.4l89.9-1.8l0.1-2.9l-4.2-3.2c0,0-0.7-0.7-0.2-2.6c0.5-2-2.6-6.4-2.6-6.4l-0.1-6l-4-6.5
			l0-3.1c0,0,0-0.4-0.2-0.8c-0.2-0.4-2.3-4.1-2.3-4.1s-0.3-1.2,0.4-2.1c0.7-0.9,1.4-1.6,1.4-1.6s0.8-2.1-0.2-3.5
			c-1-1.4-2.2-2.4-2.2-2.4s-0.5-0.5-0.5-1.1c0-0.7,0-9.6,0-9.6l-3.1-5.2l0-4.4c0,0-6.3-2.8-2.4-9.4l0-5.9l-2.5,0.9l-41.7,0.6
			L566.5,479.3z"/>
		<polygon class="st55" points="464.8,462.1 467.7,562.4 567.9,559.7 566.5,479.3 566.5,459.7 		"/>
		<path class="st55" d="M373.7,464.1l91-2l2.9,100.3l-55.3,2l-0.1,9.5l-3.6,1.4c0,0-0.7,0.2-1,0l-1.1-2v-16.8l-1-2.3L377,555
			L373.7,464.1z"/>
		<path class="st55" d="M628.4,432.7l0.5,1l0.3,19.6c0,0,0.7,2.1,3.9,2.1c3.2,0.1,3.4,0.3,3.4,0.3s0.5,0,0.4,0.9
			c-0.1,0.9,0,3.1,0,3.1h8.6c0,0,2.1-1.3,3.1-1.2c0.9,0.2,1.8,0.6,1.8,0.6s1.5,1.7,0.5,3c-1,1.3-3.8,3.4-3.8,3.4l-0.1,3.5l3.1,3.8
			v4.5l-1.9,1.9l1.2,18h-5.8c0,0-0.8-0.8-0.8-1.6c0-0.8,0-6.1,0-6.1s1-2-0.1-3.7l-0.4-4.4c0,0-1.2-1.7-1-5l1.6-4.9l-0.1-4.9
			l-1.9-4.4l-4.2-0.1l-1.6,5.7c0,0-0.6,1.9-0.1,3.3c0.6,1.4,2.5,5.4,2.5,5.4l-2.5,0.9l-41.7,0.6l-0.6-45.9L628.4,432.7z"/>
		<path class="st55" d="M592.9,403.3l10.9-0.1l5.7-3.3c0,0,2-1.9,6.7-0.4c4.7,1.5,13.9,1.1,13.9,1.1l11.8,0l0,11.1l-5.6,0
			c0,0,0.5,3.7-3.2,5.1l-4.7,1.1l-35.7,0L592.9,403.3z"/>
		<polygon class="st55" points="580.1,399 585.6,399 588.5,403.3 592.9,403.3 592.9,432.5 580.7,432.8 		"/>
		<polygon class="st55" points="564,399 580.1,399 580.7,432.8 564.7,433.2 		"/>
		<polygon class="st55" points="523.7,399.9 525.6,460.7 566.5,459.7 566.5,479.3 593.5,478.4 592.9,432.5 564.7,433.2 564,399 		
			"/>
		<polygon class="st55" points="441.9,381.7 503,380.5 503.1,400.3 523.7,399.9 525.6,460.7 444.7,462.5 		"/>
		<polygon class="st55" points="370.4,383.5 371.6,404 372.9,404.1 373.6,424.1 372.5,424.1 373.7,464.1 444.7,462.5 441.9,381.7 		
			"/>
		<polygon class="st55" points="300.3,385.4 370.4,383.5 371.6,404 372.9,404.1 373.6,424.1 372.5,424.1 373.7,464.1 302.6,465.7 		
			"/>
		<polygon class="st55" points="603.7,377.7 603.7,403.2 588.5,403.3 585.6,399 564,399 563.3,379.2 		"/>
		<path class="st55" d="M603,359.9l0.7,17.9l0.1,25.5l5.7-3.3c0,0,2.1-1.9,6.7-0.4c4.6,1.5,13.9,1.1,13.9,1.1h17v-3.5h-4.8V393H661
			v-0.7h4.7v-3l-24,0.3v-2.7h15.5v-8.6h-11.6l-4.1,0.7l-4,7.9h-3.9l-11.6-22.2c0,0-6.1-1.4-6.5-4.8L603,359.9z"/>
		<path class="st55" d="M561.9,338.5l1.4,40.7l40.4-1.4l-0.7-17.9l12.4-0.1c0,0-6.1-5.3-4.7-23L561.9,338.5z"/>
		<polygon class="st55" points="441.2,341.5 441.9,381.7 503,380.5 503.1,400.3 523.7,399.9 521.7,319.7 501.6,319.8 501.8,339.7 		
			"/>
		<path class="st55" d="M521.7,319.7l2,80.2L564,399l-2.1-60.5l-17,0.6l-2.6-8.5l-5.3-5.1c0,0-1.4-1.8-3.7,0
			c-2.3,1.7-3.6-0.6-3.6-0.6l-2.2-5.6c0,0-0.6-0.6-1.8-0.2C524.5,319.6,521.7,319.7,521.7,319.7"/>
		<polygon class="st55" points="299.5,345 441.2,341.5 441.9,381.7 300.3,385.4 		"/>
		<polygon class="st55" points="277.8,285 235.3,285.9 236.8,346.7 280,345.4 		"/>
		<polyline class="st55" points="400.8,342.5 280,345.4 277.8,285 318.1,284.1 398.8,282.2 		"/>
		<polygon class="st55" points="399.2,282.2 499.9,280.2 501.6,319.8 501.8,339.7 401,342.7 		"/>
		<path class="st55" d="M598.4,276.4l-0.5,12.5l2.2,5c0,0,1.1,1.2-0.1,2.8c-1.2,1.6-0.9,4.4-0.9,4.4s4.5,18.7,7.2,22.1
			c2.8,3.4,7.7,7.4,7.7,7.4s1.9,1.9,0.6,3.3c-1.4,1.4-3.9,2.7-3.9,2.7l-65.8,2.4l-2.6-8.5l-5.3-5.1c0,0-1.8-1.7-3.7,0
			c-1.9,1.7-3.4-0.3-3.4-0.3l-2.4-5.9c0,0-0.7-0.6-1.8-0.2c-1.1,0.4-3.2,0.6-3.2,0.6l-20.9,0.1l-1.7-39.7l86.1-2.3l3.9-0.9
			C589.9,276.9,598,276.9,598.4,276.4"/>
		<path class="st55" d="M498.8,240l1.1,40.1l86.2-2.3l3.9-0.9h7.1c0,0,0.9,0,1.3-0.4c0.2-0.3,0.3-0.7-0.2-1.4
			c-1.3-1.9-3.5-6.6-3.5-6.6l-0.2-3.3l-2.1-4l-0.7-7.7c0,0,1.4-2,0.6-3.2c-0.8-1.2-11.7-19.8-11.7-19.8l-16,7.3L498.8,240z"/>
		<path class="st55" d="M497.7,199.7l1.1,40.4l65.6-2.1l16-7.3c0,0-5.5-10.1-5.9-28.6c0,0-1-2.2-1-3.8L497.7,199.7z"/>
		<polygon class="st55" points="396.8,201.9 497.7,199.7 499.9,280.2 399.2,282.2 		"/>
		<polygon class="st55" points="315.7,203.6 396.8,201.9 399.2,282.2 318.1,284.1 		"/>
		<path class="st55" d="M129.9,208.1c0,0,40.5-1,42-0.7l8.4,0l2.3,9.5v10.6l50.3-2.3v-2.3l27.1-17.8l14.8-0.6l40.9-0.9l2.3,80.5
			l-82.8,1.9l0-4.1l5.4-7.8c0,0,2.2-3.2-0.1-4.6s-6.2-1.6-6.2-1.6v-1.5l-87.8,2.5c0,0-4.6-2.7-5.8-9.6l-5.2-19.8
			c0,0-1.2-2.9-0.8-3.9c0.4-1,1.8-4.6,1.8-4.6s0.2-0.9,1.3-0.9c1.2,0,13.7-0.8,13.7-0.8v-10.8l-23.3,0.5c0,0-2.1-3.7-1.5-5
			C127.4,212.4,128.8,208.5,129.9,208.1"/>
		<path class="st55" d="M495.5,139.3l58.9-1.7c0.3,0,0.5,0.2,0.6,0.5l0.7,8.8c0,0,0,0.1,0,0.1c0.2,0.7,2.5,7.8,8.3,7.8l0.6,0
			l0.1,12.5c0,0,0,0.1,0,0.1c0.3,1.3,6,20.7,28.9,20.9c0.2,0,0.4,0.1,0.5,0.3l2,4.2c0,0.1,0.1,0.1,0.1,0.1c0.3,0.3,1.5,1.7-0.1,2.8
			c-1.7,1.2-8.4,5.6-10.8,8.3c-0.1,0.1-0.2,0.1-0.3,0.2c-0.8,0.1-4,0.6-6,0c-2.3-0.7-2.5-2.3-2.5-2.3s-0.4-2.4,1.7-0.9
			c1.8,1.3,4.2,0.9,4.7,0.8c0.1,0,0.1,0,0.2-0.1l4.3-3.1c0,0,0.5-3.1-2.2-3.5c-2.7-0.3-6.7,0.4-6.7,0.4s-2.9,1-5,2.5l-75.8,1.5
			L495.5,139.3z"/>
		<polygon class="st55" points="394.8,141.4 495.5,139.3 495.4,146.1 496.1,147.1 497.7,199.7 396.8,201.9 		"/>
		<path class="st55" d="M273,142.2l72.7-1.2l2.2,2.8c0,0,2.4-2.3,3.7-2.3c0,0,1.4,0.3,1.9,0.8l41.4-0.8l2,60.4l-121.9,2.7v-8.4h0.9
			V185l-0.7-2.7h-2.6l-0.1-1.5v-28.3h0.7V142.2z"/>
		<path class="st55" d="M273,142.2v0.3v9.9h-0.7v28.3l-28.9,0.4l-3,1.9h-7.3v-17.8h-1.9v0.6l-18.4,0.5l-0.1,10.3H209l-0.1-7.1
			c0,0-1-0.3-1.1-0.6v-2.3l-15.2,0.5v3h-10.1v-2.4h-3.1c0,0-0.8,0.2-0.8-0.8s0-3.4,0-3.4h-6.3v1.9h-9.9v2.4h6.9v6.7h3.1v3.3h-6.2
			v0.7h-3.9v-6l-10.2,0.8v14.8l19.6-0.7l0.2,19.7l-12.5,0l-29.6,0.6c0,0,4.6-10.7,5.1-18.2l0.1-5.1c0,0-0.9-1.3-0.7-2.4s2-5.8,2-5.8
			s0.9-4.2-4.6-5c0,0-1.9,2-5,2.9c-3.1,0.9-6.7-5.4-6.7-5.4s-1-3.5,2-7.1c3-3.6,10.8-13.8,10.8-13.8l75.8-1.7l7.9-0.2
			c0,0,2-0.8,3.6-3.3L273,142.2z"/>
		<path class="st55" d="M265.6,91.5l1.5,2.3l6,8.9l-0.2,39.4l-52.7,0.8c0,0-1.6,3-3.9,3.4c-2.3,0.4-20.6,0.5-20.6,0.5l0,1.4l-14,0.3
			v-1.3h-8.5l-40.3,1l0-5.2c0,0-2.1-2.8-2.2-4.4c-0.1-1.6,2.6-8.6,2.6-8.6v-3.5c0,0,14.4,1.1,21.3,2.8c6.9,1.7,44.8,8.9,44.8,8.9
			l3.9-32.6l0.1-41.5l3.2,0v-1.5h-1.2V52.5H203v-7.9l30.6-1.6v50.2h2.4v-2.5h9l0.5,1.6h2.9l0.1,3.3c0,0,4.2-0.5,4.4-1v-3.1
			L265.6,91.5z"/>
		<path class="st55" d="M394.8,141.4l-0.1-19.8l4.3,0l-0.1-4.9l-4.5,2.7l-0.3-17.9l-49.3,0.6l-19.5-12.2l0.1-3.3
			c0,0,0.2-0.4,0.9-0.8l0-14.1l-12.1,0l0,11.2c0,0-7.2-4.2-11.6-21l-7.6-0.1l0-9.5l-4.6-0.1l-0.4,9.5l-19.3-0.1L284,82.2l-16.8,11.7
			l6,8.9l-0.2,39.4l72.7-1.2l2.2,2.8c0,0,2.9-2.5,3.7-2.3c0.7,0.1,1.9,0.8,1.9,0.8L394.8,141.4z"/>
		<polygon class="st55" points="494.5,99.2 495.5,139.3 394.8,141.4 394.6,121.6 398.9,121.6 398.8,116.7 394.3,119.4 394,101.5 		
			"/>
		<path class="st55" d="M547.1,98l-52.7,1.4l1,39.9l59.1-1.6c0,0,0.9,0,1.4-0.9c0.5-0.9,1.3-3.2,1.3-3.2s-0.3-0.8-1.3-0.4
			c-1,0.3-7.9-7.6-7.9-7.6l-0.1-13.2L547.1,98z"/>
		<path class="st55" d="M434.6,41l59.3-1.5l0.1,29.3l-2.5,0.1c0,0-0.8,0.2-0.5,1c0.2,0.6,3.2,8,3.2,8l0.3,21.3l-60.3,1.6L434.6,41z"
			/>
		<path class="st55" d="M500.5,29.4h23.7c0,0,2,4.4,3.1,5.3c1.1,0.9,0.5,6.1,0.5,6.1s3.8,21.1,17.6,33.6c0,0-0.2,0.6-3.9,1.1l0,3.4
			c0,0,1.8,1.9,0.2,3.2c0,0,2.9,11,5.6,15.7l-52.7,1.4l-0.3-21.3l-3.2-8.1c0,0-0.2-0.9,0.9-0.9c1.2-0.1,2.1-0.1,2.1-0.1l-0.1-29.3
			l12.3,0.1l0.8-0.3l-7.1-9.5C499.9,29.8,499.7,29.5,500.5,29.4"/>
		<polygon class="st57" points="628,418.5 627.9,425.7 593.4,425.6 593.4,418.5 		"/>
		<path class="st164" d="M627.2,1033.8l4.3-0.1l-4.9,20.7c0,0-0.5,1.4-0.3,1.8c0.2,0.4,5.4,1.4,5.4,1.4v16.3l67.7-1.1l-0.1-30.6
			l-9.3-13.1l-21.3,3.8l-37.4,0.9"/>
		<path class="st165" d="M699.4,1042.2l0.1,30.6l123.6-1l0-80L701,992.9l-33.1-1.5c0,0-2.4-0.2-1.5,1.2c1,1.4,23.7,36.4,23.7,36.4
			L699.4,1042.2z"/>
		<path class="st166" d="M694.6,777.7l6.4,215.1l65.8-1.4l56.3,0.3l-0.3-97.8l-6.5-3.7c0,0-1.5-0.9-0.4-2c1.2-1.1,2.3-2.6,2.3-2.6
			s0.5-0.5-0.3-1.7c-0.8-1.2-3.9-6.4-3.9-6.4s-0.7-1.5,0.3-2.3c1.1-0.9,5.7-4.4,5.7-4.4l2.7-0.1l-0.1-1.4l-2.7-2.7v-4.4l2.7-3.7
			l-0.7-26.3l-9.4-2.1l-3.7-44.1l-20.2-10.3l-6.1-0.1L694.6,777.7z"/>
		<path class="st166" d="M576.9,861.6l4,140.4l0.6,35.1c0,0,11.2,2.9,17.7,0.8s12.5-9.2,12.5-9.2s8.1-9.2,15.6,0v5.2l41.6-1
			l21.3-3.8l-23.7-36.4c0,0-1.1-1.2,1.5-1.2c2.6,0,33.1,1.5,33.1,1.5l-4-134.4L576.9,861.6z"/>
		<polygon class="st167" points="500.7,984.2 496.9,883.4 476.7,884 476.7,901.8 456.7,902.1 456.7,904.4 436.5,905.1 436.5,890.4 
			433.3,890.4 433.3,885 415.8,885.1 417.8,945.5 377.7,947.5 378.7,967.5 436,966 436.3,976.4 449.5,976.2 449.5,965.5 459,965.3 
			459.1,960.2 461.3,960.2 461.4,955.4 468.3,955.5 469.1,965.1 489.3,964.6 489.8,981 489,984.5 		"/>
		<path class="st168" d="M494.7,823.4l6,160.8l25.3-0.3l0,3.6c0,0,3.2,0.6,3.4-3.8l10.2-0.1v20.1l41.3-1.8l-4-140.4l-41,0.8
			c0,0-3.3-21.8-20.6-39.3L494.7,823.4z"/>
		<path class="st164" d="M692.7,697.2l1.9,80.6l87.9-2.1c0,0-2.1-4-2.1-5.3c0-1.3,3-4.5,3-4.5l5-4.2l-7.3-8.6l-4.8,3.8
			c0,0-2.8,1.8-6.9-0.1c-4-1.9-17.7-12.6-17.7-12.6l-5.5-5.8c0,0-0.5-0.8,2.5-2.3l-0.1-5c0,0-4.4,0-7.2-5.1l-0.9-4.3L723.6,702
			c0,0-0.3-0.3-0.4-1.1c-0.1-0.8,0-3.7,0-3.7l-10.2,0.1c0,0-6,3.1-7.2,2.6c-1.2-0.5-8.2-2.4-8.2-2.4L692.7,697.2z"/>
		<polygon class="st166" points="613.6,739.8 614.2,760.2 617.2,860.9 696.9,858.4 693.6,737.2 		"/>
		<path class="st166" d="M493.5,763.2l1.2,60.2l20.5-0.3c0,0,15.9,20,20.6,39.3l81.4-1.6l-3-100.7c0,0-59.3,1.1-60.3,1.7
			L493.5,763.2z"/>
		<path class="st169" d="M373,766.2l1.7,60.3l120.1-3l-1.2-60.2l-7.7,1.2c0,0-2,0.1-3.1-0.6l-63,0.1l-7.9,1.3L373,766.2z"/>
		<path class="st164" d="M611.5,660.1l2.1,79.6l80-2.5l-0.9-40.1l5,0.2c0,0,6.8,1.7,8.2,2.4c1.4,0.7,7.2-2.6,7.2-2.6l10.2-0.1
			c0,0,3.1-1.3-0.2-2.7c-3.4-1.4-9.1-6.3-9.1-6.3s-3.6-7.8-2.8-11.7c0,0,1.5-1.1,0.6-2.1c-0.9-1-5-8.8-5-8.8s0.9-7.1,3.4-8.4
			l-22.8,0.3c0,0-2.4,1.5-7.1,0.1l-30.8,1c0,0-5.6,8.6-15.8,0.8L611.5,660.1z"/>
		<path class="st165" d="M610.5,619.2l1,40.9l22.2-0.8c0,0,8.9,8.6,15.8-0.8l30.8-1.1c0,0,4.5,1.7,7.1-0.1l26.6-0.4
			c0.4,0,0.7-0.2,0.9-0.4c0.7-0.9,1.9-2.9-0.7-4.1h-4.4l-3.9-4.6l-1.5-4.7l0-10c0,0-14-11.9-13.8-20.7l-8.9,4.9L610.5,619.2z"/>
		<polygon class="st164" points="551.6,661.4 553.9,761.9 578.9,760.9 614.2,760.2 611.5,660.1 		"/>
		<polygon class="st164" points="490.4,662.6 493.5,763.2 553.9,761.9 551.6,661.4 		"/>
		<path class="st165" d="M371.5,665.4l0,14.6l-1.6,3.9l0.9,32.1l2.1,50.1l38.8-1l7.9-1.3l63-0.1c0,0,1,0.9,3.1,0.6
			c2.2-0.2,7.7-1.2,7.7-1.2l-3.1-100.6L371.5,665.4z"/>
		<path class="st164" d="M609,559l1.5,60.2l71.4-1.9l8.9-4.9c0,0-5.8-3.7-6.4-6.6c-0.6-2.9-0.7-3.1-0.7-3.1l-3.3-4.3V594
			c0,0-10.7-8-11-14.5c-0.4-6.5-0.4-7.4-0.4-7.4L658,558L609,559z"/>
		<polygon class="st166" points="488,562 490.4,662.6 611.5,660.1 609,559 568,559.9 		"/>
		<polygon class="st169" points="365.4,585.5 377.5,585.4 377.6,590.3 367.6,595.3 369.4,661.4 371.5,665.4 371.6,680.1 369.9,684 
			370.8,716.1 249.2,720 247.7,652.8 257.3,648.7 348.4,645.8 347.7,610.3 364.2,603 364.5,585.5 		"/>
		<path class="st165" d="M377.1,555.2l0.5,35l-10,5l1.8,66.1l2.1,4.1l118.9-2.8L488,562l-75.5,2.5l-0.1,9.5l-3.6,1.4
			c0,0-0.6,0.2-1,0c0,0-1.1-2-1.1-2v-16.8l-1-2.3L377.1,555.2z"/>
		<path class="st165" d="M566.6,479.5l1.4,80.4L658,558l0.1-2.9l-4.2-3.2c0,0-0.7-0.7-0.2-2.6c0.5-2-2.6-6.4-2.6-6.4l-0.1-6l-4-6.5
			l0-3.1c0,0,0-0.4-0.2-0.8c-0.2-0.4-2.3-4.1-2.3-4.1s-0.3-1.2,0.4-2.1c0.7-0.9,1.4-1.6,1.4-1.6s0.8-2.1-0.2-3.5
			c-1-1.4-2.2-2.4-2.2-2.4s-0.5-0.5-0.5-1.1s0-9.6,0-9.6l-3.1-5.2l0-4.4c0,0-6.3-2.8-2.4-9.4l0-5.9l-2.5,0.9l-41.7,0.6L566.6,479.5z
			"/>
		<polygon class="st166" points="464.9,462.3 467.8,562.6 568,559.9 566.6,479.5 566.6,459.9 		"/>
		<path class="st164" d="M373.8,464.3l91-2l2.9,100.3l-55.3,2l-0.1,9.5l-3.6,1.4c0,0-0.7,0.2-1,0l-1.1-2v-16.8l-1-2.3l-28.5,0.8
			L373.8,464.3z"/>
		<path class="st167" d="M628.5,433l0.5,1l0.3,19.6c0,0,0.7,2.1,3.9,2.1c3.2,0.1,3.4,0.3,3.4,0.3s0.5,0,0.4,0.9
			c-0.1,0.9,0,3.1,0,3.1h8.6c0,0,2.1-1.3,3.1-1.2c0.9,0.2,1.8,0.6,1.8,0.6s1.5,1.7,0.5,3c-1,1.3-3.8,3.4-3.8,3.4l-0.1,3.5l3.1,3.8
			v4.5l-1.9,1.9l1.2,18h-5.8c0,0-0.8-0.8-0.8-1.6c0-0.8,0-6.1,0-6.1s1-2-0.1-3.7l-0.4-4.4c0,0-1.2-1.7-1-5l1.6-4.9l-0.1-4.9
			l-1.9-4.4l-4.2-0.1l-1.6,5.7c0,0-0.6,1.9-0.1,3.3c0.6,1.4,2.5,5.4,2.5,5.4l-2.5,0.9l-41.7,0.6l-0.6-45.9L628.5,433z"/>
		<path class="st56" d="M593,403.5l10.9-0.1l5.7-3.3c0,0,2-1.9,6.7-0.4c4.7,1.5,13.9,1.1,13.9,1.1l11.8,0l0,11.1l-5.6,0
			c0,0,0.5,3.7-3.2,5.1l-4.7,1.1l-35.7,0L593,403.5z"/>
		<polygon class="st56" points="580.2,399.2 585.7,399.3 588.6,403.5 593,403.5 593,432.7 580.9,433 		"/>
		<polygon class="st56" points="564.1,399.2 580.2,399.2 580.9,433 564.8,433.4 		"/>
		<polygon class="st170" points="523.8,400.1 525.7,460.9 566.6,459.9 566.6,479.5 593.6,478.6 593,432.7 564.8,433.4 564.1,399.2 
					"/>
		<polygon class="st166" points="442,381.9 503.1,380.7 503.2,400.5 523.8,400.1 525.7,460.9 444.8,462.7 		"/>
		<polygon class="st164" points="370.5,383.8 371.7,404.2 373,404.3 373.7,424.3 372.7,424.3 373.8,464.3 444.8,462.7 442,381.9 		
			"/>
		<polygon class="st164" points="300.4,385.6 370.5,383.8 371.7,404.2 373,404.3 373.7,424.3 372.7,424.3 373.8,464.3 302.7,465.9 
					"/>
		<polygon class="st171" points="603.8,378 603.9,403.4 588.6,403.5 585.7,399.3 564.1,399.2 563.4,379.4 		"/>
		<path class="st167" d="M603.1,360.1l0.7,17.9l0.1,25.5l5.7-3.3c0,0,2.1-1.9,6.7-0.4c4.6,1.5,13.9,1.1,13.9,1.1h17v-3.5h-4.8v-4.1
			h18.7v-0.7h4.7v-3l-24,0.3v-2.7h15.5v-8.6h-11.6l-4.1,0.7l-4,7.9h-3.9L622,364.8c0,0-6.1-1.4-6.5-4.8L603.1,360.1z"/>
		<path class="st172" d="M562,338.7l1.4,40.7l40.4-1.4l-0.7-17.9l12.4-0.1c0,0-6.1-5.3-4.7-23L562,338.7z"/>
		<polygon class="st172" points="441.3,341.7 442,381.9 503.1,380.7 503.2,400.5 523.8,400.1 521.8,319.9 501.7,320 501.9,339.9 		
			"/>
		<path class="st170" d="M521.8,319.9l2,80.2l40.3-0.9l-2.1-60.5l-17,0.6l-2.6-8.5l-5.3-5.1c0,0-1.4-1.8-3.7,0
			c-2.3,1.7-3.6-0.6-3.6-0.6l-2.2-5.6c0,0-0.6-0.6-1.8-0.2C524.6,319.8,521.8,319.9,521.8,319.9"/>
		<polygon class="st166" points="299.6,345.2 441.3,341.7 442,381.9 300.4,385.6 		"/>
		<polygon class="st170" points="277.9,285.2 235.4,286.1 236.9,346.9 280.1,345.6 		"/>
		<polyline class="st166" points="400.9,342.7 280.1,345.6 277.9,285.2 318.2,284.3 398.9,282.4 		"/>
		<polygon class="st169" points="399.3,282.4 500,280.4 501.7,320 501.9,339.9 401.1,342.9 		"/>
		<path class="st167" d="M598.5,276.7l-0.5,12.5l2.2,5c0,0,1.1,1.2-0.1,2.8c-1.2,1.6-0.9,4.4-0.9,4.4s4.5,18.7,7.2,22.1
			c2.8,3.4,7.7,7.4,7.7,7.4s1.9,1.9,0.6,3.3c-1.4,1.4-3.9,2.7-3.9,2.7l-65.8,2.4l-2.6-8.5l-5.3-5.1c0,0-1.8-1.7-3.7,0
			c-1.9,1.7-3.4-0.3-3.4-0.3l-2.4-5.9c0,0-0.7-0.6-1.8-0.2c-1.1,0.4-3.2,0.6-3.2,0.6l-20.9,0.1l-1.7-39.7l86.1-2.3l3.9-0.9
			C590,277.2,598.1,277.1,598.5,276.7"/>
		<path class="st170" d="M498.9,240.2l1.1,40.1l86.2-2.3l3.9-0.9h7.1c0,0,0.9,0,1.3-0.4c0.2-0.3,0.3-0.7-0.2-1.4
			c-1.3-1.9-3.5-6.6-3.5-6.6l-0.2-3.3l-2.1-4l-0.7-7.7c0,0,1.4-2,0.6-3.2c-0.8-1.2-11.7-19.8-11.7-19.8l-16,7.3L498.9,240.2z"/>
		<path class="st172" d="M497.8,199.9l1.1,40.4l65.6-2.1l16-7.3c0,0-5.5-10.1-5.9-28.6c0,0-1-2.2-1-3.8L497.8,199.9z"/>
		<polygon class="st169" points="396.9,202.1 497.8,199.9 500,280.4 399.3,282.4 		"/>
		<polygon class="st168" points="315.9,203.8 396.9,202.1 399.3,282.4 318.2,284.3 		"/>
		<path class="st168" d="M130,208.3c0,0,40.5-1,42-0.7l8.4,0l2.3,9.5v10.6l50.3-2.3v-2.3l27.1-17.8l14.8-0.6l40.9-0.9l2.3,80.5
			l-82.8,1.9l0-4.1l5.4-7.8c0,0,2.2-3.2-0.1-4.6s-6.2-1.6-6.2-1.6v-1.5l-87.8,2.5c0,0-4.6-2.7-5.8-9.6l-5.2-19.8
			c0,0-1.2-2.9-0.8-3.9c0.4-1,1.8-4.6,1.8-4.6s0.2-0.9,1.3-0.9c1.2,0,13.7-0.8,13.7-0.8v-10.8l-23.3,0.5c0,0-2.1-3.7-1.5-5
			C127.5,212.6,128.9,208.7,130,208.3"/>
		<path class="st165" d="M495.6,139.5l58.9-1.7c0.3,0,0.5,0.2,0.6,0.5l0.7,8.8c0,0,0,0.1,0,0.1c0.2,0.7,2.5,7.8,8.3,7.8l0.6,0
			l0.1,12.5c0,0,0,0.1,0,0.1c0.3,1.3,6,20.7,28.9,20.9c0.2,0,0.4,0.1,0.5,0.3l2,4.2c0,0.1,0.1,0.1,0.1,0.1c0.3,0.3,1.5,1.7-0.1,2.8
			c-1.7,1.2-8.4,5.6-10.8,8.3c-0.1,0.1-0.2,0.1-0.3,0.2c-0.8,0.1-4,0.6-6,0c-2.3-0.7-2.5-2.3-2.5-2.3s-0.4-2.4,1.7-0.9
			c1.8,1.3,4.2,0.9,4.7,0.8c0.1,0,0.1,0,0.2-0.1l4.3-3.1c0,0,0.5-3.1-2.2-3.5c-2.7-0.3-6.7,0.4-6.7,0.4s-2.9,1-5,2.5l-75.8,1.5
			L495.6,139.5z"/>
		<polygon class="st168" points="394.9,141.6 495.6,139.5 495.5,146.4 496.2,147.3 497.8,199.9 396.9,202.1 		"/>
		<path class="st167" d="M273.1,142.4l72.7-1.2l2.2,2.8c0,0,2.4-2.3,3.7-2.3c0,0,1.4,0.3,1.9,0.8l41.4-0.8l2,60.4l-121.9,2.7v-8.4
			h0.9v-11.1l-0.7-2.7h-2.6l-0.1-1.5v-28.3h0.7V142.4z"/>
		<path class="st168" d="M273.1,142.4v0.3v9.9h-0.7V181l-28.9,0.4l-3,1.9h-7.3v-17.8h-1.9v0.6l-18.4,0.5l-0.1,10.3h-3.7l-0.1-7.1
			c0,0-1-0.3-1.1-0.6v-2.3l-15.2,0.5v3h-10.1v-2.4h-3.1c0,0-0.8,0.2-0.8-0.8s0-3.4,0-3.4h-6.3v1.9h-9.9v2.4h6.9v6.7h3.1v3.3h-6.2
			v0.7h-3.9v-6l-10.2,0.8v14.8l19.6-0.7l0.2,19.7l-12.5,0l-29.6,0.6c0,0,4.6-10.7,5.1-18.2l0.1-5.1c0,0-0.9-1.3-0.7-2.4s2-5.8,2-5.8
			s0.9-4.2-4.6-5c0,0-1.9,2-5,2.9c-3.1,0.9-6.7-5.4-6.7-5.4s-1-3.5,2-7.1c3-3.6,10.8-13.8,10.8-13.8l75.8-1.7l7.9-0.2
			c0,0,2-0.8,3.6-3.3L273.1,142.4z"/>
		<path class="st172" d="M265.8,91.8l1.5,2.3l6,8.9l-0.2,39.4l-52.7,0.8c0,0-1.6,3-3.9,3.4c-2.3,0.4-20.6,0.5-20.6,0.5l0,1.4
			l-14,0.3v-1.3h-8.5l-40.3,1l0-5.2c0,0-2.1-2.8-2.2-4.4c-0.1-1.6,2.6-8.6,2.6-8.6v-3.5c0,0,14.4,1.1,21.3,2.8
			c6.9,1.7,44.8,8.9,44.8,8.9l3.9-32.6l0.1-41.5l3.2,0v-1.5h-1.2V52.7h-2.3v-7.9l30.6-1.6v50.2h2.4v-2.5h9l0.5,1.6h2.9l0.1,3.3
			c0,0,4.2-0.5,4.4-1v-3.1L265.8,91.8z"/>
		<path class="st172" d="M394.9,141.6l-0.1-19.8l4.3,0l-0.1-4.9l-4.5,2.7l-0.3-17.9l-49.3,0.6l-19.5-12.2l0.1-3.3
			c0,0,0.2-0.4,0.9-0.8l0-14.1l-12.1,0l0,11.2c0,0-7.2-4.2-11.6-21l-7.6-0.1l0-9.5l-4.6-0.1l-0.4,9.5l-19.3-0.1l13.4,20.5
			l-16.8,11.7l6,8.9l-0.2,39.4l72.7-1.2l2.2,2.8c0,0,2.9-2.5,3.7-2.3c0.7,0.1,1.9,0.8,1.9,0.8L394.9,141.6z"/>
		<polygon class="st168" points="494.6,99.4 495.6,139.5 394.9,141.6 394.7,121.8 399,121.8 398.9,116.9 394.4,119.6 394.1,101.7 		
			"/>
		<path class="st165" d="M547.2,98.2l-52.7,1.4l1,39.9l59.1-1.6c0,0,0.9,0,1.4-0.9c0.5-0.9,1.3-3.2,1.3-3.2s-0.3-0.8-1.3-0.4
			c-1,0.3-7.9-7.6-7.9-7.6l-0.1-13.2L547.2,98.2z"/>
		<path class="st165" d="M434.7,41.2l59.3-1.5l0.1,29.3l-2.5,0.1c0,0-0.8,0.2-0.5,1c0.2,0.6,3.2,8,3.2,8l0.3,21.3l-60.3,1.6
			L434.7,41.2z"/>
		<path class="st166" d="M500.6,29.6h23.7c0,0,2,4.4,3.1,5.3c1.1,0.9,0.5,6.1,0.5,6.1s3.8,21.1,17.6,33.6c0,0-0.2,0.6-3.9,1.1l0,3.4
			c0,0,1.8,1.9,0.2,3.2c0,0,2.9,11,5.6,15.7l-52.7,1.4l-0.3-21.3l-3.2-8.1c0,0-0.2-0.9,0.9-0.9c1.2-0.1,2.1-0.1,2.1-0.1L494,39.8
			l12.3,0.1l0.8-0.3L500,30C500,30,499.8,29.7,500.6,29.6"/>
		<polygon class="st269" points="628.6,418.2 628.6,426 593.1,425.9 593.2,418.4 		"/>
	</g>
</g>
</svg>
