<svg xmlns="http://www.w3.org/2000/svg" viewBox="0 0 890.78 1125"><defs><style>.cls-1{fill:none;}.cls-1,.cls-10,.cls-100,.cls-101,.cls-102,.cls-103,.cls-104,.cls-105,.cls-106,.cls-107,.cls-108,.cls-109,.cls-11,.cls-110,.cls-12,.cls-13,.cls-14,.cls-15,.cls-16,.cls-17,.cls-18,.cls-19,.cls-2,.cls-20,.cls-21,.cls-22,.cls-23,.cls-24,.cls-25,.cls-26,.cls-27,.cls-28,.cls-29,.cls-3,.cls-30,.cls-31,.cls-32,.cls-33,.cls-34,.cls-35,.cls-36,.cls-37,.cls-38,.cls-39,.cls-4,.cls-40,.cls-41,.cls-42,.cls-43,.cls-44,.cls-45,.cls-46,.cls-47,.cls-48,.cls-49,.cls-5,.cls-50,.cls-51,.cls-52,.cls-53,.cls-54,.cls-55,.cls-56,.cls-57,.cls-58,.cls-59,.cls-6,.cls-60,.cls-61,.cls-62,.cls-63,.cls-64,.cls-65,.cls-66,.cls-67,.cls-68,.cls-69,.cls-7,.cls-70,.cls-71,.cls-72,.cls-73,.cls-74,.cls-75,.cls-76,.cls-77,.cls-78,.cls-79,.cls-8,.cls-80,.cls-81,.cls-82,.cls-83,.cls-84,.cls-85,.cls-86,.cls-87,.cls-88,.cls-89,.cls-9,.cls-90,.cls-91,.cls-92,.cls-93,.cls-94,.cls-95,.cls-96,.cls-97,.cls-98,.cls-99{stroke:#000;stroke-miterlimit:10;}.cls-10,.cls-11,.cls-12,.cls-13,.cls-14,.cls-15,.cls-16,.cls-17,.cls-18,.cls-19,.cls-2,.cls-20,.cls-21,.cls-22,.cls-23,.cls-24,.cls-25,.cls-26,.cls-27,.cls-28,.cls-29,.cls-3,.cls-30,.cls-31,.cls-32,.cls-33,.cls-34,.cls-35,.cls-36,.cls-37,.cls-38,.cls-39,.cls-4,.cls-40,.cls-41,.cls-42,.cls-43,.cls-44,.cls-45,.cls-46,.cls-47,.cls-48,.cls-49,.cls-5,.cls-50,.cls-51,.cls-52,.cls-53,.cls-54,.cls-55,.cls-6,.cls-7,.cls-8,.cls-9{fill:#fff;}.cls-3,.cls-56{opacity:0.03;}.cls-4,.cls-57{opacity:0;}.cls-5,.cls-58{opacity:0.35;}.cls-59,.cls-6{opacity:0.07;}.cls-60,.cls-7{opacity:0.02;}.cls-61,.cls-8{opacity:0.82;}.cls-62,.cls-9{opacity:0.21;}.cls-10,.cls-63{opacity:0.03;}.cls-11,.cls-64{opacity:0.01;}.cls-12,.cls-65{opacity:0.01;}.cls-13,.cls-66{opacity:0.12;}.cls-14,.cls-67{opacity:0.14;}.cls-15,.cls-68{opacity:0.26;}.cls-16,.cls-69{opacity:0.08;}.cls-17,.cls-70{opacity:0.04;}.cls-18,.cls-71{opacity:0.15;}.cls-19,.cls-72{opacity:0.48;}.cls-20,.cls-73{opacity:0.09;}.cls-21,.cls-74{opacity:0.23;}.cls-22,.cls-76{opacity:0.02;}.cls-23,.cls-77{opacity:0.56;}.cls-24,.cls-78{opacity:0.56;}.cls-25,.cls-79{opacity:0.66;}.cls-26,.cls-80{opacity:0.74;}.cls-27,.cls-81{opacity:0.58;}.cls-28,.cls-82{opacity:0.53;}.cls-29,.cls-83{opacity:0.19;}.cls-30,.cls-84{opacity:0.02;}.cls-31,.cls-85{opacity:0.73;}.cls-32,.cls-86{opacity:0.73;}.cls-33,.cls-87{opacity:0.71;}.cls-34,.cls-88{opacity:0.6;}.cls-35,.cls-89{opacity:0.59;}.cls-36,.cls-90{opacity:0.04;}.cls-37,.cls-91{opacity:0.5;}.cls-38,.cls-92{opacity:0.07;}.cls-39,.cls-93{opacity:0.4;}.cls-40,.cls-94{opacity:0.8;}.cls-41,.cls-95{opacity:0.82;}.cls-42,.cls-96{opacity:0.73;}.cls-43,.cls-97{opacity:0.46;}.cls-44,.cls-98{opacity:0.36;}.cls-45,.cls-99{opacity:0.56;}.cls-100,.cls-46{opacity:0.55;}.cls-101,.cls-47{opacity:0.43;}.cls-102,.cls-48{opacity:0.56;}.cls-103,.cls-49{opacity:0.77;}.cls-104,.cls-50{opacity:0.85;}.cls-105,.cls-51{opacity:0.75;}.cls-106,.cls-52{opacity:0.42;}.cls-107,.cls-53{opacity:0.42;}.cls-108,.cls-54{opacity:0.44;}.cls-109,.cls-55{opacity:0.44;}.cls-100,.cls-101,.cls-102,.cls-103,.cls-104,.cls-105,.cls-106,.cls-107,.cls-108,.cls-109,.cls-56,.cls-57,.cls-58,.cls-59,.cls-60,.cls-61,.cls-62,.cls-63,.cls-64,.cls-65,.cls-66,.cls-67,.cls-68,.cls-69,.cls-70,.cls-71,.cls-72,.cls-73,.cls-74,.cls-75,.cls-76,.cls-77,.cls-78,.cls-79,.cls-80,.cls-81,.cls-82,.cls-83,.cls-84,.cls-85,.cls-86,.cls-87,.cls-88,.cls-89,.cls-90,.cls-91,.cls-92,.cls-93,.cls-94,.cls-95,.cls-96,.cls-97,.cls-98,.cls-99{fill:#561a94;}.cls-75{opacity:0.17;}.cls-110{fill:#aaa;}</style></defs><g id="White_Pop" data-name="White Pop"><g id="Outlines"><polygon class="cls-1" points="628.63 418.25 628.52 426.27 593 426.13 592.97 418.24 628.63 418.25"/><path class="cls-1" d="M699.36,1042.17l.12,30.57,123.59-1,0-80L701,992.88l-33.09-1.53s-2.44-.17-1.46,1.24S690.1,1029,690.1,1029Z"/><path class="cls-1" d="M627.17,1033.84l4.28-.1-4.89,20.72s-.5,1.42-.26,1.77,5.44,1.38,5.44,1.38v16.26l67.74-1.13-.12-30.57L690.1,1029l-21.29,3.77-37.36.94"/><path class="cls-1" d="M694.58,777.74,701,992.88l65.8-1.39,56.34.3L822.79,894l-6.54-3.68s-1.52-.93-.35-2a21.15,21.15,0,0,0,2.34-2.62s.52-.47-.3-1.7-3.85-6.37-3.85-6.37a2,2,0,0,1,.35-2.33c1-.88,5.67-4.44,5.67-4.44l2.74-.06-.14-1.45L820,866.63v-4.37l2.67-3.67-.73-26.3-9.43-2.12L808.8,786.1l-20.21-10.35-6.08-.13Z"/><path class="cls-1" d="M576.87,861.61l4,140.4.56,35.08s11.19,2.91,17.68.81,12.48-9.25,12.48-9.25,8.11-9.24,15.57,0v5.19l41.64-1L690.1,1029l-23.67-36.44s-1.09-1.24,1.46-1.24S701,992.88,701,992.88l-4.05-134.44Z"/><polygon class="cls-1" points="500.69 984.22 496.94 883.45 476.68 883.97 476.73 901.78 456.68 902.09 456.68 904.42 436.53 905.08 436.53 890.41 433.28 890.41 433.28 885 415.82 885.11 417.83 945.46 377.7 947.53 378.67 967.52 435.97 966.04 436.34 976.41 449.52 976.19 449.52 965.45 459.01 965.28 459.08 960.22 461.34 960.18 461.41 955.45 468.33 955.48 469.11 965.12 489.29 964.64 489.77 981.02 489.04 984.47 500.69 984.22"/><path class="cls-1" d="M494.7,823.41l6,160.81,25.25-.31v3.64s3.16.57,3.39-3.79l10.22-.06v20.06l41.33-1.75-4-140.4-41,.84a78.85,78.85,0,0,0-20.59-39.31Z"/><path class="cls-1" d="M692.66,697.17l1.92,80.57,87.93-2.12s-2.09-4-2.09-5.33,3-4.55,3-4.55l5-4.17-7.3-8.65-4.77,3.84a7.29,7.29,0,0,1-6.86-.07c-4-1.9-17.71-12.64-17.71-12.64l-5.45-5.84s-.53-.76,2.45-2.34l-.11-5s-4.37,0-7.24-5.09l-.87-4.33L723.64,702a2,2,0,0,1-.42-1.12c-.11-.79,0-3.73,0-3.73l-10.17.06s-6,3.15-7.23,2.62-8.22-2.42-8.22-2.42Z"/><polygon class="cls-1" points="613.63 739.76 614.19 760.18 617.23 860.89 696.93 858.44 693.61 737.23 613.63 739.76"/><path class="cls-1" d="M493.5,763.19l1.2,60.22,20.53-.27s15.92,20,20.6,39.31l81.4-1.56-3-100.7s-59.27,1.07-60.32,1.71Z"/><path class="cls-1" d="M373,766.17l1.66,60.27,120.08-3-1.19-60.22-7.7,1.17a6.46,6.46,0,0,1-3.12-.64l-63,.14-7.91,1.3Z"/><path class="cls-1" d="M611.5,660.13l2.13,79.63,80-2.53-1-40.06,5,.22s6.78,1.74,8.22,2.42,7.23-2.62,7.23-2.62l10.17-.06s3.13-1.34-.22-2.73-9-6.32-9-6.32-3.63-7.82-2.8-11.73c0,0,1.5-1.1.59-2.13s-5-8.77-5-8.77.92-7.13,3.36-8.45l-22.76.33s-2.4,1.54-7.15.1l-30.77,1.05s-5.56,8.62-15.75.84Z"/><path class="cls-1" d="M610.48,619.23l1,40.9,22.23-.81s8.93,8.61,15.76-.84l30.76-1.05s4.52,1.68,7.15-.1L714,657a1.17,1.17,0,0,0,.9-.45c.69-.89,1.85-2.94-.65-4.12h-4.35L706,647.74l-1.55-4.67,0-10s-14-11.88-13.77-20.68l-8.87,4.9Z"/><polygon class="cls-1" points="551.63 661.37 553.87 761.9 578.9 760.93 614.19 760.18 611.5 660.13 551.63 661.37"/><polygon class="cls-1" points="490.44 662.63 493.5 763.19 553.87 761.9 551.63 661.37 490.44 662.63"/><path class="cls-1" d="M371.52,665.44l0,14.61L369.93,684l.91,32.07L373,766.17l38.83-1,7.91-1.3,63-.14a4,4,0,0,0,3.12.64c2.15-.25,7.69-1.17,7.69-1.17l-3.06-100.56Z"/><path class="cls-1" d="M609,559l1.51,60.23,71.37-1.91,8.87-4.9s-5.81-3.69-6.41-6.58a22.11,22.11,0,0,0-.72-3.1l-3.31-4.28V594s-10.66-8-11-14.52-.42-7.43-.42-7.43L658,558Z"/><polygon class="cls-1" points="487.98 562.02 490.44 662.63 611.5 660.13 608.97 559 568.03 559.87 487.98 562.02"/><polygon class="cls-1" points="365.38 585.49 377.54 585.41 377.61 590.26 367.64 595.3 369.41 661.36 371.52 665.44 371.55 680.05 369.93 683.98 370.84 716.05 249.25 720.03 247.71 652.81 257.25 648.75 348.39 645.81 347.7 610.27 364.19 602.96 364.51 585.46 365.38 585.49"/><path class="cls-1" d="M377.06,555.21l.55,35-10,5,1.77,66.06,2.11,4.08,118.92-2.81L488,562l-75.53,2.55-.13,9.49-3.64,1.42a2.13,2.13,0,0,1-1,0l-1.12-2V556.75l-1-2.3Z"/><path class="cls-1" d="M566.64,479.49,568,559.87,658,558l.12-2.91-4.22-3.19s-.69-.66-.24-2.62-2.62-6.39-2.62-6.39l-.08-6-4-6.53,0-3.1a1.86,1.86,0,0,0-.21-.77l-2.26-4.08a2.57,2.57,0,0,1,.39-2.06,12.55,12.55,0,0,1,1.41-1.56s.82-2.09-.19-3.53a13.65,13.65,0,0,0-2.23-2.44,1.8,1.8,0,0,1-.53-1.13c0-.67,0-9.59,0-9.59l-3.15-5.2.05-4.44s-6.3-2.84-2.44-9.4l0-5.94-2.49.89-41.67.57Z"/><path class="cls-1" d="M373.84,464.3l91.05-2,2.88,100.28-55.32,2-.13,9.49-3.64,1.42s-.71.19-1,0l-1.12-2V556.75l-1-2.3-28.53.76Z"/><path class="cls-1" d="M628.55,433l.54,1,.32,19.59s.71,2.06,3.87,2.13,3.43.26,3.43.26.48,0,.43.93,0,3.11,0,3.11h8.59s2.13-1.3,3.07-1.15a5.62,5.62,0,0,1,1.76.64s1.52,1.73.55,3a27.05,27.05,0,0,1-3.84,3.4l-.09,3.52,3.11,3.85v4.51l-1.94,1.94,1.24,17.95h-5.81a2.72,2.72,0,0,1-.8-1.55c0-.78,0-6.09,0-6.09a3.88,3.88,0,0,0-.14-3.69l-.44-4.37a8.47,8.47,0,0,1-1-5l1.63-4.85,0-4.86-1.92-4.43-4.15,0-1.58,5.73a5.61,5.61,0,0,0-.05,3.29c.57,1.43,2.51,5.4,2.51,5.4l-2.49.89-41.67.57L593,432.71Z"/><polygon class="cls-1" points="628.66 418.23 628.55 432.95 593.03 432.71 593 418.21 628.66 418.23"/><path class="cls-1" d="M593,403.51l10.86-.07,5.73-3.32s1.95-1.93,6.7-.39,13.88,1.12,13.88,1.12H642l0,11.1-5.55,0a4.88,4.88,0,0,1-3.15,5.14l-4.67,1.12-35.66,0Z"/><polygon class="cls-1" points="580.23 399.25 585.72 399.26 588.61 403.52 592.99 403.51 593.03 432.71 580.85 433 580.23 399.25"/><polygon class="cls-1" points="564.08 399.21 580.23 399.25 580.85 433 564.76 433.38 564.08 399.21"/><polygon class="cls-1" points="523.77 400.12 525.69 460.91 566.56 459.89 566.64 479.49 593.65 478.6 593.03 432.71 564.76 433.38 564.08 399.21 523.77 400.12"/><polygon class="cls-1" points="441.98 381.94 503.1 380.72 503.18 400.52 523.77 400.12 525.69 460.91 444.81 462.73 441.98 381.94"/><polygon class="cls-1" points="370.46 383.76 371.7 404.25 372.99 404.3 373.74 424.33 372.65 424.33 373.84 464.3 444.81 462.73 441.98 381.94 370.46 383.76"/><polygon class="cls-1" points="300.4 385.59 370.46 383.76 371.7 404.25 372.99 404.3 373.74 424.33 372.65 424.33 373.84 464.3 302.74 465.87 300.4 385.59"/><polygon class="cls-1" points="603.8 377.96 603.85 403.44 588.61 403.52 585.72 399.26 564.08 399.21 563.39 379.4 603.8 377.96"/><path class="cls-1" d="M603.13,360.08,603.8,378l.05,25.48,5.73-3.32s2.12-1.9,6.7-.39,13.88,1.12,13.88,1.12h17v-3.51h-4.76v-4.11h18.68v-.73h4.69v-3l-24,.26v-2.66h15.54V378.5H645.7l-4.12.66-4,7.91h-3.94L622,364.85s-6.12-1.38-6.5-4.84Z"/><path class="cls-1" d="M562,338.73l1.42,40.67L603.8,378l-.67-17.88,12.36-.07s-6.13-5.27-4.71-23Z"/><path class="cls-1" d="M521.8,319.93l2,80.19,40.31-.91L562,338.73l-17,.63-2.6-8.47-5.27-5.1s-1.43-1.76-3.73,0a2.27,2.27,0,0,1-3.59-.58l-2.24-5.6a1.76,1.76,0,0,0-1.84-.23A20.49,20.49,0,0,1,521.8,319.93Z"/><polygon class="cls-1" points="441.26 341.71 441.98 381.94 503.1 380.72 503.18 400.52 523.77 400.12 521.8 319.93 501.67 320.04 501.92 339.93 441.26 341.71"/><polygon class="cls-1" points="299.64 345.19 441.26 341.71 441.98 381.94 300.41 385.59 299.64 345.19"/><polygon class="cls-1" points="277.91 285.18 235.36 286.14 236.88 346.87 280.08 345.62 277.91 285.18"/><polyline class="cls-1" points="400.86 342.71 280.08 345.62 277.91 285.18 318.2 284.28 398.93 282.42"/><polygon class="cls-1" points="399.28 282.39 499.98 280.38 501.67 320.04 501.92 339.92 401.07 342.89 399.28 282.39"/><path class="cls-1" d="M598.46,276.66,598,289.15l2.2,5a2.2,2.2,0,0,1-.12,2.82c-1.2,1.63-1,4.4-1,4.4s4.49,18.74,7.25,22.14a62.24,62.24,0,0,0,7.74,7.38s1.92,1.94.57,3.33a19.38,19.38,0,0,1-3.9,2.73L545,339.36l-2.6-8.47-5.27-5.1a2.76,2.76,0,0,0-3.73,0,2.31,2.31,0,0,1-3.45-.26l-2.38-5.91a1.86,1.86,0,0,0-1.84-.23,17.22,17.22,0,0,1-3.21.58l-20.87.09L500,280.38l86.15-2.29,3.88-.93S598.12,277.08,598.46,276.66Z"/><path class="cls-1" d="M498.91,240.25,500,280.38l86.15-2.29,3.88-.93h7.09a2,2,0,0,0,1.26-.37c.24-.25.28-.68-.25-1.4a57.27,57.27,0,0,1-3.54-6.59l-.17-3.29-2.11-4-.68-7.68s1.41-2,.63-3.18-11.71-19.84-11.71-19.84l-16,7.3Z"/><path class="cls-1" d="M497.82,199.88l1.09,40.37,65.61-2.11,16-7.3s-5.54-10.12-5.89-28.59a11.32,11.32,0,0,1-1-3.84Z"/><polygon class="cls-1" points="396.87 202.07 497.82 199.88 499.98 280.38 399.28 282.39 396.87 202.07"/><polygon class="cls-1" points="315.85 203.82 396.87 202.07 399.28 282.39 318.2 284.27 315.85 203.82"/><path class="cls-1" d="M130,208.35s40.52-1,42-.66l8.36,0,2.29,9.46v10.6L233,225.43v-2.29l27.12-17.82,14.8-.6,40.93-.9,2.35,80.46-82.84,1.86,0-4.11,5.45-7.83s2.16-3.25-.06-4.62-6.16-1.56-6.16-1.56v-1.54L146.74,269s-4.57-2.74-5.82-9.64l-5.25-19.82s-1.17-2.94-.76-3.94,1.76-4.58,1.76-4.58a1.26,1.26,0,0,1,1.35-.94c1.17,0,13.68-.76,13.68-.76V218.44l-23.31.47s-2.13-3.68-1.51-5S128.88,208.71,130,208.35Z"/><path class="cls-1" d="M495.56,139.52l58.94-1.7a.54.54,0,0,1,.56.5l.75,8.84s0,.07,0,.11c.22.69,2.55,7.75,8.26,7.8l.64,0,.1,12.54a.51.51,0,0,0,0,.13c.35,1.28,6,20.66,28.88,20.94a.55.55,0,0,1,.49.3l2,4.2a.6.6,0,0,0,.09.13,1.77,1.77,0,0,1-.07,2.84c-1.74,1.24-8.44,5.64-10.82,8.29a.47.47,0,0,1-.29.16c-.78.13-4,.61-6,0-2.3-.73-2.49-2.28-2.49-2.28s-.38-2.39,1.66-.92a6.35,6.35,0,0,0,4.72.81.88.88,0,0,0,.2-.09l4.3-3.07s.51-3.14-2.23-3.46a29.29,29.29,0,0,0-6.67.37,23.92,23.92,0,0,0-5,2.46l-75.81,1.47Z"/><polygon class="cls-1" points="394.88 141.65 495.56 139.52 495.48 146.36 496.17 147.31 497.82 199.88 396.87 202.07 394.88 141.65"/><path class="cls-1" d="M273.1,142.42l72.69-1.19L348,144s2.41-2.31,3.65-2.34a4.91,4.91,0,0,1,1.85.77l41.36-.82,2,60.42-121.95,2.65v-8.38h.93v-11.1l-.69-2.67h-2.64l-.09-1.53V152.69h.67Z"/><path class="cls-1" d="M273.1,142.42v10.27h-.67V181l-28.94.43-3,1.85h-7.28V165.54h-1.91v.64l-18.42.47-.05,10.3h-3.72l-.1-7.11s-1-.27-1.06-.64v-2.28l-15.18.54v3H182.68v-2.37h-3.13s-.76.16-.76-.8,0-3.41,0-3.41h-6.34v1.89h-9.91v2.4h6.9V175h3.13v3.29h-6.22V179h-3.94v-6l-10.23.84v14.85l19.62-.68.17,19.72-12.49,0-29.55.62s4.64-10.69,5.1-18.16l.13-5.1a3.9,3.9,0,0,1-.71-2.38c.21-1,2-5.85,2-5.85s.92-4.21-4.59-5a12.46,12.46,0,0,1-5,2.93c-3.09.91-6.68-5.39-6.68-5.39a8.35,8.35,0,0,1,2-7.14c3-3.59,10.85-13.77,10.85-13.77l75.83-1.75,7.94-.2a8.67,8.67,0,0,0,3.62-3.33Z"/><path class="cls-1" d="M265.75,91.76l1.52,2.3,6,8.94-.16,39.42-52.65.78s-1.64,3-3.95,3.37-20.61.49-20.61.49l0,1.44-14,.29v-1.26h-8.53l-40.3.95,0-5.2s-2.12-2.79-2.2-4.43,2.56-8.63,2.56-8.63V126.7s14.36,1.09,21.26,2.81,44.83,8.87,44.83,8.87l3.86-32.64.12-41.48,3.16,0V62.78h-1.16V52.7h-2.33V44.81l30.61-1.63v50.2h2.39V90.9h9l.53,1.62h2.94l.06,3.34s4.21-.46,4.38-1V91.75Z"/><path class="cls-1" d="M394.88,141.65l-.14-19.85H399l-.09-4.88-4.51,2.7-.27-17.9-49.27.58-19.46-12.2.06-3.28a2,2,0,0,1,.9-.77l0-14.11-12.06,0v11.2s-7.17-4.22-11.63-21L295.06,62l0-9.48-4.62-.12L290,61.93l-19.28-.06,13.37,20.5L267.27,94.06l6,8.94-.16,39.42,72.69-1.19L348,144s2.91-2.46,3.65-2.34a7.35,7.35,0,0,1,1.85.77Z"/><polygon class="cls-1" points="494.63 99.44 495.56 139.52 394.88 141.65 394.74 121.81 399.01 121.81 398.9 116.93 394.4 119.64 394.07 101.74 494.63 99.44"/><path class="cls-1" d="M547.21,98.21l-52.66,1.44,1,39.87,59.09-1.65a1.79,1.79,0,0,0,1.43-.85,21.1,21.1,0,0,0,1.27-3.17s-.28-.76-1.29-.43-7.93-7.59-7.93-7.59l-.08-13.23Z"/><path class="cls-1" d="M434.68,41.23,494,39.75,494.11,69l-2.46.13a.74.74,0,0,0-.51,1c.24.64,3.16,7.95,3.16,7.95l.33,21.34L434.31,101Z"/><path class="cls-1" d="M500.58,29.59h23.69s2,4.43,3.05,5.35.46,6.11.46,6.11,3.82,21.09,17.58,33.62c0,0-.23.63-4,1.06l0,3.4s1.83,1.88.22,3.22c0,0,3,11,5.63,15.66l-52.66,1.43L494.3,78.1,491.09,70s-.23-.86.93-.93,2.09-.06,2.09-.06L494,39.75l12.3.09.84-.31L500,30S499.84,29.73,500.58,29.59Z"/></g><g id="Zipcodes"><polygon class="cls-2" points="628.7 418.02 628.58 426.04 593.07 425.9 593.03 418.01 628.7 418.02"/><path class="cls-2" d="M699.42,1041.94l.12,30.57,123.6-1,.05-80-122.14,1.09L668,991.12s-2.44-.17-1.46,1.24,23.67,36.44,23.67,36.44Z"/><path class="cls-2" d="M627.24,1033.61l4.28-.1-4.89,20.72s-.5,1.42-.26,1.77,5.43,1.38,5.43,1.38v16.26l67.74-1.13-.12-30.57-9.25-13.14-21.29,3.77-37.36.94"/><path class="cls-2" d="M694.65,777.51l6.4,215.15,65.8-1.4,56.34.3-.33-97.84L816.32,890s-1.52-.93-.35-2a22.16,22.16,0,0,0,2.33-2.63s.53-.47-.29-1.7-3.85-6.37-3.85-6.37a2,2,0,0,1,.35-2.33c1-.88,5.66-4.44,5.66-4.44l2.75-.06-.14-1.45-2.68-2.68V862l2.66-3.67-.73-26.3-9.43-2.12-3.73-44.07-20.22-10.35-6.07-.13Z"/><path class="cls-2" d="M576.94,861.38l4,140.4.55,35.08s11.2,2.91,17.68.81,12.49-9.25,12.49-9.25,8.11-9.24,15.57,0v5.19l41.64-1,21.29-3.77L666.5,992.36s-1.1-1.24,1.46-1.24,33.09,1.53,33.09,1.53l-4-134.44Z"/><polygon class="cls-2" points="500.75 983.99 497.01 883.22 476.74 883.74 476.8 901.55 456.75 901.86 456.75 904.19 436.6 904.85 436.6 890.19 433.35 890.19 433.35 884.77 415.88 884.88 417.9 945.23 377.77 947.31 378.73 967.3 436.04 965.82 436.4 976.18 449.58 975.96 449.58 965.22 459.07 965.05 459.15 959.99 461.4 959.95 461.48 955.22 468.4 955.25 469.18 964.89 489.36 964.41 489.84 980.79 489.1 984.24 500.75 983.99"/><path class="cls-2" d="M494.77,823.18l6,160.81,25.25-.31v3.64s3.16.57,3.39-3.79l10.23-.06v20.06l41.33-1.75-4-140.4-41.05.84a78.85,78.85,0,0,0-20.59-39.31Z"/><path class="cls-2" d="M692.73,696.94l1.92,80.57,87.93-2.12s-2.09-4-2.09-5.33,3-4.55,3-4.55l5-4.17-7.3-8.65-4.77,3.84a7.3,7.3,0,0,1-6.86-.07c-4-1.9-17.71-12.64-17.71-12.64L746.34,738s-.53-.76,2.45-2.34l-.11-5s-4.38,0-7.24-5.09l-.87-4.34-16.86-19.45a2,2,0,0,1-.42-1.12c-.11-.79,0-3.72,0-3.72l-10.17.05s-6,3.15-7.24,2.62-8.21-2.41-8.21-2.41Z"/><polygon class="cls-2" points="613.7 739.53 614.26 759.96 617.3 860.66 697 858.21 693.68 737 613.7 739.53"/><path class="cls-2" d="M493.57,763l1.2,60.22,20.53-.27s15.91,20,20.59,39.31l81.41-1.56-3-100.7S555,761,553.93,761.67Z"/><path class="cls-2" d="M373,765.94l1.66,60.28,120.08-3L493.57,763l-7.7,1.17a6.48,6.48,0,0,1-3.12-.64l-63,.14-7.91,1.3Z"/><path class="cls-2" d="M611.57,659.9l2.13,79.63,80-2.53-.95-40.06,5,.22s6.78,1.74,8.21,2.42,7.24-2.62,7.24-2.62l10.17-.06s3.13-1.34-.22-2.73-9.06-6.32-9.06-6.32-3.63-7.82-2.79-11.73c0,0,1.5-1.1.58-2.13s-5-8.77-5-8.77.92-7.13,3.36-8.45l-22.77.33s-2.39,1.54-7.14.1l-30.77,1s-5.56,8.62-15.75.84Z"/><path class="cls-2" d="M610.55,619l1,40.9,22.23-.81s8.93,8.61,15.75-.84l30.77-1s4.52,1.68,7.14-.1l26.64-.38a1.18,1.18,0,0,0,.9-.45c.68-.89,1.85-2.94-.65-4.12H710l-3.93-4.64-1.54-4.67,0-10s-14-11.88-13.76-20.68l-8.87,4.9Z"/><polygon class="cls-2" points="551.69 661.14 553.93 761.67 578.97 760.7 614.26 759.96 611.57 659.9 551.69 661.14"/><polygon class="cls-2" points="490.5 662.4 493.57 762.96 553.93 761.67 551.69 661.14 490.5 662.4"/><path class="cls-2" d="M371.59,665.21l0,14.61L370,683.75l.91,32.07L373,765.94l38.83-1,7.91-1.3,63-.14a4,4,0,0,0,3.12.64c2.16-.25,7.7-1.17,7.7-1.17L490.5,662.4Z"/><path class="cls-2" d="M609,558.77,610.55,619l71.37-1.91,8.87-4.9s-5.82-3.69-6.41-6.58a26.17,26.17,0,0,0-.72-3.1l-3.31-4.28v-4.46s-10.66-8-11-14.52-.42-7.43-.42-7.43L658,557.8Z"/><polygon class="cls-2" points="488.05 561.79 490.5 662.4 611.57 659.9 609.04 558.77 568.09 559.64 488.05 561.79"/><polygon class="cls-2" points="365.45 585.25 377.61 585.18 377.68 590.03 367.71 595.07 369.48 661.13 371.59 665.21 371.62 679.82 370 683.75 370.91 715.82 249.31 719.8 247.77 652.58 257.32 648.52 348.46 645.58 347.76 610.04 364.25 602.73 364.58 585.23 365.45 585.25"/><path class="cls-2" d="M377.13,555l.55,35-10,5,1.77,66.06,2.11,4.08L490.5,662.4l-2.45-100.6-75.53,2.54-.14,9.49-3.63,1.42a2.13,2.13,0,0,1-1,0l-1.12-2V556.52l-1-2.29Z"/><path class="cls-2" d="M566.71,479.26l1.38,80.38L658,557.8l.12-2.91-4.22-3.19s-.7-.66-.25-2.62-2.62-6.39-2.62-6.39l-.07-6-4-6.53,0-3.1a1.86,1.86,0,0,0-.21-.77l-2.26-4.08a2.59,2.59,0,0,1,.38-2.06,13.07,13.07,0,0,1,1.42-1.56s.82-2.09-.19-3.53a13.65,13.65,0,0,0-2.23-2.44,1.75,1.75,0,0,1-.53-1.13c0-.67,0-9.59,0-9.59l-3.15-5.2,0-4.44s-6.31-2.84-2.44-9.4l0-5.94-2.49.89-41.68.57Z"/><path class="cls-2" d="M373.91,464.07l91-2,2.88,100.28-55.31,2-.14,9.49-3.63,1.42s-.71.19-1,0l-1.11-2V556.52l-1-2.3-28.53.76Z"/><path class="cls-2" d="M628.62,432.72l.54,1,.32,19.59s.71,2.06,3.87,2.14,3.43.25,3.43.25.48,0,.43.93,0,3.12,0,3.12h8.59s2.12-1.31,3.07-1.16a5.62,5.62,0,0,1,1.76.64s1.52,1.73.55,3a27.63,27.63,0,0,1-3.84,3.4l-.09,3.52,3.11,3.85v4.51l-1.94,1.94,1.24,18h-5.81a2.78,2.78,0,0,1-.81-1.55c0-.78.05-6.08.05-6.08a3.9,3.9,0,0,0-.14-3.7l-.44-4.37a8.38,8.38,0,0,1-1-5l1.63-4.85,0-4.86-1.92-4.43-4.15-.05-1.58,5.73a5.57,5.57,0,0,0-.06,3.29c.57,1.43,2.52,5.4,2.52,5.4l-2.49.89-41.68.57-.61-45.89Z"/><polygon class="cls-2" points="628.73 418 628.62 432.72 593.1 432.48 593.07 417.98 628.73 418"/><path class="cls-2" d="M593.05,403.28l10.87-.07,5.73-3.32s2-1.93,6.7-.39,13.88,1.12,13.88,1.12h11.84l0,11.1-5.55,0a4.87,4.87,0,0,1-3.16,5.14L628.73,418l-35.66,0Z"/><polygon class="cls-2" points="580.3 399.02 585.79 399.03 588.68 403.29 593.05 403.28 593.1 432.48 580.92 432.77 580.3 399.02"/><polygon class="cls-2" points="564.15 398.98 580.3 399.02 580.92 432.77 564.83 433.15 564.15 398.98"/><polygon class="cls-2" points="523.84 399.89 525.76 460.68 566.63 459.66 566.71 479.26 593.71 478.37 593.1 432.48 564.83 433.15 564.15 398.98 523.84 399.89"/><polygon class="cls-2" points="442.04 381.71 503.17 380.49 503.25 400.29 523.84 399.89 525.76 460.68 444.88 462.5 442.04 381.71"/><polygon class="cls-2" points="370.53 383.53 371.77 404.02 373.06 404.07 373.81 424.1 372.72 424.1 373.91 464.07 444.88 462.5 442.04 381.71 370.53 383.53"/><polygon class="cls-2" points="300.47 385.36 370.53 383.53 371.77 404.02 373.06 404.07 373.81 424.1 372.72 424.1 373.91 464.07 302.81 465.64 300.47 385.36"/><polygon class="cls-2" points="603.87 377.73 603.92 403.21 588.68 403.29 585.79 399.03 564.15 398.98 563.46 379.17 603.87 377.73"/><path class="cls-2" d="M603.19,359.85l.67,17.88.06,25.48,5.73-3.32s2.12-1.9,6.69-.39,13.89,1.12,13.89,1.12h17v-3.51h-4.76V393h18.68v-.74h4.69v-3l-24,.26v-2.65h15.54v-8.65h-11.6l-4.13.66-4,7.91H633.7l-11.64-22.22s-6.12-1.38-6.51-4.84Z"/><path class="cls-2" d="M562,338.5l1.42,40.67,40.4-1.44-.67-17.88,12.37-.07s-6.14-5.26-4.71-23Z"/><path class="cls-2" d="M521.87,319.7l2,80.19,40.31-.91L562,338.5l-16.95.63-2.6-8.47-5.27-5.1s-1.43-1.76-3.73,0a2.27,2.27,0,0,1-3.59-.58l-2.25-5.6a1.74,1.74,0,0,0-1.83-.23A20.49,20.49,0,0,1,521.87,319.7Z"/><polygon class="cls-2" points="441.33 341.48 442.04 381.71 503.17 380.49 503.25 400.29 523.84 399.89 521.87 319.7 501.73 319.81 501.99 339.69 441.33 341.48"/><polygon class="cls-2" points="299.71 344.96 441.33 341.48 442.04 381.71 300.47 385.36 299.71 344.96"/><polygon class="cls-2" points="277.98 284.95 235.43 285.91 236.95 346.64 280.14 345.39 277.98 284.95"/><polyline class="cls-2" points="400.93 342.48 280.14 345.39 277.98 284.95 318.26 284.05 399 282.19"/><polygon class="cls-2" points="399.35 282.16 500.04 280.15 501.73 319.81 501.99 339.69 401.14 342.67 399.35 282.16"/><path class="cls-2" d="M598.52,276.43l-.46,12.49,2.2,5a2.19,2.19,0,0,1-.13,2.82c-1.19,1.64-.94,4.4-.94,4.4s4.48,18.74,7.25,22.15a62.66,62.66,0,0,0,7.74,7.37s1.92,1.94.57,3.33a19.38,19.38,0,0,1-3.9,2.73l-65.76,2.38-2.6-8.47-5.27-5.09a2.75,2.75,0,0,0-3.73,0,2.32,2.32,0,0,1-3.45-.26l-2.39-5.92a1.83,1.83,0,0,0-1.83-.23,16.5,16.5,0,0,1-3.21.58l-20.88.1L500,280.15l86.15-2.29,3.89-.93S598.19,276.85,598.52,276.43Z"/><path class="cls-2" d="M499,240,500,280.15l86.15-2.29,3.89-.93h7.09a2,2,0,0,0,1.26-.37c.24-.25.27-.68-.25-1.4a57.85,57.85,0,0,1-3.55-6.59l-.17-3.29-2.1-4-.68-7.69s1.4-2,.63-3.18-11.71-19.84-11.71-19.84l-16,7.3Z"/><path class="cls-2" d="M497.88,199.65,499,240l65.61-2.11,16-7.3s-5.54-10.12-5.9-28.59a11.57,11.57,0,0,1-1-3.84Z"/><polygon class="cls-2" points="396.94 201.84 497.88 199.65 500.05 280.15 399.35 282.16 396.94 201.84"/><polygon class="cls-2" points="315.92 203.59 396.94 201.84 399.35 282.16 318.26 284.05 315.92 203.59"/><path class="cls-2" d="M130,208.12s40.52-1,42.05-.66l8.36,0,2.29,9.46v10.6l50.34-2.28v-2.29l27.11-17.82,14.81-.6,40.93-.9,2.34,80.46-82.83,1.86,0-4.11,5.44-7.83s2.17-3.25-.06-4.62-6.15-1.56-6.15-1.56v-1.54l-87.83,2.49S142.23,266,141,259.1l-5.25-19.82s-1.18-2.94-.77-3.94,1.77-4.58,1.77-4.58a1.26,1.26,0,0,1,1.35-.94c1.17,0,13.67-.76,13.67-.76V218.21l-23.3.47s-2.13-3.68-1.52-5S129,208.48,130,208.12Z"/><path class="cls-2" d="M495.63,139.29l58.94-1.7a.54.54,0,0,1,.56.5l.75,8.84a.43.43,0,0,0,0,.11c.22.69,2.55,7.75,8.26,7.81h.64l.1,12.54a.27.27,0,0,0,0,.13c.34,1.28,6,20.66,28.88,20.94a.55.55,0,0,1,.49.3l2,4.2a.38.38,0,0,0,.09.13c.27.29,1.5,1.71-.08,2.84s-8.43,5.64-10.81,8.29a.47.47,0,0,1-.29.16c-.79.13-4,.61-6,0-2.3-.73-2.49-2.28-2.49-2.28s-.38-2.39,1.66-.92A6.33,6.33,0,0,0,583,202a.61.61,0,0,0,.2-.09l4.31-3.06s.51-3.15-2.24-3.47a29.24,29.24,0,0,0-6.66.37,23.88,23.88,0,0,0-5,2.46l-75.81,1.47Z"/><polygon class="cls-2" points="394.95 141.42 495.63 139.29 495.54 146.13 496.23 147.09 497.88 199.65 396.94 201.84 394.95 141.42"/><path class="cls-2" d="M273.16,142.19l72.7-1.19,2.22,2.81s2.42-2.31,3.66-2.34a5,5,0,0,1,1.85.77l41.36-.82,2,60.42L275,204.49v-8.38h.93V185l-.7-2.67h-2.64l-.09-1.53V152.46h.67Z"/><path class="cls-2" d="M273.16,142.19v10.27h-.67v28.35l-28.93.43-3,1.85h-7.27V165.31h-1.91V166l-18.42.47-.05,10.3h-3.72l-.11-7.11s-1-.27-1.06-.64v-2.28l-15.17.54v3.05H182.75v-2.37h-3.13s-.77.17-.77-.8,0-3.41,0-3.41h-6.34v1.89h-9.91V168h6.9v6.75h3.13V178h-6.22v.72h-3.93v-6l-10.23.84v14.85l19.62-.68.17,19.72-12.5,0-29.55.62s4.65-10.69,5.11-18.16l.13-5.1a3.88,3.88,0,0,1-.71-2.38c.21-1,2-5.85,2-5.85s.92-4.21-4.59-5a12.55,12.55,0,0,1-5,2.93c-3.09.92-6.68-5.39-6.68-5.39a8.37,8.37,0,0,1,2-7.14c3-3.59,10.84-13.77,10.84-13.77L209,146.5l7.94-.2a8.62,8.62,0,0,0,3.61-3.33Z"/><path class="cls-2" d="M265.82,91.53l1.51,2.3,6,8.94-.17,39.42-52.65.78s-1.63,3-3.94,3.37-20.61.49-20.61.49v1.44l-14,.29V147.3h-8.53l-40.3.95,0-5.2s-2.11-2.79-2.19-4.43,2.55-8.63,2.55-8.63v-3.52s14.37,1.09,21.26,2.81,44.84,8.87,44.84,8.87l3.86-32.64L203.52,64l3.15,0V62.55h-1.16V52.47h-2.32V44.58L233.8,43v50.2h2.39V90.67h9l.52,1.62h2.95l.05,3.34s4.22-.46,4.39-1V91.52Z"/><path class="cls-2" d="M395,141.42l-.14-19.85,4.27,0-.1-4.88-4.5,2.69-.28-17.9-49.26.58L325.48,89.89l0-3.29a2,2,0,0,1,.91-.77l0-14.11-12.06,0v11.2s-7.16-4.22-11.63-21l-7.64-.08,0-9.48-4.63-.12-.44,9.54-19.28-.06,13.36,20.5L267.33,93.83l6,8.94-.17,39.42,72.7-1.19,2.22,2.81s2.92-2.46,3.66-2.34a7.35,7.35,0,0,1,1.85.77Z"/><polygon class="cls-2" points="494.69 99.21 495.63 139.29 394.95 141.42 394.81 121.58 399.08 121.58 398.97 116.7 394.47 119.42 394.14 101.51 494.69 99.21"/><path class="cls-2" d="M547.28,98l-52.66,1.44,1,39.87,59.09-1.64a1.78,1.78,0,0,0,1.43-.86,22.28,22.28,0,0,0,1.27-3.17s-.28-.76-1.3-.43-7.93-7.58-7.93-7.58l-.07-13.24Z"/><path class="cls-2" d="M434.74,41l59.35-1.48.08,29.28-2.46.13a.75.75,0,0,0-.51,1c.25.64,3.16,8,3.16,8l.33,21.34-60.31,1.59Z"/><path class="cls-2" d="M500.64,29.36h23.69s2,4.43,3.06,5.35.46,6.11.46,6.11,3.82,21.09,17.57,33.63c0,0-.22.62-3.94,1l0,3.4s1.82,1.88.21,3.22c0,0,2.95,11,5.63,15.66l-52.66,1.43-.33-21.34-3.2-8.08s-.23-.86.93-.93,2.08-.06,2.08-.06l-.08-29.28,12.3.1.83-.32-7.13-9.54S499.9,29.51,500.64,29.36Z"/><path class="cls-3" d="M627.24,1033.61l4.28-.1-4.89,20.72s-.5,1.42-.26,1.77,5.43,1.38,5.43,1.38v16.26l67.74-1.13-.12-30.57-9.25-13.14-21.29,3.77-37.36.94"/><polygon class="cls-4" points="628.7 418.02 628.58 426.04 593.07 425.9 593.03 418.01 628.7 418.02"/><path class="cls-5" d="M699.42,1041.94l.12,30.57,123.6-1,.05-80-122.14,1.09L668,991.12s-2.44-.17-1.46,1.24,23.67,36.44,23.67,36.44Z"/><path class="cls-6" d="M694.65,777.51l6.4,215.15,65.8-1.4,56.34.3-.33-97.84L816.32,890s-1.52-.93-.35-2a22.16,22.16,0,0,0,2.33-2.63s.53-.47-.29-1.7-3.85-6.37-3.85-6.37a2,2,0,0,1,.35-2.33c1-.88,5.66-4.44,5.66-4.44l2.75-.06-.14-1.45-2.68-2.68V862l2.66-3.67-.73-26.3-9.43-2.12-3.73-44.07-20.22-10.35-6.07-.13Z"/><path class="cls-7" d="M576.94,861.38l4,140.4.55,35.08s11.2,2.91,17.68.81,12.49-9.25,12.49-9.25,8.11-9.24,15.57,0v5.19l41.64-1,21.29-3.77L666.5,992.36s-1.1-1.24,1.46-1.24,33.09,1.53,33.09,1.53l-4-134.44Z"/><polygon class="cls-8" points="500.75 983.99 497.01 883.22 476.74 883.74 476.8 901.55 456.75 901.86 456.75 904.19 436.6 904.85 436.6 890.19 433.35 890.19 433.35 884.77 415.88 884.88 417.9 945.23 377.77 947.31 378.73 967.3 436.04 965.82 436.4 976.18 449.58 975.96 449.58 965.22 459.07 965.05 459.15 959.99 461.4 959.95 461.48 955.22 468.4 955.25 469.18 964.89 489.36 964.41 489.84 980.79 489.1 984.24 500.75 983.99"/><path class="cls-9" d="M494.77,823.18l6,160.81,25.25-.31v3.64s3.16.57,3.39-3.79l10.23-.06v20.06l41.33-1.75-4-140.4-41.05.84a78.85,78.85,0,0,0-20.59-39.31Z"/><path class="cls-10" d="M692.73,696.94l1.92,80.57,87.93-2.12s-2.09-4-2.09-5.33,3-4.55,3-4.55l5-4.17-7.3-8.65-4.77,3.84a7.3,7.3,0,0,1-6.86-.07c-4-1.9-17.71-12.64-17.71-12.64L746.34,738s-.53-.76,2.45-2.34l-.11-5s-4.38,0-7.24-5.09l-.87-4.34-16.86-19.45a2,2,0,0,1-.42-1.12c-.11-.79,0-3.72,0-3.72l-10.17.05s-6,3.15-7.24,2.62-8.21-2.41-8.21-2.41Z"/><polygon class="cls-11" points="613.7 739.53 614.26 759.96 617.3 860.66 697 858.21 693.68 737 613.7 739.53"/><path class="cls-12" d="M493.57,763l1.2,60.22,20.53-.27s15.91,20,20.59,39.31l81.41-1.56-3-100.7S555,761,553.93,761.67Z"/><path class="cls-13" d="M373,765.94l1.66,60.28,120.08-3L493.57,763l-7.7,1.17a6.48,6.48,0,0,1-3.12-.64l-63,.14-7.91,1.3Z"/><path class="cls-14" d="M611.57,659.9l2.13,79.63,80-2.53-.95-40.06,5,.22s6.78,1.74,8.21,2.42,7.24-2.62,7.24-2.62l10.17-.06s3.13-1.34-.22-2.73-9.06-6.32-9.06-6.32-3.63-7.82-2.79-11.73c0,0,1.5-1.1.58-2.13s-5-8.77-5-8.77.92-7.13,3.36-8.45l-22.77.33s-2.39,1.54-7.14.1l-30.77,1s-5.56,8.62-15.75.84Z"/><path class="cls-15" d="M610.55,619l1,40.9,22.23-.81s8.93,8.61,15.75-.84l30.77-1s4.52,1.68,7.14-.1l26.64-.38a1.18,1.18,0,0,0,.9-.45c.68-.89,1.85-2.94-.65-4.12H710l-3.93-4.64-1.54-4.67,0-10s-14-11.88-13.76-20.68l-8.87,4.9Z"/><polygon class="cls-11" points="551.69 661.14 553.93 761.67 578.97 760.7 614.26 759.96 611.57 659.9 551.69 661.14"/><polygon class="cls-12" points="490.5 662.4 493.57 762.96 553.93 761.67 551.69 661.14 490.5 662.4"/><path class="cls-16" d="M371.59,665.21l0,14.61L370,683.75l.91,32.07L373,765.94l38.83-1,7.91-1.3,63-.14a4,4,0,0,0,3.12.64c2.16-.25,7.7-1.17,7.7-1.17L490.5,662.4Z"/><path class="cls-17" d="M609,558.77,610.55,619l71.37-1.91,8.87-4.9s-5.82-3.69-6.41-6.58a26.17,26.17,0,0,0-.72-3.1l-3.31-4.28v-4.46s-10.66-8-11-14.52-.42-7.43-.42-7.43L658,557.8Z"/><polygon class="cls-18" points="488.05 561.79 490.5 662.4 611.57 659.9 609.04 558.77 568.09 559.64 488.05 561.79"/><polygon class="cls-19" points="365.45 585.25 377.61 585.18 377.68 590.03 367.71 595.07 369.48 661.13 371.59 665.21 371.62 679.82 370 683.75 370.91 715.82 249.31 719.8 247.77 652.58 257.32 648.52 348.46 645.58 347.76 610.04 364.25 602.73 364.58 585.23 365.45 585.25"/><path class="cls-20" d="M377.13,555l.55,35-10,5,1.77,66.06,2.11,4.08L490.5,662.4l-2.45-100.6-75.53,2.54-.14,9.49-3.63,1.42a2.13,2.13,0,0,1-1,0l-1.12-2V556.52l-1-2.29Z"/><path class="cls-21" d="M566.71,479.26l1.38,80.38L658,557.8l.12-2.91-4.22-3.19s-.7-.66-.25-2.62-2.62-6.39-2.62-6.39l-.07-6-4-6.53,0-3.1a1.86,1.86,0,0,0-.21-.77l-2.26-4.08a2.59,2.59,0,0,1,.38-2.06,13.07,13.07,0,0,1,1.42-1.56s.82-2.09-.19-3.53a13.65,13.65,0,0,0-2.23-2.44,1.75,1.75,0,0,1-.53-1.13c0-.67,0-9.59,0-9.59l-3.15-5.2,0-4.44s-6.31-2.84-2.44-9.4l0-5.94-2.49.89-41.68.57Z"/><polygon class="cls-2" points="464.95 462.09 467.83 562.38 568.09 559.64 566.71 479.26 566.63 459.66 464.95 462.09"/><path class="cls-22" d="M373.91,464.07l91-2,2.88,100.28-55.31,2-.14,9.49-3.63,1.42s-.71.19-1,0l-1.11-2V556.52l-1-2.3-28.53.76Z"/><path class="cls-23" d="M628.62,432.72l.54,1,.32,19.59s.71,2.06,3.87,2.14,3.43.25,3.43.25.48,0,.43.93,0,3.12,0,3.12h8.59s2.12-1.31,3.07-1.16a5.62,5.62,0,0,1,1.76.64s1.52,1.73.55,3a27.63,27.63,0,0,1-3.84,3.4l-.09,3.52,3.11,3.85v4.51l-1.94,1.94,1.24,18h-5.81a2.78,2.78,0,0,1-.81-1.55c0-.78.05-6.08.05-6.08a3.9,3.9,0,0,0-.14-3.7l-.44-4.37a8.38,8.38,0,0,1-1-5l1.63-4.85,0-4.86-1.92-4.43-4.15-.05-1.58,5.73a5.57,5.57,0,0,0-.06,3.29c.57,1.43,2.52,5.4,2.52,5.4l-2.49.89-41.68.57-.61-45.89Z"/><polygon class="cls-24" points="628.73 418 628.62 432.72 593.1 432.48 593.07 417.98 628.73 418"/><path class="cls-25" d="M593.05,403.28l10.87-.07,5.73-3.32s2-1.93,6.7-.39,13.88,1.12,13.88,1.12h11.84l0,11.1-5.55,0a4.87,4.87,0,0,1-3.16,5.14L628.73,418l-35.66,0Z"/><polygon class="cls-26" points="580.3 399.02 585.79 399.03 588.68 403.29 593.05 403.28 593.1 432.48 580.92 432.77 580.3 399.02"/><polygon class="cls-27" points="564.15 398.98 580.3 399.02 580.92 432.77 564.83 433.15 564.15 398.98"/><polygon class="cls-28" points="523.84 399.89 525.76 460.68 566.63 459.66 566.71 479.26 593.71 478.37 593.1 432.48 564.83 433.15 564.15 398.98 523.84 399.89"/><polygon class="cls-29" points="442.04 381.71 503.17 380.49 503.25 400.29 523.84 399.89 525.76 460.68 444.88 462.5 442.04 381.71"/><polygon class="cls-30" points="370.53 383.53 371.77 404.02 373.06 404.07 373.81 424.1 372.72 424.1 373.91 464.07 444.88 462.5 442.04 381.71 370.53 383.53"/><polygon class="cls-30" points="300.47 385.36 370.53 383.53 371.77 404.02 373.06 404.07 373.81 424.1 372.72 424.1 373.91 464.07 302.81 465.64 300.47 385.36"/><polygon class="cls-31" points="603.87 377.73 603.92 403.21 588.68 403.29 585.79 399.03 564.15 398.98 563.46 379.17 603.87 377.73"/><path class="cls-32" d="M603.19,359.85l.67,17.88.06,25.48,5.73-3.32s2.12-1.9,6.69-.39,13.89,1.12,13.89,1.12h17v-3.51h-4.76V393h18.68v-.74h4.69v-3l-24,.26v-2.65h15.54v-8.65h-11.6l-4.13.66-4,7.91H633.7l-11.64-22.22s-6.12-1.38-6.51-4.84Z"/><path class="cls-33" d="M562,338.5l1.42,40.67,40.4-1.44-.67-17.88,12.37-.07s-6.14-5.26-4.71-23Z"/><polygon class="cls-34" points="441.33 341.48 442.04 381.71 503.17 380.49 503.25 400.29 523.84 399.89 521.87 319.7 501.73 319.81 501.99 339.69 441.33 341.48"/><path class="cls-35" d="M521.87,319.7l2,80.19,40.31-.91L562,338.5l-16.95.63-2.6-8.47-5.27-5.1s-1.43-1.76-3.73,0a2.27,2.27,0,0,1-3.59-.58l-2.25-5.6a1.74,1.74,0,0,0-1.83-.23,20.49,20.49,0,0,1-4,.57"/><polygon class="cls-36" points="299.71 344.96 441.33 341.48 442.04 381.71 300.47 385.36 299.71 344.96"/><polygon class="cls-37" points="277.98 284.95 235.43 285.91 236.95 346.64 280.14 345.39 277.98 284.95"/><polyline class="cls-38" points="400.93 342.48 280.14 345.39 277.98 284.95 318.26 284.05 399 282.19"/><polygon class="cls-39" points="399.35 282.16 500.04 280.15 501.73 319.81 501.99 339.69 401.14 342.67 399.35 282.16"/><path class="cls-40" d="M598.52,276.43l-.46,12.49,2.2,5a2.19,2.19,0,0,1-.13,2.82c-1.19,1.64-.94,4.4-.94,4.4s4.48,18.74,7.25,22.15a62.66,62.66,0,0,0,7.74,7.37s1.92,1.94.57,3.33a19.38,19.38,0,0,1-3.9,2.73l-65.76,2.38-2.6-8.47-5.27-5.09a2.75,2.75,0,0,0-3.73,0,2.32,2.32,0,0,1-3.45-.26l-2.39-5.92a1.83,1.83,0,0,0-1.83-.23,16.5,16.5,0,0,1-3.21.58l-20.88.1L500,280.15l86.15-2.29,3.89-.93s8.11-.08,8.44-.5"/><path class="cls-41" d="M499,240,500,280.15l86.15-2.29,3.89-.93h7.09a2,2,0,0,0,1.26-.37c.24-.25.27-.68-.25-1.4a57.85,57.85,0,0,1-3.55-6.59l-.17-3.29-2.1-4-.68-7.69s1.4-2,.63-3.18-11.71-19.84-11.71-19.84l-16,7.3Z"/><path class="cls-42" d="M497.88,199.65,499,240l65.61-2.11,16-7.3s-5.54-10.12-5.9-28.59a11.57,11.57,0,0,1-1-3.84Z"/><polygon class="cls-43" points="396.94 201.84 497.88 199.65 500.05 280.15 399.35 282.16 396.94 201.84"/><polygon class="cls-44" points="315.92 203.59 396.94 201.84 399.35 282.16 318.26 284.05 315.92 203.59"/><path class="cls-45" d="M130,208.12s40.52-1,42.05-.66l8.36,0,2.29,9.46v10.6l50.34-2.28v-2.29l27.11-17.82,14.81-.6,40.93-.9,2.34,80.46-82.83,1.86,0-4.11,5.44-7.83s2.17-3.25-.06-4.62-6.15-1.56-6.15-1.56v-1.54l-87.83,2.49S142.23,266,141,259.1l-5.25-19.82s-1.18-2.94-.77-3.94,1.77-4.58,1.77-4.58a1.26,1.26,0,0,1,1.35-.94c1.17,0,13.67-.76,13.67-.76V218.21l-23.3.47s-2.13-3.68-1.52-5,2-5.19,3.09-5.55"/><path class="cls-46" d="M495.63,139.29l58.94-1.7a.54.54,0,0,1,.56.5l.75,8.84a.43.43,0,0,0,0,.11c.22.69,2.55,7.75,8.26,7.81h.64l.1,12.54a.27.27,0,0,0,0,.13c.34,1.28,6,20.66,28.88,20.94a.55.55,0,0,1,.49.3l2,4.2a.38.38,0,0,0,.09.13c.27.29,1.5,1.71-.08,2.84s-8.43,5.64-10.81,8.29a.47.47,0,0,1-.29.16c-.79.13-4,.61-6,0-2.3-.73-2.49-2.28-2.49-2.28s-.38-2.39,1.66-.92A6.33,6.33,0,0,0,583,202a.61.61,0,0,0,.2-.09l4.31-3.06s.51-3.15-2.24-3.47a29.24,29.24,0,0,0-6.66.37,23.88,23.88,0,0,0-5,2.46l-75.81,1.47Z"/><polygon class="cls-47" points="394.95 141.42 495.63 139.29 495.54 146.13 496.23 147.09 497.88 199.65 396.94 201.84 394.95 141.42"/><path class="cls-48" d="M273.16,142.19l72.7-1.19,2.22,2.81s2.42-2.31,3.66-2.34a5,5,0,0,1,1.85.77l41.36-.82,2,60.42L275,204.49v-8.38h.93V185l-.7-2.67h-2.64l-.09-1.53V152.46h.67Z"/><path class="cls-49" d="M273.16,142.19v10.27h-.67v28.35l-28.93.43-3,1.85h-7.27V165.31h-1.91V166l-18.42.47-.05,10.3h-3.72l-.11-7.11s-1-.27-1.06-.64v-2.28l-15.17.54v3.05H182.75v-2.37h-3.13s-.77.17-.77-.8,0-3.41,0-3.41h-6.34v1.89h-9.91V168h6.9v6.75h3.13V178h-6.22v.72h-3.93v-6l-10.23.84v14.85l19.62-.68.17,19.72-12.5,0-29.55.62s4.65-10.69,5.11-18.16l.13-5.1a3.88,3.88,0,0,1-.71-2.38c.21-1,2-5.85,2-5.85s.92-4.21-4.59-5a12.55,12.55,0,0,1-5,2.93c-3.09.92-6.68-5.39-6.68-5.39a8.37,8.37,0,0,1,2-7.14c3-3.59,10.84-13.77,10.84-13.77L209,146.5l7.94-.2a8.62,8.62,0,0,0,3.61-3.33Z"/><path class="cls-50" d="M265.82,91.53l1.51,2.3,6,8.94-.17,39.42-52.65.78s-1.63,3-3.94,3.37-20.61.49-20.61.49v1.44l-14,.29V147.3h-8.53l-40.3.95,0-5.2s-2.11-2.79-2.19-4.43,2.55-8.63,2.55-8.63v-3.52s14.37,1.09,21.26,2.81,44.84,8.87,44.84,8.87l3.86-32.64L203.52,64l3.15,0V62.55h-1.16V52.47h-2.32V44.58L233.8,43v50.2h2.39V90.67h9l.52,1.62h2.95l.05,3.34s4.22-.46,4.39-1V91.52Z"/><path class="cls-51" d="M395,141.42l-.14-19.85,4.27,0-.1-4.88-4.5,2.69-.28-17.9-49.26.58L325.48,89.89l0-3.29a2,2,0,0,1,.91-.77l0-14.11-12.06,0v11.2s-7.16-4.22-11.63-21l-7.64-.08,0-9.48-4.63-.12-.44,9.54-19.28-.06,13.36,20.5L267.33,93.83l6,8.94-.17,39.42,72.7-1.19,2.22,2.81s2.92-2.46,3.66-2.34a7.35,7.35,0,0,1,1.85.77Z"/><polygon class="cls-52" points="494.69 99.21 495.63 139.29 394.95 141.42 394.81 121.58 399.08 121.58 398.97 116.7 394.47 119.42 394.14 101.51 494.69 99.21"/><path class="cls-53" d="M547.28,98l-52.66,1.44,1,39.87,59.09-1.64a1.78,1.78,0,0,0,1.43-.86,22.28,22.28,0,0,0,1.27-3.17s-.28-.76-1.3-.43-7.93-7.58-7.93-7.58l-.07-13.24Z"/><path class="cls-54" d="M434.74,41l59.35-1.48.08,29.28-2.46.13a.75.75,0,0,0-.51,1c.25.64,3.16,8,3.16,8l.33,21.34-60.31,1.59Z"/><path class="cls-55" d="M500.64,29.36h23.69s2,4.43,3.06,5.35.46,6.11.46,6.11,3.82,21.09,17.57,33.63c0,0-.22.62-3.94,1l0,3.4s1.82,1.88.21,3.22c0,0,2.95,11,5.63,15.66l-52.66,1.43-.33-21.34-3.2-8.08s-.23-.86.93-.93,2.08-.06,2.08-.06l-.08-29.28,12.3.1.83-.32-7.13-9.54s-.19-.25.55-.4"/><polygon class="cls-2" points="628.8 417.95 628.68 425.98 593.16 425.84 593.13 417.95 628.8 417.95"/><path class="cls-56" d="M627.17,1033.84l4.28-.1-4.89,20.72s-.5,1.42-.26,1.77,5.44,1.38,5.44,1.38v16.26l67.74-1.13-.12-30.57L690.1,1029l-21.29,3.77-37.36.94"/><polygon class="cls-57" points="628.63 418.25 628.52 426.27 593 426.13 592.97 418.24 628.63 418.25"/><path class="cls-58" d="M699.36,1042.17l.12,30.57,123.59-1,0-80L701,992.88l-33.09-1.53s-2.44-.17-1.46,1.24S690.1,1029,690.1,1029Z"/><path class="cls-59" d="M694.58,777.74,701,992.88l65.8-1.39,56.34.3L822.79,894l-6.54-3.68s-1.52-.93-.35-2a21.15,21.15,0,0,0,2.34-2.62s.52-.47-.3-1.7-3.85-6.37-3.85-6.37a2,2,0,0,1,.35-2.33c1-.88,5.67-4.44,5.67-4.44l2.74-.06-.14-1.45L820,866.63v-4.37l2.67-3.67-.73-26.3-9.43-2.12L808.8,786.1l-20.21-10.35-6.08-.13Z"/><path class="cls-60" d="M576.87,861.61l4,140.4.56,35.08s11.19,2.91,17.68.81,12.48-9.25,12.48-9.25,8.11-9.24,15.57,0v5.19l41.64-1L690.1,1029l-23.67-36.44s-1.09-1.24,1.46-1.24S701,992.88,701,992.88l-4.05-134.44Z"/><polygon class="cls-61" points="500.69 984.22 496.94 883.45 476.68 883.97 476.73 901.78 456.68 902.09 456.68 904.42 436.53 905.08 436.53 890.41 433.28 890.41 433.28 885 415.82 885.11 417.83 945.46 377.7 947.53 378.67 967.52 435.97 966.04 436.34 976.41 449.52 976.19 449.52 965.45 459.01 965.28 459.08 960.22 461.34 960.18 461.41 955.45 468.33 955.48 469.11 965.12 489.29 964.64 489.77 981.02 489.04 984.47 500.69 984.22"/><path class="cls-62" d="M494.7,823.41l6,160.81,25.25-.31v3.64s3.16.57,3.39-3.79l10.22-.06v20.06l41.33-1.75-4-140.4-41,.84a78.85,78.85,0,0,0-20.59-39.31Z"/><path class="cls-63" d="M692.66,697.17l1.92,80.57,87.93-2.12s-2.09-4-2.09-5.33,3-4.55,3-4.55l5-4.17-7.3-8.65-4.77,3.84a7.29,7.29,0,0,1-6.86-.07c-4-1.9-17.71-12.64-17.71-12.64l-5.45-5.84s-.53-.76,2.45-2.34l-.11-5s-4.37,0-7.24-5.09l-.87-4.33L723.64,702a2,2,0,0,1-.42-1.12c-.11-.79,0-3.73,0-3.73l-10.17.06s-6,3.15-7.23,2.62-8.22-2.42-8.22-2.42Z"/><polygon class="cls-64" points="613.63 739.76 614.19 760.18 617.23 860.89 696.93 858.44 693.61 737.23 613.63 739.76"/><path class="cls-65" d="M493.5,763.19l1.2,60.22,20.53-.27s15.92,20,20.6,39.31l81.4-1.56-3-100.7s-59.27,1.07-60.32,1.71Z"/><path class="cls-66" d="M373,766.17l1.66,60.27,120.08-3-1.19-60.22-7.7,1.17a6.46,6.46,0,0,1-3.12-.64l-63,.14-7.91,1.3Z"/><path class="cls-67" d="M611.5,660.13l2.13,79.63,80-2.53-1-40.06,5,.22s6.78,1.74,8.22,2.42,7.23-2.62,7.23-2.62l10.17-.06s3.13-1.34-.22-2.73-9-6.32-9-6.32-3.63-7.82-2.8-11.73c0,0,1.5-1.1.59-2.13s-5-8.77-5-8.77.92-7.13,3.36-8.45l-22.76.33s-2.4,1.54-7.15.1l-30.77,1.05s-5.56,8.62-15.75.84Z"/><path class="cls-68" d="M610.48,619.23l1,40.9,22.23-.81s8.93,8.61,15.76-.84l30.76-1.05s4.52,1.68,7.15-.1L714,657a1.17,1.17,0,0,0,.9-.45c.69-.89,1.85-2.94-.65-4.12h-4.35L706,647.74l-1.55-4.67,0-10s-14-11.88-13.77-20.68l-8.87,4.9Z"/><polygon class="cls-64" points="551.63 661.37 553.87 761.9 578.9 760.93 614.19 760.18 611.5 660.13 551.63 661.37"/><polygon class="cls-65" points="490.44 662.63 493.5 763.19 553.87 761.9 551.63 661.37 490.44 662.63"/><path class="cls-69" d="M371.52,665.44l0,14.61L369.93,684l.91,32.07L373,766.17l38.83-1,7.91-1.3,63-.14a4,4,0,0,0,3.12.64c2.15-.25,7.69-1.17,7.69-1.17l-3.06-100.56Z"/><path class="cls-70" d="M609,559l1.51,60.23,71.37-1.91,8.87-4.9s-5.81-3.69-6.41-6.58a22.11,22.11,0,0,0-.72-3.1l-3.31-4.28V594s-10.66-8-11-14.52-.42-7.43-.42-7.43L658,558Z"/><polygon class="cls-71" points="487.98 562.02 490.44 662.63 611.5 660.13 608.97 559 568.03 559.87 487.98 562.02"/><polygon class="cls-72" points="365.38 585.49 377.54 585.41 377.61 590.26 367.64 595.3 369.41 661.36 371.52 665.44 371.55 680.05 369.93 683.98 370.84 716.05 249.25 720.03 247.71 652.81 257.25 648.75 348.39 645.81 347.7 610.27 364.19 602.96 364.51 585.46 365.38 585.49"/><path class="cls-73" d="M377.06,555.21l.55,35-10,5,1.77,66.06,2.11,4.08,118.92-2.81L488,562l-75.53,2.55-.13,9.49-3.64,1.42a2.13,2.13,0,0,1-1,0l-1.12-2V556.75l-1-2.3Z"/><path class="cls-74" d="M566.64,479.49,568,559.87,658,558l.12-2.91-4.22-3.19s-.69-.66-.24-2.62-2.62-6.39-2.62-6.39l-.08-6-4-6.53,0-3.1a1.86,1.86,0,0,0-.21-.77l-2.26-4.08a2.57,2.57,0,0,1,.39-2.06,12.55,12.55,0,0,1,1.41-1.56s.82-2.09-.19-3.53a13.65,13.65,0,0,0-2.23-2.44,1.8,1.8,0,0,1-.53-1.13c0-.67,0-9.59,0-9.59l-3.15-5.2.05-4.44s-6.3-2.84-2.44-9.4l0-5.94-2.49.89-41.67.57Z"/><polygon class="cls-75" points="464.89 462.32 467.77 562.61 568.03 559.87 566.64 479.49 566.56 459.89 464.89 462.32"/><path class="cls-76" d="M373.84,464.3l91.05-2,2.88,100.28-55.32,2-.13,9.49-3.64,1.42s-.71.19-1,0l-1.12-2V556.75l-1-2.3-28.53.76Z"/><path class="cls-77" d="M628.55,433l.54,1,.32,19.59s.71,2.06,3.87,2.13,3.43.26,3.43.26.48,0,.43.93,0,3.11,0,3.11h8.59s2.13-1.3,3.07-1.15a5.62,5.62,0,0,1,1.76.64s1.52,1.73.55,3a27.05,27.05,0,0,1-3.84,3.4l-.09,3.52,3.11,3.85v4.51l-1.94,1.94,1.24,17.95h-5.81a2.72,2.72,0,0,1-.8-1.55c0-.78,0-6.09,0-6.09a3.88,3.88,0,0,0-.14-3.69l-.44-4.37a8.47,8.47,0,0,1-1-5l1.63-4.85,0-4.86-1.92-4.43-4.15,0-1.58,5.73a5.61,5.61,0,0,0-.05,3.29c.57,1.43,2.51,5.4,2.51,5.4l-2.49.89-41.67.57L593,432.71Z"/><polygon class="cls-78" points="628.66 418.23 628.55 432.95 593.03 432.71 593 418.21 628.66 418.23"/><path class="cls-79" d="M593,403.51l10.86-.07,5.73-3.32s1.95-1.93,6.7-.39,13.88,1.12,13.88,1.12H642l0,11.1-5.55,0a4.88,4.88,0,0,1-3.15,5.14l-4.67,1.12-35.66,0Z"/><polygon class="cls-80" points="580.23 399.25 585.72 399.26 588.61 403.52 592.99 403.51 593.03 432.71 580.85 433 580.23 399.25"/><polygon class="cls-81" points="564.08 399.21 580.23 399.25 580.85 433 564.76 433.38 564.08 399.21"/><polygon class="cls-82" points="523.77 400.12 525.69 460.91 566.56 459.89 566.64 479.49 593.65 478.6 593.03 432.71 564.76 433.38 564.08 399.21 523.77 400.12"/><polygon class="cls-83" points="441.98 381.94 503.1 380.72 503.18 400.52 523.77 400.12 525.69 460.91 444.81 462.73 441.98 381.94"/><polygon class="cls-84" points="370.46 383.76 371.7 404.25 372.99 404.3 373.74 424.33 372.65 424.33 373.84 464.3 444.81 462.73 441.98 381.94 370.46 383.76"/><polygon class="cls-84" points="300.4 385.59 370.46 383.76 371.7 404.25 372.99 404.3 373.74 424.33 372.65 424.33 373.84 464.3 302.74 465.87 300.4 385.59"/><polygon class="cls-85" points="603.8 377.96 603.85 403.44 588.61 403.52 585.72 399.26 564.08 399.21 563.39 379.4 603.8 377.96"/><path class="cls-86" d="M603.13,360.08,603.8,378l.05,25.48,5.73-3.32s2.12-1.9,6.7-.39,13.88,1.12,13.88,1.12h17v-3.51h-4.76v-4.11h18.68v-.73h4.69v-3l-24,.26v-2.66h15.54V378.5H645.7l-4.12.66-4,7.91h-3.94L622,364.85s-6.12-1.38-6.5-4.84Z"/><path class="cls-87" d="M562,338.73l1.42,40.67L603.8,378l-.67-17.88,12.36-.07s-6.13-5.27-4.71-23Z"/><polygon class="cls-88" points="441.26 341.71 441.98 381.94 503.1 380.72 503.18 400.52 523.77 400.12 521.8 319.93 501.67 320.04 501.92 339.93 441.26 341.71"/><path class="cls-89" d="M521.8,319.93l2,80.19,40.31-.91L562,338.73l-17,.63-2.6-8.47-5.27-5.1s-1.43-1.76-3.73,0a2.27,2.27,0,0,1-3.59-.58l-2.24-5.6a1.76,1.76,0,0,0-1.84-.23,20.49,20.49,0,0,1-4,.57"/><polygon class="cls-90" points="299.64 345.19 441.26 341.71 441.98 381.94 300.41 385.59 299.64 345.19"/><polygon class="cls-91" points="277.91 285.18 235.36 286.14 236.88 346.87 280.08 345.62 277.91 285.18"/><polyline class="cls-92" points="400.86 342.71 280.08 345.62 277.91 285.18 318.2 284.28 398.93 282.42"/><polygon class="cls-93" points="399.28 282.39 499.98 280.38 501.67 320.04 501.92 339.92 401.07 342.89 399.28 282.39"/><path class="cls-94" d="M598.46,276.66,598,289.15l2.2,5a2.2,2.2,0,0,1-.12,2.82c-1.2,1.63-1,4.4-1,4.4s4.49,18.74,7.25,22.14a62.24,62.24,0,0,0,7.74,7.38s1.92,1.94.57,3.33a19.38,19.38,0,0,1-3.9,2.73L545,339.36l-2.6-8.47-5.27-5.1a2.76,2.76,0,0,0-3.73,0,2.31,2.31,0,0,1-3.45-.26l-2.38-5.91a1.86,1.86,0,0,0-1.84-.23,17.22,17.22,0,0,1-3.21.58l-20.87.09L500,280.38l86.15-2.29,3.88-.93s8.11-.08,8.45-.5"/><path class="cls-95" d="M498.91,240.25,500,280.38l86.15-2.29,3.88-.93h7.09a2,2,0,0,0,1.26-.37c.24-.25.28-.68-.25-1.4a57.27,57.27,0,0,1-3.54-6.59l-.17-3.29-2.11-4-.68-7.68s1.41-2,.63-3.18-11.71-19.84-11.71-19.84l-16,7.3Z"/><path class="cls-96" d="M497.82,199.88l1.09,40.37,65.61-2.11,16-7.3s-5.54-10.12-5.89-28.59a11.32,11.32,0,0,1-1-3.84Z"/><polygon class="cls-97" points="396.87 202.07 497.82 199.88 499.98 280.38 399.28 282.39 396.87 202.07"/><polygon class="cls-98" points="315.85 203.82 396.87 202.07 399.28 282.39 318.2 284.27 315.85 203.82"/><path class="cls-99" d="M130,208.35s40.52-1,42-.66l8.36,0,2.29,9.46v10.6L233,225.43v-2.29l27.12-17.82,14.8-.6,40.93-.9,2.35,80.46-82.84,1.86,0-4.11,5.45-7.83s2.16-3.25-.06-4.62-6.16-1.56-6.16-1.56v-1.54L146.74,269s-4.57-2.74-5.82-9.64l-5.25-19.82s-1.17-2.94-.76-3.94,1.76-4.58,1.76-4.58a1.26,1.26,0,0,1,1.35-.94c1.17,0,13.68-.76,13.68-.76V218.44l-23.31.47s-2.13-3.68-1.51-5,2-5.19,3.09-5.55"/><path class="cls-100" d="M495.56,139.52l58.94-1.7a.54.54,0,0,1,.56.5l.75,8.84s0,.07,0,.11c.22.69,2.55,7.75,8.26,7.8l.64,0,.1,12.54a.51.51,0,0,0,0,.13c.35,1.28,6,20.66,28.88,20.94a.55.55,0,0,1,.49.3l2,4.2a.6.6,0,0,0,.09.13,1.77,1.77,0,0,1-.07,2.84c-1.74,1.24-8.44,5.64-10.82,8.29a.47.47,0,0,1-.29.16c-.78.13-4,.61-6,0-2.3-.73-2.49-2.28-2.49-2.28s-.38-2.39,1.66-.92a6.35,6.35,0,0,0,4.72.81.88.88,0,0,0,.2-.09l4.3-3.07s.51-3.14-2.23-3.46a29.29,29.29,0,0,0-6.67.37,23.92,23.92,0,0,0-5,2.46l-75.81,1.47Z"/><polygon class="cls-101" points="394.88 141.65 495.56 139.52 495.48 146.36 496.17 147.31 497.82 199.88 396.87 202.07 394.88 141.65"/><path class="cls-102" d="M273.1,142.42l72.69-1.19L348,144s2.41-2.31,3.65-2.34a4.91,4.91,0,0,1,1.85.77l41.36-.82,2,60.42-121.95,2.65v-8.38h.93v-11.1l-.69-2.67h-2.64l-.09-1.53V152.69h.67Z"/><path class="cls-103" d="M273.1,142.42v10.27h-.67V181l-28.94.43-3,1.85h-7.28V165.54h-1.91v.64l-18.42.47-.05,10.3h-3.72l-.1-7.11s-1-.27-1.06-.64v-2.28l-15.18.54v3H182.68v-2.37h-3.13s-.76.16-.76-.8,0-3.41,0-3.41h-6.34v1.89h-9.91v2.4h6.9V175h3.13v3.29h-6.22V179h-3.94v-6l-10.23.84v14.85l19.62-.68.17,19.72-12.49,0-29.55.62s4.64-10.69,5.1-18.16l.13-5.1a3.9,3.9,0,0,1-.71-2.38c.21-1,2-5.85,2-5.85s.92-4.21-4.59-5a12.46,12.46,0,0,1-5,2.93c-3.09.91-6.68-5.39-6.68-5.39a8.35,8.35,0,0,1,2-7.14c3-3.59,10.85-13.77,10.85-13.77l75.83-1.75,7.94-.2a8.67,8.67,0,0,0,3.62-3.33Z"/><path class="cls-104" d="M265.75,91.76l1.52,2.3,6,8.94-.16,39.42-52.65.78s-1.64,3-3.95,3.37-20.61.49-20.61.49l0,1.44-14,.29v-1.26h-8.53l-40.3.95,0-5.2s-2.12-2.79-2.2-4.43,2.56-8.63,2.56-8.63V126.7s14.36,1.09,21.26,2.81,44.83,8.87,44.83,8.87l3.86-32.64.12-41.48,3.16,0V62.78h-1.16V52.7h-2.33V44.81l30.61-1.63v50.2h2.39V90.9h9l.53,1.62h2.94l.06,3.34s4.21-.46,4.38-1V91.75Z"/><path class="cls-105" d="M394.88,141.65l-.14-19.85H399l-.09-4.88-4.51,2.7-.27-17.9-49.27.58-19.46-12.2.06-3.28a2,2,0,0,1,.9-.77l0-14.11-12.06,0v11.2s-7.17-4.22-11.63-21L295.06,62l0-9.48-4.62-.12L290,61.93l-19.28-.06,13.37,20.5L267.27,94.06l6,8.94-.16,39.42,72.69-1.19L348,144s2.91-2.46,3.65-2.34a7.35,7.35,0,0,1,1.85.77Z"/><polygon class="cls-106" points="494.63 99.44 495.56 139.52 394.88 141.65 394.74 121.81 399.01 121.81 398.9 116.93 394.4 119.64 394.07 101.74 494.63 99.44"/><path class="cls-107" d="M547.21,98.21l-52.66,1.44,1,39.87,59.09-1.65a1.79,1.79,0,0,0,1.43-.85,21.1,21.1,0,0,0,1.27-3.17s-.28-.76-1.29-.43-7.93-7.59-7.93-7.59l-.08-13.23Z"/><path class="cls-108" d="M434.68,41.23,494,39.75,494.11,69l-2.46.13a.74.74,0,0,0-.51,1c.24.64,3.16,7.95,3.16,7.95l.33,21.34L434.31,101Z"/><path class="cls-109" d="M500.58,29.59h23.69s2,4.43,3.05,5.35.46,6.11.46,6.11,3.82,21.09,17.58,33.62c0,0-.23.63-4,1.06l0,3.4s1.83,1.88.22,3.22c0,0,3,11,5.63,15.66l-52.66,1.43L494.3,78.1,491.09,70s-.23-.86.93-.93,2.09-.06,2.09-.06L494,39.75l12.3.09.84-.31L500,30s-.18-.26.56-.4"/><polygon class="cls-110" points="628.73 418.19 628.61 426.2 593.1 426.07 593.07 418.18 628.73 418.19"/></g></g></svg>