<svg xmlns="http://www.w3.org/2000/svg" viewBox="0 0 890.78 1125"><defs><style>.cls-1{fill:none;}.cls-1,.cls-10,.cls-11,.cls-12,.cls-13,.cls-14,.cls-15,.cls-16,.cls-17,.cls-18,.cls-19,.cls-2,.cls-20,.cls-21,.cls-22,.cls-23,.cls-24,.cls-25,.cls-26,.cls-27,.cls-28,.cls-29,.cls-30,.cls-31,.cls-32,.cls-33,.cls-34,.cls-35,.cls-36,.cls-37,.cls-38,.cls-39,.cls-4,.cls-40,.cls-41,.cls-42,.cls-43,.cls-44,.cls-45,.cls-46,.cls-47,.cls-48,.cls-5,.cls-6,.cls-7,.cls-8,.cls-9{stroke:#000;stroke-miterlimit:10;}.cls-2,.cls-3{fill:#fff;}.cls-10,.cls-11,.cls-12,.cls-13,.cls-14,.cls-15,.cls-16,.cls-17,.cls-18,.cls-19,.cls-20,.cls-21,.cls-22,.cls-23,.cls-24,.cls-25,.cls-26,.cls-27,.cls-28,.cls-29,.cls-30,.cls-31,.cls-32,.cls-33,.cls-34,.cls-35,.cls-36,.cls-37,.cls-38,.cls-39,.cls-4,.cls-40,.cls-41,.cls-42,.cls-43,.cls-44,.cls-45,.cls-46,.cls-47,.cls-6,.cls-7,.cls-8{fill:#941a64;}.cls-4{opacity:0;}.cls-5,.cls-9{fill:#561a94;}.cls-25,.cls-5{opacity:0;}.cls-6{opacity:0;}.cls-7{opacity:0;}.cls-8{opacity:0.01;}.cls-9{opacity:0.01;}.cls-10{opacity:0.01;}.cls-11{opacity:0.04;}.cls-12{opacity:0.08;}.cls-13{opacity:0.01;}.cls-14{opacity:0.04;}.cls-15{opacity:0.06;}.cls-16{opacity:0.01;}.cls-17{opacity:0.05;}.cls-18{opacity:0.02;}.cls-19{opacity:0.11;}.cls-20{opacity:0.19;}.cls-21{opacity:0.32;}.cls-22{opacity:0.16;}.cls-23{opacity:0.3;}.cls-24{opacity:0.21;}.cls-26{opacity:0.12;}.cls-27{opacity:0.17;}.cls-28{opacity:0.07;}.cls-29{opacity:0.04;}.cls-30{opacity:0.05;}.cls-31{opacity:0.03;}.cls-32{opacity:0.01;}.cls-33{opacity:0.03;}.cls-34{opacity:0.06;}.cls-35{opacity:0.07;}.cls-36{opacity:0.06;}.cls-37{opacity:0.04;}.cls-38{opacity:0.05;}.cls-39{opacity:0.11;}.cls-40{opacity:0.14;}.cls-41{opacity:0.12;}.cls-42{opacity:0.07;}.cls-43{opacity:0.03;}.cls-44{opacity:0.1;}.cls-45{opacity:0.28;}.cls-46{opacity:0.12;}.cls-47{opacity:0.17;}.cls-48{fill:#aaa;}</style></defs><g id="White_Pop" data-name="White Pop"><g id="Outlines"><polygon class="cls-1" points="628.63 418.25 628.52 426.27 593 426.13 592.97 418.24 628.63 418.25"/><path class="cls-1" d="M699.36,1042.17l.12,30.57,123.59-1,0-80L701,992.88l-33.09-1.53s-2.44-.17-1.46,1.24S690.1,1029,690.1,1029Z"/><path class="cls-1" d="M627.17,1033.84l4.28-.1-4.89,20.72s-.5,1.42-.26,1.77,5.44,1.38,5.44,1.38v16.26l67.74-1.13-.12-30.57L690.1,1029l-21.29,3.77-37.36.94"/><path class="cls-1" d="M694.58,777.74,701,992.88l65.8-1.39,56.34.3L822.79,894l-6.54-3.68s-1.52-.93-.35-2a21.15,21.15,0,0,0,2.34-2.62s.52-.47-.3-1.7-3.85-6.37-3.85-6.37a2,2,0,0,1,.35-2.33c1-.88,5.67-4.44,5.67-4.44l2.74-.06-.14-1.45L820,866.63v-4.37l2.67-3.67-.73-26.3-9.43-2.12L808.8,786.1l-20.21-10.35-6.08-.13Z"/><path class="cls-1" d="M576.87,861.61l4,140.4.56,35.08s11.19,2.91,17.68.81,12.48-9.25,12.48-9.25,8.11-9.24,15.57,0v5.19l41.64-1L690.1,1029l-23.67-36.44s-1.09-1.24,1.46-1.24S701,992.88,701,992.88l-4.05-134.44Z"/><polygon class="cls-1" points="500.69 984.22 496.94 883.45 476.68 883.97 476.73 901.78 456.68 902.09 456.68 904.42 436.53 905.08 436.53 890.41 433.28 890.41 433.28 885 415.82 885.11 417.83 945.46 377.7 947.53 378.67 967.52 435.97 966.04 436.34 976.41 449.52 976.19 449.52 965.45 459.01 965.28 459.08 960.22 461.34 960.18 461.41 955.45 468.33 955.48 469.11 965.12 489.29 964.64 489.77 981.02 489.04 984.47 500.69 984.22"/><path class="cls-1" d="M494.7,823.41l6,160.81,25.25-.31v3.64s3.16.57,3.39-3.79l10.22-.06v20.06l41.33-1.75-4-140.4-41,.84a78.85,78.85,0,0,0-20.59-39.31Z"/><path class="cls-1" d="M692.66,697.17l1.92,80.57,87.93-2.12s-2.09-4-2.09-5.33,3-4.55,3-4.55l5-4.17-7.3-8.65-4.77,3.84a7.29,7.29,0,0,1-6.86-.07c-4-1.9-17.71-12.64-17.71-12.64l-5.45-5.84s-.53-.76,2.45-2.34l-.11-5s-4.37,0-7.24-5.09l-.87-4.33L723.64,702a2,2,0,0,1-.42-1.12c-.11-.79,0-3.73,0-3.73l-10.17.06s-6,3.15-7.23,2.62-8.22-2.42-8.22-2.42Z"/><polygon class="cls-1" points="613.63 739.76 614.19 760.18 617.23 860.89 696.93 858.44 693.61 737.23 613.63 739.76"/><path class="cls-1" d="M493.5,763.19l1.2,60.22,20.53-.27s15.92,20,20.6,39.31l81.4-1.56-3-100.7s-59.27,1.07-60.32,1.71Z"/><path class="cls-1" d="M373,766.17l1.66,60.27,120.08-3-1.19-60.22-7.7,1.17a6.46,6.46,0,0,1-3.12-.64l-63,.14-7.91,1.3Z"/><path class="cls-1" d="M611.5,660.13l2.13,79.63,80-2.53-1-40.06,5,.22s6.78,1.74,8.22,2.42,7.23-2.62,7.23-2.62l10.17-.06s3.13-1.34-.22-2.73-9-6.32-9-6.32-3.63-7.82-2.8-11.73c0,0,1.5-1.1.59-2.13s-5-8.77-5-8.77.92-7.13,3.36-8.45l-22.76.33s-2.4,1.54-7.15.1l-30.77,1.05s-5.56,8.62-15.75.84Z"/><path class="cls-1" d="M610.48,619.23l1,40.9,22.23-.81s8.93,8.61,15.76-.84l30.76-1.05s4.52,1.68,7.15-.1L714,657a1.17,1.17,0,0,0,.9-.45c.69-.89,1.85-2.94-.65-4.12h-4.35L706,647.74l-1.55-4.67,0-10s-14-11.88-13.77-20.68l-8.87,4.9Z"/><polygon class="cls-1" points="551.63 661.37 553.87 761.9 578.9 760.93 614.19 760.18 611.5 660.13 551.63 661.37"/><polygon class="cls-1" points="490.44 662.63 493.5 763.19 553.87 761.9 551.63 661.37 490.44 662.63"/><path class="cls-1" d="M371.52,665.44l0,14.61L369.93,684l.91,32.07L373,766.17l38.83-1,7.91-1.3,63-.14a4,4,0,0,0,3.12.64c2.15-.25,7.69-1.17,7.69-1.17l-3.06-100.56Z"/><path class="cls-1" d="M609,559l1.51,60.23,71.37-1.91,8.87-4.9s-5.81-3.69-6.41-6.58a22.11,22.11,0,0,0-.72-3.1l-3.31-4.28V594s-10.66-8-11-14.52-.42-7.43-.42-7.43L658,558Z"/><polygon class="cls-1" points="487.98 562.02 490.44 662.63 611.5 660.13 608.97 559 568.03 559.87 487.98 562.02"/><polygon class="cls-1" points="365.38 585.49 377.54 585.41 377.61 590.26 367.64 595.3 369.41 661.36 371.52 665.44 371.55 680.05 369.93 683.98 370.84 716.05 249.25 720.03 247.71 652.81 257.25 648.75 348.39 645.81 347.7 610.27 364.19 602.96 364.51 585.46 365.38 585.49"/><path class="cls-1" d="M377.06,555.21l.55,35-10,5,1.77,66.06,2.11,4.08,118.92-2.81L488,562l-75.53,2.55-.13,9.49-3.64,1.42a2.13,2.13,0,0,1-1,0l-1.12-2V556.75l-1-2.3Z"/><path class="cls-1" d="M566.64,479.49,568,559.87,658,558l.12-2.91-4.22-3.19s-.69-.66-.24-2.62-2.62-6.39-2.62-6.39l-.08-6-4-6.53,0-3.1a1.86,1.86,0,0,0-.21-.77l-2.26-4.08a2.57,2.57,0,0,1,.39-2.06,12.55,12.55,0,0,1,1.41-1.56s.82-2.09-.19-3.53a13.65,13.65,0,0,0-2.23-2.44,1.8,1.8,0,0,1-.53-1.13c0-.67,0-9.59,0-9.59l-3.15-5.2.05-4.44s-6.3-2.84-2.44-9.4l0-5.94-2.49.89-41.67.57Z"/><path class="cls-1" d="M373.84,464.3l91.05-2,2.88,100.28-55.32,2-.13,9.49-3.64,1.42s-.71.19-1,0l-1.12-2V556.75l-1-2.3-28.53.76Z"/><path class="cls-1" d="M628.55,433l.54,1,.32,19.59s.71,2.06,3.87,2.13,3.43.26,3.43.26.48,0,.43.93,0,3.11,0,3.11h8.59s2.13-1.3,3.07-1.15a5.62,5.62,0,0,1,1.76.64s1.52,1.73.55,3a27.05,27.05,0,0,1-3.84,3.4l-.09,3.52,3.11,3.85v4.51l-1.94,1.94,1.24,17.95h-5.81a2.72,2.72,0,0,1-.8-1.55c0-.78,0-6.09,0-6.09a3.88,3.88,0,0,0-.14-3.69l-.44-4.37a8.47,8.47,0,0,1-1-5l1.63-4.85,0-4.86-1.92-4.43-4.15,0-1.58,5.73a5.61,5.61,0,0,0-.05,3.29c.57,1.43,2.51,5.4,2.51,5.4l-2.49.89-41.67.57L593,432.71Z"/><polygon class="cls-1" points="628.66 418.23 628.55 432.95 593.03 432.71 593 418.21 628.66 418.23"/><path class="cls-1" d="M593,403.51l10.86-.07,5.73-3.32s1.95-1.93,6.7-.39,13.88,1.12,13.88,1.12H642l0,11.1-5.55,0a4.88,4.88,0,0,1-3.15,5.14l-4.67,1.12-35.66,0Z"/><polygon class="cls-1" points="580.23 399.25 585.72 399.26 588.61 403.52 592.99 403.51 593.03 432.71 580.85 433 580.23 399.25"/><polygon class="cls-1" points="564.08 399.21 580.23 399.25 580.85 433 564.76 433.38 564.08 399.21"/><polygon class="cls-1" points="523.77 400.12 525.69 460.91 566.56 459.89 566.64 479.49 593.65 478.6 593.03 432.71 564.76 433.38 564.08 399.21 523.77 400.12"/><polygon class="cls-1" points="441.98 381.94 503.1 380.72 503.18 400.52 523.77 400.12 525.69 460.91 444.81 462.73 441.98 381.94"/><polygon class="cls-1" points="370.46 383.76 371.7 404.25 372.99 404.3 373.74 424.33 372.65 424.33 373.84 464.3 444.81 462.73 441.98 381.94 370.46 383.76"/><polygon class="cls-1" points="300.4 385.59 370.46 383.76 371.7 404.25 372.99 404.3 373.74 424.33 372.65 424.33 373.84 464.3 302.74 465.87 300.4 385.59"/><polygon class="cls-1" points="603.8 377.96 603.85 403.44 588.61 403.52 585.72 399.26 564.08 399.21 563.39 379.4 603.8 377.96"/><path class="cls-1" d="M603.13,360.08,603.8,378l.05,25.48,5.73-3.32s2.12-1.9,6.7-.39,13.88,1.12,13.88,1.12h17v-3.51h-4.76v-4.11h18.68v-.73h4.69v-3l-24,.26v-2.66h15.54V378.5H645.7l-4.12.66-4,7.91h-3.94L622,364.85s-6.12-1.38-6.5-4.84Z"/><path class="cls-1" d="M562,338.73l1.42,40.67L603.8,378l-.67-17.88,12.36-.07s-6.13-5.27-4.71-23Z"/><path class="cls-1" d="M521.8,319.93l2,80.19,40.31-.91L562,338.73l-17,.63-2.6-8.47-5.27-5.1s-1.43-1.76-3.73,0a2.27,2.27,0,0,1-3.59-.58l-2.24-5.6a1.76,1.76,0,0,0-1.84-.23A20.49,20.49,0,0,1,521.8,319.93Z"/><polygon class="cls-1" points="441.26 341.71 441.98 381.94 503.1 380.72 503.18 400.52 523.77 400.12 521.8 319.93 501.67 320.04 501.92 339.93 441.26 341.71"/><polygon class="cls-1" points="299.64 345.19 441.26 341.71 441.98 381.94 300.41 385.59 299.64 345.19"/><polygon class="cls-1" points="277.91 285.18 235.36 286.14 236.88 346.87 280.08 345.62 277.91 285.18"/><polyline class="cls-1" points="400.86 342.71 280.08 345.62 277.91 285.18 318.2 284.28 398.93 282.42"/><polygon class="cls-1" points="399.28 282.39 499.98 280.38 501.67 320.04 501.92 339.92 401.07 342.89 399.28 282.39"/><path class="cls-1" d="M598.46,276.66,598,289.15l2.2,5a2.2,2.2,0,0,1-.12,2.82c-1.2,1.63-1,4.4-1,4.4s4.49,18.74,7.25,22.14a62.24,62.24,0,0,0,7.74,7.38s1.92,1.94.57,3.33a19.38,19.38,0,0,1-3.9,2.73L545,339.36l-2.6-8.47-5.27-5.1a2.76,2.76,0,0,0-3.73,0,2.31,2.31,0,0,1-3.45-.26l-2.38-5.91a1.86,1.86,0,0,0-1.84-.23,17.22,17.22,0,0,1-3.21.58l-20.87.09L500,280.38l86.15-2.29,3.88-.93S598.12,277.08,598.46,276.66Z"/><path class="cls-1" d="M498.91,240.25,500,280.38l86.15-2.29,3.88-.93h7.09a2,2,0,0,0,1.26-.37c.24-.25.28-.68-.25-1.4a57.27,57.27,0,0,1-3.54-6.59l-.17-3.29-2.11-4-.68-7.68s1.41-2,.63-3.18-11.71-19.84-11.71-19.84l-16,7.3Z"/><path class="cls-1" d="M497.82,199.88l1.09,40.37,65.61-2.11,16-7.3s-5.54-10.12-5.89-28.59a11.32,11.32,0,0,1-1-3.84Z"/><polygon class="cls-1" points="396.87 202.07 497.82 199.88 499.98 280.38 399.28 282.39 396.87 202.07"/><polygon class="cls-1" points="315.85 203.82 396.87 202.07 399.28 282.39 318.2 284.27 315.85 203.82"/><path class="cls-1" d="M130,208.35s40.52-1,42-.66l8.36,0,2.29,9.46v10.6L233,225.43v-2.29l27.12-17.82,14.8-.6,40.93-.9,2.35,80.46-82.84,1.86,0-4.11,5.45-7.83s2.16-3.25-.06-4.62-6.16-1.56-6.16-1.56v-1.54L146.74,269s-4.57-2.74-5.82-9.64l-5.25-19.82s-1.17-2.94-.76-3.94,1.76-4.58,1.76-4.58a1.26,1.26,0,0,1,1.35-.94c1.17,0,13.68-.76,13.68-.76V218.44l-23.31.47s-2.13-3.68-1.51-5S128.88,208.71,130,208.35Z"/><path class="cls-1" d="M495.56,139.52l58.94-1.7a.54.54,0,0,1,.56.5l.75,8.84s0,.07,0,.11c.22.69,2.55,7.75,8.26,7.8l.64,0,.1,12.54a.51.51,0,0,0,0,.13c.35,1.28,6,20.66,28.88,20.94a.55.55,0,0,1,.49.3l2,4.2a.6.6,0,0,0,.09.13,1.77,1.77,0,0,1-.07,2.84c-1.74,1.24-8.44,5.64-10.82,8.29a.47.47,0,0,1-.29.16c-.78.13-4,.61-6,0-2.3-.73-2.49-2.28-2.49-2.28s-.38-2.39,1.66-.92a6.35,6.35,0,0,0,4.72.81.88.88,0,0,0,.2-.09l4.3-3.07s.51-3.14-2.23-3.46a29.29,29.29,0,0,0-6.67.37,23.92,23.92,0,0,0-5,2.46l-75.81,1.47Z"/><polygon class="cls-1" points="394.88 141.65 495.56 139.52 495.48 146.36 496.17 147.31 497.82 199.88 396.87 202.07 394.88 141.65"/><path class="cls-1" d="M273.1,142.42l72.69-1.19L348,144s2.41-2.31,3.65-2.34a4.91,4.91,0,0,1,1.85.77l41.36-.82,2,60.42-121.95,2.65v-8.38h.93v-11.1l-.69-2.67h-2.64l-.09-1.53V152.69h.67Z"/><path class="cls-1" d="M273.1,142.42v10.27h-.67V181l-28.94.43-3,1.85h-7.28V165.54h-1.91v.64l-18.42.47-.05,10.3h-3.72l-.1-7.11s-1-.27-1.06-.64v-2.28l-15.18.54v3H182.68v-2.37h-3.13s-.76.16-.76-.8,0-3.41,0-3.41h-6.34v1.89h-9.91v2.4h6.9V175h3.13v3.29h-6.22V179h-3.94v-6l-10.23.84v14.85l19.62-.68.17,19.72-12.49,0-29.55.62s4.64-10.69,5.1-18.16l.13-5.1a3.9,3.9,0,0,1-.71-2.38c.21-1,2-5.85,2-5.85s.92-4.21-4.59-5a12.46,12.46,0,0,1-5,2.93c-3.09.91-6.68-5.39-6.68-5.39a8.35,8.35,0,0,1,2-7.14c3-3.59,10.85-13.77,10.85-13.77l75.83-1.75,7.94-.2a8.67,8.67,0,0,0,3.62-3.33Z"/><path class="cls-1" d="M265.75,91.76l1.52,2.3,6,8.94-.16,39.42-52.65.78s-1.64,3-3.95,3.37-20.61.49-20.61.49l0,1.44-14,.29v-1.26h-8.53l-40.3.95,0-5.2s-2.12-2.79-2.2-4.43,2.56-8.63,2.56-8.63V126.7s14.36,1.09,21.26,2.81,44.83,8.87,44.83,8.87l3.86-32.64.12-41.48,3.16,0V62.78h-1.16V52.7h-2.33V44.81l30.61-1.63v50.2h2.39V90.9h9l.53,1.62h2.94l.06,3.34s4.21-.46,4.38-1V91.75Z"/><path class="cls-1" d="M394.88,141.65l-.14-19.85H399l-.09-4.88-4.51,2.7-.27-17.9-49.27.58-19.46-12.2.06-3.28a2,2,0,0,1,.9-.77l0-14.11-12.06,0v11.2s-7.17-4.22-11.63-21L295.06,62l0-9.48-4.62-.12L290,61.93l-19.28-.06,13.37,20.5L267.27,94.06l6,8.94-.16,39.42,72.69-1.19L348,144s2.91-2.46,3.65-2.34a7.35,7.35,0,0,1,1.85.77Z"/><polygon class="cls-1" points="494.63 99.44 495.56 139.52 394.88 141.65 394.74 121.81 399.01 121.81 398.9 116.93 394.4 119.64 394.07 101.74 494.63 99.44"/><path class="cls-1" d="M547.21,98.21l-52.66,1.44,1,39.87,59.09-1.65a1.79,1.79,0,0,0,1.43-.85,21.1,21.1,0,0,0,1.27-3.17s-.28-.76-1.29-.43-7.93-7.59-7.93-7.59l-.08-13.23Z"/><path class="cls-1" d="M434.68,41.23,494,39.75,494.11,69l-2.46.13a.74.74,0,0,0-.51,1c.24.64,3.16,7.95,3.16,7.95l.33,21.34L434.31,101Z"/><path class="cls-1" d="M500.58,29.59h23.69s2,4.43,3.05,5.35.46,6.11.46,6.11,3.82,21.09,17.58,33.62c0,0-.23.63-4,1.06l0,3.4s1.83,1.88.22,3.22c0,0,3,11,5.63,15.66l-52.66,1.43L494.3,78.1,491.09,70s-.23-.86.93-.93,2.09-.06,2.09-.06L494,39.75l12.3.09.84-.31L500,30S499.84,29.73,500.58,29.59Z"/></g><g id="Zipcodes"><polygon class="cls-2" points="628.48 418.12 628.37 426.13 592.85 426 592.82 418.11 628.48 418.12"/><path class="cls-2" d="M699.21,1042l.12,30.56,123.6-1,.05-80-122.15,1.1-33.09-1.53s-2.44-.17-1.46,1.24S690,1028.89,690,1028.89Z"/><path class="cls-2" d="M627,1033.71l4.27-.1-4.89,20.71s-.5,1.42-.26,1.77,5.44,1.38,5.44,1.38v16.27l67.74-1.14-.12-30.56L690,1028.9l-21.29,3.76-37.36.95"/><path class="cls-2" d="M694.43,777.61l6.4,215.14,65.8-1.39,56.35.3-.34-97.84-6.54-3.68s-1.52-.94-.35-2a20.89,20.89,0,0,0,2.34-2.63s.52-.47-.29-1.69-3.86-6.37-3.86-6.37a2,2,0,0,1,.35-2.34c1.05-.87,5.67-4.44,5.67-4.44l2.74,0-.14-1.45-2.68-2.68v-4.37l2.67-3.67-.73-26.3L812.39,830,808.65,786l-20.21-10.34-6.08-.13Z"/><path class="cls-2" d="M576.72,861.47l4,140.4.56,35.08s11.19,2.92,17.68.81,12.49-9.24,12.49-9.24,8.11-9.25,15.57,0v5.19l41.63-1L690,1028.9l-23.67-36.44s-1.09-1.24,1.46-1.24,33.09,1.53,33.09,1.53L696.78,858.3Z"/><polygon class="cls-2" points="500.54 984.09 496.79 883.31 476.53 883.83 476.58 901.65 456.54 901.96 456.54 904.28 436.38 904.95 436.38 890.28 433.14 890.28 433.14 884.87 415.67 884.98 417.68 945.33 377.56 947.4 378.52 967.39 435.82 965.91 436.19 976.28 449.37 976.05 449.37 965.32 458.86 965.15 458.93 960.08 461.19 960.05 461.26 955.31 468.18 955.35 468.97 964.99 489.14 964.5 489.62 980.88 488.89 984.34 500.54 984.09"/><path class="cls-2" d="M494.55,823.28l6,160.81,25.25-.31v3.63s3.16.58,3.39-3.79l10.22,0v20l41.33-1.75-4-140.4-41,.85A78.85,78.85,0,0,0,515.09,823Z"/><path class="cls-2" d="M692.52,697l1.91,80.57,87.93-2.12s-2.08-4-2.08-5.33,3-4.55,3-4.55l5-4.17-7.3-8.65-4.77,3.84a7.31,7.31,0,0,1-6.86-.08c-4-1.9-17.71-12.63-17.71-12.63l-5.45-5.85s-.52-.75,2.46-2.33l-.12-5s-4.37,0-7.24-5.09l-.86-4.33-16.87-19.46a2.07,2.07,0,0,1-.42-1.11c-.1-.79,0-3.73,0-3.73l-10.17.06s-6,3.14-7.24,2.61-8.22-2.41-8.22-2.41Z"/><polygon class="cls-2" points="613.49 739.63 614.04 760.05 617.08 860.76 696.78 858.3 693.46 737.09 613.49 739.63"/><path class="cls-2" d="M493.36,763.05l1.19,60.23,20.54-.28s15.91,20,20.59,39.32l81.4-1.56-3-100.71s-59.26,1.07-60.32,1.72Z"/><path class="cls-2" d="M372.81,766l1.66,60.28,120.08-3-1.19-60.23-7.7,1.17a6.41,6.41,0,0,1-3.12-.63l-63,.14-7.91,1.3Z"/><path class="cls-2" d="M611.36,660l2.13,79.63,80-2.54L692.52,697l5,.22s6.79,1.74,8.22,2.41,7.24-2.61,7.24-2.61l10.17-.06s3.12-1.34-.23-2.74-9-6.31-9-6.31-3.63-7.82-2.79-11.73c0,0,1.49-1.11.58-2.13s-5-8.78-5-8.78.92-7.12,3.37-8.44l-22.77.32s-2.4,1.54-7.14.11l-30.77,1.05s-5.56,8.62-15.75.84Z"/><path class="cls-2" d="M610.33,619.1l1,40.9,22.22-.81s8.93,8.61,15.76-.84l30.76-1.05s4.52,1.68,7.15-.11l26.63-.38a1.11,1.11,0,0,0,.9-.44c.69-.89,1.85-2.94-.65-4.13h-4.35l-3.93-4.63-1.55-4.67,0-10s-14-11.88-13.77-20.68l-8.87,4.9Z"/><polygon class="cls-2" points="551.48 661.23 553.72 761.77 578.75 760.79 614.04 760.05 611.36 660 551.48 661.23"/><polygon class="cls-2" points="490.29 662.5 493.36 763.05 553.72 761.77 551.48 661.23 490.29 662.5"/><path class="cls-2" d="M371.37,665.3l0,14.62-1.62,3.93.91,32.07L372.81,766l38.83-1,7.91-1.3,63-.14a4,4,0,0,0,3.12.63c2.15-.24,7.7-1.17,7.7-1.17L490.29,662.5Z"/><path class="cls-2" d="M608.82,558.86l1.51,60.24,71.37-1.91,8.87-4.9s-5.81-3.7-6.41-6.58a22.11,22.11,0,0,0-.72-3.1l-3.31-4.29v-4.45s-10.65-8-11-14.52-.42-7.43-.42-7.43l-10.86-14Z"/><polygon class="cls-2" points="487.83 561.89 490.29 662.5 611.36 660 608.83 558.87 567.88 559.73 487.83 561.89"/><polygon class="cls-2" points="365.24 585.35 377.39 585.28 377.46 590.12 367.49 595.16 369.26 661.23 371.37 665.3 371.4 679.92 369.79 683.85 370.69 715.92 249.1 719.9 247.56 652.67 257.1 648.62 348.25 645.68 347.55 610.14 364.04 602.82 364.37 585.32 365.24 585.35"/><path class="cls-2" d="M376.91,555.08l.55,35-10,5,1.77,66.06,2.11,4.08,118.92-2.8-2.46-100.61-75.53,2.55-.13,9.49-3.64,1.42a2.13,2.13,0,0,1-1,0l-1.12-2V556.62l-1-2.3Z"/><path class="cls-2" d="M566.5,479.36l1.38,80.37,89.93-1.83.12-2.91-4.22-3.2s-.69-.65-.24-2.62-2.62-6.39-2.62-6.39l-.08-6-4-6.52,0-3.1a1.8,1.8,0,0,0-.22-.77c-.22-.41-2.26-4.08-2.26-4.08a2.57,2.57,0,0,1,.39-2.06,11.72,11.72,0,0,1,1.41-1.56s.82-2.09-.19-3.53a13.94,13.94,0,0,0-2.23-2.45,1.77,1.77,0,0,1-.53-1.13c0-.67,0-9.58,0-9.58L640,496.78l0-4.44s-6.3-2.84-2.44-9.4l0-5.93-2.49.89-41.67.56Z"/><path class="cls-2" d="M373.7,464.16l91-2,2.88,100.29-55.32,2-.13,9.49-3.64,1.42s-.71.19-1,0l-1.12-2V556.62l-1-2.3-28.52.76Z"/><path class="cls-2" d="M628.4,432.82l.55,1,.31,19.59s.71,2,3.87,2.13a13.91,13.91,0,0,1,3.43.25s.48,0,.43.94,0,3.11,0,3.11h8.59s2.13-1.31,3.07-1.15a5.74,5.74,0,0,1,1.76.63s1.52,1.74.55,3a26.49,26.49,0,0,1-3.83,3.4l-.1,3.53,3.11,3.84v4.52l-1.93,1.93,1.24,18h-5.82a2.77,2.77,0,0,1-.8-1.56c0-.78,0-6.08,0-6.08a3.89,3.89,0,0,0-.13-3.69l-.45-4.37a8.52,8.52,0,0,1-1-5l1.64-4.85-.06-4.85-1.92-4.44-4.15-.05-1.58,5.74a5.6,5.6,0,0,0-.05,3.29c.57,1.43,2.51,5.4,2.51,5.4l-2.49.89-41.67.56-.62-45.89Z"/><polygon class="cls-2" points="628.51 418.09 628.4 432.82 592.88 432.57 592.85 418.08 628.51 418.09"/><path class="cls-2" d="M592.84,403.37l10.86-.06,5.73-3.32s2-1.93,6.7-.39S630,400.71,630,400.71h11.83l0,11.1-5.55,0a4.86,4.86,0,0,1-3.15,5.13l-4.66,1.12H592.85Z"/><polygon class="cls-2" points="580.08 399.11 585.57 399.13 588.46 403.38 592.84 403.37 592.88 432.57 580.71 432.87 580.08 399.11"/><polygon class="cls-2" points="563.93 399.07 580.08 399.11 580.7 432.87 564.61 433.25 563.93 399.07"/><polygon class="cls-2" points="523.62 399.98 525.54 460.77 566.41 459.76 566.5 479.36 593.5 478.46 592.88 432.57 564.61 433.25 563.93 399.07 523.62 399.98"/><polygon class="cls-2" points="441.83 381.81 502.95 380.59 503.03 400.38 523.62 399.98 525.54 460.77 444.66 462.6 441.83 381.81"/><polygon class="cls-2" points="370.31 383.62 371.56 404.12 372.84 404.17 373.59 424.2 372.5 424.2 373.69 464.16 444.66 462.6 441.83 381.81 370.31 383.62"/><polygon class="cls-2" points="300.26 385.46 370.31 383.62 371.56 404.12 372.84 404.17 373.59 424.2 372.5 424.2 373.69 464.16 302.59 465.74 300.26 385.46"/><polygon class="cls-2" points="603.65 377.82 603.71 403.31 588.46 403.38 585.57 399.13 563.93 399.07 563.24 379.27 603.65 377.82"/><path class="cls-2" d="M603,360l.67,17.87.06,25.49,5.72-3.32s2.12-1.9,6.7-.39S630,400.71,630,400.71h17V397.2H642.3v-4.1H661v-.74h4.69v-3l-24,.26V387h15.54v-8.64H645.55l-4.12.66-4,7.91h-3.95l-11.63-22.23s-6.12-1.37-6.51-4.83Z"/><path class="cls-2" d="M561.82,338.59l1.42,40.68,40.41-1.45L603,360l12.36-.07s-6.13-5.27-4.71-23Z"/><path class="cls-2" d="M521.66,319.8l2,80.18,40.31-.91-2.11-60.48-17,.63-2.6-8.47L537,325.66s-1.43-1.77-3.73,0a2.27,2.27,0,0,1-3.59-.57l-2.24-5.6a1.76,1.76,0,0,0-1.84-.23A20.42,20.42,0,0,1,521.66,319.8Z"/><polygon class="cls-2" points="441.11 341.58 441.83 381.81 502.95 380.59 503.03 400.38 523.62 399.98 521.66 319.8 501.52 319.9 501.77 339.79 441.11 341.58"/><polygon class="cls-2" points="299.5 345.05 441.11 341.58 441.83 381.81 300.26 385.46 299.5 345.05"/><polygon class="cls-2" points="277.76 285.04 235.21 286 236.73 346.74 279.93 345.49 277.76 285.04"/><polyline class="cls-2" points="400.71 342.58 279.93 345.49 277.76 285.04 318.05 284.14 398.78 282.29"/><polygon class="cls-2" points="399.14 282.25 499.83 280.25 501.52 319.9 501.78 339.79 400.93 342.76 399.14 282.25"/><path class="cls-2" d="M598.31,276.53,597.85,289l2.19,5a2.22,2.22,0,0,1-.12,2.83c-1.19,1.63-.95,4.39-.95,4.39s4.49,18.75,7.25,22.15a62.24,62.24,0,0,0,7.74,7.38s1.92,1.94.57,3.32a19.16,19.16,0,0,1-3.9,2.74l-65.76,2.37-2.6-8.47L537,325.66a2.75,2.75,0,0,0-3.73,0,2.29,2.29,0,0,1-3.44-.26l-2.39-5.91a1.86,1.86,0,0,0-1.84-.23,16.89,16.89,0,0,1-3.21.57l-20.87.1-1.69-39.65L586,278l3.88-.92S598,277,598.31,276.53Z"/><path class="cls-2" d="M498.76,240.12l1.07,40.13L586,278l3.88-.92H597a2,2,0,0,0,1.26-.37c.24-.26.28-.68-.25-1.41a56.55,56.55,0,0,1-3.54-6.58l-.17-3.29-2.11-4-.68-7.68s1.41-2,.63-3.18-11.71-19.85-11.71-19.85l-16,7.3Z"/><path class="cls-2" d="M497.67,199.75l1.09,40.36L564.37,238l16-7.3s-5.54-10.11-5.89-28.58a11.32,11.32,0,0,1-1-3.85Z"/><polygon class="cls-2" points="396.73 201.93 497.67 199.75 499.83 280.25 399.13 282.25 396.73 201.93"/><polygon class="cls-2" points="315.7 203.69 396.73 201.93 399.14 282.25 318.05 284.14 315.7 203.69"/><path class="cls-2" d="M129.82,208.22s40.52-1,42-.66l8.36,0,2.29,9.46v10.6l50.34-2.28V223L260,205.18l14.8-.59,40.93-.9,2.35,80.45L235.21,286l0-4.1,5.45-7.83s2.16-3.25-.06-4.62-6.15-1.57-6.15-1.57v-1.54l-87.83,2.5s-4.57-2.75-5.82-9.65l-5.25-19.82s-1.17-2.93-.76-3.93,1.76-4.58,1.76-4.58a1.27,1.27,0,0,1,1.35-.94c1.17,0,13.68-.76,13.68-.76V218.31l-23.31.47s-2.13-3.69-1.51-5S128.73,208.58,129.82,208.22Z"/><path class="cls-2" d="M495.42,139.39l58.93-1.7a.54.54,0,0,1,.56.5l.75,8.83a.53.53,0,0,0,0,.12c.21.69,2.55,7.75,8.25,7.8h.64l.1,12.54a.68.68,0,0,0,0,.14c.35,1.28,6,20.66,28.89,20.93a.56.56,0,0,1,.48.31l2,4.19a.48.48,0,0,0,.09.14,1.76,1.76,0,0,1-.07,2.84c-1.74,1.24-8.43,5.64-10.82,8.28a.43.43,0,0,1-.29.16c-.78.14-4,.61-6,0-2.3-.73-2.49-2.27-2.49-2.27s-.38-2.4,1.67-.92a6.35,6.35,0,0,0,4.71.8.45.45,0,0,0,.2-.09l4.3-3.06s.51-3.15-2.23-3.46a28.68,28.68,0,0,0-6.67.37,24.2,24.2,0,0,0-4.95,2.45l-75.81,1.48Z"/><polygon class="cls-2" points="394.73 141.51 495.42 139.39 495.33 146.23 496.02 147.18 497.67 199.75 396.73 201.93 394.73 141.51"/><path class="cls-2" d="M273,142.29l72.69-1.2,2.23,2.82s2.41-2.31,3.65-2.34a4.91,4.91,0,0,1,1.85.77l41.36-.83,2,60.42-122,2.66v-8.38h.92v-11.1l-.69-2.68h-2.64l-.09-1.52V152.56H273Z"/><path class="cls-2" d="M273,142.29v10.27h-.67v28.35l-28.94.42-3,1.86h-7.27V165.41h-1.91V166l-18.43.48-.05,10.3H209l-.11-7.11s-1-.27-1.06-.64v-2.28l-15.18.54v3H182.53V168H179.4s-.76.16-.76-.8,0-3.41,0-3.41h-6.34v1.88h-9.91v2.41h6.9v6.74h3.13v3.29h-6.22v.73h-3.93v-6l-10.24.84v14.85l19.63-.69.16,19.73-12.49,0-29.55.62s4.65-10.69,5.11-18.17l.12-5.09a3.9,3.9,0,0,1-.71-2.38c.21-1.05,2-5.85,2-5.85s.92-4.22-4.59-5a12.51,12.51,0,0,1-5,2.92c-3.09.92-6.68-5.38-6.68-5.38a8.39,8.39,0,0,1,2-7.14c3-3.6,10.85-13.78,10.85-13.78l75.84-1.74,7.94-.21a8.61,8.61,0,0,0,3.61-3.32Z"/><path class="cls-2" d="M265.6,91.63l1.52,2.3,6,8.93L273,142.29l-52.65.78s-1.64,3-4,3.37-20.61.48-20.61.48l0,1.45-14,.29v-1.27h-8.53l-40.3,1,0-5.19s-2.12-2.8-2.2-4.44,2.56-8.63,2.56-8.63v-3.51s14.36,1.08,21.26,2.81,44.83,8.87,44.83,8.87l3.86-32.64.12-41.48,3.16.05V62.65H205.3V52.57H203v-7.9l30.6-1.62v50.2H236V90.77h9l.52,1.61h2.94l.06,3.35s4.21-.46,4.38-1V91.62Z"/><path class="cls-2" d="M394.73,141.51l-.14-19.84h4.27l-.09-4.88-4.51,2.7L394,101.59l-49.27.58L325.26,90l.06-3.29a2,2,0,0,1,.9-.77l0-14.1-12.06,0V83s-7.16-4.22-11.63-21l-7.65-.09,0-9.47-4.62-.13-.44,9.55-19.29-.06L284,82.24,267.12,93.93l6,8.93L273,142.29l72.69-1.2,2.23,2.82s2.92-2.46,3.65-2.34a7.35,7.35,0,0,1,1.85.77Z"/><polygon class="cls-2" points="494.48 99.31 495.42 139.39 394.73 141.51 394.59 121.68 398.86 121.68 398.75 116.8 394.25 119.51 393.92 101.61 494.48 99.31"/><path class="cls-2" d="M547.06,98.08,494.4,99.51l1,39.88,59.08-1.65a1.79,1.79,0,0,0,1.43-.85,21.54,21.54,0,0,0,1.27-3.17s-.28-.76-1.29-.44S548,125.7,548,125.7l-.08-13.23Z"/><path class="cls-2" d="M434.53,41.09l59.35-1.47L494,68.89,491.5,69a.74.74,0,0,0-.51,1c.24.65,3.16,7.95,3.16,7.95l.33,21.35-60.32,1.59Z"/><path class="cls-2" d="M500.43,29.46h23.69s2,4.43,3.06,5.34.45,6.12.45,6.12S531.45,62,545.21,74.54c0,0-.23.63-4,1.06l0,3.4s1.83,1.87.22,3.21c0,0,3,11.05,5.63,15.66l-52.66,1.44L494.15,78l-3.21-8.07s-.23-.87.93-.93S494,68.9,494,68.9l-.09-29.28,12.3.09.84-.31-7.14-9.54S499.69,29.6,500.43,29.46Z"/><path class="cls-2" d="M627,1033.71l4.27-.1-4.89,20.71s-.5,1.42-.26,1.77,5.44,1.38,5.44,1.38v16.27l67.74-1.14-.12-30.56L690,1028.9l-21.29,3.76-37.36.95"/><polygon class="cls-2" points="628.48 418.12 628.37 426.13 592.85 426 592.82 418.11 628.48 418.12"/><path class="cls-2" d="M699.21,1042l.12,30.56,123.6-1,.05-80-122.15,1.1-33.09-1.53s-2.44-.17-1.46,1.24S690,1028.89,690,1028.89Z"/><path class="cls-2" d="M694.43,777.61l6.4,215.14,65.8-1.39,56.35.3-.34-97.84-6.54-3.68s-1.52-.94-.35-2a20.89,20.89,0,0,0,2.34-2.63s.52-.47-.29-1.69-3.86-6.37-3.86-6.37a2,2,0,0,1,.35-2.34c1.05-.87,5.67-4.44,5.67-4.44l2.74,0-.14-1.45-2.68-2.68v-4.37l2.67-3.67-.73-26.3L812.39,830,808.65,786l-20.21-10.34-6.08-.13Z"/><path class="cls-2" d="M576.72,861.47l4,140.4.56,35.08s11.19,2.92,17.68.81,12.49-9.24,12.49-9.24,8.11-9.25,15.57,0v5.19l41.63-1L690,1028.9l-23.67-36.44s-1.09-1.24,1.46-1.24,33.09,1.53,33.09,1.53L696.78,858.3Z"/><polygon class="cls-2" points="500.54 984.09 496.79 883.31 476.53 883.83 476.58 901.65 456.54 901.96 456.54 904.28 436.38 904.95 436.38 890.28 433.14 890.28 433.14 884.87 415.67 884.98 417.68 945.33 377.56 947.4 378.52 967.39 435.82 965.91 436.19 976.28 449.37 976.05 449.37 965.32 458.86 965.15 458.93 960.08 461.19 960.05 461.26 955.31 468.18 955.35 468.97 964.99 489.14 964.5 489.62 980.88 488.89 984.34 500.54 984.09"/><path class="cls-2" d="M494.55,823.28l6,160.81,25.25-.31v3.63s3.16.58,3.39-3.79l10.22,0v20l41.33-1.75-4-140.4-41,.85A78.85,78.85,0,0,0,515.09,823Z"/><path class="cls-2" d="M692.52,697l1.91,80.57,87.93-2.12s-2.08-4-2.08-5.33,3-4.55,3-4.55l5-4.17-7.3-8.65-4.77,3.84a7.31,7.31,0,0,1-6.86-.08c-4-1.9-17.71-12.63-17.71-12.63l-5.45-5.85s-.52-.75,2.46-2.33l-.12-5s-4.37,0-7.24-5.09l-.86-4.33-16.87-19.46a2.07,2.07,0,0,1-.42-1.11c-.1-.79,0-3.73,0-3.73l-10.17.06s-6,3.14-7.24,2.61-8.22-2.41-8.22-2.41Z"/><polygon class="cls-2" points="613.49 739.63 614.04 760.05 617.08 860.76 696.78 858.3 693.46 737.09 613.49 739.63"/><path class="cls-2" d="M493.36,763.05l1.19,60.23,20.54-.28s15.91,20,20.59,39.32l81.4-1.56-3-100.71s-59.26,1.07-60.32,1.72Z"/><path class="cls-2" d="M372.81,766l1.66,60.28,120.08-3-1.19-60.23-7.7,1.17a6.41,6.41,0,0,1-3.12-.63l-63,.14-7.91,1.3Z"/><path class="cls-2" d="M611.36,660l2.13,79.63,80-2.54L692.52,697l5,.22s6.79,1.74,8.22,2.41,7.24-2.61,7.24-2.61l10.17-.06s3.12-1.34-.23-2.74-9-6.31-9-6.31-3.63-7.82-2.79-11.73c0,0,1.49-1.11.58-2.13s-5-8.78-5-8.78.92-7.12,3.37-8.44l-22.77.32s-2.4,1.54-7.14.11l-30.77,1.05s-5.56,8.62-15.75.84Z"/><path class="cls-2" d="M610.33,619.1l1,40.9,22.22-.81s8.93,8.61,15.76-.84l30.76-1.05s4.52,1.68,7.15-.11l26.63-.38a1.11,1.11,0,0,0,.9-.44c.69-.89,1.85-2.94-.65-4.13h-4.35l-3.93-4.63-1.55-4.67,0-10s-14-11.88-13.77-20.68l-8.87,4.9Z"/><polygon class="cls-2" points="551.48 661.23 553.72 761.77 578.75 760.79 614.04 760.05 611.36 660 551.48 661.23"/><polygon class="cls-2" points="490.29 662.5 493.36 763.05 553.72 761.77 551.48 661.23 490.29 662.5"/><path class="cls-2" d="M371.37,665.3l0,14.62-1.62,3.93.91,32.07L372.81,766l38.83-1,7.91-1.3,63-.14a4,4,0,0,0,3.12.63c2.15-.24,7.7-1.17,7.7-1.17L490.29,662.5Z"/><path class="cls-2" d="M608.82,558.86l1.51,60.24,71.37-1.91,8.87-4.9s-5.81-3.7-6.41-6.58a22.11,22.11,0,0,0-.72-3.1l-3.31-4.29v-4.45s-10.65-8-11-14.52-.42-7.43-.42-7.43l-10.86-14Z"/><polygon class="cls-2" points="487.83 561.89 490.29 662.5 611.36 660 608.83 558.87 567.88 559.73 487.83 561.89"/><polygon class="cls-2" points="365.24 585.35 377.39 585.28 377.46 590.12 367.49 595.16 369.26 661.23 371.37 665.3 371.4 679.92 369.79 683.85 370.69 715.92 249.1 719.9 247.56 652.67 257.1 648.62 348.25 645.68 347.55 610.14 364.04 602.82 364.37 585.32 365.24 585.35"/><path class="cls-2" d="M376.91,555.08l.55,35-10,5,1.77,66.06,2.11,4.08,118.92-2.8-2.46-100.61-75.53,2.55-.13,9.49-3.64,1.42a2.13,2.13,0,0,1-1,0l-1.12-2V556.62l-1-2.3Z"/><path class="cls-2" d="M566.5,479.36l1.38,80.37,89.93-1.83.12-2.91-4.22-3.2s-.69-.65-.24-2.62-2.62-6.39-2.62-6.39l-.08-6-4-6.52,0-3.1a1.8,1.8,0,0,0-.22-.77c-.22-.41-2.26-4.08-2.26-4.08a2.57,2.57,0,0,1,.39-2.06,11.72,11.72,0,0,1,1.41-1.56s.82-2.09-.19-3.53a13.94,13.94,0,0,0-2.23-2.45,1.77,1.77,0,0,1-.53-1.13c0-.67,0-9.58,0-9.58L640,496.78l0-4.44s-6.3-2.84-2.44-9.4l0-5.93-2.49.89-41.67.56Z"/><polygon class="cls-2" points="464.74 462.18 467.62 562.47 567.88 559.73 566.5 479.36 566.41 459.76 464.74 462.18"/><path class="cls-2" d="M373.7,464.16l91-2,2.88,100.29-55.32,2-.13,9.49-3.64,1.42s-.71.19-1,0l-1.12-2V556.62l-1-2.3-28.52.76Z"/><path class="cls-2" d="M628.4,432.82l.55,1,.31,19.59s.71,2,3.87,2.13a13.91,13.91,0,0,1,3.43.25s.48,0,.43.94,0,3.11,0,3.11h8.59s2.13-1.31,3.07-1.15a5.74,5.74,0,0,1,1.76.63s1.52,1.74.55,3a26.49,26.49,0,0,1-3.83,3.4l-.1,3.53,3.11,3.84v4.52l-1.93,1.93,1.24,18h-5.82a2.77,2.77,0,0,1-.8-1.56c0-.78,0-6.08,0-6.08a3.89,3.89,0,0,0-.13-3.69l-.45-4.37a8.52,8.52,0,0,1-1-5l1.64-4.85-.06-4.85-1.92-4.44-4.15-.05-1.58,5.74a5.6,5.6,0,0,0-.05,3.29c.57,1.43,2.51,5.4,2.51,5.4l-2.49.89-41.67.56-.62-45.89Z"/><polygon class="cls-2" points="628.51 418.09 628.4 432.82 592.88 432.57 592.85 418.08 628.51 418.09"/><path class="cls-2" d="M592.84,403.37l10.86-.06,5.73-3.32s2-1.93,6.7-.39S630,400.71,630,400.71h11.83l0,11.1-5.55,0a4.86,4.86,0,0,1-3.15,5.13l-4.66,1.12H592.85Z"/><polygon class="cls-2" points="580.08 399.11 585.57 399.13 588.46 403.38 592.84 403.37 592.88 432.57 580.71 432.87 580.08 399.11"/><polygon class="cls-2" points="563.93 399.07 580.08 399.11 580.7 432.87 564.61 433.25 563.93 399.07"/><polygon class="cls-2" points="523.62 399.98 525.54 460.77 566.41 459.76 566.5 479.36 593.5 478.46 592.88 432.57 564.61 433.25 563.93 399.07 523.62 399.98"/><polygon class="cls-2" points="441.83 381.81 502.95 380.59 503.03 400.38 523.62 399.98 525.54 460.77 444.66 462.6 441.83 381.81"/><polygon class="cls-2" points="370.31 383.62 371.56 404.12 372.84 404.17 373.59 424.2 372.5 424.2 373.69 464.16 444.66 462.6 441.83 381.81 370.31 383.62"/><polygon class="cls-2" points="300.26 385.46 370.31 383.62 371.56 404.12 372.84 404.17 373.59 424.2 372.5 424.2 373.69 464.16 302.59 465.74 300.26 385.46"/><polygon class="cls-2" points="603.65 377.82 603.71 403.31 588.46 403.38 585.57 399.13 563.93 399.07 563.24 379.27 603.65 377.82"/><path class="cls-2" d="M603,360l.67,17.87.06,25.49,5.72-3.32s2.12-1.9,6.7-.39S630,400.71,630,400.71h17V397.2H642.3v-4.1H661v-.74h4.69v-3l-24,.26V387h15.54v-8.64H645.55l-4.12.66-4,7.91h-3.95l-11.63-22.23s-6.12-1.37-6.51-4.83Z"/><path class="cls-2" d="M561.82,338.59l1.42,40.68,40.41-1.45L603,360l12.36-.07s-6.13-5.27-4.71-23Z"/><polygon class="cls-2" points="441.11 341.58 441.83 381.81 502.95 380.59 503.03 400.38 523.62 399.98 521.66 319.8 501.52 319.9 501.77 339.79 441.11 341.58"/><path class="cls-2" d="M521.66,319.8l2,80.18,40.31-.91-2.11-60.48-17,.63-2.6-8.47L537,325.66s-1.43-1.77-3.73,0a2.27,2.27,0,0,1-3.59-.57l-2.24-5.6a1.76,1.76,0,0,0-1.84-.23,20.42,20.42,0,0,1-3.94.57"/><polygon class="cls-2" points="299.5 345.05 441.11 341.58 441.83 381.81 300.26 385.46 299.5 345.05"/><polygon class="cls-2" points="277.76 285.04 235.21 286 236.73 346.74 279.93 345.49 277.76 285.04"/><polyline class="cls-2" points="400.71 342.58 279.93 345.49 277.76 285.04 318.05 284.14 398.78 282.29"/><polygon class="cls-2" points="399.14 282.25 499.83 280.25 501.52 319.9 501.78 339.79 400.93 342.76 399.14 282.25"/><path class="cls-2" d="M598.31,276.53,597.85,289l2.19,5a2.22,2.22,0,0,1-.12,2.83c-1.19,1.63-.95,4.39-.95,4.39s4.49,18.75,7.25,22.15a62.24,62.24,0,0,0,7.74,7.38s1.92,1.94.57,3.32a19.16,19.16,0,0,1-3.9,2.74l-65.76,2.37-2.6-8.47L537,325.66a2.75,2.75,0,0,0-3.73,0,2.29,2.29,0,0,1-3.44-.26l-2.39-5.91a1.86,1.86,0,0,0-1.84-.23,16.89,16.89,0,0,1-3.21.57l-20.87.1-1.69-39.65L586,278l3.88-.92s8.11-.08,8.45-.5"/><path class="cls-2" d="M498.76,240.12l1.07,40.13L586,278l3.88-.92H597a2,2,0,0,0,1.26-.37c.24-.26.28-.68-.25-1.41a56.55,56.55,0,0,1-3.54-6.58l-.17-3.29-2.11-4-.68-7.68s1.41-2,.63-3.18-11.71-19.85-11.71-19.85l-16,7.3Z"/><path class="cls-2" d="M497.67,199.75l1.09,40.36L564.37,238l16-7.3s-5.54-10.11-5.89-28.58a11.32,11.32,0,0,1-1-3.85Z"/><polygon class="cls-2" points="396.73 201.93 497.67 199.75 499.83 280.25 399.13 282.25 396.73 201.93"/><polygon class="cls-2" points="315.7 203.69 396.73 201.93 399.14 282.25 318.05 284.14 315.7 203.69"/><path class="cls-2" d="M129.82,208.22s40.52-1,42-.66l8.36,0,2.29,9.46v10.6l50.34-2.28V223L260,205.18l14.8-.59,40.93-.9,2.35,80.45L235.21,286l0-4.1,5.45-7.83s2.16-3.25-.06-4.62-6.15-1.57-6.15-1.57v-1.54l-87.83,2.5s-4.57-2.75-5.82-9.65l-5.25-19.82s-1.17-2.93-.76-3.93,1.76-4.58,1.76-4.58a1.27,1.27,0,0,1,1.35-.94c1.17,0,13.68-.76,13.68-.76V218.31l-23.31.47s-2.13-3.69-1.51-5,2-5.19,3.09-5.55"/><path class="cls-2" d="M495.42,139.39l58.93-1.7a.54.54,0,0,1,.56.5l.75,8.83a.53.53,0,0,0,0,.12c.21.69,2.55,7.75,8.25,7.8h.64l.1,12.54a.68.68,0,0,0,0,.14c.35,1.28,6,20.66,28.89,20.93a.56.56,0,0,1,.48.31l2,4.19a.48.48,0,0,0,.09.14,1.76,1.76,0,0,1-.07,2.84c-1.74,1.24-8.43,5.64-10.82,8.28a.43.43,0,0,1-.29.16c-.78.14-4,.61-6,0-2.3-.73-2.49-2.27-2.49-2.27s-.38-2.4,1.67-.92a6.35,6.35,0,0,0,4.71.8.45.45,0,0,0,.2-.09l4.3-3.06s.51-3.15-2.23-3.46a28.68,28.68,0,0,0-6.67.37,24.2,24.2,0,0,0-4.95,2.45l-75.81,1.48Z"/><polygon class="cls-2" points="394.73 141.51 495.42 139.39 495.33 146.23 496.02 147.18 497.67 199.75 396.73 201.93 394.73 141.51"/><path class="cls-2" d="M273,142.29l72.69-1.2,2.23,2.82s2.41-2.31,3.65-2.34a4.91,4.91,0,0,1,1.85.77l41.36-.83,2,60.42-122,2.66v-8.38h.92v-11.1l-.69-2.68h-2.64l-.09-1.52V152.56H273Z"/><path class="cls-2" d="M273,142.29v10.27h-.67v28.35l-28.94.42-3,1.86h-7.27V165.41h-1.91V166l-18.43.48-.05,10.3H209l-.11-7.11s-1-.27-1.06-.64v-2.28l-15.18.54v3H182.53V168H179.4s-.76.16-.76-.8,0-3.41,0-3.41h-6.34v1.88h-9.91v2.41h6.9v6.74h3.13v3.29h-6.22v.73h-3.93v-6l-10.24.84v14.85l19.63-.69.16,19.73-12.49,0-29.55.62s4.65-10.69,5.11-18.17l.12-5.09a3.9,3.9,0,0,1-.71-2.38c.21-1.05,2-5.85,2-5.85s.92-4.22-4.59-5a12.51,12.51,0,0,1-5,2.92c-3.09.92-6.68-5.38-6.68-5.38a8.39,8.39,0,0,1,2-7.14c3-3.6,10.85-13.78,10.85-13.78l75.84-1.74,7.94-.21a8.61,8.61,0,0,0,3.61-3.32Z"/><path class="cls-2" d="M265.6,91.63l1.52,2.3,6,8.93L273,142.29l-52.65.78s-1.64,3-4,3.37-20.61.48-20.61.48l0,1.45-14,.29v-1.27h-8.53l-40.3,1,0-5.19s-2.12-2.8-2.2-4.44,2.56-8.63,2.56-8.63v-3.51s14.36,1.08,21.26,2.81,44.83,8.87,44.83,8.87l3.86-32.64.12-41.48,3.16.05V62.65H205.3V52.57H203v-7.9l30.6-1.62v50.2H236V90.77h9l.52,1.61h2.94l.06,3.35s4.21-.46,4.38-1V91.62Z"/><path class="cls-2" d="M394.73,141.51l-.14-19.84h4.27l-.09-4.88-4.51,2.7L394,101.59l-49.27.58L325.26,90l.06-3.29a2,2,0,0,1,.9-.77l0-14.1-12.06,0V83s-7.16-4.22-11.63-21l-7.65-.09,0-9.47-4.62-.13-.44,9.55-19.29-.06L284,82.24,267.12,93.93l6,8.93L273,142.29l72.69-1.2,2.23,2.82s2.92-2.46,3.65-2.34a7.35,7.35,0,0,1,1.85.77Z"/><polygon class="cls-2" points="494.48 99.31 495.42 139.39 394.73 141.51 394.59 121.68 398.86 121.68 398.75 116.8 394.25 119.51 393.92 101.61 494.48 99.31"/><path class="cls-2" d="M547.06,98.08,494.4,99.51l1,39.88,59.08-1.65a1.79,1.79,0,0,0,1.43-.85,21.54,21.54,0,0,0,1.27-3.17s-.28-.76-1.29-.44S548,125.7,548,125.7l-.08-13.23Z"/><path class="cls-2" d="M434.53,41.09l59.35-1.47L494,68.89,491.5,69a.74.74,0,0,0-.51,1c.24.65,3.16,7.95,3.16,7.95l.33,21.35-60.32,1.59Z"/><path class="cls-2" d="M500.43,29.46h23.69s2,4.43,3.06,5.34.45,6.12.45,6.12S531.45,62,545.21,74.54c0,0-.23.63-4,1.06l0,3.4s1.83,1.87.22,3.21c0,0,3,11.05,5.63,15.66l-52.66,1.44L494.15,78l-3.21-8.07s-.23-.87.93-.93S494,68.9,494,68.9l-.09-29.28,12.3.09.84-.31-7.14-9.54s-.18-.26.56-.4"/><polygon class="cls-3" points="627.88 418.66 627.79 425.75 593.4 425.62 593.23 418.57 627.88 418.66"/><path class="cls-4" d="M627.17,1033.84l4.28-.1-4.89,20.72s-.5,1.42-.26,1.77,5.44,1.38,5.44,1.38v16.26l67.74-1.13-.12-30.57L690.1,1029l-21.29,3.77-37.36.94"/><polygon class="cls-5" points="628.63 418.25 628.52 426.27 593 426.13 592.97 418.24 628.63 418.25"/><path class="cls-6" d="M699.36,1042.17l.12,30.57,123.59-1,0-80L701,992.88l-33.09-1.53s-2.44-.17-1.46,1.24S690.1,1029,690.1,1029Z"/><path class="cls-4" d="M694.58,777.74,701,992.88l65.8-1.39,56.34.3L822.79,894l-6.54-3.68s-1.52-.93-.35-2a21.15,21.15,0,0,0,2.34-2.62s.52-.47-.3-1.7-3.85-6.37-3.85-6.37a2,2,0,0,1,.35-2.33c1-.88,5.67-4.44,5.67-4.44l2.74-.06-.14-1.45L820,866.63v-4.37l2.67-3.67-.73-26.3-9.43-2.12L808.8,786.1l-20.21-10.35-6.08-.13Z"/><path class="cls-7" d="M576.87,861.61l4,140.4.56,35.08s11.19,2.91,17.68.81,12.48-9.25,12.48-9.25,8.11-9.24,15.57,0v5.19l41.64-1L690.1,1029l-23.67-36.44s-1.09-1.24,1.46-1.24S701,992.88,701,992.88l-4.05-134.44Z"/><polygon class="cls-8" points="500.69 984.22 496.94 883.45 476.68 883.97 476.73 901.78 456.68 902.09 456.68 904.42 436.53 905.08 436.53 890.41 433.28 890.41 433.28 885 415.82 885.11 417.83 945.46 377.7 947.53 378.67 967.52 435.97 966.04 436.34 976.41 449.52 976.19 449.52 965.45 459.01 965.28 459.08 960.22 461.34 960.18 461.41 955.45 468.33 955.48 469.11 965.12 489.29 964.64 489.77 981.02 489.04 984.47 500.69 984.22"/><path class="cls-6" d="M494.7,823.41l6,160.81,25.25-.31v3.64s3.16.57,3.39-3.79l10.22-.06v20.06l41.33-1.75-4-140.4-41,.84a78.85,78.85,0,0,0-20.59-39.31Z"/><path class="cls-9" d="M692.66,697.17l1.92,80.57,87.93-2.12s-2.09-4-2.09-5.33,3-4.55,3-4.55l5-4.17-7.3-8.65-4.77,3.84a7.29,7.29,0,0,1-6.86-.07c-4-1.9-17.71-12.64-17.71-12.64l-5.45-5.84s-.53-.76,2.45-2.34l-.11-5s-4.37,0-7.24-5.09l-.87-4.33L723.64,702a2,2,0,0,1-.42-1.12c-.11-.79,0-3.73,0-3.73l-10.17.06s-6,3.15-7.23,2.62-8.22-2.42-8.22-2.42Z"/><polygon class="cls-6" points="613.63 739.76 614.19 760.18 617.23 860.89 696.93 858.44 693.61 737.23 613.63 739.76"/><path class="cls-7" d="M493.5,763.19l1.2,60.22,20.53-.27s15.92,20,20.6,39.31l81.4-1.56-3-100.7s-59.27,1.07-60.32,1.71Z"/><path class="cls-10" d="M373,766.17l1.66,60.27,120.08-3-1.19-60.22-7.7,1.17a6.46,6.46,0,0,1-3.12-.64l-63,.14-7.91,1.3Z"/><path class="cls-11" d="M611.5,660.13l2.13,79.63,80-2.53-1-40.06,5,.22s6.78,1.74,8.22,2.42,7.23-2.62,7.23-2.62l10.17-.06s3.13-1.34-.22-2.73-9-6.32-9-6.32-3.63-7.82-2.8-11.73c0,0,1.5-1.1.59-2.13s-5-8.77-5-8.77.92-7.13,3.36-8.45l-22.76.33s-2.4,1.54-7.15.1l-30.77,1.05s-5.56,8.62-15.75.84Z"/><path class="cls-12" d="M610.48,619.23l1,40.9,22.23-.81s8.93,8.61,15.76-.84l30.76-1.05s4.52,1.68,7.15-.1L714,657a1.17,1.17,0,0,0,.9-.45c.69-.89,1.85-2.94-.65-4.12h-4.35L706,647.74l-1.55-4.67,0-10s-14-11.88-13.77-20.68l-8.87,4.9Z"/><polygon class="cls-6" points="551.63 661.37 553.87 761.9 578.9 760.93 614.19 760.18 611.5 660.13 551.63 661.37"/><polygon class="cls-7" points="490.44 662.63 493.5 763.19 553.87 761.9 551.63 661.37 490.44 662.63"/><path class="cls-13" d="M371.52,665.44l0,14.61L369.93,684l.91,32.07L373,766.17l38.83-1,7.91-1.3,63-.14a4,4,0,0,0,3.12.64c2.15-.25,7.69-1.17,7.69-1.17l-3.06-100.56Z"/><path class="cls-14" d="M609,559l1.51,60.23,71.37-1.91,8.87-4.9s-5.81-3.69-6.41-6.58a22.11,22.11,0,0,0-.72-3.1l-3.31-4.28V594s-10.66-8-11-14.52-.42-7.43-.42-7.43L658,558Z"/><polygon class="cls-15" points="487.98 562.02 490.44 662.63 611.5 660.13 608.97 559 568.03 559.87 487.98 562.02"/><polygon class="cls-16" points="365.38 585.49 377.54 585.41 377.61 590.26 367.64 595.3 369.41 661.36 371.52 665.44 371.55 680.05 369.93 683.98 370.84 716.05 249.25 720.03 247.71 652.81 257.25 648.75 348.39 645.81 347.7 610.27 364.19 602.96 364.51 585.46 365.38 585.49"/><path class="cls-17" d="M377.06,555.21l.55,35-10,5,1.77,66.06,2.11,4.08,118.92-2.81L488,562l-75.53,2.55-.13,9.49-3.64,1.42a2.13,2.13,0,0,1-1,0l-1.12-2V556.75l-1-2.3Z"/><path class="cls-18" d="M566.64,479.49,568,559.87,658,558l.12-2.91-4.22-3.19s-.69-.66-.24-2.62-2.62-6.39-2.62-6.39l-.08-6-4-6.53,0-3.1a1.86,1.86,0,0,0-.21-.77l-2.26-4.08a2.57,2.57,0,0,1,.39-2.06,12.55,12.55,0,0,1,1.41-1.56s.82-2.09-.19-3.53a13.65,13.65,0,0,0-2.23-2.44,1.8,1.8,0,0,1-.53-1.13c0-.67,0-9.59,0-9.59l-3.15-5.2.05-4.44s-6.3-2.84-2.44-9.4l0-5.94-2.49.89-41.67.57Z"/><polygon class="cls-19" points="464.89 462.32 467.77 562.61 568.03 559.87 566.64 479.49 566.56 459.89 464.89 462.32"/><path class="cls-6" d="M373.84,464.3l91.05-2,2.88,100.28-55.32,2-.13,9.49-3.64,1.42s-.71.19-1,0l-1.12-2V556.75l-1-2.3-28.53.76Z"/><path class="cls-20" d="M628.55,433l.54,1,.32,19.59s.71,2.06,3.87,2.13,3.43.26,3.43.26.48,0,.43.93,0,3.11,0,3.11h8.59s2.13-1.3,3.07-1.15a5.62,5.62,0,0,1,1.76.64s1.52,1.73.55,3a27.05,27.05,0,0,1-3.84,3.4l-.09,3.52,3.11,3.85v4.51l-1.94,1.94,1.24,17.95h-5.81a2.72,2.72,0,0,1-.8-1.55c0-.78,0-6.09,0-6.09a3.88,3.88,0,0,0-.14-3.69l-.44-4.37a8.47,8.47,0,0,1-1-5l1.63-4.85,0-4.86-1.92-4.43-4.15,0-1.58,5.73a5.61,5.61,0,0,0-.05,3.29c.57,1.43,2.51,5.4,2.51,5.4l-2.49.89-41.67.57L593,432.71Z"/><polygon class="cls-21" points="628.66 418.23 628.55 432.95 593.03 432.71 593 418.21 628.66 418.23"/><path class="cls-22" d="M593,403.51l10.86-.07,5.73-3.32s1.95-1.93,6.7-.39,13.88,1.12,13.88,1.12H642l0,11.1-5.55,0a4.88,4.88,0,0,1-3.15,5.14l-4.67,1.12-35.66,0Z"/><polygon class="cls-22" points="580.23 399.25 585.72 399.26 588.61 403.52 592.99 403.51 593.03 432.71 580.85 433 580.23 399.25"/><polygon class="cls-23" points="564.08 399.21 580.23 399.25 580.85 433 564.76 433.38 564.08 399.21"/><polygon class="cls-24" points="523.77 400.12 525.69 460.91 566.56 459.89 566.64 479.49 593.65 478.6 593.03 432.71 564.76 433.38 564.08 399.21 523.77 400.12"/><polygon class="cls-11" points="441.98 381.94 503.1 380.72 503.18 400.52 523.77 400.12 525.69 460.91 444.81 462.73 441.98 381.94"/><polygon class="cls-4" points="370.46 383.76 371.7 404.25 372.99 404.3 373.74 424.33 372.65 424.33 373.84 464.3 444.81 462.73 441.98 381.94 370.46 383.76"/><polygon class="cls-25" points="300.4 385.59 370.46 383.76 371.7 404.25 372.99 404.3 373.74 424.33 372.65 424.33 373.84 464.3 302.74 465.87 300.4 385.59"/><polygon class="cls-26" points="603.8 377.96 603.85 403.44 588.61 403.52 585.72 399.26 564.08 399.21 563.39 379.4 603.8 377.96"/><path class="cls-27" d="M603.13,360.08,603.8,378l.05,25.48,5.73-3.32s2.12-1.9,6.7-.39,13.88,1.12,13.88,1.12h17v-3.51h-4.76v-4.11h18.68v-.73h4.69v-3l-24,.26v-2.66h15.54V378.5H645.7l-4.12.66-4,7.91h-3.94L622,364.85s-6.12-1.38-6.5-4.84Z"/><path class="cls-28" d="M562,338.73l1.42,40.67L603.8,378l-.67-17.88,12.36-.07s-6.13-5.27-4.71-23Z"/><polygon class="cls-29" points="441.26 341.71 441.98 381.94 503.1 380.72 503.18 400.52 523.77 400.12 521.8 319.93 501.67 320.04 501.92 339.93 441.26 341.71"/><path class="cls-30" d="M521.8,319.93l2,80.19,40.31-.91L562,338.73l-17,.63-2.6-8.47-5.27-5.1s-1.43-1.76-3.73,0a2.27,2.27,0,0,1-3.59-.58l-2.24-5.6a1.76,1.76,0,0,0-1.84-.23,20.49,20.49,0,0,1-4,.57"/><polygon class="cls-13" points="299.64 345.19 441.26 341.71 441.98 381.94 300.41 385.59 299.64 345.19"/><polygon class="cls-31" points="277.91 285.18 235.36 286.14 236.88 346.87 280.08 345.62 277.91 285.18"/><polyline class="cls-32" points="400.86 342.71 280.08 345.62 277.91 285.18 318.2 284.28 398.93 282.42"/><polygon class="cls-33" points="399.28 282.39 499.98 280.38 501.67 320.04 501.92 339.92 401.07 342.89 399.28 282.39"/><path class="cls-34" d="M598.46,276.66,598,289.15l2.2,5a2.2,2.2,0,0,1-.12,2.82c-1.2,1.63-1,4.4-1,4.4s4.49,18.74,7.25,22.14a62.24,62.24,0,0,0,7.74,7.38s1.92,1.94.57,3.33a19.38,19.38,0,0,1-3.9,2.73L545,339.36l-2.6-8.47-5.27-5.1a2.76,2.76,0,0,0-3.73,0,2.31,2.31,0,0,1-3.45-.26l-2.38-5.91a1.86,1.86,0,0,0-1.84-.23,17.22,17.22,0,0,1-3.21.58l-20.87.09L500,280.38l86.15-2.29,3.88-.93s8.11-.08,8.45-.5"/><path class="cls-35" d="M498.91,240.25,500,280.38l86.15-2.29,3.88-.93h7.09a2,2,0,0,0,1.26-.37c.24-.25.28-.68-.25-1.4a57.27,57.27,0,0,1-3.54-6.59l-.17-3.29-2.11-4-.68-7.68s1.41-2,.63-3.18-11.71-19.84-11.71-19.84l-16,7.3Z"/><path class="cls-36" d="M497.82,199.88l1.09,40.37,65.61-2.11,16-7.3s-5.54-10.12-5.89-28.59a11.32,11.32,0,0,1-1-3.84Z"/><polygon class="cls-36" points="396.87 202.07 497.82 199.88 499.98 280.38 399.28 282.39 396.87 202.07"/><polygon class="cls-37" points="315.85 203.82 396.87 202.07 399.28 282.39 318.2 284.27 315.85 203.82"/><path class="cls-38" d="M130,208.35s40.52-1,42-.66l8.36,0,2.29,9.46v10.6L233,225.43v-2.29l27.12-17.82,14.8-.6,40.93-.9,2.35,80.46-82.84,1.86,0-4.11,5.45-7.83s2.16-3.25-.06-4.62-6.16-1.56-6.16-1.56v-1.54L146.74,269s-4.57-2.74-5.82-9.64l-5.25-19.82s-1.17-2.94-.76-3.94,1.76-4.58,1.76-4.58a1.26,1.26,0,0,1,1.35-.94c1.17,0,13.68-.76,13.68-.76V218.44l-23.31.47s-2.13-3.68-1.51-5,2-5.19,3.09-5.55"/><path class="cls-39" d="M495.56,139.52l58.94-1.7a.54.54,0,0,1,.56.5l.75,8.84s0,.07,0,.11c.22.69,2.55,7.75,8.26,7.8l.64,0,.1,12.54a.51.51,0,0,0,0,.13c.35,1.28,6,20.66,28.88,20.94a.55.55,0,0,1,.49.3l2,4.2a.6.6,0,0,0,.09.13,1.77,1.77,0,0,1-.07,2.84c-1.74,1.24-8.44,5.64-10.82,8.29a.47.47,0,0,1-.29.16c-.78.13-4,.61-6,0-2.3-.73-2.49-2.28-2.49-2.28s-.38-2.39,1.66-.92a6.35,6.35,0,0,0,4.72.81.88.88,0,0,0,.2-.09l4.3-3.07s.51-3.14-2.23-3.46a29.29,29.29,0,0,0-6.67.37,23.92,23.92,0,0,0-5,2.46l-75.81,1.47Z"/><polygon class="cls-40" points="394.88 141.65 495.56 139.52 495.48 146.36 496.17 147.31 497.82 199.88 396.87 202.07 394.88 141.65"/><path class="cls-41" d="M273.1,142.42l72.69-1.19L348,144s2.41-2.31,3.65-2.34a4.91,4.91,0,0,1,1.85.77l41.36-.82,2,60.42-121.95,2.65v-8.38h.93v-11.1l-.69-2.67h-2.64l-.09-1.53V152.69h.67Z"/><path class="cls-42" d="M273.1,142.42v10.27h-.67V181l-28.94.43-3,1.85h-7.28V165.54h-1.91v.64l-18.42.47-.05,10.3h-3.72l-.1-7.11s-1-.27-1.06-.64v-2.28l-15.18.54v3H182.68v-2.37h-3.13s-.76.16-.76-.8,0-3.41,0-3.41h-6.34v1.89h-9.91v2.4h6.9V175h3.13v3.29h-6.22V179h-3.94v-6l-10.23.84v14.85l19.62-.68.17,19.72-12.49,0-29.55.62s4.64-10.69,5.1-18.16l.13-5.1a3.9,3.9,0,0,1-.71-2.38c.21-1,2-5.85,2-5.85s.92-4.21-4.59-5a12.46,12.46,0,0,1-5,2.93c-3.09.91-6.68-5.39-6.68-5.39a8.35,8.35,0,0,1,2-7.14c3-3.59,10.85-13.77,10.85-13.77l75.83-1.75,7.94-.2a8.67,8.67,0,0,0,3.62-3.33Z"/><path class="cls-43" d="M265.75,91.76l1.52,2.3,6,8.94-.16,39.42-52.65.78s-1.64,3-3.95,3.37-20.61.49-20.61.49l0,1.44-14,.29v-1.26h-8.53l-40.3.95,0-5.2s-2.12-2.79-2.2-4.43,2.56-8.63,2.56-8.63V126.7s14.36,1.09,21.26,2.81,44.83,8.87,44.83,8.87l3.86-32.64.12-41.48,3.16,0V62.78h-1.16V52.7h-2.33V44.81l30.61-1.63v50.2h2.39V90.9h9l.53,1.62h2.94l.06,3.34s4.21-.46,4.38-1V91.75Z"/><path class="cls-44" d="M394.88,141.65l-.14-19.85H399l-.09-4.88-4.51,2.7-.27-17.9-49.27.58-19.46-12.2.06-3.28a2,2,0,0,1,.9-.77l0-14.11-12.06,0v11.2s-7.17-4.22-11.63-21L295.06,62l0-9.48-4.62-.12L290,61.93l-19.28-.06,13.37,20.5L267.27,94.06l6,8.94-.16,39.42,72.69-1.19L348,144s2.91-2.46,3.65-2.34a7.35,7.35,0,0,1,1.85.77Z"/><polygon class="cls-45" points="494.63 99.44 495.56 139.52 394.88 141.65 394.74 121.81 399.01 121.81 398.9 116.93 394.4 119.64 394.07 101.74 494.63 99.44"/><path class="cls-46" d="M547.21,98.21l-52.66,1.44,1,39.87,59.09-1.65a1.79,1.79,0,0,0,1.43-.85,21.1,21.1,0,0,0,1.27-3.17s-.28-.76-1.29-.43-7.93-7.59-7.93-7.59l-.08-13.23Z"/><path class="cls-47" d="M434.68,41.23,494,39.75,494.11,69l-2.46.13a.74.74,0,0,0-.51,1c.24.64,3.16,7.95,3.16,7.95l.33,21.34L434.31,101Z"/><path class="cls-28" d="M500.58,29.59h23.69s2,4.43,3.05,5.35.46,6.11.46,6.11,3.82,21.09,17.58,33.62c0,0-.23.63-4,1.06l0,3.4s1.83,1.88.22,3.22c0,0,3,11,5.63,15.66l-52.66,1.43L494.3,78.1,491.09,70s-.23-.86.93-.93,2.09-.06,2.09-.06L494,39.75l12.3.09.84-.31L500,30s-.18-.26.56-.4"/><polygon class="cls-48" points="628.49 418.33 628.4 425.88 593.07 425.75 592.89 418.24 628.49 418.33"/></g></g></svg>