<svg id="Layer_1" data-name="Layer 1" xmlns="http://www.w3.org/2000/svg" viewBox="0 0 890.78 1125"><defs><style>.cls-1{fill:#4480b6;}.cls-1,.cls-2,.cls-3,.cls-4,.cls-5,.cls-6,.cls-7{stroke:#000;stroke-miterlimit:10;}.cls-2{fill:#1a5295;}.cls-3{fill:#77abd1;}.cls-4{fill:#c0d5e4;}.cls-5{fill:#eff3fe;}.cls-6{fill:#437fb5;}.cls-7{fill:#aaa;}</style></defs><path class="cls-1" d="M500.58,29.59h23.69s2,4.43,3.05,5.35.46,6.11.46,6.11,3.82,21.09,17.58,33.63c0,0-.23.62-4,1l0,3.4s1.82,1.88.22,3.22c0,0,3,11,5.63,15.65l-52.66,1.44L494.3,78.1,491.09,70s-.23-.86.93-.93,2.09-.06,2.09-.06L494,39.75l12.3.09.84-.31L500,30S499.84,29.73,500.58,29.59Z"/><path class="cls-2" d="M434.68,41.23,494,39.75,494.11,69l-2.46.13a.74.74,0,0,0-.51,1c.24.64,3.16,7.95,3.16,7.95l.33,21.34L434.31,101Z"/><path class="cls-3" d="M547.21,98.21l-52.66,1.44,1,39.87,59.09-1.65a1.79,1.79,0,0,0,1.43-.85,21.1,21.1,0,0,0,1.27-3.17s-.28-.76-1.29-.43-7.93-7.59-7.93-7.59l-.08-13.23Z"/><polygon class="cls-3" points="494.63 99.44 495.56 139.52 394.88 141.65 394.74 121.81 399.01 121.81 398.9 116.93 394.4 119.64 394.07 101.74 494.63 99.44"/><path class="cls-4" d="M394.88,141.65l-.14-19.85H399l-.09-4.88-4.51,2.7-.27-17.9-49.27.58-19.46-12.2.06-3.28a2,2,0,0,1,.9-.77l0-14.11-12.06,0v11.2s-7.17-4.22-11.63-21L295.06,62l0-9.48-4.62-.12L290,61.93l-19.29-.06,13.37,20.5L267.27,94.06l6,8.94-.16,39.42,72.69-1.19L348,144s2.91-2.46,3.65-2.34a7.35,7.35,0,0,1,1.85.77Z"/><path class="cls-4" d="M265.75,91.76l1.52,2.3,6,8.94-.16,39.42h0l-52.65.78s-1.64,3-3.95,3.38-20.61.48-20.61.48l0,1.44-14,.29v-1.26h-8.53l-40.3.95,0-5.2s-2.12-2.79-2.2-4.43,2.56-8.63,2.56-8.63V126.7s14.36,1.09,21.26,2.81,44.83,8.87,44.83,8.87l3.86-32.64.12-41.48,3.16,0V62.78h-1.16V52.7h-2.33V44.81l30.61-1.63v50.2h2.39V90.9h9l.51,1.62h3l.06,3.34s4.21-.46,4.38-1V91.75Z"/><path class="cls-4" d="M273.1,142.42v10.27h-.67V181l-28.94.43-3,1.85h-7.28V165.54h-1.91v.64l-18.42.47-.05,10.3h-3.72l-.1-7.11s-1-.27-1.06-.64v-2.28l-15.18.54v3H182.68v-2.37h-3.13s-.76.16-.76-.8,0-3.41,0-3.41h-6.34v1.89h-9.91v2.4h6.9V175h3.13v3.29h-6.22V179h-3.93v-6l-10.24.84v14.85l19.63-.68.16,19.72-12.49,0-29.55.62s4.64-10.69,5.1-18.16l.13-5.1a3.9,3.9,0,0,1-.71-2.38c.21-1,2-5.85,2-5.85s.92-4.21-4.59-5a12.46,12.46,0,0,1-5,2.93c-3.09.91-6.68-5.39-6.68-5.39a8.39,8.39,0,0,1,2-7.14c3-3.59,10.85-13.77,10.85-13.77l75.83-1.75,7.94-.2a8.67,8.67,0,0,0,3.62-3.33Z"/><path class="cls-3" d="M273.1,142.42l72.69-1.19L348,144s2.41-2.31,3.65-2.34a4.91,4.91,0,0,1,1.85.77l41.36-.82,2,60.42-121.95,2.65v-8.38h.93v-11.1l-.69-2.67h-2.64l-.09-1.53V152.69h.67Z"/><polygon class="cls-1" points="394.88 141.65 495.56 139.52 495.48 146.36 496.17 147.31 497.82 199.88 396.87 202.07 394.88 141.65"/><path class="cls-1" d="M495.56,139.52l58.94-1.7a.54.54,0,0,1,.56.5l.75,8.84s0,.07,0,.11c.22.69,2.55,7.75,8.26,7.8l.64,0,.1,12.54a.51.51,0,0,0,0,.13c.35,1.28,6,20.66,28.88,20.94a.55.55,0,0,1,.49.3l2,4.2a.6.6,0,0,0,.09.13c.27.29,1.5,1.71-.07,2.84-1.74,1.24-8.43,5.64-10.82,8.29a.47.47,0,0,1-.29.16c-.78.13-4,.61-6,0-2.3-.73-2.49-2.28-2.49-2.28s-.38-2.39,1.67-.92a6.32,6.32,0,0,0,4.71.81.88.88,0,0,0,.2-.09l4.3-3.07s.51-3.14-2.23-3.46a29.29,29.29,0,0,0-6.67.37,23.92,23.92,0,0,0-5,2.46l-75.81,1.47Z"/><path class="cls-1" d="M130,208.35s40.52-1,42-.66l8.36,0,2.29,9.46v10.6L233,225.43v-2.29l27.12-17.82,14.8-.6,40.93-.9,2.35,80.46-82.84,1.86,0-4.11,5.45-7.83s2.16-3.25-.06-4.62-6.16-1.56-6.16-1.56v-1.54L146.74,269s-4.57-2.74-5.82-9.64l-5.25-19.82s-1.17-2.94-.76-3.94,1.76-4.58,1.76-4.58a1.26,1.26,0,0,1,1.35-.94c1.17,0,13.68-.76,13.68-.76V218.44l-23.31.47s-2.13-3.68-1.51-5S128.88,208.71,130,208.35Z"/><polygon class="cls-1" points="315.85 203.82 396.87 202.07 399.29 282.39 318.2 284.28 315.85 203.82"/><polygon class="cls-1" points="396.87 202.07 497.82 199.88 499.98 280.38 399.29 282.39 396.87 202.07"/><path class="cls-3" d="M497.82,199.88l1.09,40.37,65.61-2.11,16-7.3s-5.54-10.12-5.89-28.59a11.32,11.32,0,0,1-1-3.84Z"/><path class="cls-3" d="M498.91,240.25,500,280.38l86.15-2.29,3.88-.93h7.09a2,2,0,0,0,1.26-.37c.24-.25.28-.68-.25-1.4a57.27,57.27,0,0,1-3.54-6.59l-.17-3.29-2.11-4-.68-7.68s1.41-2,.63-3.18-11.71-19.84-11.71-19.84l-16,7.3Z"/><path class="cls-3" d="M598.46,276.66,598,289.15l2.2,5a2.2,2.2,0,0,1-.12,2.82c-1.2,1.63-1,4.4-1,4.4s4.49,18.74,7.25,22.15a62.66,62.66,0,0,0,7.74,7.37s1.92,1.94.57,3.33a19.38,19.38,0,0,1-3.9,2.73L545,339.36l-2.6-8.47-5.27-5.1a2.75,2.75,0,0,0-3.73,0,2.32,2.32,0,0,1-3.45-.26l-2.38-5.92a1.86,1.86,0,0,0-1.84-.23,16.38,16.38,0,0,1-3.21.58l-20.87.1L500,280.38l86.15-2.29,3.88-.93S598.12,277.08,598.46,276.66Z"/><polygon class="cls-3" points="399.29 282.39 499.98 280.38 501.67 320.04 501.92 339.93 401.07 342.89 399.29 282.39"/><polyline class="cls-2" points="400.86 342.71 280.08 345.62 277.91 285.18 318.2 284.28 398.93 282.42"/><polygon class="cls-5" points="277.91 285.18 235.36 286.14 236.88 346.87 280.08 345.62 277.91 285.18"/><polygon class="cls-1" points="299.64 345.19 441.26 341.71 441.98 381.94 300.4 385.59 299.64 345.19"/><polygon class="cls-3" points="441.26 341.71 441.98 381.94 503.1 380.72 503.18 400.51 523.77 400.12 521.8 319.93 501.67 320.04 501.92 339.93 441.26 341.71"/><path class="cls-5" d="M521.8,319.93l2,80.19,40.31-.91L562,338.73l-17,.63-2.6-8.47-5.27-5.1s-1.43-1.76-3.73,0a2.27,2.27,0,0,1-3.59-.58l-2.24-5.6a1.76,1.76,0,0,0-1.84-.23A20.49,20.49,0,0,1,521.8,319.93Z"/><path class="cls-4" d="M562,338.73l1.42,40.67L603.8,378l-.67-17.88,12.36-.07s-6.13-5.27-4.71-23Z"/><path class="cls-4" d="M603.13,360.08,603.8,378l.05,25.48,5.73-3.32s2.12-1.9,6.7-.39,13.88,1.12,13.88,1.12h17v-3.51h-4.76v-4.11h18.68v-.73h4.69v-3l-24,.26v-2.66h15.54V378.5H645.7l-4.12.66-4,7.91h-3.94L622,364.85s-6.12-1.38-6.5-4.84Z"/><polygon class="cls-4" points="603.8 377.96 603.85 403.44 588.61 403.52 585.72 399.26 564.08 399.21 563.39 379.4 603.8 377.96"/><polygon class="cls-1" points="300.4 385.59 370.46 383.76 371.7 404.25 372.99 404.3 373.74 424.33 372.65 424.33 373.84 464.3 302.74 465.87 300.4 385.59"/><polygon class="cls-6" points="370.46 383.76 371.7 404.25 372.99 404.3 373.74 424.33 372.65 424.33 373.84 464.3 444.81 462.73 441.98 381.94 370.46 383.76"/><polygon class="cls-1" points="441.98 381.94 503.1 380.72 503.18 400.51 523.77 400.12 525.69 460.91 444.81 462.73 441.98 381.94"/><polygon class="cls-4" points="523.77 400.12 525.69 460.91 566.56 459.89 566.64 479.49 593.65 478.6 593.03 432.71 564.76 433.38 564.08 399.21 523.77 400.12"/><polygon class="cls-5" points="564.08 399.21 580.23 399.25 580.85 433 564.76 433.38 564.08 399.21"/><polygon class="cls-5" points="580.23 399.25 585.72 399.26 588.61 403.52 592.99 403.51 593.03 432.71 580.85 433 580.23 399.25"/><path class="cls-5" d="M593,403.51l10.86-.07,5.73-3.32s1.95-1.93,6.7-.39,13.88,1.12,13.88,1.12H642l0,11.1-5.55,0a4.88,4.88,0,0,1-3.15,5.14l-4.67,1.12-35.66,0Z"/><polygon class="cls-5" points="628.66 418.23 628.55 432.95 593.03 432.71 593 418.21 628.66 418.23"/><path class="cls-4" d="M628.55,433l.54,1,.32,19.59s.71,2.06,3.87,2.13,3.43.26,3.43.26.48,0,.43.93,0,3.11,0,3.11h8.59s2.13-1.3,3.07-1.15a5.62,5.62,0,0,1,1.76.64s1.52,1.73.55,3a27.05,27.05,0,0,1-3.84,3.4l-.09,3.52,3.11,3.85v4.51l-1.94,1.94,1.24,17.95h-5.81a2.72,2.72,0,0,1-.8-1.55c0-.78,0-6.09,0-6.09a3.88,3.88,0,0,0-.14-3.69l-.44-4.37a8.47,8.47,0,0,1-1-5l1.63-4.85,0-4.86-1.92-4.43-4.15,0-1.58,5.73a5.61,5.61,0,0,0-.05,3.29c.57,1.43,2.51,5.4,2.51,5.4l-2.49.89-41.67.57L593,432.71Z"/><path class="cls-2" d="M373.84,464.3l91.05-2,2.88,100.28-55.32,2-.13,9.49-3.64,1.42s-.71.19-1,0l-1.12-2V556.75l-1-2.3-28.53.76Z"/><polygon class="cls-2" points="464.89 462.32 467.77 562.6 568.03 559.87 566.64 479.49 566.56 459.89 464.89 462.32"/><path class="cls-3" d="M566.64,479.49,568,559.87,658,558l.12-2.91-4.22-3.19s-.69-.66-.24-2.63-2.62-6.38-2.62-6.38l-.08-6-4-6.53,0-3.1a1.86,1.86,0,0,0-.21-.77l-2.26-4.08a2.57,2.57,0,0,1,.39-2.06,12.55,12.55,0,0,1,1.41-1.56s.82-2.09-.19-3.53a13.65,13.65,0,0,0-2.23-2.44,1.8,1.8,0,0,1-.53-1.13c0-.67,0-9.59,0-9.59l-3.15-5.2.05-4.44s-6.3-2.84-2.44-9.41l0-5.93-2.49.89-41.67.57Z"/><path class="cls-2" d="M377.06,555.21l.55,35-10,5,1.77,66.06,2.11,4.08,118.92-2.81L488,562l-75.53,2.55-.13,9.49-3.64,1.42a2.13,2.13,0,0,1-1,0l-1.12-2V556.75l-1-2.3Z"/><polygon class="cls-3" points="365.38 585.49 377.54 585.41 377.61 590.25 367.64 595.29 369.41 661.36 371.52 665.44 371.55 680.05 369.93 683.98 370.84 716.05 249.25 720.03 247.71 652.81 257.25 648.75 348.39 645.81 347.7 610.27 364.19 602.96 364.51 585.46 365.38 585.49"/><polygon class="cls-1" points="487.98 562.02 490.44 662.63 611.5 660.13 608.97 559 568.03 559.87 487.98 562.02"/><path class="cls-3" d="M609,559l1.51,60.23,71.37-1.91,8.87-4.9s-5.81-3.69-6.41-6.58a22.9,22.9,0,0,0-.72-3.1l-3.31-4.28V594s-10.66-8-11-14.52-.42-7.43-.42-7.43L658,558Z"/><path class="cls-2" d="M371.52,665.44l0,14.61L369.93,684l.91,32.07L373,766.17l38.83-1,7.91-1.3,63-.14a4.06,4.06,0,0,0,3.12.64c2.15-.25,7.7-1.17,7.7-1.17l-3.07-100.56Z"/><polygon class="cls-3" points="490.44 662.63 493.5 763.19 553.87 761.9 551.63 661.37 490.44 662.63"/><polygon class="cls-3" points="551.63 661.37 553.87 761.9 578.9 760.93 614.19 760.18 611.5 660.13 551.63 661.37"/><path class="cls-3" d="M610.48,619.23l1,40.9,22.23-.81s8.93,8.61,15.76-.84l30.76-1.05s4.52,1.68,7.15-.1L714,657a1.15,1.15,0,0,0,.9-.45c.69-.89,1.85-2.94-.65-4.12h-4.35L706,647.74l-1.54-4.67,0-10s-14-11.88-13.77-20.68l-8.87,4.9Z"/><path class="cls-3" d="M611.5,660.13l2.13,79.63,80-2.53-.94-40.06,5,.22s6.78,1.74,8.22,2.42,7.23-2.62,7.23-2.62l10.17-.06s3.13-1.34-.22-2.73-9-6.32-9-6.32-3.63-7.82-2.8-11.73c0,0,1.5-1.1.59-2.13s-5-8.77-5-8.77.92-7.13,3.36-8.45l-22.76.33s-2.4,1.54-7.15.1l-30.76,1.05s-5.57,8.62-15.76.84Z"/><path class="cls-3" d="M373,766.17l1.66,60.27,120.08-3-1.19-60.22-7.7,1.17a6.46,6.46,0,0,1-3.12-.64l-63,.14-7.91,1.3Z"/><path class="cls-2" d="M493.51,763.19l1.19,60.22,20.54-.27s15.91,20,20.59,39.31l81.4-1.56-3-100.71s-59.27,1.08-60.32,1.72Z"/><polygon class="cls-2" points="613.63 739.76 614.19 760.18 617.23 860.89 696.93 858.44 693.61 737.23 613.63 739.76"/><path class="cls-1" d="M692.67,697.17l1.91,80.57,87.93-2.12s-2.08-4-2.08-5.33,3-4.55,3-4.55l5-4.17-7.3-8.65-4.77,3.84a7.29,7.29,0,0,1-6.86-.07c-4-1.9-17.71-12.64-17.71-12.64l-5.45-5.84s-.52-.76,2.45-2.34l-.11-5s-4.37,0-7.24-5.09l-.87-4.33L723.64,702a2,2,0,0,1-.42-1.11c-.11-.79,0-3.73,0-3.73l-10.17.06s-6,3.15-7.23,2.62-8.22-2.42-8.22-2.42Z"/><path class="cls-1" d="M494.7,823.41l6,160.81,25.25-.31v3.64s3.16.57,3.39-3.79l10.22-.06v20.06l41.33-1.75-4-140.4-41,.84a78.85,78.85,0,0,0-20.59-39.31Z"/><polygon class="cls-4" points="500.69 984.22 496.94 883.45 476.68 883.97 476.73 901.78 456.69 902.09 456.69 904.42 436.53 905.08 436.53 890.42 433.29 890.42 433.29 885 415.82 885.11 417.83 945.46 377.7 947.54 378.67 967.52 435.97 966.04 436.34 976.41 449.52 976.19 449.52 965.45 459.01 965.28 459.08 960.22 461.34 960.18 461.41 955.45 468.33 955.48 469.12 965.12 489.29 964.64 489.77 981.02 489.04 984.47 500.69 984.22"/><path class="cls-2" d="M576.87,861.61l4,140.4.56,35.07s11.19,2.92,17.68.82,12.48-9.25,12.48-9.25,8.11-9.24,15.57,0v5.19l41.64-1L690.1,1029l-23.67-36.44s-1.09-1.24,1.46-1.24S701,992.88,701,992.88l-4.05-134.44Z"/><path class="cls-1" d="M694.58,777.74,701,992.88l65.8-1.39,56.34.3L822.79,894l-6.54-3.68s-1.52-.93-.35-2a21.15,21.15,0,0,0,2.34-2.62s.52-.47-.3-1.7-3.85-6.37-3.85-6.37a2,2,0,0,1,.35-2.33c1-.88,5.67-4.44,5.67-4.44l2.74-.06-.14-1.45L820,866.63v-4.37l2.67-3.67-.73-26.3-9.43-2.12L808.8,786.1l-20.21-10.35-6.08-.13Z"/><path class="cls-5" d="M627.17,1033.84l4.28-.1-4.89,20.72s-.5,1.42-.26,1.77,5.44,1.38,5.44,1.38v16.26l67.74-1.13-.12-30.57L690.1,1029l-21.29,3.77-37.36.94"/><path class="cls-5" d="M699.36,1042.17l.12,30.57,123.59-1,0-80L701,992.88l-33.09-1.53s-2.44-.17-1.46,1.24S690.1,1029,690.1,1029Z"/><polygon class="cls-7" points="628.63 418.25 628.52 426.27 593 426.13 592.97 418.24 628.63 418.25"/></svg>