<?xml version="1.0" encoding="utf-8"?>
<!-- Generator: Adobe Illustrator 23.0.1, SVG Export Plug-In . SVG Version: 6.00 Build 0)  -->
<svg version="1.1" id="Layer_1" xmlns="http://www.w3.org/2000/svg" xmlns:xlink="http://www.w3.org/1999/xlink" x="0px" y="0px"
	 viewBox="0 0 100 76.2" style="enable-background:new 0 0 100 76.2;" xml:space="preserve">
<style type="text/css">
	.st0{display:none;fill:#333333;}
	.st1{display:none;fill:#222323;}
	.st2{display:none;fill:#EFEDA8;}
	.st3{display:none;fill:#767777;}
	.st4{display:none;fill:#E6E7E8;}
	.st5{fill:none;}
	.st6{display:none;fill:none;stroke:#000000;stroke-width:0.4;stroke-miterlimit:10;}
	.st7{display:none;fill:#B2B1B1;}
</style>
<polygon class="st0" points="39.1,17.9 88.8,17.6 90.4,20.2 91.5,23.8 91.2,30.6 90.6,60.6 89.2,63.4 87,64.5 82,64.7 37.6,64.5 
	35.9,65.7 28.2,66.4 22.5,66.4 15.9,65.7 12.1,65.7 10.7,64.5 9.7,56.9 9.5,45.6 9.5,38.4 9.5,19.5 10.8,16.9 16.6,16 17.4,16 
	18.3,12.3 22.7,11.7 27.1,12 29.8,12.5 30.4,14.3 31.2,16.4 34.6,16.7 37.3,17.3 38.5,17.8 "/>
<ellipse class="st1" cx="63.2" cy="41.8" rx="20.4" ry="20.9"/>
<polygon class="st2" points="20.5,11 20.9,9.6 26.5,9.9 26.7,10.6 27.4,11.7 27.1,12 20.3,12 "/>
<circle class="st3" cx="63.1" cy="41.4" r="16.3"/>
<polygon class="st0" points="38.1,12.5 44.6,13.3 46,17.6 38.5,17.8 37.3,17.3 33.8,16.4 32.3,16.5 33.2,13.2 "/>
<circle class="st4" cx="63.2" cy="41.2" r="9"/>
<g>
	<path class="st5" d="M38.2,17.4c1.9,0,4.4-0.1,7.3-0.1c-0.3-1.2-0.7-2.8-0.9-3.4c-0.3-0.3-3-0.8-6.7-0.8c-3,0-4.4,0.4-4.5,0.6
		c-0.1,0.6-0.3,1.6-0.5,2.4C35.6,16.4,37.9,16.8,38.2,17.4z M36.7,14.1c-0.6,0.4-1.8,0.8-2.5,0.4c-0.2-0.1-0.2-0.5,0-0.6
		c0.3-0.2,0.7-0.2,1.1-0.3c0.3-0.1,0.7-0.1,1.1-0.2C36.8,13.3,37.1,13.8,36.7,14.1z"/>
	<path class="st5" d="M30.5,15.9c-0.3-1.1-0.6-2.4-0.8-3c-0.3-0.3-3-0.8-6.7-0.8c-3,0-4.4,0.4-4.5,0.6c-0.2,0.8-0.4,2.1-0.6,3
		c1.6-0.1,3.1-0.1,4.4-0.1C22.5,15.7,26.6,15.7,30.5,15.9z M20.1,13.8c-0.3,0-0.5-0.4-0.2-0.6H20c0.2,0,0.4-0.1,0.6-0.1
		c0.3,0,0.5-0.1,0.8-0.1c0.6-0.1,1.2,0,1.8,0c0.3,0,0.4,0.5,0.1,0.6C22.2,13.9,21.1,14,20.1,13.8z"/>
	<path class="st5" d="M27,11.6c-0.1-0.4-0.1-0.8-0.2-1s-1.6-0.7-3.5-0.7c-1.7,0-2.3,0.4-2.3,0.5c0,0.3-0.1,0.7-0.1,1
		c0.6,0,1.3-0.1,2.1-0.1C23,11.4,25,11.4,27,11.6z"/>
	<path class="st5" d="M37.5,17.8c-0.5-0.6-6.9-1.3-15.3-1.3c-8.1,0-11.4,0.7-11.7,1.1c-0.5,0.7-0.9,10-0.8,23.5
		c0.1,15.2,0.9,22.8,1.5,23.4c1,0.9,7.9,1.6,15.1,1.6c5.5,0,9.6-0.4,10.3-1.1c0.6-0.6,1.4-7.1,1.5-23.6
		C38.2,29.6,37.9,18.5,37.5,17.8z M11.9,30.9c0,0.6-0.1,1.2-0.2,1.8c-0.1,0.5-0.8,0.3-0.9-0.1c-0.1-0.7,0-1.3,0-2
		c0.1-0.5,0-1.1,0.4-1.4c0.1-0.1,0.3-0.1,0.4,0C12,29.7,11.9,30.3,11.9,30.9z M11.9,26.7c0,0.5-0.8,0.6-0.9,0.1
		c-0.4-2.6-0.2-5.7,0.6-8.1c0.1-0.3,0.6-0.3,0.6,0.1C12.2,21.4,12.1,24.1,11.9,26.7z M27.9,49.3c-3.6,1.2-7.6,1.1-11.3,0.8
		c-0.5,0-0.5-0.8,0-0.8c3.8,0.2,7.5-0.3,11.2-0.7C28.2,48.6,28.3,49.2,27.9,49.3z M32.9,47.8c-0.3,0.3-0.7,0.5-1.1,0.6
		c-0.4,0.2-0.8,0.3-1.3,0.5c-0.7,0.3-0.9-0.8-0.3-1.1c0.8-0.3,1.5-0.7,2.3-0.7C32.9,47.1,33.1,47.6,32.9,47.8z"/>
	<path class="st5" d="M63.1,25.1c-0.1,0-0.2,0-0.3,0c-4.5,0.1-8.9,2.4-11.7,6.1c-3.4,4.6-4.6,10.7-2.9,15.6
		c2.1,6.3,8.7,10.9,15.6,10.9c1,0,1.9-0.1,2.8-0.3c7.5-1.5,13.3-9.3,12.8-16.9C78.9,32.3,71.3,25.1,63.1,25.1z M51.2,35.2
		c-0.2,0.4-0.4,0.8-0.6,1.2c-0.1,0.3-0.3,0.6-0.6,0.9c-0.2,0.1-0.5,0.1-0.5-0.1c-0.2-0.9,0.5-1.7,1.1-2.3
		C51,34.5,51.4,34.9,51.2,35.2z M52.4,33.4c-0.3,0.3-0.9-0.1-0.6-0.5c1.4-2.5,4-5.8,7.2-5.9c0.8,0,0.8,1.2,0,1.2
		C56.2,28.4,54.3,31.7,52.4,33.4z M65.3,50.8c-0.5,0.1-1.1,0.2-1.7,0.2c-4,0-7.8-2.7-9.1-6.4c-1-2.9-0.3-6.4,1.7-9.1
		c1.6-2.2,4.2-3.5,6.9-3.6h0.2c4.8,0,9.2,4.2,9.5,9C73.1,45.4,69.7,49.9,65.3,50.8z"/>
	<path class="st5" d="M63.3,32.6h-0.2c-2.4,0-4.8,1.3-6.3,3.3c-1.9,2.5-2.5,5.8-1.6,8.4c1.1,3.4,4.8,5.9,8.4,5.9
		c0.5,0,1-0.1,1.5-0.2c4-0.8,7.2-5,6.9-9.1C71.8,36.5,67.7,32.6,63.3,32.6z M56.6,39.7c-0.2,0.3-0.3,0.6-0.4,0.9
		c-0.1,0.3-0.2,0.5-0.4,0.7c-0.1,0.1-0.4,0.1-0.4-0.1c-0.1-0.7,0.4-1.3,0.8-1.8C56.4,39.2,56.7,39.5,56.6,39.7z M62.4,34.5
		c-2.1,0.1-3.5,2.6-5,3.9c-0.3,0.2-0.7-0.1-0.5-0.4c1.1-1.9,3.1-4.4,5.4-4.5C63,33.5,63,34.4,62.4,34.5z"/>
	<path class="st5" d="M7.1,19.4c-0.1,0-0.3,0.1-0.5,0.8c-0.6,1.8-0.4,4.7,0,5c0.5,0.2,1.6,0.5,2.5,0.7c0.1-2.6,0.2-4.9,0.4-6.6
		c-0.6,0-1.3,0-1.9,0C7.4,19.4,7.2,19.4,7.1,19.4z"/>
	<path class="st5" d="M91.9,26.1c0.8-0.2,1.7-0.5,2.1-0.6c0.4-0.3,0.5-3.3,0-5c-0.2-0.6-0.4-0.8-0.5-0.8c-0.7,0-1.9,0-2.7,0
		C91.5,21.6,91.9,24.1,91.9,26.1z"/>
	<path class="st5" d="M74.1,11.7c-0.3-0.1-3.3-0.3-8.1-0.3c-7.9,0-12.7,0.3-13.2,0.7c-0.5,0.6-2.9,3.4-4.4,5.2
		c9.6-0.1,22.2-0.3,30.5-0.4C76.9,14.5,74.5,12,74.1,11.7z M57.1,13.6c-0.7,0.3-2.8,1.1-2.9-0.3c0-0.2,0.1-0.4,0.3-0.4l0,0
		c0.2-0.1,0.5,0,0.6,0.1h0.1c0.1,0,0.1,0,0.2,0c0.2,0,0.3,0,0.5-0.1c0.3,0,0.7-0.1,1-0.2C57.4,12.5,57.6,13.4,57.1,13.6z M60.9,13.6
		c-0.2,0-0.3,0.1-0.5,0.1c-0.3,0.1-0.7-0.1-0.7-0.5s0.3-0.6,0.7-0.5c0.2,0,0.3,0.1,0.5,0.1C61.3,12.8,61.3,13.5,60.9,13.6z"/>
	<path class="st5" d="M84.9,54.4c-0.5-0.3-1-0.4-1.5-0.4c-0.7,0-1.3,0.3-1.8,0.8c-0.5,0.6-0.8,1.3-0.8,2.1c0,0.9,0.6,1.8,1.4,2.3
		c0.4,0.3,0.9,0.4,1.3,0.4l0,0c1,0,1.9-0.6,2.3-1.4C86.6,56.9,86.1,55.1,84.9,54.4z"/>
	<path class="st5" d="M87.6,17.6c-2.2,0-37.6,0.5-49.2,0.6c0.4,3,0.5,13.9,0.5,23.2c-0.1,9-0.3,19.6-1.3,23.1h47.1
		c5.2,0,5.7-2.9,5.7-5.9c0-3.2,0.6-29,0.8-32.5c0.1-2.6-0.7-6.3-2.2-7.8C88.5,17.8,88.1,17.6,87.6,17.6z M81.5,28.8
		c0.5-0.7,1.1-1.4,1.6-2.1c0.6-0.8,1.1-1.5,1.8-2.2c0.3-0.3,0.7,0.1,0.5,0.4c-0.4,0.8-0.9,1.5-1.5,2.2s-1.2,1.5-1.9,2.1
		C81.8,29.4,81.3,29.1,81.5,28.8z M50.2,19.9c0.4-0.1,0.9-0.1,1.3-0.1c0.4,0,0.8-0.1,1.2,0.2c0.3,0.1,0.3,0.5,0,0.7
		c-0.3,0.1-0.7,0.1-1.2,0c-0.4,0-0.9,0-1.3-0.1C49.9,20.5,49.9,20,50.2,19.9z M40.4,19.9c1.3-0.1,2.6-0.1,4-0.2
		c1.2-0.1,2.4-0.2,3.5,0c0.5,0.1,0.5,0.9,0,1c-1.3,0.3-2.8,0.1-4.1,0.1c-1.2,0-2.3-0.1-3.5-0.3C40,20.5,40.1,19.9,40.4,19.9z
		 M41.7,53.5c-0.4,0.3-0.7,0.5-1.2,0.6c-0.6,0.1-0.9-0.6-0.4-0.9c0.4-0.2,0.8-0.4,1.2-0.5C41.9,52.6,42.1,53.2,41.7,53.5z
		 M67.6,62.3c-1.2,0.2-2.5,0.4-3.7,0.4c-9,0-17.5-6-20.3-14.3c-2.2-6.4-0.7-14.3,3.8-20.3c3.6-4.8,9.4-7.8,15.3-7.9
		c10.8-0.2,21,9.2,21.7,20C85,50.2,77.3,60.3,67.6,62.3z M86.6,58.5c-0.6,1.1-1.8,1.8-3,1.8l0,0c-0.6,0-1.2-0.2-1.7-0.5
		c-1-0.7-1.7-1.8-1.7-2.9c0-1,0.3-2,1-2.7c1.1-1.1,2.7-1.3,4.1-0.4C86.8,54.7,87.4,56.9,86.6,58.5z M87,22.4c-0.3,0.3-0.9,0-0.8-0.4
		c0.2-0.5,0.5-1.1,1-1.5c0.3-0.2,0.7,0,0.6,0.3C87.7,21.4,87.4,22,87,22.4z"/>
	<path class="st5" d="M63,20.9c-0.1,0-0.2,0-0.4,0c-5.7,0.1-11.2,3-14.7,7.6c-4.3,5.8-5.8,13.4-3.7,19.6c2.7,8,11,13.8,19.6,13.8
		c1.2,0,2.4-0.1,3.6-0.4c9.4-1.9,16.8-11.7,16.2-21.3C82.9,30,73.3,20.9,63,20.9z M56.4,23.6c0.2-0.1,0.4-0.2,0.6-0.2
		c0.2-0.1,0.4-0.1,0.6-0.1c0.3-0.1,0.4,0.3,0.2,0.4c-0.2,0.1-0.4,0.3-0.6,0.4c-0.2,0.1-0.4,0.2-0.6,0.2c-0.2,0.1-0.4-0.1-0.4-0.2
		C56.1,23.8,56.2,23.7,56.4,23.6z M54.6,24.3c0.3-0.1,0.6,0.2,0.4,0.5c-1.6,1.3-3.7,2.2-4.9,3.8c-0.2,0.2-0.6,0-0.5-0.3
		C50.3,26.3,52.8,25.2,54.6,24.3z M66.8,58.2c-1,0.2-2,0.3-3,0.3c-7.2,0-14-4.8-16.3-11.4c-1.7-5.1-0.5-11.5,3-16.3
		c2.9-3.9,7.5-6.3,12.3-6.4c8.7-0.2,16.8,7.4,17.4,16C80.7,48.5,74.6,56.6,66.8,58.2z"/>
	<path d="M94.8,21.1c-0.3-1.5-0.7-2.2-1.4-2.2h-3.1c-0.2-0.5-0.5-0.8-0.8-1.2c-0.6-0.6-1.2-0.9-1.9-0.9c-0.6,0-3.5,0-7.7,0.1
		c-1.9-2.2-4.8-5.5-5.5-5.8h-0.1c-0.4,0-0.9-0.1-1.3-0.1c-0.1,0-0.2,0-0.4,0h-0.1c-0.5,0-0.9,0-1.4,0c-0.3,0.1-0.7,0-1,0h-4
		c-1.7,0-4.5,0-7,0.1c-0.3,0.1-0.7,0.2-1.1,0.1c-0.2,0-0.3,0-0.5-0.1c-0.1,0-0.2,0-0.3,0c0,0,0,0,0-0.1c-0.1,0-0.2,0-0.2,0
		c-1.3,0.1-2.6,0.2-4,0.2c-0.3,0.1-0.5,0.2-0.6,0.3c-0.6,0.7-3.5,4.1-4.9,5.7h-1.2c-0.3-1.2-0.7-3-1-3.7c-0.5-1.2-7.3-1.3-7.4-1.3
		c-5,0-5.2,0.9-5.2,1.2c-0.1,0.7-0.3,1.7-0.5,2.5c-0.3,0-0.6,0-0.9-0.1c-0.3-1.2-0.6-2.7-0.9-3.3c-0.2-0.5-1.3-0.8-2.6-1
		c-0.1-0.5-0.2-1-0.2-1.3C27.3,9,23.4,9,23.4,9c-1.3,0-2.9,0.2-3,1.1c0,0.3-0.1,0.8-0.1,1.2c-2.1,0.3-2.3,0.8-2.3,1
		c-0.2,0.9-0.4,2.2-0.6,3.2c-3.4,0.2-6.7,0.5-7.2,1.3c-0.1,0.2-0.2,0.8-0.4,1.6H7.3c-0.7,0-1.1,0.8-1.4,2.2c-0.2,1.2-0.5,4.6,0.6,5
		c0.5,0.2,1.8,0.5,2.8,0.8c-0.4,5-0.4,10.4-0.4,14.8C9,48,9.3,63.8,10.7,65.1c1.5,1.3,10.3,1.7,15.6,1.7c2.8,0,9.5-0.1,10.8-1.3
		c0.1-0.1,0.2-0.2,0.2-0.4h47.3c5.6,0,6.4-3.2,6.4-6.6c0-3,0.6-26.3,0.8-31.7c0.9-0.2,1.9-0.5,2.4-0.7C95.3,25.7,95,22.3,94.8,21.1z
		 M52.8,12.1c0.5-0.3,5.3-0.7,13.2-0.7c4.8,0,7.7,0.1,8.1,0.3c0.5,0.2,2.8,2.8,4.9,5.2c-8.3,0.1-20.9,0.3-30.5,0.4
		C49.9,15.6,52.3,12.8,52.8,12.1z M33.3,13.7c0.1-0.2,1.5-0.6,4.5-0.6c3.7,0,6.4,0.5,6.7,0.8c0.3,0.6,0.7,2.3,0.9,3.4
		c-2.9,0-5.4,0.1-7.3,0.1c-0.3-0.7-2.6-1.1-5.3-1.3C33,15.3,33.2,14.3,33.3,13.7z M20.9,10.4c0-0.1,0.6-0.5,2.3-0.5
		c2,0,3.4,0.4,3.5,0.7c0.1,0.2,0.1,0.6,0.2,1c-1.9-0.2-4-0.2-4-0.2c-0.9,0-1.6,0-2.1,0.1C20.8,11.1,20.9,10.7,20.9,10.4z M18.4,12.8
		c0.1-0.2,1.5-0.6,4.5-0.6c3.7,0,6.4,0.5,6.7,0.8c0.2,0.6,0.6,1.9,0.8,3c-3.9-0.2-7.9-0.3-8.3-0.3c-1.3,0-2.8,0-4.4,0.1
		C18,14.8,18.3,13.5,18.4,12.8z M9.1,26c-1-0.3-2.1-0.6-2.5-0.7c-0.4-0.3-0.5-3.3,0-5c0.2-0.6,0.4-0.8,0.5-0.8h2.4
		C9.3,21,9.2,23.3,9.1,26z M36.6,65c-0.8,0.7-4.8,1.1-10.3,1.1c-7.2,0-14.1-0.7-15.1-1.6c-0.6-0.6-1.4-8.2-1.5-23.4
		C9.6,27.6,10,18.3,10.5,17.5c0.3-0.4,3.6-1.1,11.7-1.1c8.4,0,14.8,0.7,15.3,1.3c0.3,0.8,0.6,11.9,0.6,23.6
		C38,57.9,37.2,64.4,36.6,65z M90.3,58.6c0,3-0.4,5.9-5.7,5.9h-47c0.9-3.5,1.2-14.1,1.3-23.1c0.1-9.3-0.1-20.2-0.5-23.2
		c11.6-0.1,47-0.6,49.2-0.6c0.5,0,1,0.2,1.4,0.7c1.4,1.5,2.2,5.3,2.1,7.8C90.9,29.6,90.3,55.4,90.3,58.6z M93.9,25.4
		c-0.4,0.2-1.2,0.4-2.1,0.6c0.1-2-0.3-4.5-1.2-6.4h2.8c0.1,0,0.3,0.1,0.5,0.8C94.5,22.2,94.3,25.1,93.9,25.4z"/>
	<path d="M84.3,40.2c-0.7-10.8-10.9-20.2-21.7-20c-5.9,0.1-11.7,3.1-15.3,7.9c-4.5,5.9-6,13.9-3.8,20.3c2.8,8.3,11.3,14.3,20.3,14.3
		c1.3,0,2.5-0.1,3.7-0.4C77.3,60.3,85,50.2,84.3,40.2z M67.4,61.6C66.2,61.8,65,62,63.8,62c-8.7,0-16.9-5.8-19.6-13.8
		c-2.1-6.2-0.6-13.8,3.7-19.6c3.5-4.7,9-7.5,14.7-7.6c0.1,0,0.2,0,0.4,0c10.3,0,19.9,9,20.6,19.3C84.2,49.9,76.8,59.7,67.4,61.6z"/>
	<path d="M62.8,24.4c-4.8,0.1-9.4,2.5-12.3,6.4c-3.6,4.8-4.8,11.1-3,16.3c2.2,6.6,9.1,11.4,16.3,11.4c1,0,2-0.1,3-0.3
		c7.8-1.6,13.9-9.7,13.4-17.7C79.6,31.8,71.5,24.2,62.8,24.4z M66.6,57.4c-0.9,0.2-1.9,0.3-2.8,0.3c-6.9,0-13.4-4.6-15.6-10.9
		c-1.7-4.9-0.5-11,2.9-15.6c2.8-3.7,7.2-6,11.7-6.1c0.1,0,0.2,0,0.3,0c8.2,0,15.8,7.2,16.3,15.4C80,48.2,74.1,55.9,66.6,57.4z"/>
	<path d="M63.3,31.9h-0.2c-2.7,0.1-5.2,1.4-6.9,3.6c-2,2.7-2.7,6.2-1.7,9.1c1.3,3.7,5.1,6.4,9.1,6.4c0.6,0,1.1-0.1,1.7-0.2
		c4.4-0.9,7.8-5.3,7.5-9.9C72.5,36.1,68,31.9,63.3,31.9z M65.2,50.1c-0.5,0.1-1,0.2-1.5,0.2c-3.7,0-7.3-2.5-8.4-5.9
		c-0.9-2.6-0.3-5.9,1.6-8.4c1.5-2,3.9-3.2,6.3-3.3h0.2c4.4,0,8.5,3.9,8.8,8.3C72.4,45.1,69.2,49.2,65.2,50.1z"/>
	<path d="M85.3,53.7c-1.4-0.9-3.1-0.7-4.1,0.4c-0.7,0.7-1,1.6-1,2.7s0.7,2.3,1.7,2.9c0.5,0.3,1.1,0.5,1.7,0.5l0,0
		c1.2,0,2.4-0.7,3-1.8C87.4,56.9,86.8,54.7,85.3,53.7z M85.9,58.1c-0.5,0.9-1.4,1.4-2.3,1.4l0,0c-0.5,0-0.9-0.1-1.3-0.4
		c-0.8-0.5-1.3-1.4-1.4-2.3c0-0.8,0.2-1.6,0.8-2.1c0.5-0.5,1.1-0.8,1.8-0.8c0.5,0,1,0.2,1.5,0.4C86.1,55.1,86.6,56.9,85.9,58.1z"/>
	<path d="M40.3,20.5c1.2,0.2,2.3,0.2,3.5,0.3c1.3,0.1,2.8,0.2,4.1-0.1c0.5-0.1,0.5-0.9,0-1c-1.2-0.2-2.4,0-3.5,0
		c-1.3,0.1-2.6,0-4,0.2C40.1,19.9,40,20.5,40.3,20.5z"/>
	<path d="M50.2,20.6c0.4,0.1,0.9,0.1,1.3,0.1c0.4,0,0.8,0.1,1.2-0.2c0.3-0.1,0.3-0.5,0-0.7c-0.4-0.2-0.8-0.2-1.2-0.2s-0.9,0-1.3,0.1
		C49.9,20,49.9,20.5,50.2,20.6z"/>
	<path d="M11.6,18.7c-0.8,2.5-1,5.6-0.6,8.1c0.1,0.5,0.8,0.3,0.9-0.1c0.2-2.6,0.3-5.3,0.3-7.9C12.2,18.5,11.7,18.4,11.6,18.7z"/>
	<path d="M11.3,29.2c-0.4,0.4-0.3,0.9-0.4,1.4c-0.1,0.7-0.1,1.3,0,2c0.1,0.5,0.8,0.6,0.9,0.1c0.1-0.6,0.2-1.2,0.2-1.8
		s0.1-1.2-0.3-1.7C11.5,29.1,11.4,29.1,11.3,29.2z"/>
	<path d="M56.8,12.7c-0.3,0.1-0.6,0.2-1,0.2c-0.2,0-0.3,0-0.5,0.1c-0.1,0-0.1,0-0.2,0C55,13,55,13,55,13c-0.1-0.1-0.4-0.2-0.6-0.1
		l0,0c-0.2,0.1-0.3,0.3-0.3,0.4c0.1,1.3,2.2,0.5,2.9,0.3C57.6,13.4,57.4,12.5,56.8,12.7z"/>
	<path d="M60.9,12.7c-0.2,0-0.3-0.1-0.5-0.1c-0.3-0.1-0.7,0.1-0.7,0.5s0.3,0.6,0.7,0.5c0.2,0,0.3-0.1,0.5-0.1
		C61.3,13.5,61.3,12.8,60.9,12.7z"/>
	<path d="M23.2,13.1c-0.6,0-1.2-0.1-1.8,0c-0.3,0-0.5,0.1-0.8,0.1c-0.2,0-0.4,0.1-0.6,0.1h-0.1c-0.3,0.2-0.1,0.5,0.2,0.6
		c1.1,0.1,2.1,0,3.2-0.2C23.6,13.6,23.5,13.1,23.2,13.1z"/>
	<path d="M36.4,13.4c-0.3,0.1-0.7,0.1-1.1,0.2c-0.4,0.1-0.8,0.1-1.1,0.3c-0.2,0.1-0.2,0.5,0,0.6c0.7,0.4,1.8,0,2.5-0.4
		C37.1,13.8,36.8,13.3,36.4,13.4z"/>
	<path d="M82.1,29.2c0.7-0.6,1.3-1.4,1.9-2.1c0.6-0.7,1.1-1.4,1.5-2.2c0.1-0.3-0.2-0.7-0.5-0.4c-0.7,0.6-1.2,1.4-1.8,2.2
		c-0.5,0.7-1.1,1.3-1.6,2.1C81.3,29.1,81.8,29.4,82.1,29.2z"/>
	<path d="M87.2,20.5c-0.4,0.4-0.8,0.9-1,1.5c-0.1,0.4,0.4,0.8,0.8,0.4c0.4-0.4,0.7-1,0.8-1.5C87.9,20.5,87.5,20.3,87.2,20.5z"/>
	<path d="M41.4,52.7c-0.4,0.1-0.9,0.2-1.2,0.4c-0.5,0.3-0.2,1.1,0.4,0.9c0.4-0.1,0.8-0.3,1.2-0.6C42.1,53.2,41.9,52.6,41.4,52.7z"/>
	<path d="M27.8,48.6c-3.8,0.4-7.4,0.9-11.2,0.7c-0.5,0-0.5,0.7,0,0.8c3.8,0.4,7.7,0.4,11.3-0.8C28.3,49.2,28.2,48.6,27.8,48.6z"/>
	<path d="M32.6,47.1c-0.8,0.1-1.6,0.4-2.3,0.7c-0.6,0.3-0.4,1.3,0.3,1.1c0.4-0.2,0.8-0.3,1.3-0.5c0.4-0.2,0.7-0.4,1.1-0.6
		C33.1,47.6,32.9,47.1,32.6,47.1z"/>
	<path d="M58.9,28.3c0.8,0,0.8-1.3,0-1.2c-3.1,0.1-5.8,3.4-7.2,5.9c-0.2,0.4,0.3,0.8,0.6,0.5C54.3,31.7,56.2,28.4,58.9,28.3z"/>
	<path d="M50.7,34.8c-0.6,0.6-1.2,1.5-1.1,2.3c0,0.2,0.4,0.3,0.5,0.1c0.3-0.3,0.4-0.5,0.6-0.9c0.2-0.4,0.4-0.8,0.6-1.2
		C51.4,34.9,51,34.5,50.7,34.8z"/>
	<path d="M62.4,33.5C60,33.6,58,36.1,57,38c-0.2,0.3,0.2,0.6,0.5,0.4c1.4-1.3,2.9-3.8,5-3.9C63,34.4,63,33.5,62.4,33.5z"/>
	<path d="M56.1,39.4c-0.4,0.5-0.9,1.1-0.8,1.8c0,0.2,0.3,0.2,0.4,0.1c0.2-0.2,0.3-0.4,0.4-0.7c0.1-0.3,0.3-0.6,0.4-0.9
		C56.7,39.5,56.4,39.2,56.1,39.4z"/>
	<path d="M50,28.6c1.3-1.6,3.3-2.5,4.9-3.8c0.3-0.2-0.1-0.6-0.4-0.5c-1.8,0.8-4.3,2-5,4C49.4,28.5,49.8,28.8,50,28.6z"/>
	<path d="M56.5,24.3c0.2-0.1,0.4-0.2,0.6-0.2c0.2-0.1,0.4-0.2,0.6-0.4c0.2-0.1,0.1-0.5-0.2-0.4c-0.2,0-0.4,0.1-0.6,0.1
		c-0.2,0.1-0.4,0.2-0.6,0.2c-0.2,0.1-0.3,0.2-0.2,0.4C56.2,24.2,56.4,24.4,56.5,24.3z"/>
</g>
<line class="st6" x1="57" y1="11.3" x2="63.8" y2="11.2"/>
<polygon class="st0" points="48.3,16.8 52.8,11.4 74.1,11.2 79.4,17 48.1,17.6 "/>
<path class="st7" d="M46.7,6.7"/>
</svg>
